<?xml version="1.0" encoding="UTF-8"?>
<svg width="18px" height="20px" viewBox="0 0 18 20" version="1.1" xmlns="http://www.w3.org/2000/svg" xmlns:xlink="http://www.w3.org/1999/xlink">
    <title>Shape</title>
    <g id="Symbols" stroke="none" stroke-width="1" fill="none" fill-rule="evenodd">
        <g id="NAVBAR_DEROULE_002_OPERATIONS_03_GESTION_BENEFICIAIRES" transform="translate(-26.000000, -196.000000)" fill="#FFFFFF" fill-rule="nonzero">
            <g id="Group-17" transform="translate(10.000000, 70.000000)">
                <g id="Group-15" transform="translate(0.000000, 110.000000)">
                    <path d="M21.9920569,16 C21.4500569,16 21.009635,16.4404219 21.009635,16.9824219 L21.009635,21.3730469 C21.009635,21.9270469 21.6781819,22.2045 22.0701819,21.8125 L23.740104,20.1445312 L32.302604,28.707031 C32.5534206,28.9682718 32.925871,29.0735066 33.2763131,28.9821498 C33.6267552,28.890793 33.900428,28.6171201 33.9917849,28.2666781 C34.0831417,27.916236 33.9779068,27.5437856 33.716666,27.292969 L25.154166,18.7304688 L26.827994,17.0546875 C27.216994,16.6656875 26.941494,16 26.390494,16 L21.9920569,16 Z M16.9998694,22.9902344 C16.5929464,22.9902344 16.2266606,23.2369899 16.0735386,23.6140045 C15.9204166,23.9910191 16.0109926,24.423219 16.3026038,24.707031 L24.865104,33.269531 L23.197135,34.939453 C22.806135,35.331453 23.082588,36 23.636588,36 L28.027213,36 C28.569213,36 29.009635,35.559578 29.009635,35.017578 L29.009635,30.619141 C29.009635,30.068141 28.342994,29.792641 27.952994,30.181641 L26.279166,31.855469 L17.7166662,23.2929688 C17.5283952,23.0994361 17.2698711,22.9902344 16.9998694,22.9902344 Z" id="Shape"></path>
                </g>
            </g>
        </g>
    </g>
</svg>