<?xml version="1.0" encoding="UTF-8"?>
<svg width="28px" height="16px" viewBox="0 0 28 16" version="1.1" xmlns="http://www.w3.org/2000/svg" xmlns:xlink="http://www.w3.org/1999/xlink">
    <title>Combined Shape</title>
    <g id="Symbols" stroke="none" stroke-width="1" fill="none" fill-rule="evenodd" opacity="0.6">
        <g id="NAVBAR_DEROULE_002_OPERATIONS_01_VIREMENTS" transform="translate(-21.000000, -799.000000)" fill="#FFFFFF" fill-rule="nonzero">
            <g id="Group-17" transform="translate(10.000000, 70.000000)">
                <g id="Group-15" transform="translate(0.000000, 712.000000)">
                    <path d="M36.2,17 C37.747,17 39,17.895 39,19 L39,19 L39,31 C39,32.105 37.747,33 36.2,33 L36.2,33 L13.8,33 C12.253,33 11,32.105 11,31 L11,31 L11,19 C11,17.895 12.253,17 13.8,17 L13.8,17 Z M25,21.6278409 C24.3371212,21.6278409 23.7387547,21.7704782 23.2049006,22.0557528 C22.6710464,22.3410275 22.2472775,22.7612453 21.9335937,23.3164063 C21.61991,23.8715672 21.4630682,24.5539773 21.4630682,25.3636364 C21.4630682,26.1685606 21.61991,26.8486032 21.9335937,27.4037642 C22.2472775,27.9589252 22.6710464,28.3803267 23.2049006,28.6679688 C23.7387547,28.9556108 24.3371212,29.0994318 25,29.0994318 C25.6581439,29.0994318 26.2547348,28.9567945 26.7897727,28.6715199 C27.3248106,28.3862453 27.7497633,27.9660275 28.0646307,27.4108665 C28.3794981,26.8557055 28.5369318,26.1732955 28.5369318,25.3636364 C28.5369318,24.5539773 28.3794981,23.8715672 28.0646307,23.3164063 C27.7497633,22.7612453 27.3248106,22.3410275 26.7897727,22.0557528 C26.2547348,21.7704782 25.6581439,21.6278409 25,21.6278409 Z M17.96875,21.7272727 L14.8153409,21.7272727 L14.8153409,29 L18.2386364,29 C18.766572,29 19.2211174,28.9112216 19.6022727,28.7336648 C19.983428,28.556108 20.2775805,28.3122633 20.4847301,28.0021307 C20.6918797,27.6919981 20.7954545,27.3380682 20.7954545,26.9403409 C20.7954545,26.5970644 20.719697,26.2981771 20.5681818,26.043679 C20.4166667,25.7891809 20.2130682,25.5891335 19.9573864,25.4435369 C19.7528409,25.3270597 19.5301136,25.2533854 19.2892045,25.2225142 L19.1051136,25.2073864 L19.1051136,25.1363636 C19.3868371,25.0795455 19.6330492,24.9771544 19.84375,24.8291903 C20.0544508,24.6812263 20.2183949,24.4971591 20.3355824,24.2769886 C20.4527699,24.0568182 20.5113636,23.8129735 20.5113636,23.5454545 C20.5113636,23.1761364 20.4148911,22.8553504 20.221946,22.5830966 C20.0290009,22.3108428 19.7437263,22.100142 19.3661222,21.9509943 C19.0424614,21.8231534 18.6540106,21.7501015 18.2007697,21.7318385 L17.96875,21.7272727 Z M32.5852273,21.7272727 L29.4460227,21.7272727 L29.4460227,29 L31.4204545,29 L31.42,26.6 L32.104,26.6 L33.3806818,29 L35.5255682,29 L34.048,26.288 L34.1408062,26.2425064 C34.418737,26.0944216 34.6495608,25.9016456 34.8332778,25.6641785 L34.9378551,25.5163352 C35.168679,25.1588542 35.2840909,24.719697 35.2840909,24.1988636 C35.2840909,23.6827652 35.1716383,23.2400568 34.946733,22.8707386 C34.7218277,22.5014205 34.4069602,22.2185133 34.0021307,22.022017 C33.6551339,21.8535917 33.2585662,21.7573487 32.8124275,21.7332879 L32.5852273,21.7272727 Z M17.7414773,25.8892045 C17.9427083,25.8892045 18.1149384,25.9199811 18.2581676,25.9815341 C18.4013968,26.0430871 18.5120739,26.1330492 18.5901989,26.2514205 C18.6683239,26.3697917 18.7073864,26.5142045 18.7073864,26.6846591 C18.7073864,26.9285038 18.6245265,27.112571 18.4588068,27.2368608 C18.2930871,27.3611506 18.0445076,27.4232955 17.7130682,27.4232955 L16.7897727,27.4232955 L16.7897727,25.8892045 L17.7414773,25.8892045 Z M25,23.3465909 C25.3267045,23.3465909 25.6019176,23.4241241 25.8256392,23.5791903 C26.0493608,23.7342566 26.2186316,23.9615294 26.3334517,24.2610085 C26.4482718,24.5604877 26.5056818,24.9280303 26.5056818,25.3636364 C26.5056818,25.7992424 26.4482718,26.166785 26.3334517,26.4662642 C26.2186316,26.7657434 26.0493608,26.9930161 25.8256392,27.1480824 C25.6019176,27.3031487 25.3267045,27.3806818 25,27.3806818 C24.6732955,27.3806818 24.3980824,27.3031487 24.1743608,27.1480824 C23.9506392,26.9930161 23.7813684,26.7657434 23.6665483,26.4662642 C23.5517282,26.166785 23.4943182,25.7992424 23.4943182,25.3636364 C23.4943182,24.9280303 23.5517282,24.5604877 23.6665483,24.2610085 C23.7813684,23.9615294 23.9506392,23.7342566 24.1743608,23.5791903 C24.3980824,23.4241241 24.6732955,23.3465909 25,23.3465909 Z M32.1164773,23.3039773 C32.3484848,23.3039773 32.5467566,23.3353456 32.7112926,23.3980824 C32.8758286,23.4608191 33.0024858,23.5578835 33.0912642,23.6892756 C33.1800426,23.8206676 33.2244318,23.9905303 33.2244318,24.1988636 C33.2244318,24.4048295 33.1800426,24.571733 33.0912642,24.6995739 C33.0024858,24.8274148 32.8758286,24.9203362 32.7112926,24.9783381 C32.5878906,25.0218395 32.4455123,25.0490279 32.2841575,25.0599032 L32.1164773,25.0653409 L31.42,25.066 L31.4204545,23.3039773 L32.1164773,23.3039773 Z M17.6278409,23.2755682 C17.874053,23.2755682 18.0776515,23.3353456 18.2386364,23.4549006 C18.3996212,23.5744555 18.4801136,23.7466856 18.4801136,23.9715909 C18.4801136,24.1207386 18.4428267,24.246804 18.3682528,24.3497869 C18.293679,24.4527699 18.1901042,24.5314867 18.0575284,24.5859375 C17.9249527,24.6403883 17.7722538,24.6676136 17.5994318,24.6676136 L16.7897727,24.6676136 L16.7897727,23.2755682 L17.6278409,23.2755682 Z" id="Combined-Shape"></path>
                </g>
            </g>
        </g>
    </g>
</svg>