<svg width="18" height="18" viewBox="0 0 18 18" fill="none" xmlns="http://www.w3.org/2000/svg">
<path d="M16 0H2C0.895 0 0 0.895 0 2V8H8.586L6.993 6.407C6.602 6.016 6.602 5.384 6.993 4.993C7.384 4.602 8.016 4.602 8.407 4.993L11.707 8.293C12.097 8.683 12.097 9.317 11.707 9.707L8.407 13.007C8.212 13.202 7.956 13.3 7.7 13.3C7.444 13.3 7.188 13.202 6.993 13.007C6.602 12.616 6.602 11.984 6.993 11.593L8.586 10H0V16C0 17.105 0.895 18 2 18H16C17.105 18 18 17.105 18 16V2C18 0.895 17.105 0 16 0Z" fill="#A33777"/>
</svg>
