<svg width="21" height="21" xmlns="http://www.w3.org/2000/svg"><path d="M2 0a2 2 0 0 0-2 2v14a2 2 0 0 0 2 2h2.01a.99.99 0 0 0 .99-.99v-.02a.99.99 0 0 0-.99-.99H2V5h14v5.393c0 .44.287.84.713.949.007.002.012.005.02.006.638.165 1.267-.29 1.267-.95V2a2 2 0 0 0-2-2H2Zm2.5 8a.5.5 0 0 0-.5.5v1a.5.5 0 0 0 .5.5h1a.5.5 0 0 0 .5-.5v-1a.5.5 0 0 0-.5-.5h-1Zm4 0a.5.5 0 0 0-.5.5v1a.5.5 0 0 0 .5.5h5a.5.5 0 0 0 .5-.5v-1a.5.5 0 0 0-.5-.5h-5Zm-4 4a.5.5 0 0 0-.5.5v1a.5.5 0 0 0 .5.5h1a.5.5 0 0 0 .5-.5v-1a.5.5 0 0 0-.5-.5h-1Zm9.5 1c-4.146 0-6.218 2.566-6.879 3.588a.76.76 0 0 0 0 .824C7.782 18.434 9.854 21 14 21c4.146 0 6.218-2.566 6.879-3.588a.76.76 0 0 0 0-.824C20.218 15.566 18.146 13 14 13Zm0 2a2 2 0 1 1-.001 4.001A2 2 0 0 1 14 15Z" fill="#FFF" fill-rule="nonzero" opacity=".6"/></svg>