<?xml version="1.0" encoding="UTF-8"?>
<svg width="20px" height="16px" viewBox="0 0 20 16" version="1.1" xmlns="http://www.w3.org/2000/svg" xmlns:xlink="http://www.w3.org/1999/xlink">
    <title>Shape</title>
    <g id="Symbols" stroke="none" stroke-width="1" fill="none" fill-rule="evenodd" opacity="0.6">
        <g id="NAVBAR_DEROULE_002_OPERATIONS_03_GESTION_BENEFICIAIRES" transform="translate(-25.000000, -579.000000)" fill="#FFFFFF" fill-rule="nonzero">
            <g id="Group-17" transform="translate(10.000000, 70.000000)">
                <g id="Group-15" transform="translate(0.000000, 492.000000)">
                    <path d="M33,17 L17,17 C15.895,17 15,17.895 15,19 L15,31 C15,32.105 15.895,33 17,33 L33,33 C34.105,33 35,32.105 35,31 L35,19 C35,17.895 34.105,17 33,17 Z M23,29 L20,29 C19.448,29 19,28.552 19,28 L19,28 C19,27.448 19.448,27 20,27 L23,27 C23.552,27 24,27.448 24,28 L24,28 C24,28.552 23.552,29 23,29 Z M25,24 L20,24 C19.448,24 19,23.552 19,23 L19,23 C19,22.448 19.448,22 20,22 L25,22 C25.552,22 26,22.448 26,23 L26,23 C26,23.552 25.552,24 25,24 Z M29.646,29.146 L28.853,28.353 C28.658,28.158 28.658,27.841 28.853,27.646 L29.646,26.853 C29.841,26.658 30.158,26.658 30.353,26.853 L31.146,27.646 C31.341,27.841 31.341,28.158 31.146,28.353 L30.353,29.146 C30.158,29.342 29.842,29.342 29.646,29.146 Z M29.646,24.146 L28.853,23.353 C28.658,23.158 28.658,22.841 28.853,22.646 L29.646,21.853 C29.841,21.658 30.158,21.658 30.353,21.853 L31.146,22.646 C31.341,22.841 31.341,23.158 31.146,23.353 L30.353,24.146 C30.158,24.342 29.842,24.342 29.646,24.146 Z" id="Shape"></path>
                </g>
            </g>
        </g>
    </g>
</svg>