<?xml version="1.0" encoding="UTF-8"?>
<svg width="21px" height="21px" viewBox="0 0 21 21" version="1.1" xmlns="http://www.w3.org/2000/svg" xmlns:xlink="http://www.w3.org/1999/xlink">
    <title>Shape</title>
    <g id="Symbols" stroke="none" stroke-width="1" fill="none" fill-rule="evenodd" opacity="0.6">
        <g id="NAVBAR_DEROULE_002_OPERATIONS_03_GESTION_BENEFICIAIRES" transform="translate(-24.000000, -631.000000)" fill="#FFFFFF" fill-rule="nonzero">
            <g id="Group-17" transform="translate(10.000000, 70.000000)">
                <g id="Group-15" transform="translate(0.000000, 547.000000)">
                    <path d="M23,14 C21.75,14 20.6852256,14.5047556 20.0019531,15.2734375 C19.3186806,16.0421194 19,17.0277779 19,18 C19,18.9722221 19.3186806,19.9578806 20.0019531,20.7265625 C20.6852256,21.495244 21.75,22 23,22 C24.25,22 25.314774,21.495244 25.998047,20.7265625 C26.681319,19.9578806 27,18.9722221 27,18 C27,17.0277779 26.681319,16.0421194 25.998047,15.2734375 C25.314774,14.5047556 24.25,14 23,14 Z M29.9034091,24.8181818 L30.2472775,24.8257006 C31.1502657,24.8658007 31.941301,25.066301 32.6203835,25.4272017 C33.3843513,25.833215 33.9743134,26.4165483 34.3902699,27.1772017 C34.8062263,27.9378551 35.0142045,28.8484848 35.0142045,29.9090909 C35.0142045,30.969697 34.8070549,31.8803267 34.3927557,32.6409801 C33.9784564,33.4016335 33.3918087,33.9849669 32.6328125,34.3909801 C31.8738163,34.7969934 30.9772727,35 29.9431818,35 L29.9431818,35 L26.0255682,35 L26.0255682,24.8181818 L29.9034091,24.8181818 Z M29.7642045,27.1647727 L28.7897727,27.1647727 L28.7897727,32.6534091 L29.84375,32.6534091 C30.3475379,32.6534091 30.7775805,32.5722064 31.1338778,32.4098011 C31.4901752,32.2473958 31.7619555,31.9673295 31.9492187,31.5696023 C32.136482,31.171875 32.2301136,30.6183712 32.2301136,29.9090909 C32.2301136,29.1998106 32.1348248,28.6463068 31.9442472,28.2485795 C31.7536695,27.8508523 31.4752604,27.570786 31.1090199,27.4083807 C30.7427794,27.2459754 30.2945076,27.1647727 29.7642045,27.1647727 L29.7642045,27.1647727 Z M23,25 L23,32 L16,32 C14.9069372,32 14,31.093063 14,30 L14,30 L14,29.5 C14,28.599384 14.5373351,27.892231 15.1660156,27.369141 C15.7946961,26.84605 16.5802462,26.438663 17.4492188,26.095703 C19.1871638,25.409783 21.255047,25 23,25 L23,25 Z" id="Shape"></path>
                </g>
            </g>
        </g>
    </g>
</svg>