<?xml version="1.0" encoding="UTF-8"?>
<svg width="20px" height="21px" viewBox="0 0 20 21" version="1.1" xmlns="http://www.w3.org/2000/svg" xmlns:xlink="http://www.w3.org/1999/xlink">
    <title>Group 27</title>
    <g id="Symbols" stroke="none" stroke-width="1" fill="none" fill-rule="evenodd" opacity="0.6">
        <g id="NAVBAR_DEROULE_002_OPERATIONS_03_GESTION_BENEFICIAIRES" transform="translate(-25.000000, -84.000000)" fill="#FFFFFF" fill-rule="nonzero">
            <g id="Group-17" transform="translate(10.000000, 70.000000)">
                <g id="Group-25" transform="translate(15.000000, 14.000000)">
                    <path d="M11.708818,0 C11.318818,0 11.00374,0.316078099 11.00374,0.705078098 L11.00374,8.87890617 C11.00374,9.50790597 11.762865,9.82195297 12.206865,9.37695297 L17.986162,3.59765619 C18.262162,3.32265629 18.262162,2.87460939 17.986162,2.59960939 L17.984209,2.59765619 C16.319209,0.934656197 14.062818,0 11.708818,0 Z M9.00374004,1.0507812 C6.76074025,1.2727812 4.73942785,2.23931249 3.18342786,3.69531249 C0.876427867,5.84831248 -0.416072129,9.07326597 0.120927869,12.572266 C0.789927867,16.9282659 4.38850595,20.3967809 8.76350604,20.9257809 C13.702506,21.5217809 18.039209,18.4894839 19.484209,14.146484 C19.504209,14.086484 19.530662,14.031656 19.548662,13.972656 C19.604662,13.792656 19.64524,13.604922 19.69124,13.419922 C19.72524,13.283922 19.767709,13.151672 19.796709,13.013672 C19.836709,12.819672 19.858553,12.620828 19.886553,12.423828 C19.905553,12.289828 19.9331,12.157484 19.9471,12.021484 C19.9811,11.685484 19.999834,11.345 19.999834,11 C19.999834,9.11399997 19.467381,7.35656247 18.560381,5.85156248 L18.542803,5.86914058 L17.095537,7.31835937 L12.29085,12.121094 C11.96785,12.444094 11.96785,12.968016 12.29085,13.291016 L14.921709,15.9218749 C15.332709,16.3328749 15.297772,17.0190939 14.835772,17.3710939 C13.490772,18.3920939 11.814834,18.9999999 9.99983403,18.9999999 C5.96083405,18.9999999 2.61005276,15.9907029 2.07405286,12.095703 C1.99405276,11.517703 2.45294346,11 3.03694346,11 L8.17756804,11 C8.63356804,11 9.00374004,10.629828 9.00374004,10.173828 L9.00374004,3.06835939 L9.00374004,1.0507812 Z" id="Shape"></path>
                </g>
            </g>
        </g>
    </g>
</svg>