<?xml version="1.0" encoding="UTF-8"?>
<svg width="18px" height="18px" viewBox="0 0 18 18" version="1.1" xmlns="http://www.w3.org/2000/svg" xmlns:xlink="http://www.w3.org/1999/xlink">
    <title>Shape</title>
    <g id="Symbols" stroke="none" stroke-width="1" fill="none" fill-rule="evenodd">
        <g id="NAVBAR_DEROULE_002_OPERATIONS_01_VIREMENTS" transform="translate(-73.000000, -1249.000000)" fill="#FFFFFF" fill-rule="nonzero">
            <g id="Group-14" transform="translate(10.000000, 1238.000000)">
                <path d="M65,11 C63.9069372,11 63,11.9069372 63,13 L63,27 C63,28.093063 63.9069372,29 65,29 L79,29 C80.093063,29 81,28.093063 81,27 L81,13 C81,11.9069372 80.093063,11 79,11 L65,11 Z M65,13 L74,13 L74,19 L71,19 L71,17.5996094 C71,17.2756094 70.805859,16.9843281 70.505859,16.8613281 C70.205859,16.7373281 69.8637656,16.8061563 69.6347656,17.0351562 L67.234375,19.435547 C66.922375,19.747547 66.922375,20.254406 67.234375,20.566406 L69.6347656,22.966797 C69.7887656,23.119797 69.9912187,23.199219 70.199219,23.199219 C70.302219,23.199219 70.406859,23.179672 70.505859,23.138672 C70.804859,23.014672 71,22.723391 71,22.400391 L71,21 L74,21 L74,27 L65,27 L65,13 Z" id="Shape"></path>
            </g>
        </g>
    </g>
</svg>