<?xml version="1.0" encoding="UTF-8"?>
<svg width="24px" height="16px" viewBox="0 0 24 16" version="1.1" xmlns="http://www.w3.org/2000/svg" xmlns:xlink="http://www.w3.org/1999/xlink">
    <title>Combined Shape</title>
    <g id="Symbols" stroke="none" stroke-width="1" fill="none" fill-rule="evenodd" opacity="0.6">
        <g id="NAVBAR_DEROULE_002_OPERATIONS_03_GESTION_BENEFICIAIRES" transform="translate(-23.000000, -744.000000)" fill="#FFFFFF" fill-rule="nonzero">
            <g id="Group-17" transform="translate(10.000000, 70.000000)">
                <g id="Group-15" transform="translate(0.000000, 657.000000)">
                    <path d="M34.6,17 C35.926,17 37,17.895 37,19 L37,19 L37,31 C37,32.105 35.926,33 34.6,33 L34.6,33 L15.4,33 C14.074,33 13,32.105 13,31 L13,31 L13,19 C13,17.895 14.074,17 15.4,17 L15.4,17 Z M20.4758523,21.7272727 L17.3366477,21.7272727 L17.3366477,29 L19.3110795,29 L19.311,26.6 L19.994,26.6 L21.2713068,29 L23.4161932,29 L21.939,26.288 L22.0314312,26.2425064 C22.309362,26.0944216 22.5401858,25.9016456 22.7239028,25.6641785 L22.8284801,25.5163352 C23.059304,25.1588542 23.1747159,24.719697 23.1747159,24.1988636 C23.1747159,23.6827652 23.0622633,23.2400568 22.837358,22.8707386 C22.6124527,22.5014205 22.2975852,22.2185133 21.8927557,22.022017 C21.5457589,21.8535917 21.1491912,21.7573487 20.7030525,21.7332879 L20.4758523,21.7272727 Z M25.9872159,21.7272727 L24.0127841,21.7272727 L24.0127841,29 L25.9872159,29 L25.9872159,21.7272727 Z M30.078125,21.7272727 L26.9247159,21.7272727 L26.9247159,29 L30.3480114,29 C30.875947,29 31.3304924,28.9112216 31.7116477,28.7336648 C32.092803,28.556108 32.3869555,28.3122633 32.5941051,28.0021307 C32.8012547,27.6919981 32.9048295,27.3380682 32.9048295,26.9403409 C32.9048295,26.5970644 32.829072,26.2981771 32.6775568,26.043679 C32.5260417,25.7891809 32.3224432,25.5891335 32.0667614,25.4435369 C31.8622159,25.3270597 31.6394886,25.2533854 31.3985795,25.2225142 L31.2144886,25.2073864 L31.2144886,25.1363636 C31.4962121,25.0795455 31.7424242,24.9771544 31.953125,24.8291903 C32.1638258,24.6812263 32.3277699,24.4971591 32.4449574,24.2769886 C32.5621449,24.0568182 32.6207386,23.8129735 32.6207386,23.5454545 C32.6207386,23.1761364 32.5242661,22.8553504 32.331321,22.5830966 C32.1383759,22.3108428 31.8531013,22.100142 31.4754972,21.9509943 C31.1518364,21.8231534 30.7633856,21.7501015 30.3101447,21.7318385 L30.078125,21.7272727 Z M29.8508523,25.8892045 C30.0520833,25.8892045 30.2243134,25.9199811 30.3675426,25.9815341 C30.5107718,26.0430871 30.6214489,26.1330492 30.6995739,26.2514205 C30.7776989,26.3697917 30.8167614,26.5142045 30.8167614,26.6846591 C30.8167614,26.9285038 30.7339015,27.112571 30.5681818,27.2368608 C30.4024621,27.3611506 30.1538826,27.4232955 29.8224432,27.4232955 L28.8991477,27.4232955 L28.8991477,25.8892045 L29.8508523,25.8892045 Z M20.0071023,23.3039773 C20.2391098,23.3039773 20.4373816,23.3353456 20.6019176,23.3980824 C20.7664536,23.4608191 20.8931108,23.5578835 20.9818892,23.6892756 C21.0706676,23.8206676 21.1150568,23.9905303 21.1150568,24.1988636 C21.1150568,24.4048295 21.0706676,24.571733 20.9818892,24.6995739 C20.8931108,24.8274148 20.7664536,24.9203362 20.6019176,24.9783381 C20.4785156,25.0218395 20.3361373,25.0490279 20.1747825,25.0599032 L20.0071023,25.0653409 L19.311,25.066 L19.3110795,23.3039773 L20.0071023,23.3039773 Z M29.7372159,23.2755682 C29.983428,23.2755682 30.1870265,23.3353456 30.3480114,23.4549006 C30.5089962,23.5744555 30.5894886,23.7466856 30.5894886,23.9715909 C30.5894886,24.1207386 30.5522017,24.246804 30.4776278,24.3497869 C30.403054,24.4527699 30.2994792,24.5314867 30.1669034,24.5859375 C30.0343277,24.6403883 29.8816288,24.6676136 29.7088068,24.6676136 L28.8991477,24.6676136 L28.8991477,23.2755682 L29.7372159,23.2755682 Z" id="Combined-Shape"></path>
                </g>
            </g>
        </g>
    </g>
</svg>