<svg width="14" height="14" viewBox="0 0 14 14" fill="none" xmlns="http://www.w3.org/2000/svg">
<path fill-rule="evenodd" clip-rule="evenodd" d="M0 6.36543C0 2.91672 2.91672 0 6.36543 0C9.92741 0 12.7259 2.7997 12.7259 6.36295C12.7259 7.63554 12.3431 8.90912 11.7068 9.92719L13.6306 11.8485C14.1231 12.341 14.1231 13.1381 13.6306 13.6306C13.1381 14.1231 12.341 14.1231 11.8485 13.6306L9.92719 11.7068C8.90912 12.3431 7.63554 12.7259 6.36295 12.7259C2.7997 12.7259 0 9.92741 0 6.36543ZM10.1807 6.36295C10.1807 4.19955 8.52635 2.54518 6.36295 2.54518C4.19955 2.54518 2.54518 4.19955 2.54518 6.36295C2.54518 8.52635 4.19955 10.1807 6.36295 10.1807C8.52635 10.1807 10.1807 8.52635 10.1807 6.36295Z" fill="#2E2E2E"/>
</svg>
