<?xml version="1.0" encoding="UTF-8"?>
<svg width="19px" height="18px" viewBox="0 0 19 18" version="1.1" xmlns="http://www.w3.org/2000/svg" xmlns:xlink="http://www.w3.org/1999/xlink">
    <title>Shape</title>
    <g id="Symbols" stroke="none" stroke-width="1" fill="none" fill-rule="evenodd" opacity="0.6">
        <g id="NAVBAR_DEROULE_002_OPERATIONS_03_GESTION_BENEFICIAIRES" transform="translate(-25.000000, -523.000000)" fill="#FFFFFF" fill-rule="nonzero">
            <g id="Group-17" transform="translate(10.000000, 70.000000)">
                <g id="Group-15" transform="translate(0.000000, 437.000000)">
                    <path d="M26.0195308,16 C25.9967289,16 25.9739292,16.0005388 25.9511718,16.001969 C24.5418358,16.0882051 21.9799307,16.3450407 19.6542969,17.1718909 C18.49148,17.585316 17.3770722,18.1383424 16.5,18.9590003 C15.622928,19.7796581 15,20.9303573 15,22.2754065 C15,23.8324259 15.7229488,24.8435009 16.2460938,25.4550939 C16.7692388,26.0666869 17.0117188,26.2367989 17.0117188,27.0000159 C17.0117188,27.3237829 16.7061663,27.8480919 16.203125,28.5410319 C15.7000838,29.2339709 15.0117188,30.1024729 15.0117188,31.3222819 C15.0117188,33.0881779 16.5957032,33.9082189 16.5957032,33.9082189 C16.9232072,34.0776795 17.3173905,34.0531736 17.6213834,33.8444535 C17.9253764,33.6357335 18.089852,33.276667 18.0493554,32.9101485 C18.0088589,32.54363 17.7699612,32.2291322 17.4277344,32.0918129 C17.4277344,32.0918129 17.0117188,31.9943849 17.0117188,31.3222819 C17.0117188,30.9290899 17.3233538,30.3994199 17.8203126,29.7148599 C18.3172713,29.0302989 19.0117188,28.1992489 19.0117188,27.0000159 C19.0117188,25.6132329 18.2479801,24.7201729 17.765625,24.1562659 C17.28327,23.5923589 17,23.3163879 17,22.2754065 C17,21.5054558 17.2911034,20.9589674 17.8671876,20.4199378 C18.4432715,19.8809081 19.3234107,19.4124814 20.3242188,19.0566565 C22.3258348,18.3450067 24.7686028,18.0778298 26.0722658,17.9980628 C26.6086345,17.9633855 27.0216751,17.510961 27.0074939,16.9736597 C26.9933128,16.4363583 26.556982,16.0063515 26.0195308,16 Z M31.3691408,20.0000159 C31.1480158,20.0000159 30.9263128,20.0849221 30.7578128,20.2539221 L29.5117188,21.5000159 L32.5117188,24.5000159 L33.7578128,23.2539219 C34.0948128,22.9159222 34.0948128,22.3682659 33.7578128,22.0312659 L31.9804688,20.2539221 C31.8114688,20.0849221 31.5902658,20.0000159 31.3691408,20.0000159 Z M28.0976568,22.9140784 L20.3046876,30.7070469 C20.1166876,30.8950469 20.0117188,31.1490779 20.0117188,31.4140784 L20.0117188,33.4375159 C20.0117188,33.7485159 20.2632188,34.0000159 20.5742188,34.0000159 L22.5976568,34.0000159 C22.8626568,34.0000159 23.1176878,33.8950469 23.3046878,33.7070469 L31.0976568,25.9140784 L28.0976568,22.9140784 Z" id="Shape"></path>
                </g>
            </g>
        </g>
    </g>
</svg>