<svg xmlns="http://www.w3.org/2000/svg">
  <symbol id="delubac-logo" viewBox="0 0 31 31">
    <path d="M15.405 14.348c-.832 1.74-1.467 3.324-1.89 4.993-.123.484-.07.905.141 1.352.51 1.084.895 2.215 1.18 3.38.159.65.339 1.295.51 1.942.57-2.007 1.145-3.94 1.993-5.785.06-.13.06-.311.032-.458-.358-1.843-1.071-3.556-1.966-5.424M28.223.458c-.56.357-1.125.707-1.678 1.075-4.22 2.799-7.517 6.456-10.073 10.808-.223.38-.236.66.006 1.054.86 1.394 1.503 2.894 1.972 4.492.098-.05.19-.066.223-.119 2.568-4.18 6.462-6.754 10.734-8.87.373-.185.759-.34 1.138-.511.141-.064.312-.17.402.022.08.172-.096.285-.22.36-.2.118-.422.198-.632.299-3.833 1.847-7.038 4.458-9.791 7.709-1.521 1.796-1.41 3.652-.906 5.696.447 1.812.873 3.633 1.142 5.455.545-.5 1.087-.997 1.627-1.495 2.08-1.914 4.508-3.145 7.284-3.67.384-.073 1.063-.267 1.126.094.076.437-.605.382-.976.49-2.625.761-4.719 2.37-6.674 4.192-.78.727-1.55 1.47-2.151 2.36-.182.27-.394.368-.71.367a972.935 972.935 0 0 0-9.29.006c-.45.004-.628-.257-.862-.541-1.94-2.354-4.19-4.333-6.932-5.716-.75-.378-1.546-.604-2.354-.808-.183-.046-.492-.067-.443-.337.047-.26.338-.19.531-.17 1.953.184 3.734.875 5.412 1.858 1.532.897 2.842 2.064 4.063 3.487.43-1.997.84-3.885 1.24-5.774.097-.457.117-.936.26-1.376.426-1.3.01-2.382-.738-3.43-2.12-2.974-4.832-5.29-7.946-7.15-.878-.524-1.812-.953-2.72-1.426-.168-.088-.457-.132-.308-.404.134-.246.352.012.462.062 4.667 2.106 8.946 4.71 11.703 9.236.025.04.08.062.205.152.391-1.306.775-2.619 1.541-3.698.774-1.09.524-1.881-.132-2.897C10.946 6.984 7.442 3.358 2.96.71 2.837.638 2.656.602 2.628.297c.449-.1.82.12 1.174.321 1.705.97 3.22 2.203 4.692 3.484 2.4 2.09 4.614 4.363 6.461 6.965.38.533.534.497.907-.007A42.027 42.027 0 0 1 26.614.85c.468-.308.95-.62 1.609-.393" fill="currentColor" fill-rule="evenodd" />
  </symbol>

  <symbol id="angle-down" viewBox="0 0 12 8">
    <path d="m.703 2.98 4.33 4.33c.53.507 1.366.507 1.896 0l4.33-4.33a1.341 1.341 0 0 0-1.897-1.897l-3.38 3.381L2.6 1.083A1.341 1.341 0 1 0 .703 2.98Z" fill="currentColor" />
  </symbol>

  <symbol id="pie-chart" viewBox="0 0 20 21">
    <path d="M11.709 0a.705.705 0 0 0-.705.705V8.88c0 .629.759.943 1.203.498l5.78-5.78a.705.705 0 0 0 0-.997l-.003-.002A8.88 8.88 0 0 0 11.71 0ZM9.004 1.05a9.94 9.94 0 0 0-5.82 2.645A9.978 9.978 0 0 0 .12 12.572c.669 4.356 4.268 7.825 8.643 8.354 4.939.596 9.275-2.437 10.72-6.78.02-.06.047-.114.065-.173.056-.18.096-.368.142-.553.034-.136.077-.268.106-.406.04-.194.062-.393.09-.59.019-.134.046-.267.06-.403a9.94 9.94 0 0 0-1.387-6.17l-.017.018-1.447 1.45-4.805 4.802a.827.827 0 0 0 0 1.17l2.63 2.63a.967.967 0 0 1-.085 1.45A7.974 7.974 0 0 1 10 19c-4.04 0-7.39-3.01-7.926-6.904A.97.97 0 0 1 3.037 11h5.14c.457 0 .827-.37.827-.826V1.05Z" fill="currentColor" fill-rule="nonzero" />
  </symbol>

  <symbol id="consult" viewBox="0 0 21 21">
    <path d="M2 0a2 2 0 0 0-2 2v14a2 2 0 0 0 2 2h2.01a.99.99 0 0 0 .99-.99v-.02a.99.99 0 0 0-.99-.99H2V5h14v5.393c0 .44.287.84.713.949.007.002.012.005.02.006.638.165 1.267-.29 1.267-.95V2a2 2 0 0 0-2-2H2Zm2.5 8a.5.5 0 0 0-.5.5v1a.5.5 0 0 0 .5.5h1a.5.5 0 0 0 .5-.5v-1a.5.5 0 0 0-.5-.5h-1Zm4 0a.5.5 0 0 0-.5.5v1a.5.5 0 0 0 .5.5h5a.5.5 0 0 0 .5-.5v-1a.5.5 0 0 0-.5-.5h-5Zm-4 4a.5.5 0 0 0-.5.5v1a.5.5 0 0 0 .5.5h1a.5.5 0 0 0 .5-.5v-1a.5.5 0 0 0-.5-.5h-1Zm9.5 1c-4.146 0-6.218 2.566-6.879 3.588a.76.76 0 0 0 0 .824C7.782 18.434 9.854 21 14 21c4.146 0 6.218-2.566 6.879-3.588a.76.76 0 0 0 0-.824C20.218 15.566 18.146 13 14 13Zm0 2a2 2 0 1 1-.001 4.001A2 2 0 0 1 14 15Z" fill="currentColor" fill-rule="nonzero" />
  </symbol>

  <symbol id="credit-card" viewBox="0 0 20 16">
    <path d="M18 0H2a2 2 0 0 0-2 2v12a2 2 0 0 0 2 2h16a2 2 0 0 0 2-2V2a2 2 0 0 0-2-2ZM8 12H5a1 1 0 0 1 0-2h3a1 1 0 0 1 0 2Zm2-5H5a1 1 0 0 1 0-2h5a1 1 0 0 1 0 2Zm4.646 5.146-.793-.793a.5.5 0 0 1 0-.707l.793-.793a.5.5 0 0 1 .707 0l.793.793a.5.5 0 0 1 0 .707l-.793.793a.499.499 0 0 1-.707 0Zm0-5-.793-.793a.5.5 0 0 1 0-.707l.793-.793a.5.5 0 0 1 .707 0l.793.793a.5.5 0 0 1 0 .707l-.793.793a.499.499 0 0 1-.707 0Z" fill="currentColor" fill-rule="nonzero" />
  </symbol>

  <symbol id="delegations" viewBox="0 0 21 21">
    <path d="M9 0C7.75 0 6.685.505 6.002 1.273 5.319 2.043 5 3.028 5 4s.319 1.958 1.002 2.727C6.685 7.495 7.75 8 9 8c1.25 0 2.315-.505 2.998-1.273C12.681 5.957 13 4.972 13 4s-.319-1.958-1.002-2.727C11.315.505 10.25 0 9 0Zm6.903 10.818.344.008c.903.04 1.694.24 2.373.601a4.25 4.25 0 0 1 1.77 1.75c.416.76.624 1.671.624 2.732 0 1.06-.207 1.971-.621 2.732-.415.76-1.001 1.344-1.76 1.75-.76.406-1.656.609-2.69.609h-3.917V10.818h3.877Zm-.139 2.347h-.974v5.488h1.054c.504 0 .934-.08 1.29-.243.356-.163.628-.443.815-.84.187-.398.281-.952.281-1.66 0-.71-.095-1.264-.286-1.661-.19-.398-.469-.678-.835-.84-.366-.163-.814-.244-1.345-.244ZM9 11v7H2c-1.093 0-2-.907-2-2v-.5c0-.9.537-1.608 1.166-2.13.629-.524 1.414-.931 2.283-1.274C5.187 11.41 7.255 11 9 11Z" fill="currentColor" fill-rule="nonzero" />
  </symbol>

  <symbol id="e-docs" viewBox="0 0 19 22">
    <path d="M2 0C.9 0 0 .9 0 2v13a1 1 0 0 0 2 0V2h11a1 1 0 0 0 0-2H2Zm4 4c-1.1 0-2 .9-2 2v14c0 1.1.9 2 2 2h11c1.1 0 2-.9 2-2V9.828a2 2 0 0 0-.586-1.414l-3.828-3.828A2 2 0 0 0 13.172 4H6Zm3 8h5a1 1 0 0 1 0 2H9a1 1 0 0 1 0-2Zm0 4h5a1 1 0 0 1 0 2H9a1 1 0 0 1 0-2Z" fill="currentColor" fill-rule="nonzero" />
  </symbol>

  <symbol id="rib" viewBox="0 0 24 16">
    <path d="M21.6 0c1.326 0 2.4.895 2.4 2v12c0 1.105-1.074 2-2.4 2H2.4C1.074 16 0 15.105 0 14V2C0 .895 1.074 0 2.4 0ZM7.476 4.727h-3.14V12h1.975V9.6h.683L8.271 12h2.145L8.94 9.288l.092-.045c.278-.149.51-.341.693-.579l.104-.148c.231-.357.347-.796.347-1.317 0-.516-.113-.959-.338-1.328a2.207 2.207 0 0 0-.944-.849 3.079 3.079 0 0 0-1.19-.289l-.227-.006Zm5.511 0h-1.974V12h1.974V4.727Zm4.091 0h-3.153V12h3.423c.528 0 .982-.089 1.364-.266.38-.178.675-.422.882-.732.207-.31.31-.664.31-1.062a1.72 1.72 0 0 0-.226-.896 1.65 1.65 0 0 0-.611-.6 1.798 1.798 0 0 0-.668-.221l-.185-.016v-.07c.282-.057.528-.16.74-.308a1.532 1.532 0 0 0 .668-1.284c-.001-.369-.098-.69-.29-.962-.194-.272-.479-.483-.857-.632-.323-.128-.712-.2-1.165-.22l-.232-.004Zm-.227 4.162c.201 0 .373.031.517.093a.732.732 0 0 1 .332.27.77.77 0 0 1 .117.433c0 .244-.083.428-.249.552-.166.124-.414.186-.746.186H15.9V8.89h.952ZM7.007 6.304c.232 0 .43.031.595.094.164.063.291.16.38.291a.893.893 0 0 1 .133.51.86.86 0 0 1-.133.5.75.75 0 0 1-.38.28c-.123.043-.266.07-.427.08l-.168.006-.696.001V6.304h.696Zm9.73-.028c.246 0 .45.06.611.179.161.12.241.292.241.517 0 .149-.037.275-.111.378a.702.702 0 0 1-.311.236 1.198 1.198 0 0 1-.458.082h-.81V6.276h.838Z" fill="currentColor" fill-rule="nonzero" />
  </symbol>

  <symbol id="signature" viewBox="0 0 20 20">
    <path d="M22.936 6.23h-1.384a.692.692 0 0 0-.693.693v9.692c0 .382.31.692.693.692h1.384c.383 0 .693-.31.693-.692V6.923a.692.692 0 0 0-.693-.693ZM12.35.285l-1.222 1.68 2.24 1.628 1.221-1.68a.692.692 0 0 0-.153-.967l-1.12-.814a.692.692 0 0 0-.967.153ZM4.958 5.029a2.072 2.072 0 0 0-.926.792L.217 11.828a2.076 2.076 0 0 0 .493 2.484c.071-.188.14-.557.413-.93l6.964-9.585c-.165.017-.33.033-.495.088L4.958 5.03ZM10.383 16.962v-.101l-.018-.008-1.859-.93h-.2v1.04a1.038 1.038 0 0 0 2.077 0ZM6.921 16.962v-1.038H4.844v1.038a1.038 1.038 0 0 0 2.077 0ZM2.395 17.395l1.934-1.417c.022-.015.037-.038.056-.056h-.233c-.88 0-1.657-.42-2.164-1.063l-.595 1.808a.692.692 0 0 0 1.002.728ZM8.435 10.385l4.12-5.671-2.24-1.628-5.303 7.299h3.423Z" fill="currentColor" />
    <path d="m13.36 5.96-3.188 4.39a3.99 3.99 0 0 0 2.49-1.147.692.692 0 1 1 .98.98 5.381 5.381 0 0 1-3.833 1.587H4.152a1.385 1.385 0 1 0 0 2.769h4.682c1.451.611 3.28 2.077 6.395 2.077 1.433 0 2.957-.336 4.246-.963V8.308h-1.27L13.36 5.961Z" fill="currentColor" />
  </symbol>

  <symbol id="e-docs" viewBox="0 0 18 20">
    <path d="M5.992 0a.983.983 0 0 0-.982.982v4.391c0 .554.668.831 1.06.44l1.67-1.668 8.563 8.562a1 1 0 1 0 1.414-1.414L9.154 2.73l1.674-1.675A.618.618 0 0 0 10.39 0H5.992ZM1 6.99a1 1 0 0 0-.697 1.717l8.562 8.563-1.668 1.67a.621.621 0 0 0 .44 1.06h4.39c.542 0 .983-.44.983-.982v-4.399a.62.62 0 0 0-1.057-.437l-1.674 1.673-8.562-8.562A1 1 0 0 0 1 6.99Z" fill="currentColor" fill-rule="nonzero" />
  </symbol>

  <symbol id="bor" viewBox="0 0 28 16">
    <path d="M25.2 0c1.547 0 2.8.895 2.8 2v12c0 1.105-1.253 2-2.8 2H2.8C1.253 16 0 15.105 0 14V2C0 .895 1.253 0 2.8 0ZM14 4.628c-.663 0-1.261.142-1.795.428a3.147 3.147 0 0 0-1.271 1.26c-.314.556-.47 1.238-.47 2.048 0 .805.156 1.485.47 2.04a3.17 3.17 0 0 0 1.27 1.264 3.723 3.723 0 0 0 1.796.431c.658 0 1.255-.142 1.79-.427.535-.286.96-.706 1.275-1.261.314-.555.472-1.238.472-2.047 0-.81-.158-1.492-.472-2.048a3.155 3.155 0 0 0-1.275-1.26A3.744 3.744 0 0 0 14 4.628Zm-7.031.1H3.815V12H7.24c.528 0 .982-.089 1.363-.266.381-.178.676-.422.883-.732.207-.31.31-.664.31-1.062a1.72 1.72 0 0 0-.227-.896 1.65 1.65 0 0 0-.61-.6 1.798 1.798 0 0 0-.669-.221l-.184-.016v-.07c.282-.057.528-.16.739-.308a1.532 1.532 0 0 0 .668-1.284c0-.369-.097-.69-.29-.962-.193-.272-.478-.483-.856-.632-.324-.128-.712-.2-1.165-.22l-.232-.004Zm14.616 0h-3.139V12h1.974V9.6h.684l1.277 2.4h2.145l-1.478-2.712.093-.045c.278-.149.509-.341.692-.579l.105-.148c.23-.357.346-.796.346-1.317 0-.516-.112-.959-.337-1.328a2.207 2.207 0 0 0-.945-.849 3.079 3.079 0 0 0-1.19-.289l-.227-.006ZM6.741 8.888c.202 0 .374.031.517.093a.732.732 0 0 1 .332.27.77.77 0 0 1 .117.433c0 .244-.082.428-.248.552-.166.124-.414.186-.746.186H5.79V8.89h.951ZM14 6.347c.327 0 .602.077.826.232.223.155.393.383.507.682.115.3.173.667.173 1.103 0 .435-.058.803-.173 1.102-.114.3-.284.527-.507.682-.224.155-.5.233-.826.233-.327 0-.602-.078-.826-.233a1.418 1.418 0 0 1-.507-.682c-.115-.3-.173-.667-.173-1.102 0-.436.058-.804.173-1.103.114-.3.284-.527.507-.682.224-.155.5-.232.826-.232Zm7.116-.043c.232 0 .43.031.595.094.165.063.291.16.38.291a.893.893 0 0 1 .133.51.86.86 0 0 1-.133.5.75.75 0 0 1-.38.28c-.123.043-.265.07-.427.08l-.168.006-.696.001V6.304h.696ZM6.628 6.276c.246 0 .45.06.61.179.162.12.242.292.242.517 0 .149-.037.275-.112.378a.702.702 0 0 1-.31.236 1.198 1.198 0 0 1-.459.082h-.81V6.276h.839Z" fill="currentColor" fill-rule="nonzero" />
  </symbol>

  <symbol id="arrows-sens" viewBox="0 0 18 20">
    <path d="M5.992 0a.983.983 0 0 0-.982.982v4.391c0 .554.668.831 1.06.44l1.67-1.668 8.563 8.562a1 1 0 1 0 1.414-1.414L9.154 2.73l1.674-1.675A.618.618 0 0 0 10.39 0H5.992ZM1 6.99a1 1 0 0 0-.697 1.717l8.562 8.563-1.668 1.67a.621.621 0 0 0 .44 1.06h4.39c.542 0 .983-.44.983-.982v-4.399a.62.62 0 0 0-1.057-.437l-1.674 1.673-8.562-8.562A1 1 0 0 0 1 6.99Z" fill="currentColor" fill-rule="nonzero" />
  </symbol>

  <symbol id="stop" viewBox="0 0 20 20">
    <path d="M10 0C4.489 0 0 4.489 0 10s4.489 10 10 10 10-4.489 10-10S15.511 0 10 0Zm0 2c4.43 0 8 3.57 8 8 0 1.853-.63 3.55-1.682 4.904L5.096 3.682A7.965 7.965 0 0 1 10 2ZM3.682 5.096l11.222 11.222A7.965 7.965 0 0 1 10 18c-4.43 0-8-3.57-8-8 0-1.853.63-3.55 1.682-4.904Z" fill="currentColor" fill-rule="nonzero" />
  </symbol>

  <symbol id="reduce-angle-left" viewBox="0 0 18 18">
    <path d="M2 0C.907 0 0 .907 0 2v14c0 1.093.907 2 2 2h14c1.093 0 2-.907 2-2V2c0-1.093-.907-2-2-2H2Zm0 2h9v6H8V6.6a.798.798 0 0 0-1.365-.564l-2.4 2.4a.8.8 0 0 0 0 1.13l2.4 2.4a.797.797 0 0 0 .87.173A.8.8 0 0 0 8 11.4V10h3v6H2V2Z" fill="currentColor" fill-rule="nonzero" />
  </symbol>

  <symbol id="check-circle" viewBox="0 0 20 20">
    <path d="M10 0C4.486 0 0 4.486 0 10s4.486 10 10 10 10-4.486 10-10S15.514 0 10 0Zm0 1.538A8.45 8.45 0 0 1 18.462 10 8.45 8.45 0 0 1 10 18.462 8.45 8.45 0 0 1 1.538 10 8.45 8.45 0 0 1 10 1.538Zm-.77 5.385v2.308H6.924a.77.77 0 1 0 0 1.538h2.308v2.308a.77.77 0 1 0 1.538 0v-2.308h2.308a.77.77 0 1 0 0-1.538h-2.308V6.923a.77.77 0 1 0-1.538 0Z" fill="currentColor" />
  </symbol>

  <symbol id="plus-circle-fill" viewBox="0 0 20 20">
    <path fill-rule="evenodd" clip-rule="evenodd" d="M0 10C0 4.477 4.477 0 10 0s10 4.477 10 10-4.477 10-10 10S0 15.523 0 10Zm11 1h2a1 1 0 0 0 0-2h-2V7a1 1 0 0 0-2 0v2H7a1 1 0 0 0 0 2h2v2a1 1 0 0 0 2 0v-2Z" fill="currentColor" />
  </symbol>

  <symbol id="box-arrow-right" viewBox="0 0 18 18">
    <path d="M16 0H2a2 2 0 0 0-2 2v6h8.586L6.993 6.407a.999.999 0 1 1 1.414-1.414l3.3 3.3a1 1 0 0 1 0 1.414l-3.3 3.3a.997.997 0 0 1-1.414 0 .999.999 0 0 1 0-1.414L8.586 10H0v6a2 2 0 0 0 2 2h14a2 2 0 0 0 2-2V2a2 2 0 0 0-2-2Z" fill="currentColor" />
  </symbol>

  <symbol id="box-clock" viewBox="0 0 18 18">
    <path fill-rule="evenodd" clip-rule="evenodd" d="M2 0h14c1.103 0 2 .897 2 2v14c0 1.103-.897 2-2 2H2c-1.103 0-2-.897-2-2V2C0 .897.897 0 2 0Zm6.293 9.707 2.598 2.598a1 1 0 0 0 1.414-1.414L10 8.586V4a1 1 0 0 0-2 0v5a1 1 0 0 0 .293.707Z" fill="currentColor" />
  </symbol>

  <symbol id="link" viewBox="0 0 23 12">
    <path d="M16.5 9.5H6.101c-1.67 0-3.19-1.13-3.525-2.765A3.506 3.506 0 0 1 6 2.5h12.387c.996 0 1.922.678 2.085 1.66A2.003 2.003 0 0 1 18.5 6.5H8a.5.5 0 0 1 0-1h8.5a1 1 0 0 0 0-2H8.147c-1.308 0-2.502.939-2.634 2.24A2.503 2.503 0 0 0 8 8.5h10.322c2.088 0 3.956-1.523 4.158-3.601a4.004 4.004 0 0 0-3.98-4.4H6.245C3.375.5.806 2.594.527 5.45A5.506 5.506 0 0 0 6 11.499h10.5a1 1 0 0 0 0-2Z" fill="currentColor" />
  </symbol>

  <symbol id="file" viewBox="0 0 16 20">
    <path d="M9.172 0H2C.9 0 0 .9 0 2v16c0 1.1.9 2 2 2h12c1.1 0 2-.9 2-2V6.828a2 2 0 0 0-.586-1.414L10.586.586A2 2 0 0 0 9.172 0Z" fill="#CBCCCF" fill-opacity=".4"/><path fill-rule="evenodd" clip-rule="evenodd" d="M14.5 7H9V1.5L14.5 7Z" fill="currentColor" />
  </symbol>

  <symbol id="cross" viewBox="0 0 10 10">
    <path fill-rule="evenodd" clip-rule="evenodd" d="M6.644 5 9.66 1.985A1.163 1.163 0 0 0 8.015.341L5 3.355 1.985.342A1.163 1.163 0 0 0 .341 1.985L3.355 5 .342 8.015a1.163 1.163 0 1 0 1.644 1.644L5 6.644 8.015 9.66a1.163 1.163 0 0 0 1.644-1.644L6.644 5Z" fill="currentColor" />
  </symbol>

  <symbol id="info-circle" viewBox="0 0 20 20">
    <path fill-rule="evenodd" clip-rule="evenodd" d="M0 10C0 4.486 4.486 0 10 0s10 4.486 10 10-4.486 10-10 10S0 15.514 0 10Zm18.462 0A8.45 8.45 0 0 0 10 1.538 8.45 8.45 0 0 0 1.538 10 8.45 8.45 0 0 0 10 18.462 8.45 8.45 0 0 0 18.462 10ZM9.23 5.385v1.538h1.538V5.385H9.231Zm0 9.23V8.462h1.538v6.153H9.231Z" fill="currentColor" />
  </symbol>

  <symbol id="check" viewBox="0 0 13 12">
    <path fill-rule="evenodd" clip-rule="evenodd" d="M12.242 1.004a1.484 1.484 0 0 0-2.12.17L4.56 7.88 2.35 6.504A1.524 1.524 0 0 0 .676 9.05l3.818 2.644c.25.173.589.127.783-.105l7.125-8.516a1.484 1.484 0 0 0-.16-2.07Z" fill="currentColor" />
  </symbol>

  <symbol id="check-progress" viewBox="0 0 20 20">
    <path opacity=".5" fill-rule="evenodd" clip-rule="evenodd" d="M10.777 1.008a1.01 1.01 0 0 1 1.215-.984c4.45 1.01 7.785 4.999 7.785 9.752 0 4.753-3.335 8.741-7.786 9.752-.621.142-1.214-.347-1.214-.985v-.002c0-.458.309-.866.756-.967 3.569-.802 6.244-3.991 6.244-7.798s-2.676-6.997-6.245-7.8a.985.985 0 0 1-.755-.966v-.002ZM7.562.024a1.007 1.007 0 0 1 1.215.984c0 .453-.3.868-.743.967A7.951 7.951 0 0 0 5.5 3.028c-.384.244-.889.167-1.21-.155l-.003-.002c-.449-.449-.378-1.209.159-1.549A9.92 9.92 0 0 1 7.562.024Zm-5.506 3.97a.972.972 0 0 0-.732.45 9.943 9.943 0 0 0-1.3 3.117c-.14.622.347 1.215.985 1.215.453 0 .868-.3.967-.743a7.919 7.919 0 0 1 1.053-2.535c.244-.384.167-.889-.155-1.21l-.002-.003a1.013 1.013 0 0 0-.816-.29ZM13.07 7.07a1 1 0 1 1 1.414 1.414l-5 5a1 1 0 0 1-1.414 0l-2-2a1 1 0 1 1 1.414-1.414l1.293 1.292L13.07 7.07ZM1.01 10.776c-.639 0-1.127.592-.985 1.214a9.92 9.92 0 0 0 1.299 3.118c.339.537 1.1.607 1.548.158.323-.323.4-.83.157-1.213a7.95 7.95 0 0 1-1.053-2.535c-.1-.443-.514-.742-.967-.742Zm3.278 5.902c.161-.161.37-.26.584-.29a.934.934 0 0 1 .63.136c.765.488 1.62.848 2.532 1.052.442.1.743.514.743.967 0 .638-.593 1.126-1.215.985a9.943 9.943 0 0 1-3.117-1.3c-.537-.34-.608-1.1-.159-1.548l.002-.002Z" fill="currentColor" />
  </symbol>

  <symbol id="pen" viewBox="0 0 16 16">
    <path fill-rule="evenodd" clip-rule="evenodd" d="M11.934.697A2.374 2.374 0 0 1 13.618 0a2.383 2.383 0 0 1 1.684 4.066l-.986.987-3.369-3.369.987-.987ZM0 12.632l9.684-9.685 3.369 3.369L3.368 16H0v-3.368Z" fill="currentColor" />
  </symbol>

  <symbol id="pen-paper" viewBox="0 0 22 20">
    <path fill-rule="evenodd" clip-rule="evenodd" d="M2 0a2 2 0 0 0-2 2v12a2 2 0 0 0 2 2h10.729l-3.436-3.435A1 1 0 0 1 9 11.857V8a1 1 0 0 1 1-1h3.86a1 1 0 0 1 .706.293L20 12.727V2a2 2 0 0 0-2-2H2Zm9 9v2.443l6.291 6.291 2.443-2.445L13.444 9H11Zm7.154 9.6 2.446-2.446 1.22 1.223a.61.61 0 0 1 0 .863l-1.58 1.58a.61.61 0 0 1-.863 0l-1.223-1.22Z" fill="currentColor" />
  </symbol>

  <symbol id="trash" viewBox="0 0 15 18">
    <path fill-rule="evenodd" clip-rule="evenodd" d="m5.4 0-.9.9H.9a.9.9 0 0 0 0 1.8h12.6a.9.9 0 0 0 0-1.8H9.9L9 0H5.4ZM.9 4.5v11.7c0 .99.81 1.8 1.8 1.8h9c.99 0 1.8-.81 1.8-1.8V4.5H.9Zm4.604 3.335a.894.894 0 0 0-.635-.262.898.898 0 0 0-.635 1.531L5.932 10.8l-1.696 1.696a.898.898 0 0 0 1.269 1.27L7.2 12.068l1.696 1.696a.898.898 0 0 0 1.27-1.269L8.468 10.8l1.696-1.696a.898.898 0 0 0-1.269-1.27L7.2 9.532 5.504 7.835Z" fill="currentColor" />
  </symbol>

  <symbol id="transmitter" viewBox="0 0 22 17">
    <path fill-rule="evenodd" clip-rule="evenodd" d="M20 2a2 2 0 0 0-2-2H2a2 2 0 0 0-2 2v12a2 2 0 0 0 2 2 1 1 0 0 0 2 0h12a1 1 0 0 0 2 0 2 2 0 0 0 2-2v-.84c-.407.248-.87.39-1.357.39A2.644 2.644 0 0 1 16 10.913V5.088a2.644 2.644 0 0 1 2.643-2.639c.487 0 .95.14 1.357.389V2ZM2.707 3.705a.996.996 0 0 1 .707-.29c.256 0 .51.095.705.29l.862.861A3.949 3.949 0 0 1 7 4c.74 0 1.424.215 2.019.566l.773-.773a.998.998 0 0 1 1.412 0v.002a.998.998 0 0 1 0 1.412l-.771.773C10.786 6.575 11 7.26 11 8s-.214 1.424-.566 2.018l.861.86a1 1 0 0 1 0 1.415v.002a1 1 0 0 1-1.414 0l-.861-.861A3.949 3.949 0 0 1 7 12c-.74 0-1.423-.214-2.02-.566l-.949.949a1 1 0 1 1-1.414-1.414l.95-.95A3.948 3.948 0 0 1 3 8c0-.74.215-1.425.568-2.02l-.86-.86a1 1 0 0 1 0-1.415Zm15.86.748a.626.626 0 0 1 .521.184l2.594 2.593a1.088 1.088 0 0 1 0 1.54l-2.594 2.593a.638.638 0 0 1-1.088-.45V5.087c0-.354.268-.6.567-.635ZM9 8a2 2 0 1 0-4 0 2 2 0 0 0 4 0Z" fill="currentColor" />
  </symbol>

  <symbol id="recipient" viewBox="0 0 22 17">
    <path fill-rule="evenodd" clip-rule="evenodd" d="M2 2a2 2 0 0 1 2-2h16a2 2 0 0 1 2 2v12a2 2 0 0 1-2 2 1 1 0 0 1-2 0H6a1 1 0 0 1-2 0 2 2 0 0 1-2-2v-.84c2.287-2.588 3.43-3.628 4.002-4.148.336-.306.475-.432.532-.588.04-.108.04-.231.04-.44s0-.332-.04-.44c-.058-.155-.196-.28-.532-.584C5.43 6.444 4.287 5.411 2 2.838V2Zm17.293 1.705a.996.996 0 0 0-.707-.29.992.992 0 0 0-.705.29l-.861.861A3.948 3.948 0 0 0 15 4c-.74 0-1.424.215-2.02.566l-.773-.773a.998.998 0 0 0-1.412 0v.002a.998.998 0 0 0 0 1.412l.772.773A3.949 3.949 0 0 0 11 8c0 .74.215 1.424.567 2.018l-.861.86a1 1 0 0 0 0 1.415v.002a1 1 0 0 0 1.414 0l.86-.861c.596.352 1.28.566 2.02.566s1.424-.214 2.02-.566l.95.949a1 1 0 0 0 1.413-1.414l-.949-.95C18.786 9.426 19 8.74 19 8a3.94 3.94 0 0 0-.568-2.02l.861-.86a1 1 0 0 0 0-1.415ZM.566 4.453a.626.626 0 0 1 .522.184L3.682 7.23a1.088 1.088 0 0 1 0 1.54l-2.594 2.593A.638.638 0 0 1 0 10.913V5.087c0-.354.268-.6.566-.635ZM13 8a2 2 0 1 1 4 0 2 2 0 0 1-4 0Z" fill="currentColor" />
  </symbol>

  <symbol id="signature" viewBox="0 0 24 18">
    <path fill-rule="evenodd" clip-rule="evenodd" d="M1.90476 0C0.852381 0 0 0.852381 0 1.90476V15.2381C0 16.2905 0.852381 17.1429 1.90476 17.1429H12.5446L9.80283 14.401C9.62378 14.2229 9.52381 13.9801 9.52381 13.7277V10.4762C9.52381 9.95047 9.95047 9.52381 10.4762 9.52381H13.7277C13.9801 9.52381 14.2229 9.62378 14.401 9.80283L17.1429 12.5446V1.90476C17.1429 0.852381 16.2905 0 15.2381 0H1.90476ZM3.80952 2.85714H13.3333C13.859 2.85714 14.2857 3.28381 14.2857 3.80952C14.2857 4.33524 13.859 4.7619 13.3333 4.7619H3.80952C3.28381 4.7619 2.85714 4.33524 2.85714 3.80952C2.85714 3.28381 3.28381 2.85714 3.80952 2.85714ZM6.66667 6.66667H3.80952C3.28381 6.66667 2.85714 7.09333 2.85714 7.61905C2.85714 8.14476 3.28381 8.57143 3.80952 8.57143H6.66667C7.19238 8.57143 7.61905 8.14476 7.61905 7.61905C7.61905 7.09333 7.19238 6.66667 6.66667 6.66667ZM11.4286 11.4286V13.3333L16.33 18.2347L18.2347 16.33L13.3333 11.4286H11.4286ZM17.0033 18.9081L18.9081 17.0033L19.6057 17.7009C20.1314 18.2266 20.1314 19.0799 19.6057 19.6057C19.0799 20.1314 18.2266 20.1314 17.7009 19.6057L17.0033 18.9081Z" fill="currentColor" />
  </symbol>

  <symbol id="sign-paper" viewBox="0 0 21 20">
    <path opacity=".6" fill-rule="evenodd" clip-rule="evenodd" d="M2.886 0A1.904 1.904 0 0 0 .981 1.905v13.333c0 1.053.853 1.905 1.905 1.905h10.64L10.784 14.4a.95.95 0 0 1-.279-.673v-3.252c0-.526.427-.952.953-.952h3.251c.252 0 .495.1.674.279l2.741 2.742V1.905A1.904 1.904 0 0 0 16.22 0H2.886Zm1.905 2.857h9.524a.953.953 0 0 1 0 1.905H4.79a.953.953 0 0 1 0-1.905Zm2.857 3.81H4.791a.953.953 0 0 0 0 1.904h2.857a.953.953 0 0 0 0-1.904Zm4.762 4.762v1.904l4.901 4.902 1.905-1.905-4.901-4.901H12.41Zm5.575 7.48 1.905-1.906.697.698a1.347 1.347 0 0 1-1.905 1.905l-.697-.698Z" fill="currentColor" />
  </symbol>

  <symbol id="sign-x3" viewBox="0 0 22 22">
    <path fill-rule="evenodd" clip-rule="evenodd" d="M2 0a2 2 0 0 0-2 2v9a1 1 0 0 0 2 0V2h9a1 1 0 0 0 0-2H2Zm4 4a2 2 0 0 0-2 2v9a1 1 0 0 0 2 0V6h9a1 1 0 0 0 0-2H6Zm2 6a2 2 0 0 1 2-2h8a2 2 0 0 1 2 2v3.172a1 1 0 0 1-2 0V10h-8v8h3.172a1 1 0 1 1 0 2H10a2 2 0 0 1-2-2v-8Zm5 3v2l5.146 5.146 2-2L15 13h-2Zm5.854 7.854 2-2 .732.732a1.415 1.415 0 0 1-2 2l-.732-.732Z" fill="currentColor" />
  </symbol>

  <symbol id="add-file-earmark-text-fill" viewBox="0 0 21 21">
    <path fill-rule="evenodd" clip-rule="evenodd" d="M2 0a2 2 0 0 0-2 2v14a2 2 0 0 0 2 2h5.588a7.963 7.963 0 0 1 1.172-8l.02-.045A.989.989 0 0 1 8 9a1 1 0 0 1 1-1h2.13A7.96 7.96 0 0 1 18 7.588V2a2 2 0 0 0-2-2H2Zm2.5 4h1a.5.5 0 0 1 .5.5v1a.5.5 0 0 1-.5.5h-1a.5.5 0 0 1-.5-.5v-1a.5.5 0 0 1 .5-.5ZM13 4H9a1 1 0 0 0 0 2h4a1 1 0 0 0 0-2ZM4.5 8h1a.5.5 0 0 1 .5.5v1a.5.5 0 0 1-.5.5h-1a.5.5 0 0 1-.5-.5v-1a.5.5 0 0 1 .5-.5ZM9 15c0-3.3 2.7-6 6-6s6 2.7 6 6-2.7 6-6 6-6-2.7-6-6Zm6-4a1 1 0 0 1 1 1v2h2a1 1 0 0 1 0 2h-2v2a1 1 0 0 1-2 0v-2h-2a1 1 0 0 1 0-2h2v-2a1 1 0 0 1 1-1Zm-9.5 1h-1a.5.5 0 0 0-.5.5v1a.5.5 0 0 0 .5.5h1a.5.5 0 0 0 .5-.5v-1a.5.5 0 0 0-.5-.5Z" fill="currentColor" />
  </symbol>

  <symbol id="phonelink-lock" viewBox="0 0 17 22">
    <path fill-rule="evenodd" clip-rule="evenodd" d="M3 2.5A2.5 2.5 0 0 1 5.5 0h9A2.5 2.5 0 0 1 17 2.5v17a2.5 2.5 0 0 1-2.5 2.5h-9A2.5 2.5 0 0 1 3 19.5V18a1 1 0 0 1 1-1h11V3H3.5a.5.5 0 0 1-.5-.5ZM1 8c0-1.7 1.3-3 3-3s3 1.3 3 3v1c.6 0 1 .4 1 1v4c0 .6-.4 1-1 1H1c-.6 0-1-.4-1-1v-4c0-.6.4-1 1-1V8Zm3-1.5c.8 0 1.5.7 1.5 1.5v1h-3V8c0-.8.7-1.5 1.5-1.5ZM11.125 19a1.124 1.124 0 1 0-2.248-.002 1.124 1.124 0 0 0 2.248.002Z" fill="currentColor" />
  </symbol>

  <symbol id="shake-phone" viewBox="0 0 22 21">
    <path fill-rule="evenodd" clip-rule="evenodd" d="M12.339.058a1.668 1.668 0 0 1 2.043 1.18l3.885 14.503c.238.89-.29 1.805-1.18 2.043l-8.057 2.16a1.668 1.668 0 0 1-2.043-1.18L3.103 4.262A1.667 1.667 0 0 1 4.28 2.218L12.34.058Zm.992 3.707a.499.499 0 0 0-.611-.354l-7.092 1.9a.499.499 0 0 0-.353.612l2.763 10.314a.499.499 0 0 0 .612.354l7.091-1.9a.5.5 0 0 0 .354-.612L13.33 3.765Zm5.533-.192a1 1 0 0 0-1.104 1.25l1.643 6.125a1 1 0 0 0 1.932-.517l-1.64-6.125a1.003 1.003 0 0 0-.83-.733ZM.741 8.347a.998.998 0 0 1 1.225.707l1.643 6.125a1 1 0 0 1-1.932.517L.034 9.571a1 1 0 0 1 .707-1.224Z" fill="currentColor" />
  </symbol>

  <symbol id="phone-fill" viewBox="0 0 18 18">
    <path d="m16.194 12.24-2.52-.29a1.99 1.99 0 0 0-1.64.57l-1.85 1.85a14.982 14.982 0 0 1-3.818-2.772A14.982 14.982 0 0 1 3.594 7.78l1.85-1.85c.43-.43.64-1.03.57-1.64l-.29-2.52A2.001 2.001 0 0 0 3.734 0h-1.73c-1.13 0-2.07.94-2 2.07a16.935 16.935 0 0 0 4.943 10.947 16.935 16.935 0 0 0 10.947 4.943c1.13.07 2.07-.87 2.07-2v-1.73c0-1.02-.76-1.87-1.77-1.99Z" fill="currentColor" fill-rule="nonzero" />
  </symbol>

  <symbol id="search" viewBox="0 0 14 14">
    <path fill-rule="evenodd" clip-rule="evenodd" d="M0 6.365C0 2.917 2.917 0 6.365 0c3.562 0 6.36 2.8 6.36 6.363a6.846 6.846 0 0 1-1.018 3.564l1.924 1.921a1.26 1.26 0 1 1-1.783 1.783l-1.92-1.924a6.846 6.846 0 0 1-3.565 1.019C2.8 12.726 0 9.927 0 6.366Zm10.18-.002c0-2.163-1.654-3.818-3.817-3.818-2.163 0-3.818 1.655-3.818 3.818 0 2.163 1.655 3.818 3.818 3.818 2.163 0 3.818-1.655 3.818-3.818Z" fill="currentColor" />
  </symbol>

  <symbol id="export" viewBox="0 0 18 20">
    <path fill-rule="evenodd" clip-rule="evenodd" d="M0 2a2 2 0 0 1 2-2h8a2 2 0 0 1 2 2v7H6a1 1 0 0 0 0 2h6v7a2 2 0 0 1-2 2H2a2 2 0 0 1-2-2V2Zm12 9h2v1.4a.8.8 0 0 0 1.365.567l2.4-2.402a.8.8 0 0 0 0-1.131l-2.4-2.4A.801.801 0 0 0 14 7.6V9h-2v2Z" fill="currentColor" />
  </symbol>

  <symbol id="bell" viewBox="0 0 20 20">
    <path fill-rule="evenodd" clip-rule="evenodd" d="M8.536 1.5a1.5 1.5 0 0 1 3 0v.695A5.997 5.997 0 0 1 16.036 8v6l1.537 1.156A1 1 0 0 1 17.036 17h-14a1 1 0 0 1-.537-1.844H2.5L4.036 14V8a5.997 5.997 0 0 1 4.5-5.805V1.5ZM3.102.807a1.007 1.007 0 0 1 1.49.117.981.981 0 0 1-.085 1.306 7.969 7.969 0 0 0-2.422 4.887.993.993 0 0 1-.987.883 1.008 1.008 0 0 1-1-1.12A9.964 9.964 0 0 1 3.102.808ZM16.2.533c-.273.022-.54.155-.72.39a.981.981 0 0 0 .085 1.307 7.966 7.966 0 0 1 2.422 4.893.99.99 0 0 0 .986.877c.601 0 1.067-.529 1-1.127A9.952 9.952 0 0 0 16.97.809a.994.994 0 0 0-.77-.276ZM10.036 20c-1.1 0-2-.9-2-2h4c0 1.1-.9 2-2 2Z" fill="currentColor" />
  </symbol>

  <symbol id="gear" viewBox="0 0 16 16">
    <path fill-rule="evenodd" clip-rule="evenodd" d="M5.646.647A.799.799 0 0 1 6.431 0h2.415c.384 0 .711.27.785.647l.267 1.372a6.388 6.388 0 0 1 1.797 1.031l1.315-.453a.8.8 0 0 1 .954.358l1.206 2.09a.802.802 0 0 1-.167 1.005l-1.055.917c.055.337.09.68.09 1.033 0 .353-.035.696-.09 1.033l1.055.917a.8.8 0 0 1 .167 1.003l-1.207 2.092a.8.8 0 0 1-.953.357l-1.315-.454a6.384 6.384 0 0 1-1.797 1.033l-.267 1.372a.799.799 0 0 1-.785.647H6.431a.799.799 0 0 1-.785-.647l-.267-1.372a6.384 6.384 0 0 1-1.797-1.031l-1.315.453a.8.8 0 0 1-.953-.358l-1.207-2.09A.802.802 0 0 1 .274 9.95l1.055-.917A6.41 6.41 0 0 1 1.24 8c0-.353.035-.696.09-1.033L.274 6.05a.802.802 0 0 1-.167-1.005l1.207-2.09a.8.8 0 0 1 .953-.357l1.315.454A6.386 6.386 0 0 1 5.38 2.019L5.646.647ZM10.838 8a3.2 3.2 0 1 0-6.4 0 3.2 3.2 0 0 0 6.4 0Z" fill="currentColor" />
  </symbol>

  <symbol id="telephone-tooltip" viewBox="0 0 22 22">
    <path fill-rule="evenodd" clip-rule="evenodd" d="M10.07.037c3.283-.264 6.408.893 8.7 3.185 2.955 2.958 4.018 7.302 2.58 11.568-1.475 4.375-5.741 7.199-10.358 7.199h-.004a10.983 10.983 0 0 1-5.253-1.338L.778 21.979a.607.607 0 0 1-.738-.76l1.427-4.736c-1.506-2.609-1.894-5.766-.97-8.79C1.791 3.46 5.66.39 10.071.037Zm4.447 16.185c.504-.045 1.626-.664 1.855-1.305.229-.642.229-1.192.16-1.306-.055-.092-.183-.154-.375-.246a10.668 10.668 0 0 1-.15-.074c-.275-.138-1.625-.802-1.877-.894-.252-.09-.436-.137-.619.138-.182.275-.709.894-.87 1.076-.16.184-.32.207-.595.07a4.034 4.034 0 0 0-.185-.084c-.388-.169-1.148-.5-2.023-1.28-.817-.727-1.367-1.627-1.528-1.902-.16-.274-.017-.423.121-.56.082-.082.176-.197.27-.311l.142-.17c.116-.137.167-.24.236-.381l.038-.077c.091-.182.045-.343-.023-.48-.03-.058-.14-.331-.276-.668a51.676 51.676 0 0 0-.57-1.372c-.207-.457-.423-.467-.62-.474-.159-.007-.343-.007-.525-.007-.184 0-.481.068-.733.344l-.053.056c-.285.303-.91.967-.91 2.234 0 1.343.972 2.64 1.12 2.837l.002.003.058.084c.348.517 2.05 3.044 4.634 4.062 2.098.827 2.685.758 3.15.703.05-.006.098-.012.146-.016Z" fill="currentColor" />
  </symbol>

  <symbol id="printer" viewBox="0 0 20 19">
    <path fill-rule="evenodd" clip-rule="evenodd" d="M4 1a1 1 0 0 1 1-1h10a1 1 0 0 1 1 1v2a1 1 0 0 1-1 1H5a1 1 0 0 1-1-1V1ZM0 9c0-1.65 1.35-3 3-3h14c1.65 0 3 1.35 3 3v4a2 2 0 0 1-2 2h-2v2a2 2 0 0 1-2 2H6a2 2 0 0 1-2-2v-2H2a2 2 0 0 1-2-2V9Zm17-1c.6 0 1 .4 1 1s-.4 1-1 1-1-.4-1-1 .4-1 1-1Zm-3.5 4h-7a.5.5 0 0 0-.5.5v4a.5.5 0 0 0 .5.5h7a.5.5 0 0 0 .5-.5v-4a.5.5 0 0 0-.5-.5Z" fill="currentColor" />
  </symbol>

  <symbol id="check-fill-radar" viewBox="0 0 20 20">
    <path opacity=".5" fill-rule="evenodd" clip-rule="evenodd" d="M10 0C4.489 0 0 4.489 0 10s4.489 10 10 10 10-4.489 10-10S15.511 0 10 0Zm0 2c4.43 0 8 3.57 8 8s-3.57 8-8 8-8-3.57-8-8 3.57-8 8-8ZM8.984 4.082a6.28 6.28 0 0 1 .819-.08 5.984 5.984 0 0 1 4.718 2.062L10 10.586 8.414 9A1 1 0 0 0 7 10.414l2.293 2.293c.39.39 1.024.389 1.414 0l4.88-4.88a5.97 5.97 0 0 1 .19 3.798c-.589 2.14-2.38 3.827-4.558 4.256a6.01 6.01 0 0 1-7.162-6.72c.346-2.557 2.382-4.66 4.927-5.079Z" fill="currentColor" />
  </symbol>

  <symbol id="check-fill-circle" viewBox="0 0 20 20">
    <path fill-rule="evenodd" clip-rule="evenodd" d="M0 9a9 9 0 0 1 9-9 9 9 0 0 1 9 9 9 9 0 0 1-9 9 9 9 0 0 1-9-9Zm7.836 4.236 6.3-6.3a.899.899 0 1 0-1.272-1.272L7.2 11.327 5.136 9.264a.899.899 0 1 0-1.272 1.272l2.7 2.7a.898.898 0 0 0 1.272 0Z" fill="currentColor" />
  </symbol>

  <symbol id="file-earmark-plus" viewBox="0 0 16 20">
    <path fill-rule="evenodd" clip-rule="evenodd" d="M2 0h8l6 6v12c0 1.1-.9 2-2 2H2c-1.1 0-2-.9-2-2V2C0 .9.9 0 2 0Zm7 14v-2h2a1 1 0 0 0 0-2H9V8a1 1 0 0 0-2 0v2H5a1 1 0 0 0 0 2h2v2a1 1 0 0 0 2 0Z" fill="currentColor" />
  </symbol>

  <symbol id="file-earmark-check" viewBox="0 0 20 22">
    <path fill-rule="evenodd" clip-rule="evenodd" d="M0 2C0 .9.9 0 2 0h7.172a2 2 0 0 1 1.414.586l4.828 4.828A2 2 0 0 1 16 6.828v1.434c-1.397-.36-2.924-.397-4.549.191-3.28 1.188-5.514 4.206-5.45 7.695A7.951 7.951 0 0 0 7.079 20H2c-1.1 0-2-.9-2-2V2Zm14.5 5L9 1.5V7h5.5Zm-.5 3c-3.3 0-6 2.7-6 6s2.7 6 6 6 6-2.7 6-6-2.7-6-6-6Zm3.5 4a.986.986 0 0 0-1.4 0l-2.6 2.6-1.1-1.1a.99.99 0 1 0-1.4 1.4l1.904 1.905a.842.842 0 0 0 1.192 0L17.5 15.4a.99.99 0 0 0 0-1.4Z" fill="currentColor" />
  </symbol>

  <symbol id="file-earmark" viewBox="0 0 16 16">
    <path d="M4 0h5.293A1 1 0 0 1 10 .293L13.707 4a1 1 0 0 1 .293.707V14a2 2 0 0 1-2 2H4a2 2 0 0 1-2-2V2a2 2 0 0 1 2-2zm5.5 1.5v2a1 1 0 0 0 1 1h2l-3-3z"/>
  </symbol>

  <symbol id="file-download" viewBox="0 0 20 20" fill="none">
    <path fill-rule="evenodd" clip-rule="evenodd" d="M1.818 0C.818 0 0 .818 0 1.818v14.546c0 1 .818 1.818 1.818 1.818h7.12c-.48-.64-.616-1.474-.303-2.228a2.275 2.275 0 0 1 2.107-1.409h.167v-.909a2.727 2.727 0 0 1 2.727-2.727h.91V6.207c0-.481-.192-.944-.533-1.285L9.623.532A1.819 1.819 0 0 0 8.339 0h-6.52Zm6.364 1.364 5 5h-5v-5Zm4.59 12.272a.91.91 0 1 1 1.818 0v2.728h2.03c.412 0 .619.498.328.79l-2.55 2.55a1.014 1.014 0 0 1-1.434 0l-2.55-2.55a.463.463 0 0 1 .327-.79h2.03v-2.728Z" fill="currentColor" />
  </symbol>

  <symbol id="chat-right-text" viewBox="0 0 20 19">
    <path fill-rule="evenodd" clip-rule="evenodd" d="M.009 2c0-1.1.89-2 1.99-2h16c1.1 0 2 .9 2 2v12c0 1.1-.9 2-2 2h-14L1.21 18.789A.709.709 0 0 1 0 18.287L.009 2ZM6 11h8a1 1 0 0 0 0-2H6a1 1 0 0 0 0 2Zm8-4H6a1 1 0 0 1 0-2h8a1 1 0 0 1 0 2Z" fill="currentColor" />
  </symbol>

  <symbol id="angle-right" viewBox="0 0 8 13">
    <path d="M.564 1.222a1.341 1.341 0 0 1 1.897 0l4.33 4.33c.507.53.507 1.366 0 1.896l-4.33 4.33A1.341 1.341 0 1 1 .564 9.881L3.945 6.5.564 3.119a1.341 1.341 0 0 1 0-1.897Z" fill="currentColor" />
  </symbol>

  <symbol id="angle-left" viewBox="0 0 8 13">
    <path d="M6.778 1.222a1.341 1.341 0 0 0-1.897 0l-4.33 4.33a1.372 1.372 0 0 0 0 1.896l4.33 4.33a1.341 1.341 0 1 0 1.897-1.897L3.397 6.5l3.381-3.381a1.341 1.341 0 0 0 0-1.897Z" fill="currentColor" />
  </symbol>

  <symbol id="arrow-up-short" viewBox="0 0 6 7">
    <path fill-rule="evenodd" clip-rule="evenodd" d="M2.776 6.909a.864.864 0 0 1-.863-.864v-2.59H.692A.693.693 0 0 1 0 2.762c0-.18.07-.356.202-.488L2.275.202c.27-.27.707-.27.977 0l2.073 2.073a.689.689 0 0 1 .149.752.689.689 0 0 1-.638.427H3.64v2.591a.864.864 0 0 1-.864.864Z" fill="currentColor" />
  </symbol>

  <symbol id="arrow-right" viewBox="0 0 18 14">
    <path d="M11 0c.256 0 .512.1.707.295l5.656 5.656a.999.999 0 0 1 0 1.414l-5.656 5.656a.999.999 0 0 1-1.414 0l-.086-.086a.999.999 0 0 1 0-1.414l3.863-3.863H1a1 1 0 0 1 0-2h13.07l-3.863-3.863a.999.999 0 0 1 0-1.414l.086-.086A.998.998 0 0 1 11 0Z" fill="currentColor" />
  </symbol>

  <symbol id="arrow-left" viewBox="0 0 18 14">
    <path d="M6.657 0c-.256 0-.513.1-.708.295L.293 5.95a.999.999 0 0 0 0 1.414l5.657 5.656a.999.999 0 0 0 1.414 0l.085-.086a.999.999 0 0 0 0-1.414L3.586 7.659h13.07a1 1 0 0 0 0-2H3.587L7.45 1.795a.999.999 0 0 0 0-1.414L7.364.295A.998.998 0 0 0 6.657 0Z" fill="#currentColor" />
  </symbol>

  <symbol id="file-pdf-earmark-arrow-down" viewBox="0 0 19 22">
    <path fill-rule="evenodd" clip-rule="evenodd" d="M0 2C0 0.9 0.9 0 2 0H9.17188C9.70187 0 10.2109 0.210938 10.5859 0.585938L15.4141 5.41406C15.7891 5.78906 16 6.29813 16 6.82812V12H15C13.343 12 12 13.343 12 15V16V16.0684C11.11 16.2574 10.356 16.8635 9.99805 17.7285C9.85705 18.0705 9.78516 18.4318 9.78516 18.8008C9.78516 19.2248 9.88745 19.629 10.0645 20H2C0.9 20 0 19.1 0 18V2ZM14.5 7L9 1.5V6C9 6.552 9.448 7 10 7H14.5ZM6.83203 8C7.38203 8 7.714 8.37341 7.875 8.94141C8.035 9.59041 7.87561 10.6434 7.47461 11.8594C7.71561 12.3464 8.03447 12.8324 8.35547 13.3184C9.31747 13.2374 10.1196 13.2385 10.6016 13.5625C11.0026 13.8065 11.0838 14.2103 10.9238 14.6973C10.6828 15.2653 10.2016 15.5097 9.64062 15.3477C9.15963 15.1857 8.59616 14.7789 8.03516 14.1309C7.47416 14.2119 6.91256 14.3732 6.35156 14.5352C5.70956 15.6702 5.06973 16.6437 4.42773 16.8867C4.26673 16.9677 4.10631 17 3.94531 17C3.62431 17 3.38366 16.8875 3.22266 16.6445L3.22257 16.6444C3.06254 16.4014 2.74192 15.9144 3.38281 15.1855C3.78381 14.6985 4.74606 14.2127 5.78906 13.8887C6.11006 13.2397 6.3508 12.5913 6.5918 11.8613C6.0308 10.8073 5.70906 9.67244 5.78906 9.02344C5.87006 8.37344 6.28203 8 6.83203 8ZM14 15C14 14.448 14.448 14 15 14C15.552 14 16 14.448 16 15V18H17.3848C17.7088 18 18 18.1951 18.123 18.4941C18.247 18.7941 18.1802 19.1362 17.9512 19.3652L15.5508 21.7656C15.2378 22.0776 14.7329 22.0776 14.4199 21.7656L12.0195 19.3652C11.8665 19.2122 11.7852 19.0088 11.7852 18.8008C11.7852 18.6978 11.8047 18.5931 11.8457 18.4941C11.9697 18.1951 12.2629 18 12.5859 18H14V15Z" fill="currentColor" />
  </symbol>

  <symbol id="plus" viewBox="0 0 12 12">
    <path fill-rule="evenodd" clip-rule="evenodd" d="M10.5 7.5h-3v3a1.5 1.5 0 0 1-3 0v-3h-3a1.5 1.5 0 0 1 0-3h3v-3a1.5 1.5 0 0 1 3 0v3h3a1.5 1.5 0 0 1 0 3Z" fill="currentColor" />
  </symbol>

  <symbol id="arrow-curve-left" viewBox="0 0 21 8">
    <path d="M.5 0a.499.499 0 0 0-.5.5V7a1 1 0 0 0 1 1h6.5a.502.502 0 0 0 .354-.854L5.22 4.514A7.925 7.925 0 0 1 10.5 2.5a7.991 7.991 0 0 1 7.172 4.469c.276.56.917.834 1.51.636.709-.236 1.069-1.045.74-1.716C18.216 2.404 14.643 0 10.5 0 7.78 0 5.318 1.05 3.457 2.75L.854.146A.499.499 0 0 0 .5 0Z" fill="currentColor" />
  </symbol>

  <symbol id="arrow-curve-right" viewBox="0 0 21 8">
    <path d="M19.545 0a.499.499 0 0 1 .5.5V7a1 1 0 0 1-1 1h-6.5a.5.5 0 0 1-.354-.854l2.633-2.632A7.925 7.925 0 0 0 9.544 2.5a7.991 7.991 0 0 0-7.171 4.469c-.276.56-.917.834-1.51.636C.154 7.37-.207 6.56.123 5.89 1.829 2.404 5.402 0 9.545 0c2.72 0 5.182 1.05 7.043 2.75L19.19.146A.499.499 0 0 1 19.545 0Z" fill="currentColor" />
  </symbol>

  <symbol id="three-dots-vertical" viewBox="0 0 16 16">
    <path d="M9.5 13a1.5 1.5 0 1 1-3 0 1.5 1.5 0 0 1 3 0zm0-5a1.5 1.5 0 1 1-3 0 1.5 1.5 0 0 1 3 0zm0-5a1.5 1.5 0 1 1-3 0 1.5 1.5 0 0 1 3 0z" fill="currentColor" />
  </symbol>

  <symbol id="cross-fill-circle" viewBox="0 0 20 20">
    <path fill-rule="evenodd" clip-rule="evenodd" d="M0 10C0 4.477 4.477 0 10 0s10 4.477 10 10-4.477 10-10 10S0 15.523 0 10Zm10 1.414 1.414 1.414a1 1 0 0 0 1.414-1.414L11.414 10l1.414-1.414a1 1 0 0 0-1.414-1.414L10 8.586 8.586 7.172a1 1 0 0 0-1.414 1.414L8.586 10l-1.414 1.414a1 1 0 0 0 1.414 1.414L10 11.414Z" fill="currentColor" />
  </symbol>

  <symbol id="paperclip" viewBox="0 0 11 22">
    <path d="M9 6v10.398c0 1.67-1.129 3.19-2.765 3.525A3.506 3.506 0 0 1 2 16.5V4.112c0-.996.678-1.922 1.661-2.085A2.003 2.003 0 0 1 6 4v10.5a.5.5 0 0 1-1 0V6a1 1 0 0 0-2 0v8.353c0 1.308.939 2.502 2.24 2.634A2.503 2.503 0 0 0 8 14.5V4.177C8 2.09 6.477.221 4.399.02A4.004 4.004 0 0 0 0 4v12.255c0 2.871 2.093 5.44 4.949 5.718A5.506 5.506 0 0 0 11 16.5V6a1 1 0 0 0-2 0Z" fill="currentColor" />
  </symbol>

  <symbol id="funnel-fill" viewBox="0 0 16 16">
    <path d="M1.5 1.5A.5.5 0 0 1 2 1h12a.5.5 0 0 1 .5.5v2a.5.5 0 0 1-.128.334L10 8.692V13.5a.5.5 0 0 1-.342.474l-3 1A.5.5 0 0 1 6 14.5V8.692L1.628 3.834A.5.5 0 0 1 1.5 3.5v-2z" fill="currentColor" />
  </symbol>

  <symbol id="search-loop" viewBox="0 0 20 20">
    <path d="M8 0C3.594 0 0 3.594 0 8a7.96 7.96 0 0 0 2.012 5.281L.146 15.146A.5.5 0 0 0 .5 16H5a1 1 0 0 0 1-1v-4.5a.502.502 0 0 0-.854-.354l-1.72 1.721A5.957 5.957 0 0 1 2 8c0-3.326 2.674-6 6-6s6 2.674 6 6a5.985 5.985 0 0 1-5.143 5.93 1 1 0 1 0 .286 1.98 7.97 7.97 0 0 0 3.982-1.783l.873.871L14 16l4 4 2-2-4-4-1.004-.004-.871-.869A7.947 7.947 0 0 0 16 8c0-4.406-3.594-8-8-8Z" fill="currentColor" />
  </symbol>

  <symbol id="arrow-left-circle" viewBox="0 0 20 20">
    <path fill-rule="evenodd" clip-rule="evenodd" d="M10 0C4.477 0 0 4.477 0 10s4.477 10 10 10 10-4.477 10-10S15.523 0 10 0Zm0 2a8 8 0 1 1 0 16 8 8 0 0 1 0-16Zm-5.414 8 4.707-4.707 1.414 1.414L8.414 9H15v2H8.414l2.293 2.293-1.414 1.414L4.586 10Z" fill="currentColor" />
  </symbol>

  <symbol id="people" viewBox="0 0 20 13">
    <path opacity=".6" fill-rule="evenodd" clip-rule="evenodd" d="M6.906 2.844a2.844 2.844 0 1 1 5.688 0 2.844 2.844 0 0 1-5.688 0ZM1.625 4.469a2.031 2.031 0 1 1 4.062 0 2.031 2.031 0 0 1-4.062 0Zm14.219-2.032a2.031 2.031 0 1 0 0 4.063 2.031 2.031 0 0 0 0-4.063Zm-11.781 7.72c0-1.891 3.789-2.845 5.687-2.845 1.898 0 5.688.954 5.688 2.844v2.031a.813.813 0 0 1-.813.813h-9.75a.813.813 0 0 1-.813-.813v-2.03Zm-.896-1.99C1.883 8.368 0 9.255 0 10.324v1.864c0 .449.364.813.813.813h1.625v-2.844c0-.78.28-1.436.73-1.988Zm13.896 1.99c0-.782-.281-1.437-.73-1.99 1.284.2 3.167 1.087 3.167 2.156v1.864a.813.813 0 0 1-.813.813h-1.625v-2.844Z" fill="currentColor" />
  </symbol>

  <symbol id="people-add" viewBox="0 0 20 20">
    <path fill-rule="evenodd" clip-rule="evenodd" d="M4.762 3.81a3.81 3.81 0 1 1 7.619 0 3.81 3.81 0 0 1-7.62 0Zm3.81 10.476c0-3.143 2.57-5.715 5.714-5.715 3.143 0 5.714 2.572 5.714 5.715S17.429 20 14.286 20c-3.143 0-5.715-2.571-5.715-5.714Zm-.905-3.765C4.657 10.77 0 12.187 0 14.76v2.382h7.227a7.582 7.582 0 0 1 .44-6.622Zm7.571 1.86a.953.953 0 0 0-1.905 0v.952h-.952a.953.953 0 0 0 0 1.905h.952v.953a.953.953 0 0 0 1.905 0v-.953h.953a.953.953 0 0 0 0-1.905h-.953v-.952Z" fill="currentColor" />
  </symbol>

  <symbol id="question-circle" viewBox="0 0 20 20">
    <path fill-rule="evenodd" clip-rule="evenodd" d="M0 10C0 4.489 4.489 0 10 0s10 4.489 10 10-4.489 10-10 10S0 15.511 0 10Zm18 0c0-4.43-3.57-8-8-8s-8 3.57-8 8 3.57 8 8 8 8-3.57 8-8Zm-8-6C7.79 4 6 5.79 6 8h2c0-1.1.9-2 2-2s2 .9 2 2c0 .931-.65 1.509-1.346 2.125C9.856 10.833 9 11.593 9 13h2c0-.74.603-1.32 1.268-1.958C13.087 10.256 14 9.379 14 8c0-2.21-1.79-4-4-4ZM9 16v-2h2v2H9Z" fill="currentColor" />
  </symbol>

  <symbol id="exclamation-circle" viewBox="0 0 20 20">
    <path fill-rule="evenodd" clip-rule="evenodd" d="M0 10c0 5.514 4.486 10 10 10s10-4.486 10-10S15.514 0 10 0 0 4.486 0 10Zm18.462 0A8.45 8.45 0 0 1 10 18.462 8.45 8.45 0 0 1 1.538 10 8.45 8.45 0 0 1 10 1.538 8.45 8.45 0 0 1 18.462 10ZM9.23 14.615v-1.538h1.538v1.538H9.231Zm0-9.23v6.154h1.538V5.385H9.231Z" fill="currentColor" />
  </symbol>

  <symbol id="excel" viewBox="0 0 20 18">
    <path opacity=".8" fill-rule="evenodd" clip-rule="evenodd" d="M8.805.018A1 1 0 0 1 10 1v15.56a1 1 0 0 1-1.195.982l-8-1.602A1 1 0 0 1 0 14.96V2.6a1 1 0 0 1 .805-.98l8-1.602ZM12 3.78v-2h7a1 1 0 0 1 1 1v12a1 1 0 0 1-1 1h-7v-2h2v-2h-2v-2h2v-2h-2v-2h2v-2h-2Zm4 0h2v2h-2v-2ZM4.152 5.553a.774.774 0 1 0-1.404.648l1.313 2.573-1.479 2.658a.708.708 0 0 0 .62 1.051h.085a.707.707 0 0 0 .64-.406l.932-1.989c.075-.229.126-.4.15-.513h.016c.041.238.091.407.133.492l.912 1.98a.75.75 0 1 0 1.344-.668L6.008 8.748l1.388-2.635a.706.706 0 1 0-1.263-.629l-.84 1.791a6.525 6.525 0 0 0-.201.647h-.026a4.387 4.387 0 0 0-.189-.63l-.725-1.738ZM16 7.78h2v2h-2v-2Zm2 4h-2v2h2v-2Z" fill="currentColor" />
  </symbol>

  <symbol id="file-zip" viewBox="0 0 16 20">
    <path fill-rule="evenodd" clip-rule="evenodd" d="M2 0a2 2 0 0 0-2 2v16a2 2 0 0 0 2 2h12a2 2 0 0 0 2-2V2a2 2 0 0 0-2-2h-4a1 1 0 0 0-1 1 1 1 0 0 1-2 0 1 1 0 0 0-1-1H2Zm6 3a1 1 0 1 1 0 2 1 1 0 0 1 0-2Zm1 4a1 1 0 1 0-2 0 1 1 0 0 0 2 0ZM7.48 9h1.038c.309 0 .603.142.79.387C9.87 10.12 11 11.754 11 13a3 3 0 1 1-6 0c0-1.246 1.13-2.88 1.691-3.613A.992.992 0 0 1 7.481 9ZM7 13a1 1 0 1 1 2 0 1 1 0 0 1-2 0Z" fill="currentColor" />
  </symbol>

  <symbol id="file-check" viewBox="0 0 22 21">
    <path fill-rule="evenodd" clip-rule="evenodd" d="M.96 2a2 2 0 0 1 2-2h11.173a2 2 0 0 1 1.414.586l2.828 2.828a2 2 0 0 1 .586 1.414v2.76a7.98 7.98 0 0 0-9.26 2.438A2.986 2.986 0 0 0 6.961 13c0 .893.395 1.683 1.012 2.232.028.976.228 1.91.576 2.768H2.96a2 2 0 0 1-2-2V2Zm11 0h-8a1 1 0 0 0-1 1v2a1 1 0 0 0 1 1h8a1 1 0 0 0 1-1V3a1 1 0 0 0-1-1Zm4 7c-3.3 0-6 2.7-6 6s2.7 6 6 6 6-2.7 6-6-2.7-6-6-6Zm4.2 4.7-1.398-1.4-3.301 3.3-1.8-1.8-1.4 1.4 3.2 3.2 4.7-4.7Z" fill="currentColor" />
  </symbol>

  <symbol id="eye" viewBox="0 0 23 16">
    <path fill-rule="evenodd" clip-rule="evenodd" d="M11.003 0C4.145 0 .89 5.879.1 7.557c-.132.28-.132.604 0 .884C.889 10.121 4.145 16 11.003 16c6.834 0 10.093-5.837 10.897-7.54a1.078 1.078 0 0 0 0-.92C21.096 5.836 17.837 0 11.003 0Zm0 3a5 5 0 1 1 0 10.001 5 5 0 0 1 0-10.001Zm-3 5a3 3 0 1 1 6 0 3 3 0 0 1-6 0Z" fill="currentColor" />
  </symbol>

  <symbol id="eye-masked" viewBox="0 0 22 20">
    <path fill-rule="evenodd" clip-rule="evenodd" d="M2.624 0 1.21 1.414 3.985 4.19c-.54.44-1.02.908-1.45 1.377A15.197 15.197 0 0 0 .089 9.303a.968.968 0 0 0 0 .808c.738 1.627 3.919 7.596 10.829 7.596 1.2 0 2.29-.18 3.27-.49.718-.22 1.378-.508 1.978-.848l3.045 3.045L20.624 18l-18-18Zm8.293 1.707c-1.2 0-2.29.18-3.27.49l1.66 1.66c.5-.1 1.04-.15 1.61-.15 5.28 0 7.94 4.27 8.81 6-.33.66-.94 1.7-1.85 2.72l1.42 1.42a15.198 15.198 0 0 0 2.448-3.736.968.968 0 0 0 0-.808c-.738-1.627-3.918-7.596-10.828-7.596ZM7.475 7.68l-2.07-2.07c-.55.439-1.04.907-1.45 1.376-.92 1.02-1.519 2.061-1.849 2.721.87 1.73 3.53 6 8.81 6 .57 0 1.1-.05 1.61-.15a8.075 8.075 0 0 0 2.148-.678l-1.73-1.73c-.6.359-1.288.558-2.027.558h-.006c-.078 0-.166 0-.244-.01a3.99 3.99 0 0 1-3.74-3.74 2.04 2.04 0 0 1-.01-.245v-.005c0-.739.2-1.428.558-2.027Zm3.692-1.963 3.74 3.74a3.99 3.99 0 0 0-3.74-3.74Zm.265 5.92L8.987 9.19c-.05.16-.07.337-.07.516 0 1.1.9 2 2 2 .178 0 .356-.021.515-.07Z" fill="currentColor" />
  </symbol>

  <symbol id="cross-fill-file" viewBox="0 0 18 18">
    <path opacity=".6" fill-rule="evenodd" clip-rule="evenodd" d="M11.851 0H16a2 2 0 0 1 2 2v14a2 2 0 0 1-2 2H2a2 2 0 0 1-2-2V2a2 2 0 0 1 2-2h4.149c.415 0 .822.237.953.632a2 2 0 0 0 3.796 0c.131-.395.537-.632.953-.632Zm.822 12.673a1.114 1.114 0 0 0 0-1.577L10.577 9l2.096-2.096a1.115 1.115 0 1 0-1.577-1.577L9 7.423 6.904 5.327a1.115 1.115 0 1 0-1.577 1.577L7.423 9l-2.096 2.096a1.114 1.114 0 1 0 1.577 1.577L9 10.577l2.096 2.096a1.114 1.114 0 0 0 1.577 0Z" fill="currentColor" />
  </symbol>

  <symbol id="check-fill-file" viewBox="0 0 18 18">
    <path opacity=".6" fill-rule="evenodd" clip-rule="evenodd" d="M11.851 0H16a2 2 0 0 1 2 2v14a2 2 0 0 1-2 2H2a2 2 0 0 1-2-2V2a2 2 0 0 1 2-2h4.149c.415 0 .822.237.953.632a2 2 0 0 0 3.796 0c.131-.395.537-.632.953-.632ZM4.707 10.121l2.586 2.586a.999.999 0 0 0 1.414 0L13.5 7.914A1 1 0 0 0 12.086 6.5L8 10.586 6.121 8.707a1 1 0 0 0-1.414 1.414Z" fill="currentColor" />
  </symbol>

  <symbol id="database-cross" viewBox="0 0 16 19">
    <path opacity=".6" fill-rule="evenodd" clip-rule="evenodd" d="M0 1.727C0 .773.773 0 1.727 0h10.364c.954 0 1.727.773 1.727 1.727v1.728a.864.864 0 0 1-.863.863H.864A.864.864 0 0 1 0 3.455V1.727ZM0 6.91c0-.477.387-.864.864-.864h12.09c.477 0 .864.387.864.864V9.5s0 .864-.863.864c-.032 0-.063.003-.094.006-.027.003-.053.006-.08.007l-.102-.006a2.17 2.17 0 0 0-.156-.007 5.58 5.58 0 0 0-2.982.863H.864A.864.864 0 0 1 0 10.364V6.909Zm.864 6.046a.864.864 0 0 0-.864.863v1.728c0 .954.773 1.727 1.727 1.727h5.339a5.618 5.618 0 0 1-.157-1.296c0-1.114.329-2.15.89-3.022H.863Zm8.889.253a.86.86 0 0 1 1.221 0l1.549 1.548 1.548-1.548a.863.863 0 1 1 1.222 1.22l-1.549 1.55 1.549 1.548a.863.863 0 1 1-1.222 1.221l-1.548-1.549-1.549 1.549a.863.863 0 1 1-1.221-1.221l1.549-1.549-1.549-1.548a.863.863 0 0 1 0-1.221Z" fill="currentColor" />
  </symbol>

  <symbol id="database-pen" viewBox="0 0 15 19">
    <path opacity=".6" fill-rule="evenodd" clip-rule="evenodd" d="M1.714 0C.767 0 0 .767 0 1.714V3.43c0 .473.384.857.857.857h12a.858.858 0 0 0 .858-.857V1.714C13.715.767 12.947 0 12 0H1.714ZM.857 6A.857.857 0 0 0 0 6.857v3.429c0 .473.384.857.857.857h12a.858.858 0 0 0 .858-.857V6.857A.858.858 0 0 0 12.858 6h-12ZM0 13.715c0-.473.384-.857.857-.857h6.521l-.4.4c-.924.924-.084 2.42.84 3.345l.541.54H1.714A1.714 1.714 0 0 1 0 15.43v-1.714Zm9.429-.286v1.904l2.574 2.575 1.905-1.905-2.575-2.574H9.43Zm4.806 2.901-1.905 1.905.37.37a1.347 1.347 0 0 0 1.906-1.904l-.371-.371Z" fill="currentColor" />
  </symbol>

  <symbol id="stat-board" viewBox="0 0 22 18">
    <g fill="none" fill-rule="evenodd">
      <path fill="currentColor" d="M-1788-252H132V772h-1920z"/>
      <path d="M21 0H1a1 1 0 0 0 0 2v11a2 2 0 0 0 2 2h7v2a1 1 0 0 0 2 0v-2h7a2 2 0 0 0 2-2V2a1 1 0 0 0 0-2Zm-5.164 8.25L14 6.414l-3.272 3.272a1.03 1.03 0 0 1-1.456 0L8 8.414 6.164 10.25A1 1 0 0 1 4.75 8.836l2.522-2.522a1.03 1.03 0 0 1 1.456 0L10 7.586l3.272-3.272a1.03 1.03 0 0 1 1.456 0l2.522 2.522a1 1 0 0 1-1.414 1.414Z" fill="currentColor" fill-rule="nonzero" />
    </g>
  </symbol>

  <symbol id="administrator-male" viewBox="0 0 18 18">
    <path fill-rule="evenodd" clip-rule="evenodd" d="M5 4a4 4 0 1 1 8 0 4 4 0 0 1-8 0Zm2.965 7.053C8.335 11.02 8.686 11 9 11c.314 0 .665.02 1.035.053l1.342 2.011a.748.748 0 0 0 1.246 0l.885-1.324C15.867 12.463 18 13.715 18 15.5V17a1 1 0 0 1-1 1H1a1 1 0 0 1-1-1v-1.5c0-1.785 2.133-3.037 4.492-3.76l.885 1.325a.748.748 0 0 0 1.246 0l1.342-2.012Z" fill="currentColor" />
  </symbol>

  <symbol id="list" viewBox="0 0 16 20">
    <path fill-rule="evenodd" clip-rule="evenodd" d="M14 0H2C.9 0 0 .9 0 2v16c0 1.1.9 2 2 2h12c1.1 0 2-.9 2-2V2c0-1.1-.9-2-2-2ZM6 14.5a.5.5 0 0 1-.5.5h-1a.5.5 0 0 1-.5-.5v-1a.5.5 0 0 1 .5-.5h1a.5.5 0 0 1 .5.5v1ZM5.5 11a.5.5 0 0 0 .5-.5v-1a.5.5 0 0 0-.5-.5h-1a.5.5 0 0 0-.5.5v1a.5.5 0 0 0 .5.5h1ZM6 6.5a.5.5 0 0 1-.5.5h-1a.5.5 0 0 1-.5-.5v-1a.5.5 0 0 1 .5-.5h1a.5.5 0 0 1 .5.5v1ZM9 15h2a1 1 0 0 0 0-2H9a1 1 0 0 0 0 2Zm2-4H9a1 1 0 0 1 0-2h2a1 1 0 0 1 0 2ZM9 7h2a1 1 0 0 0 0-2H9a1 1 0 0 0 0 2Z" fill="currentColor" />
  </symbol>

  <symbol id="arobase" viewBox="0 0 20 20">
    <path d="M10 0C4.477 0 0 4.477 0 10s4.477 10 10 10 10-4.477 10-10S15.523 0 10 0Zm0 2c4.411 0 8 3.589 8 8v1c0 1.654-1.346 3-3 3a2.98 2.98 0 0 1-2.285-1.08A3.973 3.973 0 0 1 10 14c-2.206 0-4-1.794-4-4s1.794-4 4-4 4 1.794 4 4v1c0 .551.449 1 1 1 .551 0 1-.449 1-1v-1c0-3.309-2.691-6-6-6s-6 2.691-6 6 2.691 6 6 6h1a1 1 0 0 1 0 2h-1c-4.411 0-8-3.589-8-8s3.589-8 8-8Zm0 6a2 2 0 1 0 0 4 2 2 0 0 0 0-4Z" fill="currentColor" fill-rule="nonzero" />
  </symbol>

  <symbol id="mac" viewBox="0 0 22 20">
    <path d="M2 0a2 2 0 0 0-2 2v12a2 2 0 0 0 2 2h7c0 .868-.551 1.606-1.324 1.883-.417.15-.676.57-.676 1.013C7 19.506 7.495 20 8.104 20h5.792c.61 0 1.104-.495 1.104-1.104 0-.443-.259-.863-.676-1.013A1.999 1.999 0 0 1 13 16h7a2 2 0 0 0 2-2V2a2 2 0 0 0-2-2H2Zm0 2h18v10H2V2Zm9 11a1 1 0 1 1 0 2 1 1 0 0 1 0-2Z" fill="currentColor" fill-rule="nonzero"/>
  </symbol>

  <symbol id="sens-lock" viewBox="0 0 20 20">
    <path d="M10.158.001c.537.009 1.084.058 1.637.155 4.029.707 7.285 3.924 8.03 7.947 1.172 6.344-3.69 11.896-9.825 11.896C4.865 20 .622 16.11.063 11.12a1.009 1.009 0 0 1 1-1.12c.5 0 .93.367.984.864C2.48 14.87 5.882 18 10 18c4.941 0 8.85-4.502 7.84-9.619-.608-3.08-3.073-5.57-6.149-6.205a7.98 7.98 0 0 0-7.359 2.207l1.47 1.47A.672.672 0 0 1 5.327 7H.906A.906.906 0 0 1 0 6.093v-4.42c0-.598.722-.9 1.146-.476l1.772 1.771a9.942 9.942 0 0 1 7.24-2.967ZM10 5c1.7 0 3 1.3 3 3v1c.6 0 1 .4 1 1v4c0 .6-.4 1-1 1H7c-.6 0-1-.4-1-1v-4c0-.6.4-1 1-1V8c0-1.7 1.3-3 3-3Zm0 1.5c-.8 0-1.5.7-1.5 1.5v1h3V8c0-.8-.7-1.5-1.5-1.5Z" fill="currentColor" fill-rule="nonzero" />
  </symbol>

  <symbol id="user-pen" viewBox="0 0 20 20">
    <path d="M8.571 0a3.813 3.813 0 0 0-3.81 3.81 3.813 3.813 0 0 0 3.81 3.809 3.813 3.813 0 0 0 3.81-3.81A3.813 3.813 0 0 0 8.571 0Zm0 10.476C5.58 10.476 0 11.948 0 14.762v1.428c0 .526.427.953.952.953H9.04c.414 0 .813-.165 1.105-.458l4.064-4.064a.64.64 0 0 0-.212-1.044c-1.772-.727-3.923-1.1-5.426-1.1Zm9.721.953a.475.475 0 0 0-.336.14l-.953.951 1.905 1.905.952-.952a.477.477 0 0 0 0-.674l-1.23-1.23a.476.476 0 0 0-.338-.14Zm-1.962 1.765-4.901 4.901V20h1.904l4.902-4.901-1.905-1.905Z" fill="currentColor" fill-rule="nonzero" />
  </symbol>

  <symbol id="route" viewBox="0 0 18 18">
    <path d="M2.905 0A2.92 2.92 0 0 0 0 2.905c0 1.253.816 2.32 1.937 2.724v3.087a.969.969 0 1 0 1.937 0V5.63c1.12-.404 1.937-1.471 1.937-2.724A2.92 2.92 0 0 0 2.905 0Zm11.622 0a2.905 2.905 0 0 0-2.735 1.937H8.716a.969.969 0 1 0 0 1.937h3.074A2.905 2.905 0 1 0 14.527 0ZM2.905 1.937c.547 0 .969.422.969.968a.947.947 0 0 1-.984.956.969.969 0 0 0-.041.001.947.947 0 0 1-.912-.957c0-.546.422-.968.968-.968Zm11.607 5.797a.969.969 0 0 0-.954.982v2.906l-2.22 2.22a.97.97 0 0 0 0 1.37l2.504 2.504a.967.967 0 0 0 1.37 0l2.504-2.504a.967.967 0 0 0 0-1.37l-2.22-2.22V8.716a.969.969 0 0 0-.984-.982ZM.968 11.622A.969.969 0 0 0 0 12.59v3.874c0 .534.434.968.968.968h3.874a.969.969 0 0 0 .969-.968V12.59a.969.969 0 0 0-.969-.968H.968Z" fill="currentColor" fill-rule="nonzero" />
  </symbol>

  <symbol id="user-avatar" viewBox="0 0 20 20">
    <path d="M10 0C4.477 0 0 4.477 0 10s4.477 10 10 10 10-4.477 10-10S15.523 0 10 0Zm0 2.75a3.25 3.25 0 1 1 0 6.5 3.25 3.25 0 0 1 0-6.5ZM3.912 15.188a1.015 1.015 0 0 1 .173-1.471C5.602 12.576 8.366 12 10 12c1.634 0 4.398.576 5.916 1.717.469.353.554 1.025.173 1.471-1.108 1.299-2.45 2.661-6.06 2.673-3.61.011-4.996-1.358-6.117-2.673Z" fill="currentColor" fill-rule="nonzero" />
  </symbol>
</svg>