<?xml version="1.0" encoding="UTF-8" standalone="no"?>
<!-- Created with Inkscape (http://www.inkscape.org/) -->

<svg
   width="210mm"
   height="297mm"
   viewBox="0 0 210 297"
   version="1.1"
   id="svg5"
   inkscape:version="1.2.2 (732a01da63, 2022-12-09)"
   sodipodi:docname="path.svg"
   xmlns:inkscape="http://www.inkscape.org/namespaces/inkscape"
   xmlns:sodipodi="http://sodipodi.sourceforge.net/DTD/sodipodi-0.dtd"
   xmlns="http://www.w3.org/2000/svg"
   xmlns:svg="http://www.w3.org/2000/svg">
  <sodipodi:namedview
     id="namedview7"
     pagecolor="#505050"
     bordercolor="#eeeeee"
     borderopacity="1"
     inkscape:showpageshadow="0"
     inkscape:pageopacity="0"
     inkscape:pagecheckerboard="0"
     inkscape:deskcolor="#505050"
     inkscape:document-units="mm"
     showgrid="false"
     inkscape:zoom="3.659624"
     inkscape:cx="188.68059"
     inkscape:cy="242.37463"
     inkscape:window-width="2560"
     inkscape:window-height="1369"
     inkscape:window-x="-8"
     inkscape:window-y="-8"
     inkscape:window-maximized="1"
     inkscape:current-layer="layer1" />
  <defs
     id="defs2" />
  <g
     inkscape:label="Calque 1"
     inkscape:groupmode="layer"
     id="layer1">
    <path
       style="fill:none;stroke-width:0.264583"
       d="m 27.762414,31.521908 c 0,0 -9.254138,11.278481 0.578384,32.100292 9.832523,20.821811 4.337879,15.037974 9.832523,20.821811 5.494644,5.783836 18.797468,10.121714 27.184029,9.832522 8.386564,-0.289192 10.121715,0.867574 13.013632,-1.156769 2.89192,-2.024343 1.156769,0.867577 3.181109,-3.181109 2.024343,-4.048686 6.073029,-2.024343 1.735154,-6.073029 -4.337879,-4.048686 -5.205455,-6.65141 -8.097372,-4.337875 -2.89192,2.313532 -4.627071,-1.735153 -4.916263,5.205452 -0.289189,6.940603 -14.170398,-5.783837 0,10.700096 14.170401,16.483931 18.219087,12.146061 14.459593,19.086661 -3.759494,6.9406 -2.602727,7.51899 -9.254138,8.09737 -6.651413,0.57838 -8.097372,-3.75949 -15.327167,0.57838 -7.229795,4.33788 -16.194741,7.2298 -15.905551,13.01364 0.289192,5.78383 -5.494644,6.9406 7.229798,9.83252 12.724439,2.89192 11.56767,3.18111 23.713728,1.15676 12.146055,-2.02434 14.45959,-22.84615 28.919177,-2.02434 14.4596,20.82181 35.85979,21.4002 2.02435,21.97858 -33.835447,0.57838 -25.159691,4.91626 -45.403117,-4.91626 -20.24343,-9.83252 -45.113925,0.57838 -23.713731,-18.21909 21.400196,-18.79746 31.8111,-37.88412 42.800388,-11.85686 10.989292,26.02727 4.048686,22.26777 12.146058,33.54625 8.097372,11.27848 -5.783837,11.85687 12.146052,11.56767 17.9299,-0.28919 23.13535,16.19475 34.99221,-6.9406 11.85687,-23.13535 -5.49464,-39.33009 16.19475,-29.78676 21.68938,9.54333 26.31645,2.89192 26.31645,19.66505 0,16.77312 10.41091,16.77312 -5.78384,23.13534 -16.19474,6.36222 -22.55696,20.24343 -31.23271,-0.28919 -8.67576,-20.53262 4.04868,-26.02726 -13.30282,-27.76241 -17.35151,-1.73516 -18.21909,-15.61636 -33.546255,5.20545 -15.327167,20.82181 13.302825,34.70302 -20.821811,23.71373 C 42.800389,173.2259 47.716651,158.18793 34.124635,163.68257 20.532619,169.17721 12.72444,158.76631 14.170399,180.1665 c 1.445959,21.4002 -11.5676726,30.36514 8.964946,24.00292 20.53262,-6.36222 8.675755,-10.98929 36.148977,-17.92989 27.473224,-6.9406 29.786756,-16.77312 41.354428,-3.75949 11.56767,13.01363 -6.073025,14.45959 10.7001,20.53262 16.77313,6.07302 15.03798,9.54333 30.94352,1.15676 15.90556,-8.38656 12.43525,-29.20837 21.4002,-15.32716 8.96495,13.8812 16.48393,12.43525 10.4109,23.71373 -6.07303,11.27848 -0.28919,21.111 -16.77312,10.12171 -16.48393,-10.98929 -21.111,-17.06232 -26.89484,-19.37585 -5.78384,-2.31354 -18.21909,-3.47031 -24.29211,2.31353 -6.07303,5.78384 -8.097373,14.1704 -9.543334,12.14606 -1.445959,-2.02434 -4.91626,-11.85687 -21.111001,-13.30282 -16.194743,-1.44596 -42.511199,-31.52191 -33.257061,1.15676 9.254141,32.67868 6.073029,6.94061 17.35151,32.10029 11.278481,25.15969 -11.567673,1.44596 9.254138,24.58131 20.821811,23.13533 9.54333,24.00293 22.556962,26.60563 13.013636"
       id="path391" />
    <path
       style="fill:#000000;stroke-width:0.264583"
       d="m 37.016552,25.44888 c 0,0 43.234178,-0.0723 43.234178,14.965677 0,16.491157 -42.511198,2.964215 -42.511198,20.026531 0,15.327167 42.655735,3.470303 42.655794,20.749514 6.9e-5,19.954958 -43.040025,1.811319 -43.08958,21.617088 -0.04849,19.38037 43.265792,5.13067 43.234176,21.54479 -0.03371,17.49928 -44.101753,5.49465 -44.101753,22.84616"
       id="path397"
       sodipodi:nodetypes="csssssc" />
  </g>
</svg>
