<svg width="71" height="56" viewBox="0 0 71 56" fill="none" xmlns="http://www.w3.org/2000/svg">
<path d="M70.3248 28.9685L44.2715 11.2049C43.7305 10.8373 42.994 10.9778 42.6265 11.5188C42.4934 11.7148 42.4221 11.9461 42.4218 12.1831V22.8649C24.2082 23.6181 14.2368 41.6422 14 54.7565V54.8157C14 55.4698 14.5302 56 15.1843 56V56C15.831 56.0001 16.3581 55.4813 16.3686 54.8347V54.766C16.5011 51.5851 28.9498 37.8645 42.4218 37.0876V47.7103C42.4225 48.3643 42.9533 48.8939 43.6074 48.8932C43.8443 48.893 44.0757 48.8216 44.2716 48.6885L70.3249 30.9249C70.8652 30.5562 71.0043 29.8194 70.6356 29.2792C70.5522 29.1572 70.4469 29.0517 70.3248 28.9685Z" fill="url(#paint0_linear_1_12787)"/>
<path opacity="0.297658" d="M24.7901 5.83728C25.3026 9.21532 23.8804 12.2333 23.8804 12.2333C23.8804 12.2333 21.6236 9.77404 21.1111 6.39599C20.5987 3.01795 22.0246 0 22.0246 0C22.0246 0 24.2777 2.45924 24.7901 5.83728Z" fill="#5E2750"/>
<path opacity="0.297658" d="M32.3189 13.2213C34.1785 13.2008 35.697 14.1977 35.697 14.1977C35.697 14.1977 34.2005 15.2279 32.3409 15.2484C30.4813 15.2689 28.9629 14.2712 28.9629 14.2712C28.9629 14.2712 30.4594 13.241 32.3189 13.2213Z" fill="#5E2750"/>
<path opacity="0.297658" d="M28.09 8.08592C26.3593 9.98796 25.9932 12.4737 25.9932 12.4737C25.9932 12.4737 28.4327 11.8748 30.1627 9.97204C31.8926 8.06924 32.2595 5.58423 32.2595 5.58423C32.2595 5.58423 29.8208 6.18312 28.09 8.08592Z" fill="#5E2750"/>
<path d="M31.0003 29.9993C31.0003 29.568 30.818 29.1532 30.5 28.8615L29.4425 27.8422L30.1423 26.6025C30.3538 26.2267 30.3995 25.7752 30.266 25.365C30.1325 24.954 29.831 24.6157 29.438 24.4365L28.118 23.7937L28.4 22.3987C28.4848 21.9765 28.3888 21.534 28.1353 21.1845C27.8818 20.835 27.491 20.6062 27.0605 20.5567L25.6063 20.3527L25.4435 18.9375C25.3948 18.5092 25.166 18.1177 24.8173 17.8642C24.4685 17.6107 24.0253 17.5148 23.6015 17.5988L22.1548 17.8545L21.563 16.56C21.3838 16.1685 21.0455 15.867 20.636 15.7335C20.225 15.5985 19.775 15.645 19.3978 15.8565L18.1018 16.5465L17.138 15.4988C16.8463 15.1815 16.4315 15 16.001 15H15.9988C15.5668 15.0008 15.1505 15.1845 14.8595 15.5025L13.8403 16.56L12.6005 15.861C12.2248 15.6488 11.7725 15.6052 11.3638 15.7372C10.9535 15.87 10.6145 16.1722 10.4353 16.5645L9.79255 17.8845L8.39755 17.6033C7.97455 17.5163 7.53205 17.6137 7.18405 17.8672C6.83455 18.1207 6.6058 18.5115 6.55555 18.942L6.3523 20.397L4.9363 20.559C4.50805 20.6085 4.11655 20.8365 3.8623 21.186C3.6088 21.5347 3.51205 21.978 3.5968 22.4018L3.8533 23.8477L2.55955 24.4395C2.1673 24.6187 1.86505 24.9562 1.73155 25.3665C1.5988 25.7767 1.6438 26.2282 1.85605 26.6047L2.54605 27.9008L1.49905 28.8638C1.1803 29.1555 0.998047 29.5702 0.998047 30.0022C0.998047 30.4342 1.1803 30.849 1.4983 31.1415L2.5558 32.1607L1.85605 33.4005C1.64455 33.7762 1.5988 34.2278 1.7323 34.638C1.8658 35.0483 2.1673 35.3873 2.5603 35.5658L3.8803 36.2085L3.59755 37.605C3.5128 38.0272 3.6088 38.4698 3.8623 38.8193C4.1158 39.1688 4.50655 39.3975 4.93855 39.4478L6.3928 39.648L6.5563 41.061C6.6043 41.4893 6.8323 41.8808 7.18105 42.1343C7.53205 42.3885 7.97455 42.486 8.3983 42.3997L9.84505 42.1432L10.4368 43.4385C10.616 43.83 10.9543 44.1315 11.3645 44.265C11.7748 44.3985 12.2255 44.3528 12.6013 44.1413L13.898 43.4513L14.861 44.4998C15.1528 44.8178 15.5683 45 15.9995 45H16.0003C16.4315 45 16.8463 44.817 17.138 44.4998L18.1573 43.4422L19.397 44.1413C19.7735 44.3543 20.225 44.3985 20.6338 44.265C21.044 44.1322 21.383 43.83 21.5623 43.437L22.205 42.117L23.6008 42.399C24.02 42.4838 24.4648 42.3878 24.8143 42.1343C25.163 41.8808 25.3925 41.49 25.442 41.0602L25.6453 39.6052L27.0598 39.4425C27.488 39.393 27.8795 39.165 28.1338 38.8155C28.388 38.466 28.484 38.0235 28.3993 37.5998L28.1428 36.153L29.4365 35.5613C29.8288 35.382 30.131 35.0445 30.2645 34.6343C30.3988 34.224 30.353 33.7732 30.1415 33.396L29.4515 32.0993L30.4993 31.1362C30.818 30.846 31.0003 30.4305 31.0003 29.9993Z" fill="#60B58E"/>
<path d="M21.044 25.1001L13.7859 32.3668L11.2853 29.8734C10.8187 29.4081 10.0635 29.4086 9.59776 29.8748V29.8748C9.13108 30.3415 9.13156 31.0986 9.59871 31.5648L12.9433 34.9012C13.41 35.367 14.1657 35.366 14.6314 34.8998L22.7335 26.7881C23.1992 26.3215 23.1992 25.5658 22.733 25.0996V25.0996C22.2663 24.6334 21.5102 24.6334 21.044 25.1001Z" fill="white"/>
<defs>
<linearGradient id="paint0_linear_1_12787" x1="28.3231" y1="22.3392" x2="6.59692" y2="49.7826" gradientUnits="userSpaceOnUse">
<stop stop-color="white"/>
<stop offset="1" stop-color="white" stop-opacity="0.01"/>
</linearGradient>
</defs>
</svg>
