<svg width="113" height="86" viewBox="0 0 113 86" fill="none" xmlns="http://www.w3.org/2000/svg">
<path d="M7.98387 82.5457C7.73914 80.7627 7.48734 78.9566 7.65942 77.1545C7.81191 75.554 8.30022 73.991 9.29433 72.7089C9.822 72.0299 10.4641 71.448 11.1917 70.9896C11.3814 70.8699 11.556 71.1704 11.3671 71.2897C10.1081 72.0853 9.13431 73.2602 8.58609 74.645C7.98063 76.1849 7.88341 77.8636 7.9877 79.4995C8.05073 80.4887 8.18469 81.4715 8.31922 82.4531C8.34126 82.5452 8.28819 82.6386 8.19779 82.6669C8.10529 82.6918 8.00996 82.6376 7.98399 82.5454L7.98387 82.5457Z" fill="#F2F2F2"/>
<path d="M7.29208 83.5707C8.47032 81.4859 9.83686 79.169 12.2789 78.4284C12.9578 78.2232 13.6697 78.1497 14.3762 78.2118C14.599 78.2311 14.5433 78.5743 14.3211 78.5552C13.1367 78.4568 11.9546 78.7696 10.9739 79.4407C10.03 80.0831 9.29514 80.9763 8.67323 81.9234C8.29222 82.5036 7.95096 83.1083 7.6097 83.7123C7.50066 83.9053 7.18177 83.7659 7.29208 83.5707Z" fill="#F2F2F2"/>
<path d="M50.8559 26.7549C43.6762 26.7549 37.8559 20.9346 37.8559 13.7549V13.7549C37.8559 6.57518 43.6762 0.754883 50.8559 0.754883L99.856 0.754883C107.036 0.754883 112.856 6.57517 112.856 13.7549V13.7549C112.856 20.9345 107.036 26.7548 99.856 26.7548L50.8559 26.7549Z" fill="white"/>
<path fill-rule="evenodd" clip-rule="evenodd" d="M54.6137 8.61857C54.6137 8.27597 54.8918 8.00478 55.2166 8.00007C55.263 7.9994 55.3104 8.00364 55.3581 8.01445C56.0473 8.17095 56.6923 8.44455 57.2723 8.81155C57.6019 9.02021 57.6437 9.48652 57.3682 9.76207V9.76327C57.1706 9.96089 56.8595 10.0077 56.6238 9.85797C56.1537 9.55848 55.6295 9.33709 55.0692 9.2119C54.7979 9.15114 54.6137 8.89658 54.6137 8.61857ZM52.6407 8.01445C52.6885 8.00356 52.7369 7.99945 52.7834 8.00007C53.1086 8.00436 53.3863 8.27597 53.3863 8.61857C53.3863 8.89658 53.2027 9.15114 52.9308 9.2119C52.3705 9.33709 51.8457 9.55848 51.375 9.85797C51.1393 10.0077 50.8294 9.96089 50.6318 9.76327L50.6306 9.76207C50.3551 9.48652 50.3981 9.02021 50.7277 8.81155C51.3077 8.44455 51.9515 8.17033 52.6407 8.01445ZM49.2618 10.4513C49.0845 10.4686 48.9166 10.5622 48.8123 10.727C48.4453 11.3069 48.1717 11.9508 48.0152 12.64C47.9286 13.0217 48.2277 13.3856 48.6193 13.3856C48.8973 13.3856 49.1519 13.2013 49.2126 12.9301C49.3372 12.3692 49.5592 11.845 49.8587 11.3742C50.0084 11.1386 49.9616 10.8287 49.764 10.6311L49.7628 10.6299C49.625 10.4921 49.439 10.434 49.2618 10.4513ZM58.2372 10.6299C58.375 10.4921 58.561 10.434 58.7382 10.4513C58.9154 10.4686 59.0837 10.5622 59.1877 10.727C59.5553 11.3069 59.8283 11.9508 59.9848 12.64C60.072 13.0217 59.7723 13.3856 59.3807 13.3856C59.1027 13.3856 58.8481 13.202 58.7874 12.9301C58.6622 12.3698 58.4408 11.845 58.1413 11.3742C57.9916 11.1386 58.039 10.8281 58.2372 10.6299ZM48.6193 14.613C48.2277 14.613 47.928 14.9768 48.0152 15.3585C48.1717 16.0477 48.4447 16.6916 48.8123 17.2716C49.0203 17.6011 49.4872 17.6442 49.7628 17.3687C49.961 17.1704 50.0084 16.86 49.8587 16.6243C49.5592 16.1536 49.3378 15.6288 49.2126 15.0685C49.1519 14.7966 48.8973 14.613 48.6193 14.613ZM58.7874 15.0685C58.8481 14.7972 59.1027 14.613 59.3807 14.613C59.7723 14.613 60.0714 14.9762 59.9848 15.3573C59.8283 16.0465 59.5547 16.6916 59.1877 17.2716C58.9791 17.6011 58.5128 17.643 58.2372 17.3675H58.236C58.0384 17.1699 57.9916 16.8588 58.1413 16.6231C58.4408 16.153 58.6622 15.6288 58.7874 15.0685ZM50.9902 18.0579C50.8584 18.0755 50.7306 18.1365 50.6318 18.2353L50.6306 18.2365C50.3551 18.512 50.3981 18.9783 50.7277 19.187C51.3077 19.554 51.9515 19.8276 52.6407 19.9841C53.0225 20.0706 53.3863 19.7715 53.3863 19.38C53.3863 19.102 53.2021 18.8474 52.9308 18.7867C52.3705 18.6615 51.8463 18.4401 51.3762 18.1406C51.2583 18.0657 51.122 18.0402 50.9902 18.0579ZM56.6238 18.1406C56.742 18.0657 56.8791 18.0403 57.011 18.0579C57.1429 18.0755 57.2694 18.1368 57.3682 18.2353H57.3694C57.6449 18.5108 57.6019 18.9783 57.2723 19.187C56.6923 19.5546 56.0485 19.8276 55.3593 19.9841C54.9775 20.0712 54.6137 19.7715 54.6137 19.38C54.6137 19.102 54.7979 18.8474 55.0692 18.7867C55.6295 18.6615 56.1531 18.4401 56.6238 18.1406Z" fill="#873873"/>
<path d="M70.3048 10.6753C70.022 10.6762 69.7931 11.1237 69.7931 11.6753C69.7931 12.2269 70.022 12.6743 70.3048 12.6753H98.4307C98.7134 12.6743 98.9424 12.2269 98.9424 11.6753C98.9424 11.1237 98.7134 10.6762 98.4307 10.6753L70.3048 10.6753Z" fill="#E4E4E4"/>
<path d="M70.3048 14.751C70.0222 14.7523 69.7935 15.1996 69.7935 15.751C69.7935 16.3023 70.0222 16.7496 70.3048 16.751H84.6636C84.9462 16.7496 85.175 16.3023 85.175 15.751C85.175 15.1996 84.9462 14.7523 84.6636 14.751L70.3048 14.751Z" fill="#E4E4E4"/>
<g opacity="0.6">
<path d="M50.8559 54.7549C43.6762 54.7549 37.8559 48.9346 37.8559 41.7549V41.7549C37.8559 34.5752 43.6762 28.7549 50.8559 28.7549H99.856C107.036 28.7549 112.856 34.5752 112.856 41.7549V41.7549C112.856 48.9345 107.036 54.7548 99.856 54.7548L50.8559 54.7549Z" fill="white"/>
<path fill-rule="evenodd" clip-rule="evenodd" d="M55.6137 36.6186C55.6137 36.276 55.8918 36.0048 56.2166 36.0001C56.263 35.9994 56.3104 36.0036 56.3581 36.0145C57.0473 36.1709 57.6923 36.4446 58.2723 36.8115C58.6019 37.0202 58.6437 37.4865 58.3682 37.7621V37.7633C58.1706 37.9609 57.8595 38.0077 57.6238 37.858C57.1537 37.5585 56.6295 37.3371 56.0692 37.2119C55.7979 37.1511 55.6137 36.8966 55.6137 36.6186ZM53.6407 36.0145C53.6885 36.0036 53.7369 35.9995 53.7834 36.0001C54.1086 36.0044 54.3863 36.276 54.3863 36.6186C54.3863 36.8966 54.2027 37.1511 53.9308 37.2119C53.3705 37.3371 52.8457 37.5585 52.375 37.858C52.1393 38.0077 51.8294 37.9609 51.6318 37.7633L51.6306 37.7621C51.3551 37.4865 51.3981 37.0202 51.7277 36.8115C52.3077 36.4446 52.9515 36.1703 53.6407 36.0145ZM50.2618 38.4513C50.0845 38.4686 49.9166 38.5622 49.8123 38.727C49.4453 39.3069 49.1717 39.9508 49.0152 40.64C48.9286 41.0217 49.2277 41.3856 49.6193 41.3856C49.8973 41.3856 50.1519 41.2013 50.2126 40.9301C50.3372 40.3692 50.5592 39.845 50.8587 39.3742C51.0084 39.1386 50.9616 38.8287 50.764 38.6311L50.7628 38.6299C50.625 38.4921 50.439 38.434 50.2618 38.4513ZM59.2372 38.6299C59.375 38.4921 59.561 38.434 59.7382 38.4513C59.9154 38.4686 60.0837 38.5622 60.1877 38.727C60.5553 39.3069 60.8283 39.9508 60.9848 40.64C61.072 41.0217 60.7723 41.3856 60.3807 41.3856C60.1027 41.3856 59.8481 41.202 59.7874 40.9301C59.6622 40.3698 59.4408 39.845 59.1413 39.3742C58.9916 39.1386 59.039 38.8281 59.2372 38.6299ZM49.6193 42.613C49.2277 42.613 48.928 42.9768 49.0152 43.3585C49.1717 44.0477 49.4447 44.6916 49.8123 45.2716C50.0203 45.6011 50.4872 45.6442 50.7628 45.3687C50.961 45.1704 51.0084 44.86 50.8587 44.6243C50.5592 44.1536 50.3378 43.6288 50.2126 43.0685C50.1519 42.7966 49.8973 42.613 49.6193 42.613ZM59.7874 43.0685C59.8481 42.7972 60.1027 42.613 60.3807 42.613C60.7723 42.613 61.0714 42.9762 60.9848 43.3573C60.8283 44.0465 60.5547 44.6916 60.1877 45.2716C59.9791 45.6011 59.5128 45.643 59.2372 45.3675H59.236C59.0384 45.1699 58.9916 44.8588 59.1413 44.6231C59.4408 44.153 59.6622 43.6288 59.7874 43.0685ZM51.9902 46.0579C51.8584 46.0755 51.7306 46.1365 51.6318 46.2353L51.6306 46.2365C51.3551 46.512 51.3981 46.9783 51.7277 47.187C52.3077 47.554 52.9515 47.8276 53.6407 47.9841C54.0225 48.0706 54.3863 47.7715 54.3863 47.38C54.3863 47.102 54.2021 46.8474 53.9308 46.7867C53.3705 46.6615 52.8463 46.4401 52.3762 46.1406C52.2583 46.0657 52.122 46.0402 51.9902 46.0579ZM57.6238 46.1406C57.742 46.0657 57.8791 46.0403 58.011 46.0579C58.1429 46.0755 58.2694 46.1368 58.3682 46.2353H58.3694C58.6449 46.5108 58.6019 46.9783 58.2723 47.187C57.6923 47.5546 57.0485 47.8276 56.3593 47.9841C55.9775 48.0712 55.6137 47.7715 55.6137 47.38C55.6137 47.102 55.7979 46.8474 56.0692 46.7867C56.6295 46.6615 57.1531 46.4401 57.6238 46.1406Z" fill="#B8B9BC"/>
<path d="M70.3048 38.6753C70.022 38.6762 69.7931 39.1237 69.7931 39.6753C69.7931 40.2269 70.022 40.6743 70.3048 40.6753H98.4307C98.7134 40.6743 98.9424 40.2269 98.9424 39.6753C98.9424 39.1237 98.7134 38.6762 98.4307 38.6753L70.3048 38.6753Z" fill="#E4E4E4"/>
<path d="M70.3048 42.751C70.0222 42.7523 69.7935 43.1996 69.7935 43.751C69.7935 44.3023 70.0222 44.7496 70.3048 44.751H84.6636C84.9462 44.7496 85.175 44.3023 85.175 43.751C85.175 43.1996 84.9462 42.7523 84.6636 42.751L70.3048 42.751Z" fill="#E4E4E4"/>
</g>
<g opacity="0.3">
<path d="M50.8559 82.7549C43.6762 82.7549 37.8559 76.9346 37.8559 69.7549V69.7549C37.8559 62.5752 43.6762 56.7549 50.8559 56.7549H99.856C107.036 56.7549 112.856 62.5752 112.856 69.7549V69.7549C112.856 76.9345 107.036 82.7548 99.856 82.7548L50.8559 82.7549Z" fill="white"/>
<path fill-rule="evenodd" clip-rule="evenodd" d="M55.6137 64.6186C55.6137 64.276 55.8918 64.0048 56.2166 64.0001C56.263 63.9994 56.3104 64.0036 56.3581 64.0145C57.0473 64.1709 57.6923 64.4446 58.2723 64.8115C58.6019 65.0202 58.6437 65.4865 58.3682 65.7621V65.7633C58.1706 65.9609 57.8595 66.0077 57.6238 65.858C57.1537 65.5585 56.6295 65.3371 56.0692 65.2119C55.7979 65.1511 55.6137 64.8966 55.6137 64.6186ZM53.6407 64.0145C53.6885 64.0036 53.7369 63.9995 53.7834 64.0001C54.1086 64.0044 54.3863 64.276 54.3863 64.6186C54.3863 64.8966 54.2027 65.1511 53.9308 65.2119C53.3705 65.3371 52.8457 65.5585 52.375 65.858C52.1393 66.0077 51.8294 65.9609 51.6318 65.7633L51.6306 65.7621C51.3551 65.4865 51.3981 65.0202 51.7277 64.8115C52.3077 64.4446 52.9515 64.1703 53.6407 64.0145ZM50.2618 66.4513C50.0845 66.4686 49.9166 66.5622 49.8123 66.727C49.4453 67.3069 49.1717 67.9508 49.0152 68.64C48.9286 69.0217 49.2277 69.3856 49.6193 69.3856C49.8973 69.3856 50.1519 69.2013 50.2126 68.9301C50.3372 68.3692 50.5592 67.845 50.8587 67.3742C51.0084 67.1386 50.9616 66.8287 50.764 66.6311L50.7628 66.6299C50.625 66.4921 50.439 66.434 50.2618 66.4513ZM59.2372 66.6299C59.375 66.4921 59.561 66.434 59.7382 66.4513C59.9154 66.4686 60.0837 66.5622 60.1877 66.727C60.5553 67.3069 60.8283 67.9508 60.9848 68.64C61.072 69.0217 60.7723 69.3856 60.3807 69.3856C60.1027 69.3856 59.8481 69.202 59.7874 68.9301C59.6622 68.3698 59.4408 67.845 59.1413 67.3742C58.9916 67.1386 59.039 66.8281 59.2372 66.6299ZM49.6193 70.613C49.2277 70.613 48.928 70.9768 49.0152 71.3585C49.1717 72.0477 49.4447 72.6916 49.8123 73.2716C50.0203 73.6011 50.4872 73.6442 50.7628 73.3687C50.961 73.1704 51.0084 72.86 50.8587 72.6243C50.5592 72.1536 50.3378 71.6288 50.2126 71.0685C50.1519 70.7966 49.8973 70.613 49.6193 70.613ZM59.7874 71.0685C59.8481 70.7972 60.1027 70.613 60.3807 70.613C60.7723 70.613 61.0714 70.9762 60.9848 71.3573C60.8283 72.0465 60.5547 72.6916 60.1877 73.2716C59.9791 73.6011 59.5128 73.643 59.2372 73.3675H59.236C59.0384 73.1699 58.9916 72.8588 59.1413 72.6231C59.4408 72.153 59.6622 71.6288 59.7874 71.0685ZM51.9902 74.0579C51.8584 74.0755 51.7306 74.1365 51.6318 74.2353L51.6306 74.2365C51.3551 74.512 51.3981 74.9783 51.7277 75.187C52.3077 75.554 52.9515 75.8276 53.6407 75.9841C54.0225 76.0706 54.3863 75.7715 54.3863 75.38C54.3863 75.102 54.2021 74.8474 53.9308 74.7867C53.3705 74.6615 52.8463 74.4401 52.3762 74.1406C52.2583 74.0657 52.122 74.0402 51.9902 74.0579ZM57.6238 74.1406C57.742 74.0657 57.8791 74.0403 58.011 74.0579C58.1429 74.0755 58.2694 74.1368 58.3682 74.2353H58.3694C58.6449 74.5108 58.6019 74.9783 58.2723 75.187C57.6923 75.5546 57.0485 75.8276 56.3593 75.9841C55.9775 76.0712 55.6137 75.7715 55.6137 75.38C55.6137 75.102 55.7979 74.8474 56.0692 74.7867C56.6295 74.6615 57.1531 74.4401 57.6238 74.1406Z" fill="#B8B9BC"/>
<path d="M70.3048 66.6753C70.022 66.6762 69.7931 67.1237 69.7931 67.6753C69.7931 68.2269 70.022 68.6743 70.3048 68.6753H98.4307C98.7134 68.6743 98.9424 68.2269 98.9424 67.6753C98.9424 67.1237 98.7134 66.6762 98.4307 66.6753L70.3048 66.6753Z" fill="#E4E4E4"/>
<path d="M70.3048 70.751C70.0222 70.7523 69.7935 71.1996 69.7935 71.751C69.7935 72.3023 70.0222 72.7496 70.3048 72.751H84.6636C84.9462 72.7496 85.175 72.3023 85.175 71.751C85.175 71.1996 84.9462 70.7523 84.6636 70.751L70.3048 70.751Z" fill="#E4E4E4"/>
</g>
<path d="M58.688 83.4566C58.688 84.7339 46.9957 84.8699 32.605 85.7694C18.2272 86.6679 6.52208 84.7339 6.52208 83.4566C6.52208 82.1792 18.2818 79.6092 32.605 81.1438C46.9957 82.6856 58.688 82.1792 58.688 83.4566Z" fill="#E6E6E6"/>
<path opacity="0.297658" d="M11.9713 74.8457C11.4089 78.5533 12.9698 81.8657 12.9698 81.8657C12.9698 81.8657 15.4468 79.1666 16.0093 75.459C16.5717 71.7513 15.0067 68.439 15.0067 68.439C15.0067 68.439 12.5338 71.1381 11.9713 74.8457Z" fill="#5E2750"/>
<path opacity="0.297658" d="M3.70761 82.95C1.6666 82.9276 4.76837e-06 84.0217 4.76837e-06 84.0217C4.76837e-06 84.0217 1.64247 85.1525 3.68348 85.1749C5.7245 85.1974 7.39109 84.1024 7.39109 84.1024C7.39109 84.1024 5.74863 82.9717 3.70761 82.95Z" fill="#5E2750"/>
<path opacity="0.297658" d="M8.34952 77.3136C10.2491 79.4012 10.651 82.1295 10.651 82.1295C10.651 82.1295 7.97343 81.4722 6.0747 79.3838C4.17596 77.2953 3.77325 74.5679 3.77325 74.5679C3.77325 74.5679 6.44995 75.2252 8.34952 77.3136Z" fill="#5E2750"/>
<path d="M28.7203 48.935C28.6945 48.3908 28.429 47.8861 27.9953 47.5565C27.5616 47.2269 27.0041 47.1064 26.473 47.2273L24.0388 43.7969L21.5933 44.7677L25.0989 49.5638C25.3671 50.4624 26.265 51.0183 27.1889 50.8579C28.1128 50.6974 28.7707 49.8713 28.7203 48.935H28.7203Z" fill="#A0616A"/>
<path d="M23.9761 48.6807L16.6107 39.1255L19.3705 30.452C19.5727 28.2714 20.9373 27.6625 20.9953 27.6376L21.0839 27.5996L23.4854 34.0038L21.7221 38.7058L26.05 45.9847L23.9761 48.6807Z" fill="#3F3D56"/>
<path d="M49.5551 19.225C49.0146 19.2928 48.5318 19.5965 48.2368 20.0544C47.9417 20.5123 47.8646 21.0774 48.0263 21.5976L44.7943 24.2898L45.9513 26.6528L50.462 22.7869C51.3372 22.4501 51.822 21.5119 51.5906 20.6031C51.3592 19.6944 50.4847 19.1024 49.5551 19.225V19.225Z" fill="#A0616A"/>
<path d="M49.6684 23.975L40.7113 32.0571L31.8504 29.9762C29.6607 29.9432 28.9481 28.6298 28.9188 28.5738L28.8741 28.4885L35.0734 25.599L39.8977 26.9934L46.8202 22.1157L49.6684 23.975Z" fill="#3F3D56"/>
<path d="M34.1533 81.4307L36.56 81.4305L37.7047 72.1479L34.1529 72.1481L34.1533 81.4307V81.4307Z" fill="#A0616A"/>
<path d="M41.2013 83.665L33.6377 83.6654L33.6376 80.7431L39.0792 80.7428C40.2511 80.7428 41.2012 81.6928 41.2012 82.8647L41.2013 83.665L41.2013 83.665Z" fill="#2F2E41"/>
<path d="M24.5346 81.4307L26.9412 81.4305L28.0861 72.1479L24.5343 72.1481L24.5346 81.4307V81.4307Z" fill="#A0616A"/>
<path d="M31.5826 83.665L24.019 83.6654L24.0189 80.7431L29.4605 80.7428C30.0233 80.7428 30.563 80.9664 30.961 81.3643C31.3589 81.7622 31.5825 82.3019 31.5825 82.8647L31.5826 83.665V83.665Z" fill="#2F2E41"/>
<path d="M23.6787 47.5483L23.8749 61.2893L24.0714 79.3489L28.3898 78.9563L30.5492 54.0263L33.2974 78.9563H37.7558L38.2049 53.8301L36.6345 48.3336L23.6787 47.5483V47.5483Z" fill="#2F2E41"/>
<path d="M32.1313 49.3935C27.4324 49.3939 23.1071 47.2672 23.0487 47.238L23.0002 47.2137L22.6059 37.7504C22.4915 37.416 20.2399 30.8174 19.8585 28.72C19.4722 26.5951 25.0719 24.7302 25.7519 24.5121L25.9062 22.8027L32.1814 22.1265L32.9768 24.3137L35.228 25.1579C35.7563 25.3561 36.0528 25.9181 35.9182 26.4661L34.667 31.5544L37.7229 48.3889L37.065 48.4173C35.488 49.1295 33.786 49.3934 32.1313 49.3935Z" fill="#3F3D56"/>
<circle cx="29.2894" cy="16.5258" r="4.51816" transform="rotate(-28.6633 29.2894 16.5258)" fill="#A0616A"/>
<path d="M25.63 20.8996C26.4911 21.8168 28.0902 21.3245 28.2024 20.0714C28.2112 19.9741 28.2105 19.8762 28.2005 19.7791C28.1425 19.224 27.8219 18.7201 27.8987 18.1341C27.9161 17.9882 27.9704 17.8492 28.0566 17.7302C28.7427 16.8114 30.3534 18.1412 31.001 17.3094C31.398 16.7994 30.9313 15.9964 31.236 15.4263C31.6382 14.674 32.8294 15.0451 33.5764 14.6331C34.4075 14.1747 34.3578 12.8995 33.8107 12.1238C33.1435 11.1779 31.9736 10.6731 30.8183 10.6004C29.663 10.5277 28.5157 10.84 27.4372 11.2603C26.2117 11.7379 24.9965 12.3979 24.2423 13.4754C23.3252 14.7858 23.237 16.5476 23.6956 18.0799C23.9747 19.012 24.9269 20.1506 25.63 20.8996Z" fill="#2F2E41"/>
</svg>
