<?xml version="1.0" encoding="UTF-8"?>
<svg width="118px" height="69px" viewBox="0 0 118 69" version="1.1" xmlns="http://www.w3.org/2000/svg" xmlns:xlink="http://www.w3.org/1999/xlink">
    <title>undraw_personal_site_re_c4bp</title>
    <g id="DELEGATION" stroke="none" stroke-width="1" fill="none" fill-rule="evenodd">
        <g id="DELUBAC_BO_06_DELEGATIONS_01_DEFAUT_DETAIL_ABONNE" transform="translate(-947.000000, -162.000000)" fill-rule="nonzero">
            <g id="Group-6" transform="translate(800.000000, 144.000000)">
                <g id="undraw_personal_site_re_c4bp" transform="translate(147.000000, 18.000000)">
                    <path d="M0.00499925195,48.8089316 C0.046122605,52.1034684 0.389543016,55.3927129 1.03312271,58.6561899 C1.05563762,58.7708005 1.08016924,58.8853994 1.10278177,59 L45.0093108,58.8276072 C45.1382263,58.7137864 45.2651131,58.5986002 45.3880522,58.482037 C45.7979682,58.0962744 46.1821597,57.6995477 46.5348432,57.2891363 C48.2300135,55.3119426 49.00608,52.9970426 48.2283849,51.399896 L48.2144559,51.3750782 C48.0465834,51.0253393 47.7820513,50.7023469 47.4360489,50.4246467 C45.6629216,49.0221073 42.0778446,49.2559029 38.8244601,50.3879814 C41.7425402,48.1434388 44.0660849,45.3111663 44.2426326,42.7830403 C44.4157326,40.3171219 42.5807989,38.5555451 40.5905895,37.058508 C40.5252853,37.0090196 40.4599931,36.9609049 40.3947008,36.9128003 C40.3630095,36.8880527 40.3294085,36.8646856 40.2978124,36.839938 C38.7450222,35.6990906 36.9347392,34.5744527 34.3144649,34.7104946 C31.4407074,34.8599636 28.2545676,36.5514322 26.0205777,38.5224502 C23.7865782,40.4920796 22.3020351,42.7296167 20.7972843,44.913342 C19.2906025,47.095692 17.6604982,49.333798 15.2427509,51.1991367 C18.5174265,48.2885174 21.1576751,44.9768798 22.1329805,41.756069 C23.1082858,38.5352582 22.2499456,35.4418793 19.331444,33.9249987 C18.4454151,33.478683 17.420151,33.1879797 16.3414453,33.0772148 C16.2155418,33.0625112 16.0876455,33.0505733 15.9577419,33.0400258 C13.2560273,32.8240224 10.0302602,33.4806241 7.28570625,35.0501453 C4.26318757,36.7782976 2.16765385,39.3402045 1.12500857,41.7722333 C0.08245614,44.2042604 -0.0286492908,46.5455711 0.00499925195,48.8089316 Z" id="Path" fill="#F0F2F5" transform="translate(24.265563, 46.000000) scale(-1, 1) translate(-24.265563, -46.000000) "></path>
                    <path d="M53.4957291,66.7333425 C53.4957291,67.8718674 43.0743289,67.9930797 30.2478646,68.7947678 C17.4328277,69.5956395 7,67.8718674 7,66.7333425 C7,65.5948177 17.4815302,63.3041638 30.2478646,64.6719173 C43.0743289,66.0462008 53.4957291,65.5948177 53.4957291,66.7333425 Z" id="Path_79" fill="#E6E6E6" transform="translate(30.247865, 66.624577) scale(-1, 1) translate(-30.247865, -66.624577) "></path>
                    <g id="Group-3" transform="translate(39.410644, 0.000000)">
                        <path d="M76.5782846,48.44556 L5.62426208,48.44556 C4.61577091,48.4444208 3.79851139,47.6271613 3.7973722,46.6186701 L3.7973722,2.86700362 C3.79819407,2.12816997 4.3969159,1.52942337 5.13574951,1.52857094 L77.04363,1.52857094 C77.7952469,1.5294252 78.4043355,2.13852616 78.4051745,2.89014311 L78.4051745,46.6186701 C78.4040347,47.627161 77.5867755,48.4444202 76.5782846,48.44556 Z" id="Path" fill="#F2F2F2"></path>
                        <path d="M73.9899371,45.8583706 L7.86264064,45.8583706 C6.8932818,45.8583706 6.10466769,45.1198731 6.10466769,44.2121579 L6.10466769,6.11264622 C6.10466769,5.43945612 6.68904547,4.89174678 7.40736418,4.89174678 L74.4236285,4.89174678 C75.1538552,4.89174678 75.7479244,5.44848538 75.7479244,6.13275751 L75.7479244,44.2121579 C75.7479244,45.1198731 74.9592837,45.8583706 73.9899371,45.8583706 Z" id="Path" fill="#FFFFFF"></path>
                        <path d="M78.3797375,2.76249998 L3.77173263,2.76249998 L3.77173263,1.83240377 C3.77319507,0.82055804 4.59342595,0.000835343642 5.60527239,0 L76.5461978,0 C77.5580462,0.00083047225 78.37828,0.820556018 78.3797375,1.83240377 L78.3797375,2.76249998 Z" id="Path" fill="#CCCCCC"></path>
                        <circle id="Oval" fill="#FFFFFF" cx="7.10390892" cy="1.38400749" r="1"></circle>
                        <circle id="Oval" fill="#FFFFFF" cx="8.9040941" cy="1.38400749" r="1"></circle>
                        <circle id="Oval" fill="#FFFFFF" cx="10.7042782" cy="1.38400749" r="1"></circle>
                        <g id="Group-7" transform="translate(0.000000, 11.881570)">
                            <path d="M23.5250016,29.2392341 L2.47499844,29.2392341 C1.1087375,29.2376831 0.00155098982,28.1304966 0,26.7642357 L0,1.85106972 C0.00114566283,0.829254117 0.82918486,0.00118391807 1.85100042,0 L24.1194085,0 C25.15755,0.00119247691 25.998827,0.842485368 26,1.88062685 L26,26.7642357 C25.9984552,28.1304992 24.8912651,29.2376893 23.5250016,29.2392341 L23.5250016,29.2392341 Z" id="Path" fill="#A33777"></path>
                            <circle id="Oval" fill="#FFFFFF" cx="13" cy="11.5824157" r="4.34519353"></circle>
                            <path d="M19.9611834,22.002012 L6.03882223,22.002012 L6.03882223,21.9576727 C6.04183928,19.2897759 8.20384494,17.1277709 10.8717418,17.1247546 L15.1282568,17.1247546 C17.7961561,17.1277678 19.9581656,19.2897735 19.9611834,21.9576727 L19.9611834,22.002012 Z" id="Path" fill="#FFFFFF"></path>
                        </g>
                        <path d="M30.7121942,35.1488011 L66.1249044,35.1488011 C67.1032932,35.1488011 67.896434,34.3556603 67.896434,33.3772715 L67.896434,17.372847 C67.896434,16.3944582 67.1032932,15.6013174 66.1249044,15.6013174 L30.7121942,15.6013174 C29.7338054,15.6013174 28.9406646,16.3944582 28.9406646,17.372847 L28.9406646,33.3772715 C28.9406646,34.3556603 29.7338054,35.1488011 30.7121942,35.1488011 Z" id="Path" fill="#F2F2F2"></path>
                        <path d="M62.2586308,26.2608246 L34.0248781,26.2608246 C33.5356837,26.2608246 33.1391133,25.8642542 33.1391133,25.3750598 C33.1391133,24.8858654 33.5356837,24.489295 34.0248781,24.489295 L62.2586308,24.489295 C62.7478252,24.489295 63.1443956,24.8858654 63.1443956,25.3750598 C63.1443956,25.8642542 62.7478252,26.2608246 62.2586308,26.2608246 Z" id="Path" fill="#FFFFFF"></path>
                        <path d="M62.2586308,30.0253249 L34.0248781,30.0253249 C33.5356837,30.0253249 33.1391133,29.6287545 33.1391133,29.1395602 C33.1391133,28.6503658 33.5356837,28.2537954 34.0248781,28.2537954 L62.2586308,28.2537954 C62.7478252,28.2537954 63.1443956,28.6503658 63.1443956,29.1395602 C63.1443956,29.6287545 62.7478252,30.0253249 62.2586308,30.0253249 Z" id="Path" fill="#FFFFFF"></path>
                        <path d="M57.2762039,22.4963242 L34.0248781,22.4963242 C33.5356837,22.4963242 33.1391133,22.0997538 33.1391133,21.6105594 C33.1391133,21.121365 33.5356837,20.7247946 34.0248781,20.7247946 L57.2762039,20.7247946 C57.7653982,20.7247946 58.1619686,21.121365 58.1619686,21.6105594 C58.1619686,22.0997538 57.7653982,22.4963242 57.2762039,22.4963242 Z" id="Path" fill="#FFFFFF"></path>
                    </g>
                    <path d="M41.2246061,36.8538317 C40.869639,37.0327603 40.4536491,37.0452702 40.0885714,36.8879952 C39.7234938,36.7307202 39.4468303,36.4198161 39.3330257,36.0389412 L34.5642801,35.8307041 L36.018861,33.8215161 L40.3243397,34.3272907 C40.9915038,34.1751777 41.6669996,34.5461046 41.8966813,35.1906918 C42.126363,35.8352789 41.8376318,36.5497828 41.2246061,36.8538317 L41.2246061,36.8538317 Z" id="Path" fill="#FFB8B8"></path>
                    <path d="M27.9848298,34.9499624 L25.3624046,29.8993489 C24.6252129,28.4834466 24.7580764,26.7714268 25.7048915,25.4862139 C25.798322,25.3615081 25.8974602,25.2401951 25.9995651,25.1257291 C26.8439553,24.1773814 28.0833728,23.6786537 29.3492796,23.7778414 C30.6578959,23.8667536 31.8495849,24.562681 32.5700538,25.6587224 L33.8294319,27.5624367 C33.9583427,27.6775545 35.6918541,29.2771955 35.047001,31.3586999 L34.9361228,33.3546973 C34.9202632,33.6210346 34.7315922,33.8454407 34.4719355,33.9068039 L28.654333,35.2584063 C28.3868846,35.3208393 28.1111713,35.1938202 27.9848258,34.9499691 L27.9848298,34.9499624 Z" id="Path" fill="#A33777"></path>
                    <path d="M26.1455896,44.5348516 C25.86836,44.2499647 25.7315566,43.8569144 25.7719905,43.4614628 C25.8124244,43.0660113 26.0259422,42.7087805 26.3550903,42.4858942 L25.122259,37.8745576 L27.4754233,38.6589461 L28.2853781,42.9176935 C28.630745,43.508429 28.4796931,44.2641179 27.933777,44.676698 C27.3878609,45.0892782 26.6196364,45.0283393 26.1455936,44.5348516 L26.1455896,44.5348516 Z" id="Path" fill="#FFB8B8"></path>
                    <path d="M25.5675988,42.3530189 C25.3921866,42.2680098 25.2694195,42.102607 25.2388461,41.9100941 L24.4270573,34.0344978 C24.3177893,33.3950316 24.3016424,32.7431175 24.3791185,32.0990259 L25.3522355,26.2058666 C25.4365251,25.4912862 26.0683355,24.9696444 26.785952,25.0221468 L26.785952,25.0221468 C27.1530907,25.048342 27.4935346,25.2235807 27.7281925,25.507152 C27.9628505,25.7907233 28.071296,26.1579429 28.0283353,26.5234992 L27.2338605,33.2837235 L28.1436789,41.257018 C28.1725328,41.5020756 28.0478845,41.7396882 27.8298612,41.8552374 L26.1088083,42.3467515 C25.9398761,42.4356276 25.7385368,42.4379572 25.5675935,42.3530135 L25.5675988,42.3530189 Z" id="Path" fill="#82295E"></path>
                    <polygon id="Path" fill="#FFB8B8" points="38.6059289 66.3698754 40.2148427 66.0647896 39.8035646 59.7136875 37.4289975 60.1641033"></polygon>
                    <path d="M38.0959333,65.9224331 L41.2644716,65.3215208 L41.2646052,65.3214968 C41.8001465,65.2199367 42.3540979,65.3352857 42.8045896,65.642167 C43.2550814,65.9490484 43.5652092,66.4223223 43.6667449,66.9578683 L43.6791861,67.0234871 L38.4913561,68.0073396 L38.0959333,65.9224331 Z" id="Path" fill="#2F2E41"></path>
                    <polygon id="Path" fill="#FFB8B8" points="24.3682775 66.4199661 26.00591 66.4198326 26.7849208 60.1033265 24.3680103 60.1034601"></polygon>
                    <path d="M23.9505717,65.8852644 L27.1755856,65.8851309 L27.1757192,65.8851309 C27.720805,65.8851309 28.24357,66.1016432 28.6290062,66.4870747 C29.0144425,66.8725062 29.230968,67.3952684 29.230968,67.9403543 L29.230968,68.0071419 L23.9506692,68.0073369 L23.9505717,65.8852644 Z" id="Path" fill="#2F2E41"></path>
                    <circle id="Oval" fill="#FFB8B8" cx="29.1597269" cy="19.0804489" r="3.28074552"></circle>
                    <path d="M24.0986572,63.8813299 C23.9846731,63.7584585 23.9268552,63.5937573 23.9390254,63.4265997 L26.1720736,43.1564232 C26.1528668,42.9666261 25.8495828,39.5248463 28.3104796,35.1210376 L28.3240776,35.0967095 L34.9184094,33.2680724 L35.6475619,36.3438241 L40.5341143,63.0870488 C40.5705012,63.4082233 40.3456007,63.7003762 40.0258044,63.7473593 L38.3249374,64.0025094 C38.0278461,64.0469736 37.7435141,63.8653731 37.6589206,63.5771297 L31.9002541,45.5405623 C31.8754926,45.4552731 31.7975522,45.3964523 31.7087423,45.3960304 C31.6199324,45.3956085 31.5414366,45.4536862 31.515866,45.5387363 L26.7915555,63.6393557 C26.7160586,63.8955049 26.4813476,64.0717007 26.214306,64.0726925 L24.5383869,64.0726925 C24.371661,64.0726925 24.2124831,64.0031547 24.0986572,63.8813299 L24.0986572,63.8813299 Z" id="Path" fill="#2F2E41"></path>
                    <path d="M38.0356161,36.4886877 L30.9304311,35.2704001 C29.985119,35.1117135 29.2340233,34.389258 29.0387238,33.4508261 L27.5551129,26.4436693 C27.4385521,25.8931708 27.5704818,25.31928 27.9157407,24.8749476 C28.2609996,24.4306152 28.7845056,24.1609903 29.3467363,24.1379322 L29.3467363,24.1379322 C30.3424125,24.1017806 31.2005217,24.8327556 31.3231343,25.8215145 L32.0676827,32.0672658 L38.3356742,33.6958659 C38.5787129,33.7795478 38.7416172,34.008542 38.7409675,34.265583 L38.738294,35.8977709 C38.7380193,36.0747456 38.6597044,36.2425903 38.5242574,36.3564948 C38.3888103,36.4703993 38.210021,36.5187671 38.0356214,36.4886851 L38.0356161,36.4886877 Z" id="Path" fill="#C0458E"></path>
                    <path d="M31.9505065,18.318863 C32.4727349,18.2108915 32.9805051,17.8634409 33.1200111,17.3487394 C33.2418798,16.8991105 33.061584,16.4143339 32.7793529,16.0437093 C32.0221755,15.1000972 30.719934,14.7929393 29.6208888,15.2987268 C29.6712961,15.033608 29.4718829,14.7720516 29.2264905,14.6597509 C28.9724638,14.5659531 28.7008418,14.529475 28.4310687,14.5529281 C27.5775309,14.5648591 26.6688105,14.5933667 25.9630644,15.0735724 C25.4003052,15.4564885 25.0430061,16.0861154 24.8578975,16.7411377 C24.672789,17.39616 24.6425515,18.0834874 24.6134415,18.7635417 C24.5624224,19.9554108 25.0294122,22.4640046 25.0294122,22.4640046 C25.0294122,22.4640046 26.6808376,22.9180149 27.4043132,23.1283625 C28.1817531,23.3543998 29.4934941,23.5804385 30.270934,23.8064759 C30.4699197,23.86433 30.7363903,23.8968142 30.8363874,23.7153121 C30.9162187,23.570411 30.8238928,23.3939167 30.7310567,23.2569834 C30.3222657,22.6540248 29.8539535,22.0853429 29.5394747,21.4282462 C29.2249958,20.7711495 29.0778386,19.9903555 29.3478436,19.3137661 C29.6178486,18.6371768 31.4282794,18.4268332 31.9505065,18.318863 Z" id="Path" fill="#2F2E41"></path>
                    <path d="M49.058058,68.1901747 L17.1335752,68.1901747 C17.0598037,68.1901747 17,68.130371 17,68.0565995 C17,67.9828279 17.0598037,67.9230242 17.1335752,67.9230242 L49.058058,67.9230242 C49.1318296,67.9230242 49.1916333,67.9828279 49.1916333,68.0565995 C49.1916333,68.130371 49.1318296,68.1901747 49.058058,68.1901747 Z" id="Path" fill="#CCCCCC"></path>
                    <path d="M48.8478055,56.8372817 C49.3602733,60.2153242 47.9380992,63.2332747 47.9380992,63.2332747 C47.9380992,63.2332747 45.6812697,60.7740355 45.1688018,57.395993 C44.656334,54.0179505 46.0822985,51 46.0822985,51 C46.0822985,51 48.3353376,53.4592392 48.8478055,56.8372817 Z" id="Path" fill="#5E2750" opacity="0.297657558"></path>
                    <path d="M56.3769783,64.2212265 C58.2365695,64.2007581 59.7550209,65.1976445 59.7550209,65.1976445 C59.7550209,65.1976445 58.2585541,66.2278868 56.3989629,66.2483552 C54.5393717,66.2688236 53.0209204,65.2711791 53.0209204,65.2711791 C53.0209204,65.2711791 54.5173872,64.2409368 56.3769783,64.2212265 Z" id="Path" fill="#5E2750" opacity="0.297657558"></path>
                    <path d="M52.1476836,59.0859348 C50.4169675,60.9879789 50.0508108,63.4737512 50.0508108,63.4737512 C50.0508108,63.4737512 52.4903397,62.8748612 54.2202977,60.972059 C55.9502557,59.0692568 56.3171706,56.5842426 56.3171706,56.5842426 C56.3171706,56.5842426 53.8783998,57.1831325 52.1476836,59.0859348 Z" id="Path" fill="#5E2750" opacity="0.297657558"></path>
                </g>
            </g>
        </g>
    </g>
</svg>