<?xml version="1.0" encoding="UTF-8"?>
<svg width="66px" height="82px" viewBox="0 0 66 82" version="1.1" xmlns="http://www.w3.org/2000/svg" xmlns:xlink="http://www.w3.org/1999/xlink">
    <title>Group 7</title>
    <g id="DELEGATION" stroke="none" stroke-width="1" fill="none" fill-rule="evenodd">
        <g id="DELUBAC_BO_06_DELEGATIONS_02_SYNTHESE_DROITS_SIGNATURE_PROCESS_CREATION_01" transform="translate(-321.000000, -774.000000)" fill-rule="nonzero">
            <g id="Group-6" transform="translate(270.000000, 752.000000)">
                <g id="Group-7" transform="translate(51.000000, 22.533567)">
                    <g id="undraw_note_list_re_r4u9-(1)-copy" transform="translate(0.000000, 44.555169)">
                        <path d="M50,34.6446062 C50,35.7831311 38.793164,35.9043434 25,36.7060314 C11.2191247,37.5069032 0,35.7831311 0,34.6446062 C0,33.5060813 11.2714979,31.2154275 25,32.583181 C38.793164,33.9574645 50,33.5060813 50,34.6446062 Z" id="Path_79" fill="#E6E6E6" transform="translate(25.000000, 34.535841) scale(-1, 1) translate(-25.000000, -34.535841) "></path>
                        <path d="M16.9929474,15.8089316 C17.0340707,19.1034684 17.3774911,22.3927129 18.0210708,25.6561899 C18.0435857,25.7708005 18.0681174,25.8853994 18.0907299,26 L61.9972589,25.8276072 C62.1261744,25.7137864 62.2530612,25.5986002 62.3760003,25.482037 C62.7859163,25.0962744 63.1701078,24.6995477 63.5227913,24.2891363 C65.2179616,22.3119426 65.9940282,19.9970426 65.216333,18.399896 L65.202404,18.3750782 C65.0345315,18.0253393 64.7699994,17.7023469 64.423997,17.4246467 C62.6508697,16.0221073 59.0657927,16.2559029 55.8124082,17.3879814 C58.7304883,15.1434388 61.054033,12.3111663 61.2305807,9.7830403 C61.4036807,7.3171219 59.568747,5.55554511 57.5785376,4.058508 C57.5132335,4.00901964 57.4479412,3.96090494 57.3826489,3.91280027 C57.3509576,3.88805274 57.3173567,3.86468557 57.2857605,3.83993804 C55.7329703,2.69909064 53.9226873,1.57445269 51.302413,1.71049464 C48.4286555,1.85996361 45.2425157,3.55143218 43.0085258,5.52245025 C40.7745264,7.4920796 39.2899832,9.7296167 37.7852324,11.913342 C36.2785506,14.095692 34.6484463,16.333798 32.230699,18.1991367 C35.5053746,15.2885174 38.1456232,11.9768798 39.1209286,8.756069 C40.0962339,5.53525819 39.2378937,2.44187933 36.3193922,0.924998693 C35.4333632,0.478682969 34.4080991,0.187979704 33.3293934,0.0772148039 C33.20349,0.0625111828 33.0755936,0.0505732747 32.94569,0.0400257522 C30.2439754,-0.175977603 27.0182083,0.480624076 24.2736544,2.05014528 C21.2511357,3.77829761 19.155602,6.34020448 18.1129567,8.77223328 C17.0704043,11.2042604 16.9592988,13.5455711 16.9929474,15.8089316 Z" id="Path" fill="#F0F2F5"></path>
                        <g id="Group-2" transform="translate(42.057658, 19.911264)" fill="#5E2750" opacity="0.297657558">
                            <path d="M3.79014793,5.83728171 C4.30261577,9.21532422 2.88044168,12.2332747 2.88044168,12.2332747 C2.88044168,12.2332747 0.623612119,9.77403547 0.11114427,6.39599296 C-0.401323578,3.01795045 1.02464095,0 1.02464095,0 C1.02464095,0 3.27768008,2.4592392 3.79014793,5.83728171 Z" id="Path"></path>
                            <path d="M11.3193208,13.2212265 C13.178912,13.2007581 14.6973633,14.1976445 14.6973633,14.1976445 C14.6973633,14.1976445 13.2008965,15.2278868 11.3413054,15.2483552 C9.48171419,15.2688236 7.96326286,14.2711791 7.96326286,14.2711791 C7.96326286,14.2711791 9.45972962,13.2409368 11.3193208,13.2212265 Z" id="Path"></path>
                            <path d="M7.09002609,8.08593475 C5.35930997,9.98797888 4.99315321,12.4737512 4.99315321,12.4737512 C4.99315321,12.4737512 7.43268211,11.8748612 9.16264014,9.97205902 C10.8925982,8.0692568 11.259513,5.58424259 11.259513,5.58424259 C11.259513,5.58424259 8.82074221,6.18313253 7.09002609,8.08593475 Z" id="Path"></path>
                        </g>
                    </g>
                    <g id="undraw_weather_re_qsmd" transform="translate(21.233722, 40.000000) scale(-1, 1) translate(-21.233722, -40.000000) translate(0.320915, 0.000000)">
                        <polygon id="Path" fill="#FFB8B8" points="12.8308192 77.6048508 10.3602137 77.6048508 9.18466575 68.0747102 12.8312223 68.0749117"></polygon>
                        <path d="M13.4609697,80 L5.4942252,79.9997037 L5.4942252,79.8989367 C5.4942252,79.0765288 5.82091503,78.2878026 6.40244996,77.7062771 C6.98398489,77.1247516 7.77271644,76.798088 8.59512434,76.798088 L8.59532587,76.798088 L13.4611229,76.7982895 L13.4609697,80 Z" id="Path" fill="#2F2E41"></path>
                        <polygon id="Path" fill="#FFB8B8" points="40.4321122 75.2932556 38.1029835 76.1179328 33.813332 67.5271422 37.2506962 66.3098768"></polygon>
                        <path d="M41.8256151,77.3404785 L34.3158913,80 L34.2822492,79.905015 C34.007669,79.1297989 34.0522966,78.2772559 34.4063138,77.5349446 C34.7603311,76.7926332 35.3947373,76.2213629 36.169964,75.9468123 L36.1701494,75.9467458 L40.7568218,74.3224239 L41.8256151,77.3404785 Z" id="Path" fill="#2F2E41"></path>
                        <path d="M12.7620739,74.4051073 C12.7066315,74.4051073 12.6513042,74.400056 12.5967536,74.3901515 L9.57536766,73.8408524 C9.1514985,73.7624546 8.84056398,73.397751 8.83019362,72.9668175 C8.39101068,52.6291995 10.55022,38.9622809 15.2477421,29.1662322 C15.4192885,28.8104328 15.8024679,28.6077347 16.1931221,28.6661356 L27.0581475,30.2347172 C27.4660606,30.2940285 27.7828355,30.6206826 27.8295955,31.0302244 L28.7876701,39.4751688 C28.7928711,39.5207229 28.8024444,39.5656707 28.8162577,39.6093905 L39.2333919,70.8207905 C39.38118,71.2931651 39.1246852,71.7971031 38.6557954,71.9556004 L35.8406715,72.8939932 C35.4125606,73.0345913 34.9459548,72.8413078 34.7426658,72.4391631 L20.651768,45.8695449 C20.5944459,45.7549793 20.4711433,45.6889767 20.3440198,45.7048105 C20.2168962,45.7206442 20.1135516,45.8148767 20.0860842,45.9400033 L13.6448191,73.6922694 C13.5551558,74.108114 13.1874753,74.4051073 12.7620739,74.4051073 L12.7620739,74.4051073 Z" id="Path" fill="#2F2E41"></path>
                        <path d="M4.17516893,12.6948347 C4.19990687,12.8035767 4.21603254,12.9140998 4.22339602,13.0253767 L12.8807835,18.0197928 L14.9850828,16.8083839 L17.2283882,19.745192 L13.7115531,22.2517794 C13.1279542,22.6677327 12.3398421,22.648532 11.7771913,22.2046527 L2.8499437,15.1618792 C2.02504014,15.4672303 1.09725728,15.2302884 0.519783183,14.5667909 C-0.0576909102,13.9032935 -0.164355103,12.9516921 0.25189217,12.1768092 C0.668139444,11.4019264 1.52044015,10.9654565 2.39247648,11.080599 C3.26451282,11.1957416 3.97431756,11.8384699 4.17517699,12.6948347 L4.17516893,12.6948347 Z" id="Path" fill="#FFB8B8"></path>
                        <path d="M12.9997349,17.5205628 C13.0524691,17.2621721 13.2151785,17.0395859 13.4453791,16.9109224 L17.4182192,14.6894572 C18.5172205,13.8410411 20.095534,14.0419876 20.9468848,15.1387172 C21.7982355,16.2354468 21.6015085,17.8142918 20.5070585,18.6685711 L17.3394838,21.9578521 C17.1565465,22.1477938 16.8999923,22.2487004 16.6366752,22.2342774 C16.3733581,22.2198544 16.1293599,22.0915303 15.9682625,21.8827444 L13.1702166,18.2563413 C13.0089839,18.0475961 12.946737,17.7789457 12.9997349,17.5205628 Z" id="Path" fill="#8C1E5F"></path>
                        <circle id="Oval" fill="#FFB8B8" cx="22.251279" cy="7.24707196" r="4.94988306"></circle>
                        <path d="M27.0712371,31.2906043 C27.022087,31.2906043 26.9730198,31.2865699 26.9245203,31.2785989 L16.2123121,29.5224617 C15.9677486,29.4823709 15.7502463,29.3439396 15.6103766,29.1393545 C15.4705069,28.9347694 15.4204563,28.6818556 15.4718621,28.4394179 L15.9930149,25.9824361 C15.7262383,25.584485 13.5539414,22.1239645 16.1997163,18.8734405 C16.0941713,16.4722388 17.9202232,14.4237972 20.3177314,14.2539039 L25.8537177,13.8333185 C27.2988823,13.7236658 28.7071935,14.323168 29.6299154,15.4408034 C30.5526373,16.5584387 30.8746605,18.0547823 30.4933774,19.4530483 L27.9554596,30.5852433 C27.8607158,30.9974444 27.4941857,31.2898324 27.0712371,31.2906043 L27.0712371,31.2906043 Z" id="Path" fill="#B12879"></path>
                        <path d="M37.0745917,40.5994707 C37.4423981,40.0748319 37.558932,39.4142243 37.3928367,38.795403 C37.2267413,38.1765818 36.7950785,37.6631134 36.2139991,37.3931612 L30.1148764,18.6410536 L26.5802942,20.3182197 L33.2537224,38.5769297 C32.8561986,39.6057551 33.2910026,40.7693076 34.2658087,41.2853116 C35.2406147,41.8013157 36.4473015,41.5066704 37.0745937,40.5994707 L37.0745917,40.5994707 Z" id="Path" fill="#FFB8B8"></path>
                        <path d="M31.4639451,21.7630735 L26.7705363,23.1808653 C26.5003157,23.26249 26.2079487,23.2224526 25.9696207,23.0711862 C25.7312927,22.9199198 25.57061,22.6724071 25.5294434,22.3931454 L24.8169199,17.5573367 C24.3946338,16.1321297 25.2055818,14.634024 26.6297799,14.2083477 C28.0539779,13.7826715 29.5540091,14.5900523 29.9830732,16.0132334 L32.0613585,20.4199763 C32.1816867,20.6753243 32.1849104,20.9704016 32.0701897,21.2283176 C31.9554689,21.4862335 31.7341665,21.6814418 31.4639492,21.7630755 L31.4639451,21.7630735 Z" id="Path" fill="#C7318A"></path>
                        <path d="M17.4397712,7.43825317 C19.6839375,8.29352008 22.2207846,7.76077695 23.931329,6.07501258 C23.4121311,7.44673171 23.5572819,13.2645371 23.5572819,13.2645371 C23.5572819,13.2645371 28.1616651,11.0785621 28.786342,10.6962702 C32.4758515,8.43824885 27.387313,-1.3842572 23.1542139,0.164825971 C22.4372324,0.427199078 21.8383983,0.735916948 21.5483767,1.44212439 C20.9162995,0.662439661 19.7198162,0.493330451 18.7994628,0.893806759 C17.8791093,1.29428307 17.2248533,2.16214699 16.8730636,3.1021863 C16.3107717,4.63779788 16.4578609,6.3436352 17.2747209,7.7603267 L17.4397712,7.43825317 Z" id="Path" fill="#000000"></path>
                    </g>
                </g>
            </g>
        </g>
    </g>
</svg>