<svg width="55" height="78" viewBox="0 0 55 78" fill="none" xmlns="http://www.w3.org/2000/svg">
<path d="M54.5141 52.8976C54.473 56.1921 54.1295 59.4813 53.486 62.7448C53.4634 62.8594 53.4389 62.974 53.4163 63.0886L9.50976 62.9162C9.38085 62.8024 9.25396 62.6872 9.13102 62.5707C8.7211 62.1849 8.33691 61.7882 7.98423 61.3778C6.28906 59.4006 5.51299 57.0857 6.29069 55.4885L6.30462 55.4637C6.47249 55.114 6.73702 54.791 7.08302 54.5133C8.85615 53.1107 12.4412 53.3445 15.6946 54.4766C12.7765 52.2321 10.453 49.3998 10.2764 46.8717C10.1033 44.4057 11.9383 42.6442 13.9285 41.1471C13.9938 41.0976 14.0591 41.0495 14.1244 41.0014C14.1561 40.9767 14.1897 40.9533 14.2213 40.9286C15.7741 39.7877 17.5843 38.6631 20.2046 38.7991C23.0784 38.9486 26.2645 40.6401 28.4985 42.6111C30.7325 44.5807 32.217 46.8182 33.7218 49.002C35.2285 51.1843 36.8586 53.4224 39.2763 55.2878C36.0016 52.3771 33.3614 49.0655 32.3861 45.8447C31.4108 42.6239 32.2691 39.5305 35.1876 38.0136C36.0737 37.5673 37.0989 37.2766 38.1776 37.1658C38.3035 37.1511 38.4314 37.1392 38.5613 37.1286C41.263 36.9126 44.4888 37.5692 47.2334 39.1388C50.2559 40.8669 52.3514 43.4288 53.3941 45.8609C54.4366 48.2929 54.5477 50.6342 54.5141 52.8976Z" fill="#F0F2F5"/>
<path d="M5.98795 75.5728C5.98795 76.7113 16.4093 76.8325 29.2358 77.6342C42.0508 78.4351 52.4837 76.7113 52.4837 75.5728C52.4837 74.4343 42.0021 72.1436 29.2358 73.5114C16.4093 74.8857 5.98795 74.4343 5.98795 75.5728Z" fill="#D9DBE1"/>
<circle cx="13" cy="13" r="13" fill="#727BC2"/>
<path d="M10.7816 17.3064C10.7597 17.3064 10.7377 17.3059 10.7158 17.3048C10.3238 17.2859 9.95956 17.0967 9.71873 16.7868L7.83983 14.371C7.3843 13.784 7.4899 12.939 8.07588 12.4821L8.14347 12.4295C8.73056 11.974 9.57555 12.0796 10.0325 12.6655C10.2468 12.9411 10.5707 13.1094 10.9193 13.1264C11.268 13.1434 11.6067 13.0074 11.8467 12.754L15.6619 8.72674C15.9074 8.46755 16.2458 8.31652 16.6027 8.30689C16.9596 8.29725 17.3057 8.42979 17.5649 8.67535L17.6272 8.73437C18.1668 9.24565 18.1898 10.0976 17.6785 10.6372L11.7584 16.886C11.5044 17.1545 11.1511 17.3065 10.7816 17.3064Z" fill="white"/>
<path d="M41.8205 14.6157H33.8745V7.70519C33.8915 6.8143 34.6261 6.10515 35.5171 6.1196H38.1584C40.1777 6.1196 41.8205 7.70537 41.8205 9.65453L41.8205 14.6157Z" fill="#2F2E41"/>
<path d="M44.7623 72.443L43.2539 72.4428L42.5362 66.6245L44.7625 66.6246L44.7623 72.443Z" fill="#FFB6B6"/>
<path d="M45.147 73.905L40.2831 73.9049V73.8433C40.2831 72.7978 41.1307 71.9503 42.1762 71.9502H42.1764L45.1471 71.9503L45.147 73.905Z" fill="#2F2E41"/>
<path d="M30.8586 72.443L29.35 72.4428L28.6324 66.6245L30.8588 66.6246L30.8586 72.443Z" fill="#FFB6B6"/>
<path d="M31.2433 73.905L26.3793 73.9049V73.8433C26.3794 72.7978 27.227 71.9503 28.2725 71.9502H28.2726L31.2434 71.9503L31.2433 73.905Z" fill="#2F2E41"/>
<path d="M32.6799 25.6995L31.6956 31.9746L41.0467 32.0976L39.8163 26.0686L32.6799 25.6995Z" fill="#FFB6B6"/>
<path d="M31.9669 30.4424L28.9886 38.3728L28.6195 71.2375H31.1419L37.1709 44.8325L42.7078 70.5482H45.1686L43.446 41.6334C43.446 41.6334 43.954 35.8298 41.3543 32.4052L40.7216 30.5771L31.9669 30.4424Z" fill="#2F2E41"/>
<path d="M44.7422 36.6245C44.2151 36.4808 43.7788 36.1111 43.5505 35.6148C43.3222 35.1185 43.3255 34.5465 43.5595 34.0529L39.5814 21.0832L42.5074 20.5032L46.1458 33.2162C46.9671 33.6743 47.316 34.6742 46.9579 35.5438C46.5998 36.4133 45.6479 36.8776 44.7422 36.6245L44.7422 36.6245Z" fill="#FFB6B6"/>
<path d="M41.4776 33.165C41.4776 33.165 39.8048 32.4605 36.2449 32.6036C32.4425 32.7345 30.0316 35.0406 30.0316 35.0406C29.6529 35.0325 29.3262 34.7728 29.2328 34.4057C28.8872 33.0376 31.127 23.4719 31.5302 19.9206C31.691 18.5306 32.4074 17.2649 33.5162 16.4115C34.625 15.5581 36.032 15.1897 37.4167 15.3901C38.8792 15.5995 40.1827 16.4232 40.9996 17.6541C41.8165 18.8851 42.0691 20.4062 41.6939 21.8351C40.8825 24.9165 42.4242 31.1209 42.3317 32.3873C42.3035 32.7636 42.0281 33.0751 41.6581 33.1491C41.6046 33.1598 41.5501 33.1651 41.4955 33.1652C41.4895 33.1652 41.4836 33.1651 41.4776 33.165Z" fill="#922F76"/>
<path d="M19.8974 17.7726C19.9361 17.8595 19.9679 17.9492 19.9925 18.0411L28.0611 20.7828L29.6201 19.4208L31.9832 21.5051L29.4575 24.1845C29.0383 24.6292 28.376 24.7438 27.8319 24.4658L19.198 20.0556C18.5587 20.4478 17.7435 20.4034 17.1505 19.9442C16.5576 19.4851 16.3106 18.7069 16.5303 17.9898C16.7499 17.2727 17.3904 16.7664 18.1388 16.7181C18.8872 16.6698 19.5874 17.0897 19.8974 17.7726V17.7726Z" fill="#FFB6B6"/>
<path d="M28.0778 20.3456C28.079 20.1208 28.1782 19.9077 28.3494 19.7619L31.3038 17.2453C32.0822 16.3533 33.4358 16.2595 34.3297 17.0357C35.2237 17.8119 35.3208 19.1653 34.5468 20.0612L32.4429 23.3373C32.3214 23.5265 32.1236 23.6534 31.901 23.685C31.6784 23.7166 31.453 23.6497 31.2837 23.5018L28.3423 20.9328C28.1729 20.7849 28.0763 20.5705 28.0778 20.3456Z" fill="#B03D90"/>
<path d="M39.4031 24.3684C39.2041 24.2637 39.0606 24.0775 39.01 23.8584L38.1365 20.0771C37.7034 18.9754 38.2434 17.731 39.344 17.2949C40.4445 16.8588 41.6904 17.3956 42.1294 18.495L44.0687 21.8711C44.1807 22.0661 44.2023 22.3001 44.1278 22.5123C44.0534 22.7244 43.8902 22.8937 43.681 22.9759L40.0461 24.4039C39.8368 24.4862 39.6021 24.4733 39.4031 24.3684Z" fill="#922F76"/>
<ellipse cx="40.8433" cy="6.07433" rx="1.3757" ry="1.83427" transform="rotate(-66.8696 40.8433 6.07433)" fill="#2F2E41"/>
<circle cx="36.3391" cy="10.1839" r="3.76209" transform="rotate(-61.3368 36.3391 10.1839)" fill="#FFB6B6"/>
<path d="M34.0997 5.87511C33.4453 5.86664 32.8951 6.36424 32.838 7.01619C32.8155 7.3538 32.9339 7.68563 33.1651 7.93271C33.3963 8.17979 33.7195 8.32003 34.0578 8.32004C34.733 8.32004 35.2803 8.86735 35.2803 9.5425V14.5546H36.9253C39.7301 14.5546 42.0039 12.2809 42.0039 9.47608C42.0039 8.52104 41.6245 7.60512 40.9492 6.92981C40.2738 6.25449 39.3579 5.87511 38.4029 5.87511H34.0997Z" fill="#2F2E41"/>
</svg>
