<svg width="50" height="46" viewBox="0 0 50 46" fill="none" xmlns="http://www.w3.org/2000/svg">
<path d="M4.12553 45.4922C4.14139 45.4922 4.15136 45.4918 4.15485 45.4916L32.0719 45.4918C32.6176 45.4924 33.1282 45.2223 33.4346 44.7707C33.7411 44.3191 33.8036 43.7449 33.6015 43.238C32.5886 40.7073 31.2247 34.6357 33.4711 22.4053C36.1237 7.96338 33.7489 2.74404 32.6048 1.17036C32.2943 0.744814 31.7994 0.492889 31.2726 0.492188H2.91862C2.40149 0.491691 1.91423 0.734394 1.60309 1.14745C1.29195 1.56051 1.19315 2.09583 1.33636 2.59273C2.51925 6.68255 4.95519 17.5194 2.03473 29.7852C-0.179332 39.0844 0.885018 42.8774 2.16779 44.4219C3.01389 45.4406 3.94613 45.4922 4.12553 45.4922Z" fill="white"/>
<path d="M7.74158 13.0891H29.9965C30.6149 13.0891 31.1162 12.5878 31.1162 11.9694C31.1162 11.3509 30.6149 10.8496 29.9965 10.8496H7.74158C7.12317 10.8496 6.62184 11.3509 6.62184 11.9694C6.62184 12.5878 7.12317 13.0891 7.74158 13.0891Z" fill="#9F2079"/>
<path opacity="0.4" d="M7.74158 18.6662H29.9965C30.6149 18.6662 31.1162 18.1649 31.1162 17.5465C31.1162 16.9281 30.6149 16.4268 29.9965 16.4268H7.74158C7.12317 16.4268 6.62184 16.9281 6.62184 17.5465C6.62184 18.1649 7.12317 18.6662 7.74158 18.6662Z" fill="#CCCCCC"/>
<path opacity="0.4" d="M7.74158 23.425H29.9965C30.6149 23.425 31.1162 22.9237 31.1162 22.3053C31.1162 21.6869 30.6149 21.1855 29.9965 21.1855H7.74158C7.12317 21.1855 6.62184 21.6869 6.62184 22.3053C6.62184 22.9237 7.12317 23.425 7.74158 23.425Z" fill="#CCCCCC"/>
<path opacity="0.4" d="M6.0619 28.1838H28.3168C28.9352 28.1838 29.4365 27.6825 29.4365 27.0641C29.4365 26.4457 28.9352 25.9443 28.3168 25.9443H6.0619C5.44348 25.9443 4.94215 26.4457 4.94215 27.0641C4.94215 27.6825 5.44348 28.1838 6.0619 28.1838Z" fill="#CCCCCC"/>
<path opacity="0.4" d="M6.0619 32.9426H28.3168C28.9352 32.9426 29.4365 32.4413 29.4365 31.8229C29.4365 31.2045 28.9352 30.7031 28.3168 30.7031H6.0619C5.44348 30.7031 4.94215 31.2045 4.94215 31.8229C4.94215 32.4413 5.44348 32.9426 6.0619 32.9426Z" fill="#CCCCCC"/>
<path opacity="0.5" d="M8.04771 8.33031H18.5453C19.1637 8.33031 19.665 7.82898 19.665 7.21056C19.665 6.59215 19.1637 6.09082 18.5453 6.09082H8.04771C7.42929 6.09082 6.92797 6.59215 6.92797 7.21056C6.92797 7.82898 7.42929 8.33031 8.04771 8.33031Z" fill="#9F2079"/>
<path d="M20.8543 39.7987C20.6284 38.842 19.5669 38.5284 18.699 38.5635C18.1507 38.6005 17.6068 38.6865 17.0739 38.8206C16.5162 38.9454 15.964 39.0931 15.4145 39.2498C14.407 39.5371 13.4098 39.8846 12.3857 40.1093C11.5331 40.2963 10.6065 40.406 9.75626 40.1478C8.93893 39.8996 8.24553 39.2903 8.02316 38.4479C7.81359 37.6541 8.10131 36.7861 8.87054 36.4234C9.57202 36.0925 10.4581 36.2608 10.8058 37.0089C11.1978 37.8525 10.8061 38.7724 10.1854 39.3828C9.83259 39.7141 9.44616 40.0076 9.03238 40.2586C8.6124 40.5448 8.14494 40.7542 7.65177 40.877C6.84206 41.0499 5.87751 40.7951 5.45994 40.0215C5.36712 39.8464 5.31129 39.654 5.29592 39.4564C5.2712 39.1875 5.69126 39.1891 5.71582 39.4564C5.78661 40.2267 6.6887 40.5875 7.36329 40.503C7.81866 40.4276 8.25351 40.2588 8.64055 40.0073C9.01408 39.7895 9.36804 39.5397 9.69846 39.2608C10.2706 38.7657 10.807 37.9509 10.4227 37.1782C10.1098 36.5491 9.29409 36.5553 8.79797 36.9611C8.19716 37.4525 8.30429 38.3443 8.70056 38.9279C9.13934 39.574 9.93463 39.8449 10.6845 39.8741C11.4992 39.9058 12.3072 39.7188 13.0858 39.4977C14.0534 39.223 15.0113 38.9155 15.9835 38.6568C16.5354 38.51 17.0916 38.3774 17.6535 38.2743C18.1848 38.1572 18.7305 38.1195 19.2728 38.1622C20.149 38.2634 21.0434 38.7734 21.2592 39.687C21.3212 39.9498 20.9165 40.062 20.8543 39.7987L20.8543 39.7987Z" fill="#3F3D56" stroke="#3F3D56"/>
<path d="M50.0003 22.9993C50.0003 22.568 49.818 22.1532 49.5 21.8615L48.4425 20.8422L49.1423 19.6025C49.3538 19.2267 49.3995 18.7752 49.266 18.365C49.1325 17.954 48.831 17.6157 48.438 17.4365L47.118 16.7937L47.4 15.3987C47.4848 14.9765 47.3888 14.534 47.1353 14.1845C46.8818 13.835 46.491 13.6062 46.0605 13.5567L44.6063 13.3527L44.4435 11.9375C44.3948 11.5092 44.166 11.1177 43.8173 10.8642C43.4685 10.6107 43.0253 10.5148 42.6015 10.5988L41.1548 10.8545L40.563 9.56C40.3838 9.1685 40.0455 8.867 39.636 8.7335C39.225 8.5985 38.775 8.645 38.3978 8.8565L37.1018 9.5465L36.138 8.49875C35.8463 8.1815 35.4315 8 35.001 8H34.9988C34.5668 8.00075 34.1505 8.1845 33.8595 8.5025L32.8403 9.56L31.6005 8.861C31.2248 8.64875 30.7725 8.60525 30.3638 8.73725C29.9535 8.87 29.6145 9.17225 29.4353 9.5645L28.7925 10.8845L27.3975 10.6033C26.9745 10.5163 26.532 10.6137 26.184 10.8672C25.8345 11.1207 25.6058 11.5115 25.5555 11.942L25.3523 13.397L23.9363 13.559C23.508 13.6085 23.1165 13.8365 22.8623 14.186C22.6088 14.5347 22.512 14.978 22.5968 15.4018L22.8533 16.8477L21.5595 17.4395C21.1673 17.6187 20.865 17.9562 20.7315 18.3665C20.5988 18.7767 20.6438 19.2282 20.856 19.6047L21.546 20.9008L20.499 21.8638C20.1803 22.1555 19.998 22.5702 19.998 23.0022C19.998 23.4342 20.1803 23.849 20.4983 24.1415L21.5558 25.1607L20.856 26.4005C20.6445 26.7762 20.5988 27.2278 20.7323 27.638C20.8658 28.0483 21.1673 28.3873 21.5603 28.5658L22.8803 29.2085L22.5975 30.605C22.5128 31.0272 22.6088 31.4698 22.8623 31.8193C23.1158 32.1688 23.5065 32.3975 23.9385 32.4478L25.3928 32.648L25.5563 34.061C25.6043 34.4893 25.8323 34.8808 26.181 35.1343C26.532 35.3885 26.9745 35.486 27.3983 35.3997L28.845 35.1432L29.4368 36.4385C29.616 36.83 29.9543 37.1315 30.3645 37.265C30.7748 37.3985 31.2255 37.3528 31.6013 37.1413L32.898 36.4513L33.861 37.4998C34.1528 37.8178 34.5683 38 34.9995 38H35.0003C35.4315 38 35.8463 37.817 36.138 37.4998L37.1573 36.4422L38.397 37.1413C38.7735 37.3543 39.225 37.3985 39.6338 37.265C40.044 37.1322 40.383 36.83 40.5623 36.437L41.205 35.117L42.6008 35.399C43.02 35.4838 43.4648 35.3878 43.8143 35.1343C44.163 34.8808 44.3925 34.49 44.442 34.0602L44.6453 32.6052L46.0598 32.4425C46.488 32.393 46.8795 32.165 47.1338 31.8155C47.388 31.466 47.484 31.0235 47.3993 30.5998L47.1428 29.153L48.4365 28.5613C48.8288 28.382 49.131 28.0445 49.2645 27.6343C49.3988 27.224 49.353 26.7732 49.1415 26.396L48.4515 25.0993L49.4993 24.1362C49.818 23.846 50.0003 23.4305 50.0003 22.9993Z" fill="#727BC2"/>
<path d="M40.044 18.1001L32.7859 25.3668L30.2853 22.8734C29.8187 22.4081 29.0635 22.4086 28.5978 22.8748V22.8748C28.1311 23.3415 28.1316 24.0986 28.5987 24.5648L31.9433 27.9012C32.41 28.367 33.1657 28.366 33.6314 27.8998L41.7335 19.7881C42.1992 19.3215 42.1992 18.5658 41.733 18.0996V18.0996C41.2663 17.6334 40.5102 17.6334 40.044 18.1001Z" fill="white"/>
</svg>
