<svg width="89" height="73" viewBox="0 0 89 73" fill="none" xmlns="http://www.w3.org/2000/svg">
<path d="M61.7233 41C61.7374 41 61.7463 40.9996 61.7494 40.9995L86.5645 40.9996C87.0496 41.0002 87.5034 40.7601 87.7759 40.3587C88.0483 39.9573 88.1038 39.4469 87.9242 38.9963C87.0238 36.7468 85.8115 31.3498 87.8083 20.4783C90.1661 7.64106 88.0552 3.00165 87.0382 1.60282C86.7622 1.22456 86.3223 1.00062 85.8541 1H60.6505C60.1908 0.999558 59.7577 1.2153 59.4811 1.58246C59.2046 1.94962 59.1168 2.42546 59.2441 2.86715C60.2955 6.50255 62.4608 16.1353 59.8648 27.0383C57.8968 35.3041 58.8429 38.6758 59.9831 40.0487C60.7352 40.9541 61.5639 41 61.7233 41Z" fill="white"/>
<path d="M64.9374 12.1972H84.7195C85.2692 12.1972 85.7148 11.7516 85.7148 11.2019C85.7148 10.6522 85.2692 10.2065 84.7195 10.2065H64.9374C64.3877 10.2065 63.9421 10.6522 63.9421 11.2019C63.9421 11.7516 64.3877 12.1972 64.9374 12.1972Z" fill="#9F2079"/>
<path opacity="0.4" d="M64.9374 17.1547H84.7195C85.2692 17.1547 85.7148 16.7091 85.7148 16.1594C85.7148 15.6097 85.2692 15.1641 84.7195 15.1641H64.9374C64.3877 15.1641 63.9421 15.6097 63.9421 16.1594C63.9421 16.7091 64.3877 17.1547 64.9374 17.1547Z" fill="#CCCCCC"/>
<path opacity="0.4" d="M64.9374 21.3847H84.7195C85.2692 21.3847 85.7148 20.9391 85.7148 20.3894C85.7148 19.8397 85.2692 19.394 84.7195 19.394H64.9374C64.3877 19.394 63.9421 19.8397 63.9421 20.3894C63.9421 20.9391 64.3877 21.3847 64.9374 21.3847Z" fill="#CCCCCC"/>
<path opacity="0.4" d="M63.4444 25.6147H83.2265C83.7762 25.6147 84.2218 25.1691 84.2218 24.6194C84.2218 24.0696 83.7762 23.624 83.2265 23.624H63.4444C62.8947 23.624 62.449 24.0696 62.449 24.6194C62.449 25.1691 62.8947 25.6147 63.4444 25.6147Z" fill="#CCCCCC"/>
<path opacity="0.4" d="M63.4444 29.8451H83.2265C83.7762 29.8451 84.2218 29.3995 84.2218 28.8498C84.2218 28.3001 83.7762 27.8545 83.2265 27.8545H63.4444C62.8947 27.8545 62.449 28.3001 62.449 28.8498C62.449 29.3995 62.8947 29.8451 63.4444 29.8451Z" fill="#CCCCCC"/>
<path opacity="0.5" d="M65.21 7.96722H74.5412C75.0909 7.96722 75.5365 7.52159 75.5365 6.97189C75.5365 6.42219 75.0909 5.97656 74.5412 5.97656H65.21C64.6603 5.97656 64.2147 6.42219 64.2147 6.97189C64.2147 7.52159 64.6603 7.96722 65.21 7.96722Z" fill="#9F2079"/>
<path d="M76.5932 35.9386C76.3924 35.0882 75.4489 34.8095 74.6774 34.8407C74.19 34.8736 73.7066 34.9501 73.2328 35.0693C72.7372 35.1801 72.2463 35.3115 71.7579 35.4507C70.8623 35.7061 69.9759 36.015 69.0656 36.2147C68.3077 36.381 67.4841 36.4785 66.7283 36.249C66.0018 36.0283 65.3854 35.4868 65.1878 34.738C65.0015 34.0323 65.2572 33.2608 65.941 32.9384C66.5645 32.6443 67.3522 32.7938 67.6612 33.4589C68.0097 34.2087 67.6615 35.0264 67.1098 35.569C66.7962 35.8635 66.4527 36.1244 66.0849 36.3475C65.7116 36.6019 65.296 36.788 64.8577 36.8971C64.1379 37.0509 63.2805 36.8243 62.9094 36.1367C62.8269 35.981 62.7772 35.8101 62.7636 35.6344C62.7416 35.3953 63.115 35.3968 63.1368 35.6344C63.1997 36.3191 64.0016 36.6398 64.6012 36.5647C65.006 36.4976 65.3925 36.3476 65.7366 36.1241C66.0686 35.9305 66.3832 35.7085 66.6769 35.4606C67.1855 35.0204 67.6623 34.2962 67.3207 33.6093C67.0426 33.0501 66.3175 33.0557 65.8765 33.4163C65.3424 33.8531 65.4377 34.6459 65.7899 35.1646C66.1799 35.7389 66.8869 35.9797 67.5534 36.0057C68.2776 36.0339 68.9958 35.8677 69.6879 35.6711C70.548 35.4269 71.3995 35.1536 72.2636 34.9236C72.7542 34.7931 73.2486 34.6753 73.7481 34.5836C74.2203 34.4796 74.7054 34.446 75.1875 34.484C75.9663 34.5739 76.7614 35.0273 76.9531 35.8394C77.0083 36.073 76.6485 36.1727 76.5932 35.9386L76.5932 35.9386Z" fill="#3F3D56" stroke="#3F3D56"/>
<path d="M48.526 44.0047C48.4849 48.693 48.1415 53.3739 47.4979 58.0181C47.4754 58.1812 47.4508 58.3442 47.4282 58.5073L3.52169 58.262C3.39278 58.1 3.26589 57.9361 3.14295 57.7702C2.73304 57.2213 2.34885 56.6567 1.99616 56.0726C0.300992 53.2589 -0.475075 49.9647 0.30262 47.6918L0.316551 47.6565C0.484424 47.1588 0.748953 46.6991 1.09496 46.3039C2.86808 44.308 6.45316 44.6407 9.70655 46.2518C6.78847 43.0576 4.46492 39.0271 4.28837 35.4293C4.11527 31.9202 5.95021 29.4133 7.94042 27.2829C8.00572 27.2125 8.07101 27.144 8.13631 27.0755C8.168 27.0403 8.2016 27.0071 8.23319 26.9719C9.78598 25.3483 11.5963 23.7479 14.2165 23.9415C17.0903 24.1542 20.2764 26.5613 22.5104 29.3662C24.7444 32.1691 26.229 35.3533 27.7337 38.4609C29.2404 41.5666 30.8705 44.7516 33.2883 47.4061C30.0136 43.2641 27.3733 38.5513 26.398 33.9679C25.4227 29.3844 26.2811 24.9823 29.1996 22.8237C30.0856 22.1885 31.1109 21.7748 32.1896 21.6172C32.3155 21.5963 32.4434 21.5793 32.5733 21.5643C35.275 21.2569 38.5007 22.1913 41.2453 24.4248C44.2678 26.8841 46.3634 30.5299 47.406 33.9909C48.4485 37.4518 48.5597 40.7837 48.526 44.0047Z" fill="#F0F2F5"/>
<path d="M61.4957 70.4839C61.4957 71.6225 51.0743 71.7437 38.2479 72.5454C25.4328 73.3462 15 71.6225 15 70.4839C15 69.3454 25.4815 67.0548 38.2479 68.4225C51.0743 69.7968 61.4957 69.3454 61.4957 70.4839Z" fill="#D9DBE1"/>
<path d="M26.9744 67.2729C26.9553 67.9018 26.9137 68.5206 26.8594 69.1337C26.8488 69.251 26.8383 69.3682 26.8277 69.4855L26.4362 69.4833C26.4482 69.366 26.4602 69.2488 26.4707 69.1315C26.5534 68.2458 26.6121 67.3501 26.6201 66.43C26.6305 63.8791 26.3819 61.3338 25.8781 58.8332C25.3427 56.1407 24.5738 53.4999 23.5802 50.9408C22.5374 48.2417 21.2802 45.6304 19.8205 43.1321C19.793 43.0913 19.7808 43.0422 19.786 42.9934C19.8021 42.8818 19.9507 42.8487 20.0617 42.9553C20.0837 42.9762 20.1026 43.0001 20.1179 43.0263C20.2985 43.3368 20.4758 43.6483 20.6498 43.9607C22.0556 46.4729 23.2589 49.0933 24.2483 51.7968C25.1906 54.3643 25.9074 57.0091 26.3905 59.701C26.8431 62.1985 27.0387 64.7357 26.9744 67.2729V67.2729Z" fill="white"/>
<path d="M65.1155 30.1785C65.2482 30.0679 65.3014 29.8885 65.2505 29.7234C65.1995 29.5584 65.0543 29.4402 64.8824 29.4238C63.949 29.3337 63.007 29.4302 62.1113 29.7079L52.9874 32.5256C52.6661 32.6249 52.4222 32.888 52.3475 33.2158C52.2727 33.5437 52.3786 33.8865 52.6252 34.1151C52.8718 34.3438 53.2216 34.4235 53.5429 34.3242L62.6668 31.5065C63.563 31.2307 64.3954 30.7792 65.1155 30.1785Z" fill="#3F3D56"/>
<path d="M27.7155 41.8838C28.2172 41.6734 28.6 41.2515 28.7607 40.7318C28.9215 40.212 28.8438 39.6477 28.5486 39.1908L30.1124 31.0122L26.1266 30.7014L25.886 38.7012C25.1347 39.2604 24.9204 40.2932 25.3871 41.1052C25.8539 41.9171 26.8542 42.2516 27.7155 41.8838Z" fill="#FFB8B8"/>
<path d="M30.3584 37.6627L34.4181 18.7558C34.7653 17.1387 33.7358 15.5464 32.1187 15.1992C30.5016 14.852 28.9093 15.8815 28.5621 17.4986L24.5023 36.4053C24.4136 36.821 24.6781 37.2302 25.0936 37.32L29.4438 38.254C29.6435 38.2969 29.8521 38.2588 30.0236 38.1479C30.1952 38.037 30.3156 37.8624 30.3584 37.6627V37.6627Z" fill="#74225D"/>
<path d="M37.0218 67.4049H39.1197L40.1179 59.3125L37.0213 59.3127L37.0218 67.4049V67.4049Z" fill="#FFB8B8"/>
<path d="M40.6184 66.8054H36.5722V69.353H43.166V69.353C43.166 68.6774 42.8976 68.0294 42.4198 67.5516C41.9421 67.0738 41.2941 66.8054 40.6184 66.8054V66.8054Z" fill="#2F2E41"/>
<path d="M30.0055 67.2338H32.1034L33.1016 59.1414L30.005 59.1415L30.0055 67.2338V67.2338Z" fill="#FFB8B8"/>
<path d="M33.6021 66.6343H29.5559V69.1819H36.1497V69.1819C36.1497 68.5062 35.8813 67.8582 35.4035 67.3805C34.9257 66.9027 34.2777 66.6343 33.6021 66.6343Z" fill="#2F2E41"/>
<path d="M39.5355 65.8955C39.6944 65.7651 39.794 65.5762 39.8121 65.3714L42.2511 38.5417C42.2702 38.3312 42.202 38.1222 42.0624 37.9635C41.9229 37.8048 41.7242 37.7104 41.513 37.7024L29.2807 37.2437C29.0667 37.2357 28.859 37.3172 28.7076 37.4686C28.5561 37.6199 28.4744 37.8275 28.4822 38.0415L29.46 64.7681C29.4749 65.1551 29.7743 65.4711 30.1599 65.5068L32.6264 65.7311C32.833 65.7499 33.0384 65.6845 33.1962 65.5497C33.354 65.415 33.4507 65.2223 33.4644 65.0153L34.5964 48.0363C34.598 47.9704 34.626 47.9079 34.6742 47.8629C34.7223 47.8178 34.7865 47.794 34.8524 47.7968H34.8534C34.9195 47.7942 34.9838 47.8184 35.0319 47.8638C35.08 47.9093 35.1077 47.9721 35.1088 48.0383L36.1218 65.1318C36.1427 65.51 36.4368 65.8162 36.8138 65.8524L38.9685 66.068C39.173 66.089 39.3773 66.0268 39.5355 65.8955H39.5355Z" fill="#2F2E41"/>
<circle r="4.20314" transform="matrix(-1 0 0 1 34.8302 6.97853)" fill="#FFB8B8"/>
<path d="M42.9244 38.7234C43.0759 38.5512 43.1421 38.3201 43.1045 38.0938C42.3285 33.3772 42.7659 26.4443 43.2695 21.4588C43.537 18.767 42.3467 16.1373 40.1478 14.5619L37.9528 12.6805C37.8069 12.5569 37.6207 12.491 37.4296 12.4953L31.9763 12.6511C31.7797 12.6565 31.5926 12.7372 31.4538 12.8765L30.6111 14.7426L30.6024 14.7489C28.5628 16.2482 27.4113 18.6706 27.5366 21.1989L28.3393 37.7877C28.3606 38.1875 28.6831 38.5051 29.0832 38.5202L42.3197 38.9853C42.3282 38.9854 42.3367 38.9856 42.3453 38.9856C42.5671 38.9859 42.7782 38.8903 42.9244 38.7234V38.7234Z" fill="#922F76"/>
<path d="M58.8011 31.8007C58.8144 31.2568 58.5862 30.7349 58.1778 30.3755C57.7693 30.016 57.2227 29.856 56.6849 29.9383L49.8628 25.1641L47.9479 28.6736L55.1485 32.1673C55.3512 33.0817 56.2058 33.6999 57.1377 33.6064C58.0695 33.5128 58.7842 32.7371 58.8011 31.8007L58.8011 31.8007Z" fill="#FFB8B8"/>
<path d="M53.06 32.6307C53.262 32.6002 53.4435 32.4902 53.564 32.3252L56.1967 28.7383C56.4478 28.3953 56.374 27.9138 56.0316 27.6617L40.4426 16.2194C39.1092 15.2407 37.2349 15.5283 36.2562 16.8616C35.2775 18.195 35.5651 20.0693 36.8984 21.048L52.4875 32.4903C52.619 32.5874 52.7781 32.6397 52.9415 32.6397C52.9812 32.6397 53.0208 32.6367 53.06 32.6307Z" fill="#B03D90"/>
<path d="M34.615 10.7201C34.0576 10.0367 34.1186 8.9957 34.566 8.23568C35.0134 7.47566 35.7728 6.95221 36.5542 6.54337C37.3356 6.13453 38.1658 5.81301 38.9012 5.3262C39.6366 4.83939 39.6045 2.7785 39.8003 1.9186L39.3333 2.07415C39.5128 1.84453 39.5703 1.16601 39.7498 0.93638C39.2221 0.98852 38.8163 1.48955 38.2886 1.54169L38.5932 0.724301C36.7836 0.612736 35.6585 1.87021 33.8489 1.75865C32.9523 1.70337 31.9786 1.6684 31.2415 2.18187C30.601 2.62808 30.2768 3.40037 30.064 4.15143C29.6073 5.76402 29.5363 7.5704 30.3252 9.04914C31.1142 10.5279 32.9327 11.5243 34.5214 10.9904L34.615 10.7201Z" fill="#2F2E41"/>
</svg>
