<svg width="110" height="90" viewBox="0 0 110 90" fill="none" xmlns="http://www.w3.org/2000/svg">
<path d="M0.942261 87.7342C0.942261 88.8727 11.3637 88.9939 24.1901 89.7956C37.0052 90.5965 47.438 88.8727 47.438 87.7342C47.438 86.5957 36.9565 84.305 24.1901 85.6728C11.3637 87.047 0.942261 86.5957 0.942261 87.7342Z" fill="#E6E6E6"/>
<path d="M85.4021 15.4409C85.4002 15.4409 85.3984 15.4415 85.3965 15.4415V4.47621C85.3964 2.00407 83.3924 0 80.9202 0H46.5904C44.1183 0 42.1142 2.00407 42.1142 4.47621V10.0976C41.9171 10.1018 41.7594 10.2627 41.7592 10.4599V13.2442C41.7594 13.4414 41.9171 13.6023 42.1142 13.6065V16.5233H42.096C41.9997 16.5233 41.9073 16.5616 41.8393 16.6297C41.7712 16.6978 41.7329 16.7901 41.7329 16.8864V22.2706C41.7329 22.3669 41.7712 22.4593 41.8393 22.5274C41.9073 22.5955 41.9997 22.6337 42.096 22.6337H42.1142V24.7722H42.1085C42.0122 24.7722 41.9199 24.8104 41.8518 24.8785C41.7837 24.9466 41.7454 25.039 41.7455 25.1353V30.5721C41.7454 30.6684 41.7837 30.7608 41.8518 30.8289C41.9199 30.897 42.0122 30.9352 42.1085 30.9352H42.1142V83.4892C42.1142 85.9614 44.1183 87.9655 46.5904 87.9655H80.9202C83.3924 87.9655 85.3964 85.9614 85.3965 83.4892V26.1035C85.3984 26.1035 85.4002 26.1041 85.4021 26.1041C85.5736 26.1041 85.738 26.036 85.8593 25.9147C85.9805 25.7935 86.0486 25.629 86.0486 25.4576V16.0875C86.0486 15.7304 85.7592 15.4409 85.4021 15.4409Z" fill="#3F3D56"/>
<path opacity="0.297658" d="M98.7901 78.8373C99.3026 82.2153 97.8804 85.2333 97.8804 85.2333C97.8804 85.2333 95.6236 82.774 95.1111 79.396C94.5987 76.018 96.0246 73 96.0246 73C96.0246 73 98.2777 75.4592 98.7901 78.8373Z" fill="#5E2750"/>
<path opacity="0.297658" d="M106.319 86.221C108.179 86.2005 109.697 87.1974 109.697 87.1974C109.697 87.1974 108.201 88.2277 106.341 88.2481C104.482 88.2686 102.963 87.271 102.963 87.271C102.963 87.271 104.46 86.2407 106.319 86.221Z" fill="#5E2750"/>
<path opacity="0.297658" d="M102.09 81.0857C100.359 82.9877 99.9932 85.4735 99.9932 85.4735C99.9932 85.4735 102.433 84.8746 104.163 82.9718C105.893 81.069 106.26 78.584 106.26 78.584C106.26 78.584 103.821 79.1829 102.09 81.0857Z" fill="#5E2750"/>
<path d="M82.7235 5.72876V82.2346C82.7228 84.1328 81.1839 85.6711 79.2858 85.6711H48.2244C46.3262 85.6711 44.7873 84.1328 44.7866 82.2346V5.72876C44.7866 3.83015 46.3258 2.29102 48.2244 2.29102H52.8724V2.89428C52.8731 4.45736 54.1401 5.72431 55.7031 5.725H71.506C73.0669 5.72154 74.3304 4.4552 74.3304 2.89428V2.29729H79.2858C81.1819 2.29728 82.72 3.8326 82.7235 5.72876V5.72876Z" fill="white"/>
<path d="M32.3552 42.9288C31.9834 42.7848 31.5669 42.8129 31.2177 43.0056C30.8686 43.1982 30.6228 43.5356 30.5463 43.9269L19.4775 49.9455L21.4237 52.1359L31.7031 45.539C32.384 45.6257 33.0221 45.1895 33.1885 44.5235C33.3549 43.8576 32.9969 43.1725 32.3552 42.9288H32.3552Z" fill="#FFB8B8"/>
<path d="M29.532 86.2324L30.9112 85.3403L28.1265 79.5957L26.0908 80.9124L29.532 86.2324V86.2324Z" fill="#FFB8B8"/>
<path d="M34.3999 84.9004L30.0651 87.7043L28.9817 86.0295L31.7044 84.2684C32.5948 83.6925 33.7835 83.9474 34.3594 84.8378L34.3999 84.9004L34.3999 84.9004Z" fill="#2F2E41"/>
<path d="M14.0562 86.4395H15.6988L16.4805 80.1035H14.0562V86.4395V86.4395Z" fill="#FFB8B8"/>
<path d="M18.8672 87.9648H13.7046V85.9702H16.9471C17.4564 85.9702 17.9447 86.1725 18.3048 86.5326C18.6649 86.8927 18.8672 87.381 18.8672 87.8903V87.9648V87.9648Z" fill="#2F2E41"/>
<path d="M51.7433 12.4162H48.357C48.1838 12.4162 48.0435 12.2758 48.0435 12.1026C48.0435 11.9294 48.1838 11.7891 48.357 11.7891H51.7433C51.9165 11.7891 52.0569 11.9294 52.0569 12.1026C52.0569 12.2758 51.9165 12.4162 51.7433 12.4162V12.4162Z" fill="#3F3D56"/>
<path d="M51.7433 13.2931H48.357C48.1838 13.2931 48.0435 13.1527 48.0435 12.9796C48.0435 12.8064 48.1838 12.666 48.357 12.666H51.7433C51.9165 12.666 52.0569 12.8064 52.0569 12.9796C52.0569 13.1527 51.9165 13.2931 51.7433 13.2931V13.2931Z" fill="#3F3D56"/>
<path d="M51.7433 14.172H48.357C48.1838 14.172 48.0435 14.0316 48.0435 13.8585C48.0435 13.6853 48.1838 13.5449 48.357 13.5449H51.7433C51.9165 13.5449 52.0569 13.6853 52.0569 13.8585C52.0569 14.0316 51.9165 14.172 51.7433 14.172V14.172Z" fill="#3F3D56"/>
<path fill-rule="evenodd" clip-rule="evenodd" d="M77.8788 13.3004H77.9929L78.7204 14.0228L78.5046 14.2386L77.7847 13.5174V13.402L77.7421 13.3657C77.5699 13.5084 77.3537 13.5873 77.13 13.5889C76.6147 13.5917 76.1947 13.1761 76.1919 12.6608C76.1892 12.1455 76.6047 11.7255 77.12 11.7227C77.6353 11.7199 78.0554 12.1354 78.0581 12.6508C78.0581 12.8751 77.9791 13.0922 77.8349 13.2641L77.8788 13.3004ZM76.5283 12.9017C76.6298 13.1441 76.8673 13.3015 77.13 13.3004H77.13L77.1351 13.3004C77.3064 13.2994 77.4702 13.2304 77.5907 13.1086C77.7111 12.9867 77.7782 12.8221 77.7772 12.6508L77.7772 12.6483C77.7762 12.3855 77.617 12.1492 77.3738 12.0496C77.1307 11.95 76.8514 12.0066 76.6664 12.1932C76.4813 12.3797 76.4268 12.6593 76.5283 12.9017Z" fill="#3F3D56"/>
<path d="M58.6423 23.9545H52.5588C51.7969 23.9545 51.1792 23.3369 51.1792 22.5749C51.1792 21.813 51.7969 21.1953 52.5588 21.1953H58.6423C59.4043 21.1953 60.0219 21.813 60.0219 22.5749C60.0219 23.3369 59.4043 23.9545 58.6423 23.9545V23.9545Z" fill="#A33777"/>
<path d="M77.2664 26.964H51.9317C51.5161 26.964 51.1792 26.6271 51.1792 26.2115C51.1792 25.7959 51.5161 25.459 51.9317 25.459H77.2664C77.682 25.459 78.019 25.7959 78.019 26.2115C78.019 26.6271 77.682 26.964 77.2664 26.964Z" fill="#E6E6E6"/>
<path d="M61.2379 29.9738H51.9317C51.5161 29.9738 51.1792 29.6369 51.1792 29.2213C51.1792 28.8057 51.5161 28.4688 51.9317 28.4688H61.2379C61.6535 28.4688 61.9904 28.8057 61.9904 29.2213C61.9904 29.6369 61.6535 29.9738 61.2379 29.9738Z" fill="#E6E6E6"/>
<path d="M58.6423 57.3159H52.5588C51.7969 57.3159 51.1792 56.6982 51.1792 55.9363C51.1792 55.1743 51.7969 54.5566 52.5588 54.5566H58.6423C59.4043 54.5566 60.0219 55.1743 60.0219 55.9363C60.0219 56.6982 59.4043 57.3159 58.6423 57.3159V57.3159Z" fill="#A33777"/>
<path d="M77.2664 60.3253H51.9317C51.5161 60.3253 51.1792 59.9884 51.1792 59.5728C51.1792 59.1572 51.5161 58.8203 51.9317 58.8203H77.2664C77.682 58.8203 78.019 59.1572 78.019 59.5728C78.019 59.9884 77.682 60.3253 77.2664 60.3253V60.3253Z" fill="#E6E6E6"/>
<path d="M61.2379 63.3351H51.9317C51.5161 63.3351 51.1792 62.9982 51.1792 62.5826C51.1792 62.167 51.5161 61.8301 51.9317 61.8301H61.2379C61.6535 61.8301 61.9904 62.167 61.9904 62.5826C61.9904 62.9982 61.6535 63.3351 61.2379 63.3351V63.3351Z" fill="#E6E6E6"/>
<path d="M58.6423 72.7416H52.5588C51.7969 72.7416 51.1792 72.124 51.1792 71.362C51.1792 70.6001 51.7969 69.9824 52.5588 69.9824H58.6423C59.4043 69.9824 60.0219 70.6001 60.0219 71.362C60.0219 72.124 59.4043 72.7416 58.6423 72.7416V72.7416Z" fill="#A33777"/>
<path d="M77.2664 75.7531H51.9317C51.5161 75.7531 51.1792 75.4162 51.1792 75.0006C51.1792 74.585 51.5161 74.248 51.9317 74.248H77.2664C77.682 74.248 78.019 74.585 78.019 75.0006C78.019 75.4162 77.682 75.7531 77.2664 75.7531V75.7531Z" fill="#E6E6E6"/>
<path d="M61.2379 78.7628H51.9317C51.5161 78.7628 51.1792 78.4259 51.1792 78.0103C51.1792 77.5947 51.5161 77.2578 51.9317 77.2578H61.2379C61.6535 77.2578 61.9904 77.5947 61.9904 78.0103C61.9904 78.4259 61.6535 78.7628 61.2379 78.7628V78.7628Z" fill="#E6E6E6"/>
<path d="M80.8408 49.477H32.4289C31.8404 49.4763 31.3635 48.9994 31.3628 48.4109V35.2418C31.3635 34.6533 31.8404 34.1764 32.4289 34.1758H80.8408C81.4293 34.1765 81.9062 34.6534 81.9068 35.2418V48.4109C81.9061 48.9994 81.4292 49.4763 80.8408 49.477V49.477Z" fill="#EB7676"/>
<path d="M15.0245 65.1443C15.4873 68.3914 13.0366 82.777 13.3088 82.7758L16.828 82.757C16.9535 82.5162 18.5689 74.7539 19.0756 73.5085C19.7829 71.7803 20.4966 70.0306 20.775 68.1845C21.0371 66.4512 20.9079 64.6853 20.7374 62.9407C20.7534 62.8354 20.7179 62.7288 20.6418 62.6543C20.5658 62.5797 20.4585 62.5463 20.3536 62.5644L15.6315 62.3211C14.6583 62.2709 14.4275 62.0577 14.5755 63.0134C14.6783 63.7271 14.9217 64.4219 15.0245 65.1443Z" fill="#2F2E41"/>
<path d="M15.953 57.2487C14.9935 58.6283 13.9876 60.2161 14.3062 61.8679C14.5483 63.1221 15.504 64.0941 16.4057 65.0034C20.0103 68.623 27.1178 84.5939 27.1178 84.5939C30.5478 82.399 27.0361 84.6566 30.5167 82.3363C30.2081 82.3125 23.1984 57.1145 22.6177 57.0806C20.2686 56.9251 18.2419 56.6956 15.953 57.2487Z" fill="#2F2E41"/>
<path d="M19.7479 44.1179C19.2606 43.6833 15.8358 42.343 15.8358 42.343C15.7728 42.3346 15.7089 42.3366 15.6466 42.3487C15.4517 42.3979 15.3627 42.6401 15.4044 42.8359C15.446 43.0317 15.1045 46.2504 15.0165 47.714C14.8623 50.2685 16.3666 56.0548 16.3533 56.2317C16.3018 56.8627 16.0255 57.4543 15.5747 57.8988C15.6918 58.0442 23.1331 58.3359 23.6392 58.5081C23.7414 58.3785 23.0631 49.2003 23.0318 48.6819C22.9798 47.8947 20.3913 44.7139 19.7479 44.1179Z" fill="#E6E6E6"/>
<path d="M14.4402 64.0326C14.7971 63.855 15.0571 63.5283 15.1501 63.1406C15.2431 62.7529 15.1596 62.3438 14.922 62.0236L18.0616 44.648L15.1318 44.6094L12.9515 61.7916C12.4285 62.2361 12.3207 63.0016 12.7004 63.5733C13.0802 64.1451 13.8277 64.3424 14.4402 64.0326H14.4402Z" fill="#FFB8B8"/>
<path d="M14.4151 45.9383C14.2929 45.9472 14.1712 45.9155 14.069 45.848C13.8946 45.6988 15.3169 43.4149 15.5978 43.381C16.5121 43.2757 17.4528 43.2406 18.3395 43.4876C19.2262 43.7347 20.0602 44.2966 20.4566 45.1281C20.6221 45.4743 19.4219 47.2164 18.8763 46.9605C18.2228 46.6545 15.2755 45.9597 14.4151 45.9383Z" fill="#E6E6E6"/>
<circle cx="17.6424" cy="38.8651" r="3.29086" fill="#FFB8B8"/>
<path d="M14.4098 44.3056C15.339 44.4028 16.2541 44.0216 16.8393 43.2933C17.4246 42.5651 17.6001 41.5894 17.3052 40.7029C17.1742 40.3091 16.9553 39.9482 16.8354 39.551C16.7154 39.1538 16.7122 38.6841 16.9782 38.3656C17.4986 37.7425 18.5018 38.1345 19.3041 38.0106C20.1591 37.8786 20.8149 37.0584 20.8834 36.196C20.9518 35.3337 20.5023 34.4803 19.8332 33.932C19.1641 33.3837 18.3011 33.1137 17.4402 33.0291C15.1916 32.8082 12.9906 33.7761 11.6336 35.5826C10.2766 37.3891 9.9601 39.7726 10.7986 41.8706C11.1583 42.7706 11.7458 43.6088 12.5803 44.1016C13.4148 44.5945 14.517 44.6892 15.3487 44.1916" fill="#2F2E41"/>
<path d="M49.6461 41.1967H41.2362C40.7021 41.1967 40.2676 40.5778 40.2676 39.8171C40.2676 39.0564 40.7021 38.4375 41.2362 38.4375H49.6461C50.1802 38.4375 50.6147 39.0564 50.6147 39.8171C50.6147 40.5778 50.1801 41.1967 49.6461 41.1967Z" fill="white"/>
<path opacity="0.3" d="M72.2495 44.2062H41.0201C40.6045 44.2062 40.2676 43.8693 40.2676 43.4537C40.2676 43.0381 40.6045 42.7012 41.0201 42.7012H72.2495C72.6651 42.7012 73.0021 43.0381 73.0021 43.4537C73.0021 43.8693 72.6651 44.2062 72.2495 44.2062V44.2062Z" fill="white"/>
</svg>
