<svg width="68" height="94" viewBox="0 0 68 94" fill="none" xmlns="http://www.w3.org/2000/svg">
<path opacity="0.6" d="M57.1676 20.4396L47.7254 48.3144C47.5286 48.8923 46.9006 49.2013 46.3228 49.0044C46.1135 48.9331 45.9304 48.8007 45.7971 48.6243L39.7972 40.6621C25.7979 50.3312 8.2412 42.4969 0.698454 32.8546L0.665214 32.8105C0.297847 32.323 0.395253 31.6299 0.882765 31.2626C1.36475 30.8992 2.04909 30.9899 2.42005 31.466L2.45866 31.5172C4.34416 33.8138 21.3301 37.0486 31.8084 30.0606L25.8417 22.1425C25.4749 21.6546 25.5731 20.9617 26.061 20.5948C26.2377 20.4619 26.4503 20.3852 26.6711 20.3743L56.0688 18.9812C56.6786 18.9526 57.1961 19.4236 57.2247 20.0334C57.2311 20.1712 57.2118 20.309 57.1676 20.4396Z" fill="url(#paint0_linear_6_13725)"/>
<path d="M5.50608 69.647C5.87089 69.397 6.10621 68.9983 6.14867 68.558C6.19113 68.1178 6.03638 67.6815 5.72608 67.3664L6.30556 54.4309L3.35532 54.762L3.52678 67.4147C3.02037 67.9832 3.01945 68.8407 3.52465 69.4103C4.02985 69.9799 4.88133 70.0814 5.50622 69.6464L5.50608 69.647Z" fill="#A0616A"/>
<path d="M10.8883 91.5439L12.5675 91.8391L14.2271 85.5028L12.0269 85.0671L10.8883 91.5439Z" fill="#A0616A"/>
<path d="M15.5322 93.9674L10.2549 93.0396L10.6133 91.0008L13.8517 91.5701C14.9778 91.7681 15.7302 92.8414 15.5322 93.9675L15.5322 93.9674Z" fill="#2F2E41"/>
<path d="M6.27942 92.3844H7.98435L8.79537 85.8083H6.27914L6.27942 92.3844Z" fill="#A0616A"/>
<path d="M11.2718 93.9678L5.91352 93.9681L5.91341 91.8978L9.20144 91.8976C10.3448 91.8976 11.2717 92.8244 11.2718 93.9678V93.9678Z" fill="#2F2E41"/>
<path d="M13.3924 90.0273C13.3658 90.0274 13.3393 90.0258 13.3129 90.0226L11.3062 89.8575C11.1215 89.8358 10.9539 89.7393 10.8424 89.5906C10.7309 89.4418 10.6852 89.2539 10.7161 89.0706L12.7082 79.2414L11.4566 72.6395C11.4355 72.5285 11.3359 72.4501 11.2231 72.4557C11.1104 72.4614 11.019 72.5492 11.009 72.6617L9.16487 89.4366C9.12909 89.8039 8.80867 90.0768 8.44034 90.0536L6.54977 89.9832C6.20693 89.9589 5.93619 89.6825 5.91898 89.3392L6.07 69.0682L15.8714 67.843L16.5561 78.4176L16.5533 78.4288L14.0514 89.5087C13.9773 89.8127 13.7053 90.0268 13.3924 90.0273V90.0273Z" fill="#2F2E41"/>
<circle cx="9.30227" cy="42.6338" r="3.41555" fill="#A0616A"/>
<path d="M12.5205 70.6106C11.9863 70.6138 11.4624 70.4639 11.0107 70.1787C9.35581 69.1446 7.47692 69.5556 6.50403 69.8926C6.30841 69.9612 6.09222 69.9365 5.91704 69.8258C5.74388 69.717 5.62995 69.5351 5.60776 69.3318L3.83873 53.5307C3.54224 50.8832 5.13703 48.3941 7.63072 47.6121V47.6121C7.72445 47.5827 7.81971 47.5549 7.9165 47.5287C9.48739 47.1028 11.1662 47.3942 12.5017 48.3245C13.8621 49.2651 14.7362 50.7597 14.889 52.4065L16.3785 68.3136C16.3991 68.5223 16.3205 68.7287 16.1662 68.8708C15.6439 69.3536 14.1283 70.6105 12.5205 70.6106Z" fill="#A33777"/>
<path d="M7.133 56.9193L3.14187 56.4804C2.91205 56.4552 2.70462 56.3311 2.57363 56.1406C2.44264 55.9501 2.40107 55.712 2.45976 55.4884L3.47576 51.616C3.55721 50.8262 4.05642 50.1409 4.78322 49.8212C5.51002 49.5015 6.3525 49.5966 6.98972 50.0703C7.62694 50.544 7.96078 51.3234 7.86406 52.1115L8.01495 56.0991C8.02369 56.3302 7.9314 56.5536 7.76214 56.7112C7.59289 56.8688 7.36342 56.9448 7.13356 56.9196L7.133 56.9193Z" fill="#A33777"/>
<path d="M16.3622 69.0932C16.6941 68.801 16.8795 68.3769 16.8687 67.9349C16.8578 67.4929 16.6516 67.0785 16.3058 66.8031L15.3222 53.8921L12.4312 54.5429L14.1278 67.1162C13.6935 67.7416 13.7959 68.593 14.3661 69.0975C14.9362 69.6021 15.7938 69.6002 16.3617 69.0932H16.3622Z" fill="#A0616A"/>
<path d="M11.323 56.1076C11.1537 55.9502 11.0614 55.7268 11.0702 55.4958L11.2211 51.5081C11.1326 50.7242 11.469 49.9526 12.1036 49.484C12.7382 49.0154 13.5746 48.921 14.2977 49.2363C15.0209 49.5516 15.5209 50.2287 15.6094 51.0126L16.6254 54.885C16.6841 55.1086 16.6425 55.3467 16.5115 55.5372C16.3805 55.7277 16.1731 55.8518 15.9433 55.8771L11.9521 56.3159C11.7222 56.3413 11.4927 56.2651 11.3236 56.1074L11.323 56.1076Z" fill="#CA4293"/>
<path d="M9.09908 46.1778C9.03821 46.1778 8.97754 46.1707 8.91829 46.1568L8.90091 46.1526C5.89796 45.6937 5.23421 43.9537 5.08861 43.2274C4.93787 42.4753 5.10947 41.7494 5.49746 41.4674C5.28594 40.7999 5.31988 40.2073 5.59856 39.7066C6.08528 38.8333 7.13953 38.5384 7.28123 38.5017C8.12368 37.8803 9.13162 38.2951 9.31504 38.3792C10.9447 37.7764 11.5679 38.2781 11.6802 38.3902C12.4087 38.5211 12.8527 38.8024 13.0001 39.2268C13.277 40.0238 12.4014 41.0152 12.364 41.057L12.3445 41.0787L11.0401 41.1409C10.7898 41.1528 10.5563 41.2704 10.3977 41.4645C10.2391 41.6585 10.1703 41.9107 10.2084 42.1584V42.1584C10.2437 42.3164 10.2883 42.4722 10.3419 42.625C10.5644 43.3211 10.7313 43.9159 10.5163 44.142C10.4168 44.2313 10.275 44.2558 10.1512 44.2053C9.94723 44.1508 9.80886 44.1622 9.73988 44.2394C9.6328 44.3588 9.66548 44.6614 9.83194 45.0911C9.93839 45.3681 9.88236 45.6813 9.68648 45.9042C9.54002 46.077 9.32527 46.1769 9.0988 46.1778H9.09908Z" fill="#2F2E41"/>
<defs>
<linearGradient id="paint0_linear_6_13725" x1="59.0991" y1="66.278" x2="-4.62456" y2="49.6408" gradientUnits="userSpaceOnUse">
<stop stop-color="#873873"/>
<stop offset="1" stop-color="#A02E83"/>
</linearGradient>
</defs>
</svg>
