<svg width="76" height="79" viewBox="0 0 76 79" fill="none" xmlns="http://www.w3.org/2000/svg">
<path d="M16.25 75.5503C16.25 77.1891 28.5775 77.3635 43.75 78.5175C58.909 79.6702 71.25 77.1891 71.25 75.5503C71.25 73.9115 58.8514 70.6144 43.75 72.5831C28.5775 74.5612 16.25 73.9115 16.25 75.5503Z" fill="#E6E6E6"/>
<path d="M44.5221 72.2671H46.9491L48.1035 62.9062H44.5217L44.5221 72.2671V72.2671Z" fill="#A0616A"/>
<path d="M48.684 71.5723H44.0036V74.5192H51.6309V74.5192C51.6309 73.7376 51.3204 72.988 50.7677 72.4354C50.2151 71.8827 49.4655 71.5723 48.684 71.5723V71.5723Z" fill="#2F2E41"/>
<path d="M34.4264 72.2671H36.8533L38.0078 62.9062H34.426L34.4264 72.2671V72.2671Z" fill="#A0616A"/>
<path d="M38.5883 71.5723H33.9079V74.5192H41.5352V74.5192C41.5352 73.7376 41.2247 72.988 40.672 72.4354C40.1194 71.8827 39.3698 71.5723 38.5883 71.5723V71.5723Z" fill="#2F2E41"/>
<path d="M34.7361 70.1145H37.2065C37.6689 70.112 38.0535 69.758 38.0942 69.2973L40.1877 44.0784C40.2004 43.9265 40.326 43.8089 40.4784 43.8062C40.6308 43.8035 40.7604 43.9166 40.7785 44.0679L43.7852 69.329C43.8388 69.777 44.2186 70.1142 44.6698 70.1145H47.7032C48.1929 70.1136 48.5903 69.7182 48.5936 69.2285C48.6002 67.6418 48.6111 66.0435 48.6219 64.445C48.7181 50.2078 48.8177 35.486 45.8449 29.7185L45.8178 29.6659L35.0902 29.4824L35.0633 29.5414C31.8176 36.6341 32.8027 52.4792 33.7554 67.8024L33.8471 69.279C33.8769 69.7482 34.2659 70.1138 34.7361 70.1145V70.1145Z" fill="#2F2E41"/>
<circle r="4.86194" transform="matrix(-1 0 0 1 39.8178 5.66662)" fill="#A0616A"/>
<path d="M46.4459 30.5614L46.3119 24.987L47.2764 20.6376C47.7705 18.4531 47.1912 16.1641 45.7174 14.4777C44.2836 12.7996 42.1339 11.9083 39.9334 12.0794H39.9333C39.8633 12.0848 39.7931 12.0907 39.7227 12.097C37.8498 12.2656 36.1257 13.1878 34.9458 14.652C33.7413 16.1245 33.1865 18.0231 33.4089 19.9125L34.5757 30.1104L46.4459 30.5614Z" fill="#A33777"/>
<path d="M50.5771 40.5518C50.1127 40.1892 49.8328 39.6396 49.8127 39.0509C49.7926 38.4621 50.0342 37.8947 50.4727 37.5012L47.7353 30.9785L51.3481 31.657L53.3936 37.7471C54.0195 38.545 53.9497 39.6849 53.2311 40.4005C52.5125 41.116 51.3723 41.181 50.5771 40.5518Z" fill="#A0616A"/>
<path d="M29.9224 41.3327C30.3653 40.9443 30.6135 40.3797 30.6001 39.7908C30.5867 39.2018 30.3132 38.649 29.8531 38.2812L32.2148 31.6133L28.6465 32.4963L26.9508 38.6928C26.3713 39.5251 26.5059 40.6592 27.264 41.3327C28.0222 42.0062 29.1642 42.0062 29.9224 41.3327H29.9224Z" fill="#A0616A"/>
<path d="M50.1415 37.3558C50.267 37.3558 50.391 37.3293 50.5055 37.278L52.5882 36.3451C53.0031 36.1599 53.2117 35.6917 53.072 35.2593L49.5786 24.4076L48.2285 16.2322C48.0978 15.4412 47.5464 14.7844 46.7901 14.5187C46.0337 14.253 45.1926 14.4207 44.596 14.9561C43.9994 15.4916 43.7421 16.3097 43.9248 17.0903L45.9766 25.858L49.2893 36.7248C49.4035 37.0998 49.7495 37.356 50.1415 37.3558V37.3558Z" fill="#CA4293"/>
<path d="M30.2743 37.3539C30.6663 37.3541 31.0123 37.0979 31.1264 36.7229L34.4374 25.8623L36.491 17.0884C36.6737 16.3078 36.4164 15.4897 35.8198 14.9542C35.2231 14.4187 34.3821 14.251 33.6257 14.5167C32.8693 14.7824 32.3179 15.4393 32.1872 16.2303L30.8337 24.42L27.3437 35.2574C27.2041 35.6898 27.4127 36.158 27.8276 36.3432L29.9102 37.2762C30.0247 37.3274 30.1488 37.3539 30.2743 37.3539V37.3539Z" fill="#A33777"/>
<path d="M39.7183 0.291583C41.0695 -0.293741 42.8347 0.434584 43.38 1.80243C43.7194 2.65373 43.6158 3.6139 43.4287 4.51106C43.2416 5.40822 42.9748 6.30353 43.0035 7.21954C43.0322 8.13555 43.4267 9.10773 44.2393 9.5315C44.7248 9.78471 45.2928 9.81287 45.8191 9.96389C46.3455 10.1149 46.8888 10.468 46.9646 11.0103C47.0792 11.8307 46.0841 12.4556 46.0907 13.284C46.0977 14.1617 47.1946 14.6829 47.3368 15.549C47.3866 16.0646 47.1675 16.5694 46.757 16.8852C46.3496 17.1911 45.8868 17.4152 45.3942 17.5449C41.6038 18.7565 37.5679 18.9864 33.6644 18.2133C32.8888 18.0586 32.0905 17.8494 31.4878 17.3372C30.8852 16.825 30.5405 15.9285 30.8869 15.2174C31.4062 14.1515 33.0551 14.0908 33.6298 13.0536C33.9745 12.4315 33.8158 11.6677 33.7432 10.9602C33.5558 9.13295 33.1233 6.99835 33.5773 5.21851C33.9874 3.61047 34.8779 1.53256 36.1507 0.467633C37.0639 -0.296499 38.8075 0.0516517 39.9747 0.287378L39.7183 0.291583Z" fill="#2F2E41"/>
<path opacity="0.3" d="M59.4927 70.2822C62.3471 74.1049 68.2723 74.5072 68.2723 74.5072C68.2723 74.5072 69.5696 68.7118 66.7151 64.8891C63.8607 61.0664 57.9355 60.6641 57.9355 60.6641C57.9355 60.6641 56.6382 66.4595 59.4927 70.2822Z" fill="#5E2750"/>
<path opacity="0.3" d="M74.0343 71.7198C72.1507 74.2422 68.2409 74.5077 68.2409 74.5077C68.2409 74.5077 67.3848 70.6835 69.2684 68.161C71.1519 65.6386 75.0618 65.373 75.0618 65.373C75.0618 65.373 75.9178 69.1973 74.0343 71.7198Z" fill="#5E2750"/>
</svg>
