<svg width="40" height="40" viewBox="0 0 40 40" fill="none" xmlns="http://www.w3.org/2000/svg">
<path d="M40 20C40 28.7528 34.3779 36.1919 26.5476 38.9033C23.3958 39.9886 20.0238 40.2741 16.7343 39.7343C16.4221 39.6834 16.1122 39.6248 15.8044 39.5587C15.3875 39.4701 14.9754 39.3683 14.5683 39.2531C6.16162 36.8871 0 29.1631 0 20C0 8.95424 8.95424 0 20 0C31.0458 0 40 8.95424 40 20Z" fill="#E6E6E6"/>
<path d="M8.29502 14.6994C8.20146 14.7495 8.1661 14.8659 8.21598 14.9595L17.8119 32.9329C17.862 33.0265 17.9784 33.0618 18.072 33.0119L31.6369 25.7697C31.7304 25.7196 31.7658 25.6033 31.7159 25.5096L22.1199 7.53623C22.0699 7.44267 21.9535 7.40731 21.8598 7.45719L8.29502 14.6994Z" fill="white"/>
<path d="M9.55566 15.2244L18.3369 31.6716L30.3757 25.2443L21.5944 8.79688L9.55566 15.2244Z" fill="white"/>
<path d="M12.591 17.0327C12.404 17.1326 12.3641 17.4241 12.5021 17.6824C12.64 17.9408 12.9044 18.0699 13.0914 17.97L21.9085 13.2626C22.0956 13.1627 22.1354 12.8712 21.9975 12.6129C21.8595 12.3545 21.5951 12.2254 21.4081 12.3253L12.591 17.0327Z" fill="#B8B9BC"/>
<path d="M13.6779 19.0674C13.4909 19.1673 13.4511 19.4588 13.589 19.7171C13.7269 19.9755 13.9913 20.1045 14.1783 20.0047L22.9955 15.2972C23.1825 15.1974 23.2223 14.9059 23.0844 14.6475C22.9464 14.3892 22.6821 14.2601 22.495 14.36L13.6779 19.0674Z" fill="#B8B9BC"/>
<path opacity="0.8" d="M14.7638 21.1021C14.5768 21.2019 14.537 21.4934 14.6749 21.7518C14.8129 22.0101 15.0772 22.1392 15.2643 22.0394L24.0814 17.3319C24.2684 17.2321 24.3082 16.9406 24.1703 16.6822C24.0324 16.4239 23.768 16.2948 23.581 16.3946L14.7638 21.1021Z" fill="#B8B9BC"/>
<path opacity="0.6" d="M15.8508 23.1372C15.6637 23.2371 15.6239 23.5286 15.7618 23.7869C15.8998 24.0453 16.1641 24.1744 16.3512 24.0745L25.1683 19.3671C25.3553 19.2672 25.3952 18.9757 25.2572 18.7174C25.1193 18.459 24.8549 18.3299 24.6679 18.4298L15.8508 23.1372Z" fill="#B8B9BC"/>
<path opacity="0.4" d="M16.9367 25.1719C16.7497 25.2717 16.7098 25.5632 16.8478 25.8216C16.9857 26.0799 17.2501 26.209 17.4371 26.1092L26.2542 21.4017C26.4413 21.3019 26.4811 21.0104 26.3432 20.752C26.2052 20.4937 25.9409 20.3646 25.7538 20.4644L16.9367 25.1719Z" fill="#B8B9BC"/>
<path d="M30.5785 14.7925C30.5434 14.7718 30.4982 14.7834 30.4774 14.8185L26.4976 21.5533C26.4769 21.5884 26.4885 21.6336 26.5235 21.6544L31.6064 24.6581C31.6415 24.6788 31.6868 24.6671 31.7075 24.6321L35.6874 17.8973C35.7081 17.8622 35.6965 17.8169 35.6614 17.7962L30.5785 14.7925Z" fill="#E6E6E6"/>
<path d="M27.3561 11.311L21.416 21.363L28.7736 25.711L34.7137 15.659L27.3561 11.311Z" fill="white"/>
<path d="M27.3772 13.5236C27.2629 13.4561 27.094 13.5297 27.0006 13.6876C26.9073 13.8455 26.9243 14.0289 27.0386 14.0965L32.4273 17.2809C32.5417 17.3484 32.7106 17.2748 32.8039 17.1169C32.8972 16.959 32.8802 16.7756 32.7659 16.708L27.3772 13.5236Z" fill="#B8B9BC"/>
<path d="M26.6418 14.7673C26.5275 14.6997 26.3586 14.7733 26.2653 14.9312C26.172 15.0891 26.189 15.2726 26.3033 15.3401L31.692 18.5245C31.8063 18.5921 31.9752 18.5185 32.0685 18.3606C32.1618 18.2027 32.1448 18.0192 32.0305 17.9517L26.6418 14.7673Z" fill="#B8B9BC"/>
<path d="M25.9074 16.0104C25.7931 15.9429 25.6242 16.0165 25.5309 16.1744C25.4376 16.3323 25.4546 16.5157 25.5689 16.5833L30.9576 19.7677C31.0719 19.8353 31.2408 19.7617 31.3341 19.6038C31.4275 19.4459 31.4105 19.2624 31.2961 19.1949L25.9074 16.0104Z" fill="#B8B9BC"/>
<path d="M25.1721 17.2541C25.0578 17.1865 24.8889 17.2601 24.7956 17.418C24.7023 17.5759 24.7193 17.7594 24.8336 17.8269L30.2223 21.0113C30.3366 21.0789 30.5055 21.0053 30.5988 20.8474C30.6921 20.6895 30.6751 20.5061 30.5608 20.4385L25.1721 17.2541Z" fill="#B8B9BC"/>
<path d="M24.4377 18.4977C24.3234 18.4302 24.1545 18.5038 24.0612 18.6617C23.9679 18.8196 23.9849 19.003 24.0992 19.0706L29.4879 22.255C29.6022 22.3225 29.7711 22.249 29.8644 22.0911C29.9577 21.9332 29.9407 21.7497 29.8264 21.6822L24.4377 18.4977Z" fill="#B8B9BC"/>
<path d="M23.7024 19.7414C23.5881 19.6738 23.4192 19.7474 23.3258 19.9053C23.2325 20.0632 23.2495 20.2467 23.3638 20.3142L28.7525 23.4987C28.8669 23.5662 29.0358 23.4926 29.1291 23.3347C29.2224 23.1768 29.2054 22.9934 29.0911 22.9258L23.7024 19.7414Z" fill="#B8B9BC"/>
</svg>
