<svg width="97" height="82" viewBox="0 0 97 82" fill="none" xmlns="http://www.w3.org/2000/svg">
<path d="M78.1424 8.35718C77.1382 8.35718 76.3242 9.17121 76.3242 10.1754V17.4481H59.9606C57.9515 17.4481 56.3242 19.0754 56.3242 21.0845V35.6299C56.3242 37.639 57.9515 39.2663 59.9606 39.2663H76.3242V46.539C76.3242 47.5432 77.1382 48.3572 78.1424 48.3572C78.7247 48.3562 79.2714 48.0762 79.6126 47.6043L95.5927 29.8131C96.0525 29.4704 96.3237 28.9307 96.3242 28.3572C96.3244 27.8592 96.1203 27.383 95.7596 27.0397L79.6197 9.12067C79.2793 8.64271 78.7292 8.35839 78.1424 8.35718Z" fill="#727BC2"/>
<path d="M74.7814 32.344C74.7595 32.344 74.7376 32.3435 74.7156 32.3424C74.3236 32.3235 73.9594 32.1343 73.7185 31.8244L71.8396 29.4086C71.3841 28.8216 71.4897 27.9766 72.0757 27.5197L72.1433 27.4671C72.7304 27.0116 73.5754 27.1172 74.0323 27.7031C74.2466 27.9787 74.5705 28.147 74.9191 28.164C75.2678 28.181 75.6065 28.045 75.8465 27.7916L79.6617 23.7643C79.9072 23.5051 80.2457 23.3541 80.6025 23.3445C80.9594 23.3348 81.3055 23.4674 81.5647 23.713L81.627 23.772C82.1666 24.2832 82.1896 25.1352 81.6783 25.6748L75.7583 31.9236C75.5042 32.1921 75.1509 32.3441 74.7814 32.344Z" fill="white"/>
<path d="M31.3787 4.16621C30.3814 4.29494 29.6348 5.14416 29.6348 6.14976L29.6348 50.096C29.6348 51.0335 30.286 51.8452 31.2012 52.0484L57.799 57.9545C60.2676 58.5027 62.6191 56.6512 62.6654 54.1229L63.5721 4.6336C63.6168 2.1921 61.4825 0.280659 59.0607 0.593248L31.3787 4.16621Z" fill="white"/>
<path d="M34.7349 10.8175C34.1706 10.8705 33.7751 11.3985 33.8829 11.9549C33.9765 12.4381 34.4207 12.772 34.9109 12.7277L55.2521 10.8887C55.7645 10.8424 56.157 10.4128 56.157 9.89832C56.157 9.3124 55.653 8.85348 55.0696 8.90825L34.7349 10.8175Z" fill="#D399C2"/>
<path opacity="0.503467" d="M33.7374 16.2567C33.7264 16.2573 33.7158 16.26 33.7063 16.2646C33.6966 16.2695 33.6881 16.2758 33.6813 16.2833C33.6739 16.2913 33.6682 16.3003 33.6644 16.3099C33.6603 16.3202 33.6582 16.3309 33.6582 16.3417V16.9227C33.6582 16.9333 33.6603 16.9438 33.6644 16.9539C33.6682 16.963 33.6739 16.9715 33.6813 16.9789C33.6881 16.9857 33.6967 16.9912 33.7063 16.9951C33.716 16.9989 33.7267 17.0007 33.7374 17.0002L56.0487 16.0009C56.0635 16.0002 56.0781 15.997 56.0913 15.9915C56.1045 15.9859 56.1163 15.9785 56.1261 15.9694C56.1467 15.9504 56.1582 15.9258 56.1582 15.9004V15.2155C56.1583 15.2029 56.1554 15.1904 56.1496 15.1787C56.1442 15.1678 56.1362 15.1579 56.1261 15.1495C56.1057 15.1327 56.0775 15.1239 56.0487 15.1254L33.7374 16.2567Z" fill="#CCCCCC"/>
<path opacity="0.503467" d="M33.7374 18.7566C33.7265 18.7571 33.7158 18.7603 33.7063 18.7658C33.6966 18.7715 33.6881 18.7791 33.6813 18.7881C33.6739 18.7978 33.6682 18.8086 33.6644 18.8202C33.6603 18.8326 33.6582 18.8457 33.6582 18.8588V19.5662C33.6582 19.5792 33.6603 19.5921 33.6644 19.6044C33.6681 19.6158 33.6738 19.6264 33.6813 19.6357C33.6881 19.6441 33.6967 19.651 33.7063 19.6559C33.716 19.6607 33.7267 19.663 33.7374 19.6625L56.0487 18.8537C56.0635 18.8532 56.078 18.8497 56.0913 18.8433C56.1045 18.8368 56.1163 18.8279 56.1261 18.817C56.1468 18.7943 56.1582 18.7645 56.1582 18.7337V17.8993C56.1583 17.8839 56.1553 17.8686 56.1496 17.8544C56.1442 17.841 56.1362 17.8287 56.1261 17.8184C56.1162 17.8083 56.1044 17.8003 56.0913 17.795C56.0778 17.7895 56.0633 17.787 56.0487 17.7877L33.7374 18.7566Z" fill="#CCCCCC"/>
<path opacity="0.503467" d="M33.7371 21.317C33.7262 21.3174 33.7155 21.3211 33.706 21.328C33.6964 21.335 33.688 21.3445 33.6813 21.3558C33.6739 21.368 33.6682 21.3817 33.6644 21.3964C33.6603 21.4123 33.6582 21.4289 33.6582 21.4457V22.3502C33.6582 22.3668 33.6603 22.3834 33.6644 22.3992C33.6682 22.4137 33.6739 22.4272 33.6813 22.4391C33.6881 22.4502 33.6966 22.4592 33.7063 22.4658C33.7159 22.4721 33.7266 22.4753 33.7374 22.4751L56.0487 21.9634C56.0635 21.9629 56.078 21.9584 56.0913 21.9501C56.1045 21.9422 56.1163 21.9312 56.1261 21.9175C56.1362 21.9036 56.1441 21.8874 56.1496 21.8697C56.1553 21.8512 56.1582 21.8315 56.1582 21.8116V20.7456C56.1583 20.7258 56.1553 20.7063 56.1496 20.6879C56.1442 20.6706 56.1362 20.6549 56.1261 20.6415C56.1163 20.6281 56.1045 20.6174 56.0913 20.61C56.0778 20.6029 56.0633 20.5995 56.0487 20.6002L33.7371 21.317Z" fill="#CCCCCC"/>
<path opacity="0.503467" d="M33.7371 26.2251C33.7263 26.225 33.7156 26.2268 33.7061 26.2304C33.6964 26.234 33.6878 26.239 33.681 26.2451C33.6737 26.2518 33.6681 26.2593 33.6644 26.2673C33.6603 26.2761 33.6582 26.2852 33.6582 26.2945V26.7966C33.6582 26.8059 33.6603 26.8151 33.6644 26.8239C33.6682 26.8319 33.674 26.8394 33.6813 26.8461C33.6881 26.8524 33.6967 26.8576 33.7064 26.8615C33.7159 26.8652 33.7266 26.8673 33.7374 26.8674L56.0487 27.1626C56.0633 27.1628 56.0778 27.1608 56.0913 27.1567C56.1044 27.1526 56.1162 27.1468 56.1261 27.1394C56.1362 27.1319 56.1442 27.1231 56.1496 27.1135C56.1553 27.1033 56.1582 27.0924 56.1582 27.0815V26.4897C56.1582 26.4786 56.1553 26.4677 56.1496 26.4574C56.1442 26.4476 56.1362 26.4387 56.1261 26.431C56.1162 26.4234 56.1044 26.4173 56.0913 26.413C56.0779 26.4086 56.0634 26.4063 56.0487 26.4061L33.7371 26.2251Z" fill="#CCCCCC"/>
<path opacity="0.503467" d="M33.7371 28.1001C33.7264 28.0997 33.7157 28.1023 33.7061 28.1076C33.6963 28.1131 33.6878 28.1208 33.681 28.1302C33.6735 28.1403 33.6678 28.1517 33.6641 28.1641C33.6602 28.1771 33.6582 28.1908 33.6582 28.2045V28.9713C33.6582 28.9856 33.6603 28.9997 33.6644 29.0132C33.6682 29.0257 33.6739 29.0375 33.6813 29.0479C33.6881 29.0576 33.6966 29.0658 33.7064 29.0719C33.7159 29.0778 33.7265 29.0811 33.7374 29.0816L56.0487 29.975C56.0633 29.9756 56.0778 29.9728 56.0913 29.9668C56.1044 29.9609 56.1162 29.9522 56.1261 29.9411C56.1362 29.9299 56.1442 29.9166 56.1496 29.9019C56.1553 29.8864 56.1583 29.8699 56.1582 29.8532V28.9491C56.1582 28.9322 56.1553 28.9155 56.1496 28.8997C56.1441 28.8847 56.1362 28.8708 56.1261 28.8589C56.1162 28.8471 56.1044 28.8376 56.0913 28.8307C56.078 28.8238 56.0635 28.8199 56.0487 28.8194L33.7371 28.1001Z" fill="#CCCCCC"/>
<path opacity="0.503467" d="M33.7371 30.9126C33.7265 30.9123 33.7159 30.9143 33.7064 30.9185C33.6967 30.9226 33.6882 30.9285 33.6813 30.9358C33.6739 30.9437 33.6682 30.9528 33.6644 30.9625C33.6603 30.9733 33.6582 30.9845 33.6582 30.9959V31.6162C33.6582 31.6278 33.6603 31.6393 33.6644 31.6502C33.6682 31.6604 33.6739 31.67 33.6813 31.6786C33.6881 31.6865 33.6966 31.6932 33.7064 31.6983C33.7158 31.7032 33.7265 31.7061 33.7374 31.7066L56.0487 32.7874C56.0776 32.7889 56.1057 32.7794 56.1261 32.7613C56.1362 32.7524 56.1442 32.7417 56.1496 32.73C56.1553 32.7175 56.1583 32.7042 56.1582 32.6907V31.9593C56.1581 31.9323 56.1466 31.9063 56.1261 31.8862C56.1162 31.8766 56.1044 31.8687 56.0913 31.8629C56.078 31.8571 56.0635 31.8537 56.0487 31.8531L33.7371 30.9126Z" fill="#CCCCCC"/>
<path opacity="0.503467" d="M33.7371 32.7878C33.7265 32.7869 33.7158 32.7891 33.7061 32.7941C33.6965 32.7992 33.688 32.8066 33.6813 32.8157C33.6739 32.8256 33.6682 32.8369 33.6644 32.8491C33.6602 32.8626 33.6581 32.8767 33.6582 32.891V33.6716C33.6582 33.6862 33.6603 33.7007 33.6644 33.7145C33.6682 33.7274 33.6739 33.7396 33.6813 33.7505C33.6881 33.7606 33.6966 33.7693 33.7064 33.7759C33.7158 33.7824 33.7264 33.7864 33.7374 33.7874L56.0487 35.5998C56.0632 35.601 56.0777 35.5987 56.0913 35.5931C56.1043 35.5877 56.1162 35.5793 56.1261 35.5684C56.1362 35.5573 56.1442 35.5441 56.1496 35.5295C56.1554 35.5139 56.1583 35.4971 56.1582 35.4802V34.5598C56.1582 34.5425 56.1553 34.5254 56.1496 34.5092C56.1441 34.4936 56.1361 34.4792 56.1261 34.4667C56.1163 34.4544 56.1045 34.4442 56.0913 34.4366C56.0781 34.429 56.0636 34.4245 56.0487 34.4234L33.7371 32.7878Z" fill="#CCCCCC"/>
<path opacity="0.503467" d="M33.7371 35.6003C33.7265 35.5994 33.7158 35.6011 33.7061 35.6053C33.6965 35.6096 33.688 35.6159 33.6813 35.6237C33.6739 35.632 33.6682 35.6416 33.6644 35.6519C33.6603 35.6634 33.6581 35.6756 33.6582 35.6878V36.3606C33.6582 36.3732 33.6603 36.3857 33.6644 36.3977C33.6682 36.4089 33.6739 36.4195 33.6813 36.429C33.6881 36.4379 33.6966 36.4454 33.7064 36.4513C33.7158 36.4569 33.7264 36.4603 33.7374 36.4612L56.0487 38.4122C56.0631 38.4135 56.0776 38.4118 56.0913 38.4072C56.1043 38.4028 56.1162 38.3957 56.1261 38.3865C56.1362 38.3771 56.1442 38.3659 56.1496 38.3534C56.1554 38.34 56.1583 38.3256 56.1582 38.3111V37.5178C56.1582 37.5028 56.1553 37.488 56.1496 37.474C56.1441 37.4605 56.1361 37.4479 56.1261 37.437C56.1163 37.4262 56.1045 37.4172 56.0913 37.4104C56.0781 37.4036 56.0636 37.3995 56.0487 37.3982L33.7371 35.6003Z" fill="#CCCCCC"/>
<path opacity="0.503467" d="M33.7371 37.4755C33.7266 37.4742 33.7159 37.476 33.7061 37.4806C33.6965 37.4853 33.6881 37.4924 33.6813 37.5013C33.6738 37.511 33.6681 37.5222 33.6644 37.5344C33.6602 37.5479 33.6581 37.5622 33.6582 37.5765V38.3646C33.6582 38.3794 33.6603 38.3941 33.6644 38.4082C33.6683 38.4214 33.674 38.4339 33.6813 38.4452C33.6881 38.4558 33.6966 38.4648 33.7064 38.4719C33.7157 38.4787 33.7264 38.4829 33.7374 38.4843L56.0487 41.2244C56.0631 41.2262 56.0776 41.2245 56.0913 41.2194C56.1042 41.2146 56.1161 41.2066 56.1261 41.1962C56.1362 41.1854 56.1442 41.1723 56.1496 41.1579C56.1554 41.1422 56.1583 41.1254 56.1582 41.1084V40.1789C56.1582 40.1613 56.1553 40.1439 56.1496 40.1275C56.1441 40.1114 56.1361 40.0966 56.1261 40.0836C56.1163 40.0708 56.1045 40.06 56.0913 40.0518C56.0781 40.0436 56.0637 40.0385 56.0487 40.0367L33.7371 37.4755Z" fill="#CCCCCC"/>
<path opacity="0.503467" d="M33.7371 40.2881C33.7266 40.2868 33.7159 40.2881 33.7061 40.2921C33.6966 40.296 33.6881 40.302 33.6813 40.3096C33.6738 40.3183 33.6681 40.3283 33.6644 40.3392C33.6602 40.3512 33.6581 40.3638 33.6582 40.3765V41.079C33.6582 41.0922 33.6603 41.1053 33.6644 41.1179C33.6683 41.1298 33.674 41.141 33.6813 41.1512C33.6881 41.1607 33.6966 41.1689 33.7064 41.1754C33.7157 41.1816 33.7263 41.1856 33.7374 41.1871L56.0487 44.0367C56.063 44.0386 56.0775 44.0374 56.0913 44.0331C56.1043 44.0289 56.1162 44.0218 56.1261 44.0124C56.1362 44.003 56.1442 43.9915 56.1496 43.9787C56.1554 43.9648 56.1583 43.9499 56.1582 43.9348V43.1069C56.1582 43.0912 56.1553 43.0756 56.1496 43.0609C56.1441 43.0465 56.1361 43.0331 56.1261 43.0214C56.1163 43.0097 56.1045 42.9999 56.0913 42.9924C56.0782 42.9849 56.0637 42.98 56.0487 42.9781L33.7371 40.2881Z" fill="#CCCCCC"/>
<path opacity="0.503467" d="M33.7371 42.1632C33.7266 42.1618 33.7159 42.1629 33.7061 42.1664C33.6966 42.1698 33.6881 42.1752 33.6813 42.1821C33.6738 42.1897 33.6681 42.1985 33.6644 42.2081C33.6602 42.2189 33.6581 42.2302 33.6582 42.2417V42.8755C33.6582 42.8875 33.6603 42.8994 33.6644 42.9107C33.6683 42.9216 33.674 42.9318 33.6813 42.9411C33.6881 42.9497 33.6966 42.9573 33.7064 42.9633C33.7157 42.969 33.7263 42.9728 33.7374 42.9743L56.0487 45.9116C56.0629 45.9135 56.0775 45.9126 56.0913 45.909C56.1042 45.9055 56.1161 45.8994 56.1261 45.8912C56.1362 45.8829 56.1443 45.8726 56.1496 45.8612C56.1554 45.8487 56.1583 45.8352 56.1582 45.8217V45.0743C56.1582 45.0601 56.1552 45.046 56.1496 45.0327C56.144 45.0196 56.1361 45.0074 56.1261 44.9967C56.1163 44.9861 56.1045 44.977 56.0913 44.97C56.0782 44.963 56.0637 44.9584 56.0487 44.9565L33.7371 42.1632Z" fill="#CCCCCC"/>
<path opacity="0.503467" d="M33.7371 44.0385C33.7267 44.0367 33.716 44.0377 33.7061 44.0414C33.6966 44.0452 33.6881 44.0512 33.6813 44.059C33.6738 44.0675 33.6681 44.0774 33.6644 44.0882C33.6602 44.1005 33.6581 44.1134 33.6582 44.1264V44.8482C33.6582 44.8619 33.6603 44.8754 33.6644 44.8885C33.6683 44.9009 33.674 44.9127 33.6813 44.9233C33.6881 44.9334 33.6966 44.9421 33.7064 44.9492C33.7157 44.9558 33.7263 44.9603 33.7374 44.9622L56.0487 48.7236C56.0629 48.7261 56.0774 48.7254 56.0913 48.7215C56.1042 48.7178 56.1161 48.7111 56.1261 48.702C56.1362 48.6926 56.1443 48.681 56.1496 48.6681C56.1554 48.654 56.1583 48.6388 56.1582 48.6234V47.7722C56.1581 47.756 56.1552 47.7398 56.1496 47.7246C56.144 47.7095 56.1361 47.6955 56.1261 47.683C56.1163 47.6708 56.1045 47.6603 56.0913 47.652C56.0782 47.6438 56.0638 47.6383 56.0487 47.6357L33.7371 44.0385Z" fill="#CCCCCC"/>
<path d="M19.3246 79.5218C19.3246 80.6603 29.746 80.7815 42.5724 81.5832C55.3875 82.3841 65.8203 80.6603 65.8203 79.5218C65.8203 78.3833 55.3388 76.0926 42.5724 77.4604C29.746 78.8346 19.3246 78.3833 19.3246 79.5218Z" fill="#D9DBE1"/>
<path d="M41.3756 52.6426L40.8242 44.6645L41.8144 37.1883L39.0023 36.99L38.4473 45.2485L40.016 53.0146C39.7423 53.4099 39.7357 53.942 39.9996 54.3445C40.2635 54.747 40.741 54.933 41.1928 54.8093C41.6446 54.6857 41.9734 54.279 42.0144 53.7931C42.0554 53.3072 41.7997 52.8468 41.3756 52.6426H41.3756Z" fill="#9F616A"/>
<path d="M38.4473 38.2039L39.0756 35.207C39.3254 34.0155 40.3752 33.2457 41.4688 33.4521C42.5624 33.6585 43.32 34.7695 43.1959 35.9847L42.8499 39.3711L38.4473 38.2039Z" fill="#CBCBCB"/>
<path d="M43.2092 79.8472L44.8226 79.847L45.5899 73.8948L43.209 73.895L43.2092 79.8472Z" fill="#9F616A"/>
<path d="M43.209 78.6569L46.1173 78.6567H46.1175C47.141 78.6568 47.9708 79.6891 47.9709 80.9625V81.0375L43.2091 81.0377L43.209 78.6569Z" fill="#2F2E41"/>
<path d="M50.41 79.8472L51.5411 79.4488L50.8296 73.8948L49.1602 74.4828L50.41 79.8472Z" fill="#9F616A"/>
<path d="M50.3516 79.423L52.9597 78.72L52.9598 78.72C53.8778 78.4727 54.835 78.9723 55.098 79.8359L55.1135 79.8868L50.8432 81.0377L50.3516 79.423Z" fill="#2F2E41"/>
<path d="M42.8986 77.4662L43.5706 61.1238L41.8253 53.7281C39.4765 49.9158 42.0104 43.8347 42.0363 43.7737L42.0457 43.7515L42.0703 43.7482L48.2142 42.9424L48.3005 43.1341C50.7037 48.453 51.3706 54.3559 50.212 60.052L49.5725 63.2183L52.7329 75.5714L49.7418 77.0193L47.447 71.2581L45.8958 77.1525L42.8986 77.4662Z" fill="#2F2E41"/>
<path d="M40.9173 45.3235L39.0488 39.6103C37.8872 37.4756 38.624 35.5804 39.4466 34.3665C40.335 33.0557 40.3884 32.3206 40.4001 32.3124L40.4096 32.3059L42.8645 32.2283L45.1365 34.6375C45.2794 34.5792 46.4866 37.6837 46.3843 37.8398L47.9711 43.1927L40.9173 45.3235Z" fill="#CBCBCB"/>
<path d="M57.0117 46.64L50.452 41.6595L45.3934 35.7996L43.209 37.891L49.186 43.9377L56.3169 47.9689C56.4244 48.4539 56.8306 48.8205 57.3321 48.8848C57.8335 48.9492 58.3221 48.6975 58.553 48.2558C58.7839 47.8142 58.7074 47.2778 58.3617 46.9155C58.0161 46.5531 57.4758 46.4429 57.0117 46.64Z" fill="#9F616A"/>
<path d="M42.899 39.3711L41.2257 36.9369C40.5604 35.9692 40.7481 34.6381 41.6535 33.9025C42.5589 33.1669 43.8676 33.2823 44.6368 34.1655L46.7805 36.6269L42.899 39.3711Z" fill="#CBCBCB"/>
<circle cx="41.4235" cy="28.0616" r="2.97619" fill="#9F616A"/>
<path d="M44.3986 26.2757H39.6367V24.3216C40.6819 23.9306 41.7047 23.5982 42.3229 24.3216C43.4693 24.3216 44.3986 25.1965 44.3986 26.2757V26.2757Z" fill="#2F2E41"/>
<path d="M40.8193 23.8962C36.4996 23.7799 37.3176 30.7957 37.3176 30.7957C37.3176 30.7957 38.1326 30.902 38.5044 30.9644L38.9535 30.7151L39.4368 31.0275C39.6587 31.0286 39.8918 31.0244 40.1334 31.0199L40.3549 30.5702L40.8489 31.0119C41.7481 31.0132 44.1886 31.0376 44.1886 31.0376C44.1886 31.0376 45.6593 24.0265 40.8193 23.8962Z" fill="#2F2E41"/>
<path d="M22.9622 42.2094C22.9995 41.9516 22.8999 41.6931 22.6903 41.5034C22.4806 41.3136 22.1824 41.2122 21.8758 41.2264L20.8492 39.4187L19.3984 39.6785L20.8906 42.2141C20.9543 42.6579 21.4003 42.9913 21.9288 42.9901C22.4573 42.9889 22.9013 42.6535 22.9622 42.2094H22.9622Z" fill="#FFB7B7"/>
<path d="M1.54297 66.2416L2.57819 66.7995L5.1144 62.8607L3.58647 62.0376L1.54297 66.2416Z" fill="#FFB7B7"/>
<path d="M1.04807 65.6091L3.1165 66.8309L3.11658 66.831C3.84453 67.2611 4.13263 68.2908 3.76011 69.1311L3.73819 69.1806L0.351562 67.1801L1.04807 65.6091Z" fill="#2F2E41"/>
<path d="M14.6371 67.9902H16.2503L17.0177 63.2283L14.6367 63.2284L14.6371 67.9902Z" fill="#FFB7B7"/>
<path d="M13.4473 67.9901L16.3556 67.99H16.3557C17.3793 67.99 18.2091 68.5062 18.2092 69.1429V69.1804L13.4474 69.1805L13.4473 67.9901Z" fill="#2F2E41"/>
<path d="M8.48246 26.4626C8.48246 26.4626 7.62891 25.7762 7.62891 27.4529L7.49414 32.9938L8.99908 38.2282L9.87509 36.5306L9.5157 32.8524L8.48246 26.4626Z" fill="#74225D"/>
<path d="M17.8226 41.2753C17.8226 41.2753 18.8551 46.1655 17.5473 50.1787L16.8245 65.6092L14.1743 65.4083L13.245 53.961L12.3502 48.2708L10.4916 53.459L4.36523 64.4377L1.54297 62.2955C1.54297 62.2955 4.67049 53.9964 6.98098 52.254L8.13977 39.4187L17.8226 41.2753Z" fill="#2F2E41"/>
<circle cx="15.232" cy="17.3949" r="2.97619" fill="#FFB8B8"/>
<path d="M14.2605 18.192C14.6449 18.2391 14.9349 17.8687 15.0693 17.5263C15.2038 17.1839 15.3063 16.7854 15.6405 16.6004C16.0972 16.3477 16.6814 16.6516 17.2035 16.5683C17.7932 16.4741 18.1766 15.8856 18.2067 15.3231C18.2367 14.7606 17.999 14.2196 17.7658 13.701L17.6843 14.3455C17.7065 13.9013 17.4818 13.4782 17.0912 13.2283L17.1962 14.174C17.1511 13.9105 16.9963 13.6747 16.7662 13.5189C16.5361 13.363 16.2495 13.2999 15.9698 13.3434L15.9864 13.907C15.308 13.8085 14.6205 13.7768 13.9351 13.8124C13.2451 13.85 12.5848 14.0896 12.0464 14.4977C11.272 15.1314 10.9891 16.1749 11.0841 17.1369C11.179 18.0989 11.6007 19.0026 12.0403 19.8756C12.1508 20.0952 12.3038 20.3431 12.5602 20.3711C12.7994 20.3742 13.0104 20.2245 13.0731 20.0071C13.1282 19.794 13.1261 19.5712 13.0668 19.359C12.9761 19.0397 12.9471 18.7075 12.9813 18.3784C13.0422 18.0535 13.2904 17.7324 13.6382 17.6926C13.986 17.6528 14.342 18.0272 14.1747 18.3171L14.2605 18.192Z" fill="#2F2E41"/>
<path d="M11.6078 21.218L12.2354 20.3711C12.2354 20.3711 12.9368 20.6028 14.8152 21.5117L14.9479 22.3051L18.2084 41.7997L12.2818 41.5511L10.6679 41.5178L9.48849 41.4934L7.91244 41.4608L7.8892 35.8579L8.40051 31.5653L7.6103 27.5213C7.6103 27.5213 6.61594 23.8077 10.4458 21.8054L11.6078 21.218Z" fill="#922F76"/>
<path d="M20.5898 41.25L20.7387 41.7996L21.7803 41.0838L21.3872 40.6091L20.5898 41.25Z" fill="#CBCBCB"/>
<path d="M13.4473 23.9471C13.4473 23.9471 15.6546 21.0487 16.9887 24.2791L17.4093 27.6644C17.4093 27.6644 19.0254 31.8722 19.074 33.5747C19.074 33.5747 20.1698 35.7966 20.1597 36.9637L21.7806 40.738L20.1181 41.7996L15.517 34.5435L13.4473 23.9471Z" fill="#B03D90"/>
</svg>
