<svg width="84" height="70" viewBox="0 0 84 70" fill="none" xmlns="http://www.w3.org/2000/svg">
<path d="M51.7994 14.4034C51.9905 14.8761 52.3811 15.2399 52.8662 15.3968C53.3513 15.5538 53.881 15.4878 54.3128 15.2166L59.0886 19.0475L59.3842 15.8798L54.8037 12.7276C54.2888 12.0168 53.3237 11.8035 52.5572 12.2311C51.7907 12.6586 51.4651 13.5919 51.7994 14.4034H51.7994Z" fill="#9F616A"/>
<path d="M59.1952 15.5823L57.4127 14.3229L55.391 16.6588L57.7428 18.0526L59.1952 15.5823Z" fill="#6C63FF"/>
<path d="M58.8048 14.7282L64.8117 17.0395L70.5944 13.2531C71.8306 12.4435 73.4756 12.677 74.4377 13.7985C75.3999 14.92 75.3806 16.5813 74.3925 17.6801L74.3408 17.7375L65.4469 22.5059L55.7322 18.0678L58.8048 14.7282Z" fill="#3F3D56"/>
<path d="M41.7889 56.1269L5.61047 41.2277C5.34712 41.1189 5.22153 40.8174 5.32974 40.5538L21.7229 0.748039C21.8317 0.484689 22.1331 0.359107 22.3967 0.467311L58.5751 15.3666C58.8385 15.4754 58.9641 15.7768 58.8558 16.0404L42.4627 55.8462C42.3539 56.1096 42.0525 56.2351 41.7889 56.1269Z" fill="white"/>
<path d="M46.7899 32.4616L18.7254 20.9038C18.5719 20.8406 18.4638 20.7003 18.4419 20.5358C18.4199 20.3713 18.4873 20.2076 18.6188 20.1063C18.7502 20.005 18.9257 19.9815 19.0792 20.0447L47.1437 31.6024C47.381 31.7002 47.4941 31.9717 47.3964 32.2089C47.2987 32.4461 47.0272 32.5593 46.7899 32.4616L46.7899 32.4616Z" fill="#CCCCCC"/>
<path d="M38.7938 32.6296L17.5068 23.863C17.3533 23.7998 17.2452 23.6595 17.2232 23.495C17.2012 23.3305 17.2687 23.1668 17.4001 23.0655C17.5316 22.9641 17.7071 22.9407 17.8606 23.0039L39.1476 31.7705C39.3011 31.8337 39.4092 31.9739 39.4312 32.1384C39.4532 32.303 39.3857 32.4667 39.2543 32.568C39.1228 32.6693 38.9473 32.6928 38.7938 32.6296H38.7938Z" fill="#CCCCCC"/>
<path d="M36.176 15.5401L23.7665 10.4295C23.6131 10.3663 23.505 10.226 23.483 10.0615C23.461 9.89703 23.5284 9.73328 23.6599 9.63198C23.7914 9.53068 23.9669 9.5072 24.1204 9.57041L36.5298 14.681C36.7671 14.7787 36.8802 15.0502 36.7825 15.2874C36.6848 15.5247 36.4133 15.6378 36.176 15.5401H36.176Z" fill="#2E2E2E"/>
<path d="M31.8604 17.2238L22.5479 13.3887C22.3107 13.291 22.1976 13.0195 22.2953 12.7822C22.393 12.545 22.6645 12.4319 22.9017 12.5296L32.2142 16.3647C32.4514 16.4624 32.5646 16.7339 32.4669 16.9712C32.3692 17.2084 32.0976 17.3215 31.8604 17.2238V17.2238Z" fill="#2E2E2E"/>
<path d="M44.3525 38.3799L16.288 26.8222C16.1346 26.759 16.0265 26.6187 16.0045 26.4542C15.9825 26.2897 16.0499 26.1259 16.1814 26.0246C16.3128 25.9233 16.4884 25.8998 16.6418 25.963L44.7063 37.5208C44.9436 37.6185 45.0567 37.89 44.959 38.1272C44.8613 38.3645 44.5898 38.4776 44.3525 38.3799V38.3799Z" fill="#CCCCCC"/>
<path d="M36.3564 38.548L15.0694 29.7814C14.9159 29.7182 14.8078 29.5779 14.7858 29.4134C14.7638 29.2489 14.8313 29.0852 14.9627 28.9838C15.0942 28.8825 15.2697 28.8591 15.4232 28.9223L36.7102 37.6889C36.8637 37.7521 36.9718 37.8923 36.9938 38.0568C37.0158 38.2214 36.9484 38.3851 36.8169 38.4864C36.6854 38.5877 36.5099 38.6112 36.3564 38.548Z" fill="#CCCCCC"/>
<path d="M41.9152 44.2983L13.8506 32.7405C13.6134 32.6428 13.5003 32.3713 13.598 32.1341C13.6957 31.8969 13.9672 31.7837 14.2044 31.8814L42.269 43.4392C42.5062 43.5369 42.6193 43.8084 42.5216 44.0456C42.4239 44.2829 42.1524 44.396 41.9152 44.2983Z" fill="#CCCCCC"/>
<path d="M40.6965 47.2575L12.632 35.6997C12.3948 35.602 12.2817 35.3305 12.3794 35.0933C12.4771 34.856 12.7486 34.7429 12.9858 34.8406L41.0503 46.3983C41.2038 46.4616 41.3119 46.6018 41.3339 46.7663C41.3559 46.9308 41.2885 47.0946 41.157 47.1959C41.0255 47.2972 40.85 47.3207 40.6965 47.2575V47.2575Z" fill="#CCCCCC"/>
<path d="M27.0054 47.0376C27.567 47.0673 28.1302 47.0502 28.689 46.9863C29.1922 46.9275 29.7164 46.8465 30.1574 46.5819C30.5444 46.3612 30.8027 45.9691 30.8528 45.5265C30.8928 45.1005 30.6524 44.6977 30.2585 44.5306C29.8618 44.3636 29.4054 44.4275 29.0698 44.6972C28.7133 45.0067 28.5176 45.4621 28.5383 45.9337C28.5614 46.8899 29.318 47.8342 30.158 48.2319C31.1042 48.6799 32.3963 48.2992 32.6386 47.196C32.689 46.9666 32.3765 46.8868 32.2458 47.0343C31.8756 47.4425 31.8873 48.0684 32.2726 48.4625C32.6579 48.8565 33.2834 48.8823 33.6998 48.5213L33.3481 48.3764C33.5562 49.2482 34.2137 49.9426 35.0728 50.1979C35.281 50.2603 35.497 50.2932 35.7144 50.2957C35.9787 50.2964 36.2501 50.4291 36.5028 50.5114L38.3238 51.1046C38.5916 51.1919 38.7616 50.7853 38.4915 50.6973L36.8423 50.16C36.5675 50.0705 36.2933 49.9785 36.0177 49.8914C35.8207 49.8291 35.605 49.8628 35.3994 49.8262C34.6142 49.6776 33.9852 49.0892 33.7845 48.3157C33.7723 48.239 33.7211 48.1742 33.6493 48.1446C33.5775 48.1151 33.4955 48.125 33.4328 48.1708C33.193 48.399 32.814 48.3913 32.5838 48.1534C32.3536 47.9155 32.3581 47.5365 32.594 47.3043L32.2013 47.1425C32.0449 47.8542 31.1768 48.1212 30.5512 47.9155C29.8515 47.6853 29.2501 47.0157 29.0414 46.3142C28.9286 45.9735 28.9626 45.6012 29.1354 45.2866C29.2915 44.9956 29.616 44.8366 29.9417 44.8917C30.2366 44.9333 30.4453 45.2012 30.4136 45.4973C30.3662 45.8227 30.16 46.1033 29.8635 46.2456C29.4697 46.4569 28.9982 46.5096 28.5608 46.5576C28.0621 46.6118 27.5598 46.6261 27.0588 46.6003C26.7777 46.5861 26.7212 47.0233 27.0054 47.0376L27.0054 47.0376Z" fill="#6C63FF"/>
<path d="M57.1113 56.6417H0.517456L0.517456 31.3106C0.517456 30.206 1.41289 29.3106 2.51746 29.3106H9.68152C10.0923 29.3106 10.4931 29.4371 10.8295 29.6729L19.3446 35.6417H53.1113C55.3205 35.6417 57.1113 37.4325 57.1113 39.6417V56.6417Z" fill="#D3CFD8"/>
<path d="M82.6009 65.5367L80.4829 66.2936L76.5554 58.4844L79.6814 57.3672L82.6009 65.5367Z" fill="#9F616A"/>
<path d="M77.0456 69.8373L77.0147 69.7509C76.492 68.2829 77.2562 66.6689 78.723 66.1427L82.894 64.652L83.8749 67.3967L77.0456 69.8373Z" fill="#2F2E41"/>
<path d="M68.8283 67.6315H66.5791L65.5092 58.956L68.8287 58.9561L68.8283 67.6315Z" fill="#9F616A"/>
<path d="M69.4018 69.8118L62.1495 69.8115V69.7198C62.1495 68.9711 62.447 68.2531 62.9763 67.7238C63.5057 67.1944 64.2237 66.897 64.9724 66.897H64.9726L69.402 66.8972L69.4018 69.8118Z" fill="#2F2E41"/>
<path d="M73.9541 12.2066L72.976 10.2737C72.976 10.2737 69.332 11.1867 69.0007 13.2987L73.9541 12.2066Z" fill="#6C63FF"/>
<path d="M77.9903 34.3069L75.3302 49.1513L82.3934 61.6425L78.1738 63.2936L71.0189 51.1853L70.1016 47.883L69.5512 65.1282L65.7457 65.0127L64.0009 48.9098L66.7993 33.9401L77.9903 34.3069Z" fill="#2F2E41"/>
<path d="M77.4398 27.6005L77.3478 18.8957C77.3478 15.2065 74.9198 12.4873 74.5832 12.2358C74.4248 11.7304 74.1407 11.381 73.7389 11.1982C72.9296 10.8314 71.9397 11.2716 71.8978 11.2914L68.9283 12.4046L68.9144 12.4454C68.8829 12.5386 65.8866 22.3706 65.1343 24.8382C65.0271 25.1922 64.9655 25.3949 64.9655 25.3949C64.9655 25.3949 64.9771 25.9655 64.998 26.8528C65.0645 29.9039 65.2216 36.7 65.2845 36.9853C65.2845 36.9853 70.7694 37.8168 72.9412 37.8168C76.8482 37.8168 79.3298 37.0692 79.3857 37.0564L79.4754 37.0377L77.4398 27.6005Z" fill="#3F3D56"/>
<circle cx="69.9379" cy="5.65054" r="4.01463" transform="rotate(-28.663 69.9379 5.65054)" fill="#9F616A"/>
<path opacity="0.2" d="M70.3828 25.7582L64.998 26.8528C64.9771 25.9655 64.9655 25.3948 64.9655 25.3948C64.9655 25.3948 65.0271 25.1922 65.1343 24.8382L70.3828 25.7582Z" fill="black"/>
<path d="M54.4367 24.6107C54.8237 24.9426 55.3379 25.086 55.8408 25.0023C56.3438 24.9186 56.7838 24.6164 57.0426 24.1771L63.045 25.3829L61.8509 22.434L56.334 21.741C55.5499 21.3466 54.5947 21.601 54.1107 22.3331C53.6266 23.0653 53.7667 24.0437 54.4367 24.6107V24.6107Z" fill="#9F616A"/>
<path d="M61.5462 22.2568L59.3842 21.958L58.6631 24.962L61.3924 25.1183L61.5462 22.2568Z" fill="#6C63FF"/>
<path d="M60.8068 21.6778L67.2039 20.9681L70.5978 14.9467C71.3233 13.6594 72.8914 13.1103 74.2615 13.6637C75.6316 14.2172 76.3784 15.7014 76.0062 17.1314L75.9867 17.2062L70.2816 25.5302L59.614 26.0563L60.8068 21.6778Z" fill="#3F3D56"/>
<path d="M73.3574 9.13616L70.0253 9.25577C69.8222 9.26305 69.2709 7.07103 69.1987 6.61629C69.0808 6.00387 68.5266 5.57412 67.9041 5.6123C67.6547 5.63586 67.0257 5.16986 66.3766 4.61806C65.1444 3.57046 65.2085 1.60292 66.5621 0.717701C66.5991 0.693507 66.6354 0.671415 66.671 0.651426C67.525 0.173477 68.5239 0.0129751 69.5024 0.000735862C70.3894 -0.010359 71.3016 0.101289 72.0831 0.52114C73.4841 1.27385 74.2297 2.91872 74.2952 4.50777C74.3607 6.09682 73.8513 7.65061 73.2732 9.13223" fill="#2F2E41"/>
</svg>
