<svg width="54" height="94" viewBox="0 0 54 94" fill="none" xmlns="http://www.w3.org/2000/svg">
<path d="M49.514 68.8949C49.4729 72.1894 49.1295 75.4787 48.4859 78.7421C48.4634 78.8567 48.4389 78.9713 48.4163 79.0859L4.50973 78.9135C4.38082 78.7997 4.25393 78.6845 4.13099 78.568C3.72107 78.1822 3.33688 77.7855 2.9842 77.3751C1.28903 75.3979 0.512962 73.083 1.29066 71.4858L1.30459 71.461C1.47246 71.1113 1.73699 70.7883 2.08299 70.5106C3.85612 69.108 7.4412 69.3418 10.6946 70.4739C7.7765 68.2294 5.45296 65.3971 5.27641 62.869C5.10331 60.4031 6.93825 58.6415 8.92846 57.1444C8.99376 57.095 9.05905 57.0468 9.12434 56.9987C9.15604 56.974 9.18963 56.9506 9.22123 56.9259C10.774 55.785 12.5843 54.6604 15.2046 54.7964C18.0783 54.9459 21.2645 56.6374 23.4985 58.6084C25.7325 60.578 27.217 62.8156 28.7218 64.9993C30.2284 67.1816 31.8585 69.4197 34.2763 71.2851C31.0016 68.3745 28.3614 65.0628 27.3861 61.842C26.4108 58.6212 27.2691 55.5278 30.1876 54.0109C31.0736 53.5646 32.0989 53.2739 33.1776 53.1632C33.3035 53.1484 33.4314 53.1365 33.5613 53.126C36.263 52.91 39.4888 53.5666 42.2333 55.1361C45.2559 56.8642 47.3514 59.4261 48.394 61.8582C49.4366 64.2902 49.5477 66.6315 49.514 68.8949Z" fill="#F0F2F5"/>
<path d="M0.987671 91.5701C0.987671 92.7087 11.4091 92.8299 24.2355 93.6316C37.0506 94.4324 47.4834 92.7087 47.4834 91.5701C47.4834 90.4316 37.0019 88.1409 24.2355 89.5087C11.4091 90.883 0.987671 90.4316 0.987671 91.5701Z" fill="#D9DBE1"/>
<path d="M7.1378 16.3636C7.06891 16.4119 7.0118 16.4751 6.97075 16.5484C6.92665 16.6267 6.89653 16.712 6.88172 16.8005C6.86542 16.8955 6.86345 16.9923 6.87588 17.0877C6.88865 17.1881 6.91656 17.286 6.95864 17.3781L22.9268 53.2431C23.0074 53.4277 23.14 53.5849 23.3085 53.6957C23.3856 53.7467 23.4705 53.7848 23.56 53.8084C23.6429 53.8305 23.7298 53.8346 23.8146 53.8202L52.4737 47.9996C52.595 47.9741 52.7095 47.9231 52.8096 47.85C52.9937 47.7156 53.1018 47.5011 53.0999 47.2739C53.0985 47.1503 53.0703 47.0284 53.0173 46.9168L32.5266 0.893845C32.4783 0.778661 32.4061 0.675033 32.3147 0.589755C32.1445 0.431224 31.9111 0.358676 31.6802 0.392589C31.5575 0.41103 31.44 0.455249 31.3355 0.522319L7.1378 16.3636Z" fill="white"/>
<path d="M13.4413 19.6548C13.0132 19.8956 12.8862 20.4531 13.1677 20.8556V20.8556C13.4122 21.2052 13.8816 21.313 14.254 21.1051L29.7107 12.4787C30.1001 12.2614 30.2594 11.783 30.078 11.3756V11.3756C29.8715 10.9117 29.3107 10.7261 28.8681 10.9751L13.4413 19.6548Z" fill="#D399C2"/>
<path opacity="0.503467" d="M14.568 24.3132C14.5595 24.3175 14.552 24.3234 14.5462 24.3305C14.5402 24.3377 14.5357 24.3457 14.5329 24.3541C14.5299 24.363 14.5286 24.3721 14.529 24.3811C14.5293 24.3906 14.5314 24.3999 14.5353 24.4084L14.74 24.8684C14.7438 24.8768 14.7491 24.8844 14.756 24.8909C14.7621 24.8968 14.7696 24.9015 14.7781 24.9048C14.786 24.9078 14.7947 24.9091 14.8037 24.9088C14.8127 24.9084 14.8218 24.906 14.8301 24.9018L32.1425 16.2458C32.154 16.24 32.1644 16.2324 32.173 16.2233C32.1815 16.2143 32.1882 16.2043 32.1927 16.1936C32.2024 16.1713 32.2028 16.1478 32.1938 16.1276L31.9524 15.5854C31.948 15.5754 31.9413 15.5665 31.9326 15.5593C31.9245 15.5526 31.9147 15.5475 31.9037 15.5445C31.8816 15.5383 31.8562 15.5413 31.8339 15.5527L14.568 24.3132Z" fill="#CCCCCC"/>
<path opacity="0.503467" d="M15.4492 26.2901C15.4407 26.2943 15.4334 26.3006 15.4279 26.3083C15.4222 26.3162 15.4181 26.3252 15.4159 26.3348C15.4134 26.345 15.4128 26.3556 15.4138 26.3661C15.415 26.3774 15.4179 26.3885 15.4225 26.3989L15.6719 26.959C15.6764 26.9693 15.6827 26.9788 15.6903 26.987C15.6972 26.9947 15.7055 27.0011 15.7147 27.0058C15.723 27.0101 15.7322 27.0126 15.7416 27.013C15.7509 27.0134 15.7602 27.0115 15.7685 27.0073L33.1482 18.5021C33.1597 18.4965 33.1699 18.4886 33.1782 18.4788C33.1864 18.4691 33.1926 18.4579 33.1965 18.4458C33.2048 18.4205 33.2034 18.3929 33.1926 18.3685L32.8984 17.7078C32.893 17.6956 32.8854 17.6846 32.8758 17.6753C32.8668 17.6666 32.8561 17.6597 32.8445 17.6551C32.8331 17.6506 32.8209 17.6485 32.8087 17.6488C32.7961 17.6493 32.7837 17.6524 32.7724 17.6581L15.4492 26.2901Z" fill="#CCCCCC"/>
<path opacity="0.503467" d="M16.3513 28.3172C16.3428 28.3213 16.3357 28.328 16.3306 28.3368C16.3255 28.3458 16.3221 28.3562 16.3208 28.3675C16.3193 28.3798 16.3196 28.3927 16.3218 28.4056C16.3241 28.4197 16.3283 28.4336 16.3342 28.4468L16.653 29.1629C16.6589 29.1762 16.6664 29.1885 16.6752 29.1996C16.6833 29.2097 16.6926 29.2184 16.7027 29.2252C16.712 29.2316 16.7219 29.2357 16.7319 29.2375C16.7417 29.2392 16.7513 29.2379 16.7598 29.2339L34.2441 20.964C34.2557 20.9584 34.2656 20.9496 34.2732 20.9384C34.2808 20.9276 34.2863 20.9146 34.2893 20.9003C34.2923 20.8858 34.2929 20.8701 34.291 20.8542C34.289 20.8376 34.2844 20.8209 34.2773 20.8052L33.9016 19.9612C33.8946 19.9455 33.8854 19.931 33.8744 19.9186C33.864 19.9068 33.8522 19.8971 33.8394 19.89C33.8269 19.8829 33.8138 19.8786 33.8008 19.8774C33.7876 19.8765 33.7749 19.879 33.7636 19.8846L16.3513 28.3172Z" fill="#CCCCCC"/>
<path opacity="0.503467" d="M18.0815 32.2026C18.0729 32.2064 18.0651 32.2116 18.0588 32.2178C18.0524 32.2241 18.0474 32.2311 18.0442 32.2383C18.0407 32.2461 18.0389 32.2541 18.0388 32.2617C18.0387 32.2701 18.0402 32.2781 18.0435 32.2854L18.2205 32.6829C18.2237 32.6903 18.2287 32.6969 18.235 32.7024C18.2409 32.7074 18.2481 32.7113 18.2562 32.714C18.2639 32.7166 18.2724 32.7177 18.2815 32.7173C18.2904 32.717 18.2995 32.7148 18.3082 32.7111L36.077 25.0799C36.0886 25.0749 36.0994 25.0682 36.1086 25.0603C36.1175 25.0524 36.1248 25.0436 36.1301 25.0343C36.1354 25.0249 36.1386 25.0151 36.1395 25.0055C36.1405 24.9954 36.1389 24.9858 36.1351 24.9771L35.9264 24.5086C35.9226 24.4998 35.9164 24.4922 35.9083 24.4861C35.9005 24.4803 35.891 24.476 35.8803 24.4734C35.8699 24.4709 35.8583 24.4703 35.8464 24.4715C35.8343 24.4727 35.822 24.476 35.8103 24.481L18.0815 32.2026Z" fill="#CCCCCC"/>
<path opacity="0.503467" d="M18.7427 33.691C18.734 33.6944 18.7265 33.7002 18.7207 33.7078C18.7149 33.7156 18.7109 33.7247 18.7088 33.7345C18.7065 33.7452 18.706 33.7563 18.7074 33.7673C18.7089 33.779 18.7121 33.7905 18.717 33.8014L18.9873 34.4085C18.9923 34.4198 18.9989 34.4303 19.007 34.4395C19.0144 34.4481 19.023 34.4554 19.0326 34.461C19.0414 34.4663 19.051 34.4697 19.0609 34.4712C19.0705 34.4725 19.0801 34.4714 19.0889 34.4679L37.0685 27.3104C37.0803 27.3058 37.0908 27.2984 37.0993 27.2889C37.1076 27.2796 37.1139 27.2685 37.1179 27.2563C37.1219 27.2438 37.1235 27.2305 37.1227 27.217C37.1217 27.2027 37.1182 27.1886 37.1123 27.1754L36.7936 26.4596C36.7876 26.4462 36.7794 26.434 36.7694 26.4235C36.7597 26.4135 36.7485 26.4053 36.7364 26.3994C36.7244 26.3936 36.7117 26.3902 36.6989 26.3894C36.6859 26.3886 36.6731 26.3907 36.6612 26.3955L18.7427 33.691Z" fill="#CCCCCC"/>
<path opacity="0.503467" d="M19.7339 35.9175C19.7253 35.921 19.7177 35.9263 19.7116 35.933C19.7054 35.9397 19.7007 35.9473 19.6978 35.9555C19.6948 35.9644 19.6934 35.9736 19.6939 35.9826C19.6944 35.9926 19.6967 36.0023 19.7007 36.0112L19.9194 36.5024C19.9235 36.5116 19.9292 36.5199 19.9363 36.5271C19.9429 36.5339 19.9508 36.5394 19.9597 36.5436C19.9679 36.5475 19.977 36.5498 19.9865 36.5504C19.9957 36.551 20.0051 36.5495 20.014 36.546L38.0597 29.5369C38.0831 29.5279 38.102 29.5105 38.1118 29.489C38.1166 29.4783 38.1192 29.4671 38.1194 29.4559C38.1195 29.444 38.1171 29.4324 38.1123 29.4217L37.8545 28.8427C37.8449 28.8213 37.8266 28.8047 37.8033 28.7961C37.7921 28.792 37.78 28.7899 37.7675 28.7899C37.755 28.79 37.7423 28.7924 37.7304 28.7971L19.7339 35.9175Z" fill="#CCCCCC"/>
<path opacity="0.503467" d="M20.3951 37.402C20.3863 37.4051 20.3786 37.4106 20.3727 37.418C20.3669 37.4254 20.3628 37.4342 20.3607 37.4438C20.3583 37.4542 20.3578 37.4652 20.3591 37.4762C20.3606 37.4883 20.3639 37.5003 20.369 37.5116L20.6441 38.1296C20.6493 38.1411 20.656 38.1519 20.6642 38.1614C20.6718 38.1703 20.6806 38.1779 20.6902 38.1839C20.6992 38.1895 20.709 38.1934 20.719 38.1952C20.7288 38.197 20.7386 38.1964 20.7477 38.1933L39.0513 31.7634C39.0632 31.7593 39.0738 31.7524 39.0826 31.7431C39.091 31.7342 39.0975 31.7234 39.1015 31.7113C39.1056 31.699 39.1073 31.6857 39.1064 31.6723C39.1054 31.6578 39.1018 31.6435 39.0958 31.6302L38.7714 30.9015C38.7653 30.8878 38.7569 30.8752 38.7467 30.8644C38.7369 30.854 38.7255 30.8454 38.7131 30.8391C38.701 30.8328 38.688 30.8288 38.6749 30.8275C38.6618 30.8261 38.6487 30.8277 38.6366 30.832L20.3951 37.402Z" fill="#CCCCCC"/>
<path opacity="0.503467" d="M21.3863 39.6286C21.3776 39.6316 21.3697 39.6368 21.3635 39.6435C21.3574 39.6503 21.3529 39.6583 21.3503 39.6668C21.3474 39.676 21.3462 39.6856 21.3469 39.695C21.3477 39.7057 21.3503 39.716 21.3547 39.7257L21.5918 40.2584C21.5963 40.2683 21.6023 40.2775 21.6098 40.2855C21.6168 40.2931 21.625 40.2994 21.6342 40.3044C21.6427 40.309 21.6521 40.312 21.6619 40.3132C21.6713 40.3143 21.681 40.3132 21.69 40.3101L40.0424 33.9899C40.0543 33.9859 40.0652 33.9794 40.0744 33.971C40.0831 33.9629 40.09 33.9531 40.0947 33.9423C40.0994 33.9313 40.1017 33.9196 40.1016 33.9078C40.1014 33.8952 40.0987 33.8827 40.0935 33.8713L39.8139 33.2432C39.8086 33.2314 39.801 33.2206 39.7916 33.2116C39.7825 33.2028 39.7718 33.1957 39.7599 33.1905C39.7484 33.1854 39.7359 33.1825 39.723 33.1818C39.7102 33.1811 39.6973 33.1829 39.685 33.1871L21.3863 39.6286Z" fill="#CCCCCC"/>
<path opacity="0.503467" d="M22.0475 41.1131C22.0387 41.1158 22.0308 41.121 22.0247 41.1281C22.0188 41.1352 22.0146 41.1438 22.0124 41.1532C22.0099 41.1635 22.0093 41.1744 22.0107 41.1854C22.0121 41.1976 22.0155 41.2096 22.0206 41.2209L22.2984 41.8449C22.3037 41.8566 22.3105 41.8675 22.3187 41.8772C22.3264 41.8863 22.3353 41.8942 22.3451 41.9006C22.3542 41.9065 22.3642 41.9107 22.3744 41.9129C22.3842 41.9149 22.3941 41.9145 22.4034 41.9117L41.034 36.2163C41.046 36.2127 41.0569 36.2062 41.0659 36.1974C41.0745 36.189 41.0811 36.1785 41.0853 36.1667C41.0895 36.1546 41.0912 36.1414 41.0904 36.1281C41.0894 36.1136 41.0858 36.0993 41.0798 36.0859L40.7521 35.35C40.7459 35.3361 40.7374 35.3233 40.7272 35.3123C40.7171 35.3015 40.7056 35.2926 40.6931 35.2858C40.6808 35.2791 40.6677 35.2748 40.6543 35.2729C40.641 35.2711 40.6278 35.2721 40.6153 35.276L22.0475 41.1131Z" fill="#CCCCCC"/>
<path opacity="0.503467" d="M23.0387 43.3397C23.0299 43.3424 23.022 43.3473 23.0156 43.3539C23.0094 43.3603 23.0048 43.368 23.0021 43.3765C22.9992 43.386 22.9982 43.396 22.9992 43.4058C23.0001 43.4168 23.0029 43.4276 23.0074 43.4376L23.255 43.9937C23.2597 44.0042 23.266 44.0139 23.2737 44.0224C23.2809 44.0304 23.2894 44.0373 23.2988 44.0428C23.3075 44.0479 23.3172 44.0514 23.3272 44.0531C23.3367 44.0547 23.3466 44.0542 23.3559 44.0514L42.0251 38.4427C42.0371 38.4392 42.0482 38.4331 42.0575 38.4249C42.0663 38.4169 42.0733 38.4072 42.0778 38.3962C42.0825 38.3852 42.0848 38.3732 42.0845 38.3612C42.0842 38.3482 42.0813 38.3354 42.0759 38.3235L41.784 37.668C41.7785 37.6555 41.7707 37.6442 41.761 37.6346C41.7515 37.6251 41.7405 37.6173 41.7284 37.6116C41.7166 37.6058 41.7038 37.6022 41.6907 37.6009C41.6777 37.5996 41.6645 37.6008 41.6519 37.6046L23.0387 43.3397Z" fill="#CCCCCC"/>
<path opacity="0.503467" d="M23.6999 44.8242C23.6911 44.8268 23.683 44.8314 23.6764 44.8377C23.6701 44.8438 23.6653 44.851 23.6624 44.8589C23.6591 44.8675 23.6577 44.8765 23.6582 44.8854C23.6587 44.8954 23.661 44.9052 23.6651 44.9142L23.8885 45.416C23.8927 45.4255 23.8986 45.4341 23.9058 45.4417C23.9127 45.4489 23.9208 45.455 23.9299 45.4598C23.9384 45.4642 23.9478 45.4672 23.9576 45.4685C23.967 45.4698 23.9767 45.469 23.9861 45.4663L42.6862 39.927C42.6981 39.9235 42.7093 39.9177 42.719 39.9099C42.728 39.9026 42.7353 39.8936 42.7403 39.8836C42.7454 39.8734 42.7481 39.8625 42.7483 39.8515C42.7485 39.8396 42.7461 39.8279 42.7412 39.8173L42.4777 39.2255C42.4727 39.2143 42.4654 39.2042 42.4563 39.1956C42.4472 39.1872 42.4367 39.1804 42.4249 39.1754C42.4134 39.1704 42.4009 39.1674 42.388 39.1665C42.3752 39.1656 42.3621 39.1671 42.3495 39.1708L23.6999 44.8242Z" fill="#CCCCCC"/>
<path opacity="0.503467" d="M24.3611 46.3088C24.3522 46.311 24.3441 46.3156 24.3376 46.3221C24.3314 46.3284 24.3268 46.3362 24.3242 46.3447C24.3213 46.3541 24.3202 46.364 24.3211 46.3738C24.3221 46.385 24.325 46.396 24.3296 46.4062L24.5841 46.9777C24.5889 46.9885 24.5954 46.9985 24.6032 47.0074C24.6106 47.0159 24.6193 47.0232 24.6289 47.0291C24.6378 47.0346 24.6476 47.0385 24.6578 47.0407C24.6675 47.0427 24.6775 47.0425 24.687 47.0401L43.6776 42.1533C43.6897 42.1503 43.701 42.1446 43.7106 42.1366C43.7195 42.1291 43.7266 42.1196 43.7313 42.1088C43.736 42.0979 43.7383 42.0859 43.738 42.0738C43.7376 42.0605 43.7345 42.0474 43.729 42.0353L43.4289 41.3614C43.4232 41.3486 43.4152 41.3368 43.4054 41.3268C43.3956 41.3168 43.3844 41.3085 43.3721 41.3021C43.36 41.2959 43.347 41.2917 43.3336 41.2898C43.3204 41.2879 43.307 41.2887 43.2941 41.292L24.3611 46.3088Z" fill="#CCCCCC"/>
<path d="M36.8205 30.6135H28.8745V23.703C28.8915 22.8121 29.6262 22.103 30.5171 22.1174H33.1584C35.1777 22.1174 36.8205 23.7032 36.8205 25.6523L36.8205 30.6135Z" fill="#2F2E41"/>
<path d="M39.7622 88.4434L38.2538 88.4433L37.5361 82.625L39.7625 82.6251L39.7622 88.4434V88.4434Z" fill="#FFB6B6"/>
<path d="M40.1467 89.9041L35.2827 89.9039V89.8424C35.2828 88.7968 36.1304 87.9493 37.1759 87.9492H37.176L40.1467 87.9493L40.1467 89.9041Z" fill="#2F2E41"/>
<path d="M25.8584 88.4434L24.3499 88.4433L23.6323 82.625L25.8587 82.6251L25.8584 88.4434V88.4434Z" fill="#FFB6B6"/>
<path d="M26.2433 89.9041L21.3794 89.9039V89.8424C21.3795 88.7968 22.227 87.9493 23.2726 87.9492H23.2727L26.2434 87.9493L26.2433 89.9041Z" fill="#2F2E41"/>
<path d="M27.6796 41.6992L26.6953 47.9744L36.0464 48.0974L34.816 42.0684L27.6796 41.6992V41.6992Z" fill="#FFB6B6"/>
<path d="M26.9666 46.4414L23.9883 54.3718L23.6191 87.2365H26.1415L32.1705 60.8315L37.7074 86.5472H40.1683L38.4457 57.6324C38.4457 57.6324 38.9537 51.8288 36.354 48.4043L35.7212 46.5761L26.9666 46.4414Z" fill="#2F2E41"/>
<path d="M39.7419 52.6213C39.2148 52.4777 38.7784 52.1079 38.5502 51.6116C38.3219 51.1153 38.3252 50.5434 38.5592 50.0497L34.5811 37.08L37.5071 36.5L41.1455 49.213C41.9668 49.6711 42.3157 50.671 41.9576 51.5406C41.5995 52.4101 40.6476 52.8744 39.7419 52.6213L39.7419 52.6213Z" fill="#FFB6B6"/>
<path d="M36.4776 49.1643C36.4776 49.1643 34.8049 48.4598 31.245 48.6029C27.4425 48.7338 25.0316 51.0398 25.0316 51.0398C24.653 51.0318 24.3262 50.7721 24.2329 50.405C23.8873 49.0368 26.127 39.4712 26.5303 35.9198C26.6911 34.5299 27.4074 33.2642 28.5163 32.4108C29.6251 31.5574 31.032 31.1889 32.4168 31.3894C33.8793 31.5987 35.1828 32.4224 35.9997 33.6534C36.8166 34.8843 37.0692 36.4055 36.6939 37.8344C35.8825 40.9157 37.4242 47.1202 37.3317 48.3866C37.3036 48.7629 37.0282 49.0744 36.6582 49.1484C36.6046 49.159 36.5502 49.1644 36.4956 49.1644C36.4896 49.1645 36.4836 49.1644 36.4776 49.1643Z" fill="#922F76"/>
<path d="M14.897 33.7731C14.9357 33.86 14.9675 33.9497 14.9921 34.0416L23.0607 36.7833L24.6198 35.4213L26.9828 37.5056L24.4571 40.185C24.038 40.6296 23.3757 40.7442 22.8315 40.4663L14.1976 36.0561C13.5584 36.4483 12.7431 36.4039 12.1502 35.9447C11.5572 35.4856 11.3102 34.7074 11.5299 33.9903C11.7495 33.2732 12.39 32.7669 13.1384 32.7186C13.8868 32.6703 14.587 33.0902 14.897 33.7731V33.7731Z" fill="#FFB6B6"/>
<path d="M23.0777 36.3437C23.0789 36.1188 23.1781 35.9057 23.3493 35.7599L26.3037 33.2434C27.0821 32.3513 28.4356 32.2576 29.3296 33.0338C30.2236 33.81 30.3207 35.1633 29.5467 36.0592L27.4428 39.3353C27.3213 39.5245 27.1235 39.6514 26.9009 39.683C26.6782 39.7146 26.4529 39.6477 26.2836 39.4998L23.3422 36.9308C23.1728 36.7829 23.0762 36.5686 23.0777 36.3437V36.3437Z" fill="#B03D90"/>
<path d="M34.4029 40.3657C34.2039 40.261 34.0604 40.0749 34.0098 39.8558L33.1363 36.0744C32.7031 34.9728 33.2432 33.7283 34.3438 33.2922C35.4443 32.8561 36.6902 33.3929 37.1292 34.4923L39.0685 37.8684C39.1805 38.0634 39.2021 38.2974 39.1276 38.5096C39.0532 38.7217 38.89 38.891 38.6808 38.9732L35.0459 40.4012C34.8366 40.4835 34.6018 40.4706 34.4029 40.3657Z" fill="#922F76"/>
<ellipse cx="35.843" cy="22.0726" rx="1.3757" ry="1.83427" transform="rotate(-66.8696 35.843 22.0726)" fill="#2F2E41"/>
<circle cx="31.339" cy="26.1831" r="3.76209" transform="rotate(-61.3368 31.339 26.1831)" fill="#FFB6B6"/>
<path d="M29.0994 21.8751C28.445 21.8666 27.8948 22.3642 27.8377 23.0162C27.8152 23.3538 27.9336 23.6856 28.1648 23.9327C28.3959 24.1798 28.7191 24.32 29.0575 24.32C29.7326 24.32 30.28 24.8674 30.28 25.5425V30.5546H31.925C34.7298 30.5546 37.0035 28.2809 37.0035 25.4761V25.4761C37.0035 24.521 36.6241 23.6051 35.9488 22.9298C35.2735 22.2545 34.3576 21.8751 33.4025 21.8751H29.0994Z" fill="#2F2E41"/>
</svg>
