<svg width="70" height="70" viewBox="0 0 70 70" fill="none" xmlns="http://www.w3.org/2000/svg">
<path d="M2.28882e-05 34.9929C-0.00407641 47.788 6.97656 59.565 18.2032 65.7033C18.5157 65.8741 18.8323 66.0407 19.1503 66.2018C20.3297 66.8031 21.5431 67.3353 22.7843 67.7959C23.2786 67.982 23.7781 68.1551 24.2826 68.3152C24.3311 68.3319 24.3812 68.3486 24.4298 68.3624C34.4362 71.5394 45.3409 70.0463 54.1251 64.2966C54.7069 63.9161 55.2767 63.519 55.8344 63.1052C56.1497 62.8705 56.4607 62.6317 56.7676 62.3859C57.6355 61.6971 58.4687 60.9672 59.2671 60.1961C66.1264 53.6075 69.9981 44.5039 69.9857 34.9929C69.9857 15.6663 54.3195 0 34.9929 0C15.6662 0 2.28882e-05 15.6663 2.28882e-05 34.9929Z" fill="#F0F2F5"/>
<mask id="mask0_0_7066" style="mask-type:alpha" maskUnits="userSpaceOnUse" x="0" y="0" width="70" height="70">
<path d="M2.28882e-05 34.9929C-0.00407641 47.788 6.97656 59.565 18.2032 65.7033C18.5157 65.8741 18.8323 66.0407 19.1503 66.2018C20.3297 66.8031 21.5431 67.3353 22.7843 67.7959C23.2786 67.982 23.7781 68.1551 24.2826 68.3152C24.3311 68.3319 24.3812 68.3486 24.4298 68.3624C34.4362 71.5394 45.3409 70.0463 54.1251 64.2966C54.7069 63.9161 55.2767 63.519 55.8344 63.1052C56.1497 62.8705 56.4607 62.6317 56.7676 62.3859C57.6355 61.6971 58.4687 60.9672 59.2671 60.1961C66.1264 53.6075 69.9981 44.5039 69.9857 34.9929C69.9857 15.6663 54.3195 0 34.9929 0C15.6662 0 2.28882e-05 15.6663 2.28882e-05 34.9929Z" fill="white"/>
</mask>
<g mask="url(#mask0_0_7066)">
<path d="M23.8193 35.0962L22.7214 34.7389C22.7214 34.7389 19.2386 36.974 19.57 42.3779C19.57 42.3779 19.4395 45.1742 19.5641 47.0352C19.7071 49.1698 17.791 70.3816 17.791 70.3816H23.997L26.6567 51.1726L23.8193 35.0962Z" fill="#2D2B40"/>
</g>
<path d="M26.6362 51.3229L27.425 54.3056L24.4298 68.3624C32.481 70.8985 41.1761 70.4514 48.9248 67.103L46.5864 57.298L46.5086 51.9797L46.2545 34.443L46.1906 34.4096C46.1867 34.4072 46.1825 34.4054 46.1781 34.4041L40.221 31.345L29.9425 31.0881L22.2732 34.8235L22.3315 35.0415L26.6362 51.3229Z" fill="#3F3D56"/>
<path d="M27.419 21.4998C27.419 25.4348 30.609 28.6248 34.544 28.6248C38.4791 28.6248 41.6691 25.4348 41.6691 21.4998C41.6691 17.5647 38.4791 14.3747 34.544 14.3747H34.544C32.6591 14.37 30.8494 15.1143 29.5132 16.4438C28.177 17.7734 27.4237 19.5793 27.419 21.4643C27.4189 21.4761 27.4189 21.4879 27.419 21.4998Z" fill="#9E616A"/>
<path d="M41.6454 11.9295C40.8108 10.1347 39.1955 10.4895 37.7829 11.0979C35.994 10.7011 34.2926 9.51313 32.3652 10.2157C30.4666 12.9771 24.0922 12.1647 25.4483 16.6602C25.4501 17.7375 23.4213 17.1105 23.7755 18.8747C22.7008 22.27 27.6548 28.7003 30.4988 27.3462C29.7954 26.0571 28.1887 23.1292 30.6257 22.8388C35.868 27.7166 31.1665 13.5503 37.7534 17.6701C39.9343 19.666 42.9201 13.9259 41.6454 11.9295Z" fill="#2F2E41"/>
<path d="M30.7421 69.0838L42.1157 66.8312L39.1994 52.1065C35.175 53.6286 31.3839 54.3795 27.8258 54.3591C30.9353 58.9194 32.3479 63.8161 30.7421 69.0838Z" fill="#E4E4E4"/>
<path d="M32.3959 69.9487L43.7694 67.6961C44.7031 61.0253 43.8544 56.0029 40.8531 52.9714C36.8288 54.4935 33.0376 55.2444 29.4795 55.224C31.3593 59.908 32.3484 64.9018 32.3959 69.9487V69.9487Z" fill="white"/>
<path d="M39.9316 65.847C40.0228 65.1098 40.436 64.4508 41.0598 64.0474C41.6837 63.6441 42.4541 63.5378 43.1639 63.7571L48.446 56.5686L50.0534 60.9166L44.791 67.0763C44.3334 68.2704 43.055 68.9336 41.8153 68.62C40.5755 68.3064 39.7663 67.1151 39.9316 65.847Z" fill="#9E616A"/>
<path d="M44.6676 34.8222L45.6244 34.176C45.6244 34.176 51.3177 34.7061 52.4893 39.9919C52.4893 39.9919 53.3457 43.1676 53.7391 44.9908C53.9414 45.9286 56.6392 54.9888 56.6392 54.9888L47.4903 64.9868L44.9908 61.2375L47.4903 54.9888L44.6676 34.8222Z" fill="#3F3D56"/>
</svg>
