<svg width="139" height="72" viewBox="0 0 139 72" fill="none" xmlns="http://www.w3.org/2000/svg">
<path d="M110.521 14.0159H100.336C99.8994 14.0154 99.5459 13.6619 99.5454 13.2256V9.53788C99.5454 6.28887 102.179 3.65503 105.428 3.65503C108.677 3.65503 111.311 6.28887 111.311 9.53788V13.2256C111.311 13.6619 110.957 14.0154 110.521 14.0159Z" fill="#2F2E41"/>
<path d="M60.0004 69.4842C60.0004 70.6227 70.4218 70.7439 83.2482 71.5456C96.0633 72.3465 106.496 70.6227 106.496 69.4842C106.496 68.3457 96.0146 66.055 83.2482 67.4228C70.4218 68.797 60.0004 68.3457 60.0004 69.4842Z" fill="#D9DBE1"/>
<path d="M94.6798 67.7672L92.6177 67.1487L94.0215 58.9004L97.0651 59.813L94.6798 67.7672Z" fill="#A0616A"/>
<path d="M94.6064 69.9239L87.957 67.93L87.9823 67.8459C88.1881 67.1595 88.6581 66.5829 89.289 66.2431C89.9199 65.9032 90.66 65.8279 91.3464 66.0338L91.3466 66.0338L95.4077 67.2517L94.6064 69.9239Z" fill="#2F2E41"/>
<path d="M118.701 67.8368H116.548L115.523 59.5327L118.701 59.5329L118.701 67.8368Z" fill="#A0616A"/>
<path d="M119.249 69.924L112.308 69.9238V69.836C112.308 69.1194 112.592 68.4321 113.099 67.9254C113.606 67.4187 114.293 67.134 115.01 67.134H115.01L119.25 67.1342L119.249 69.924Z" fill="#2F2E41"/>
<circle cx="105.665" cy="9.66637" r="4.3131" fill="#A0616A"/>
<path d="M100.521 62.9472C100.443 62.9472 100.365 62.9373 100.29 62.9178L91.6468 60.6704C91.3928 60.6042 91.1787 60.4336 91.0575 60.2008C90.9363 59.968 90.9194 59.6948 91.0109 59.4487C96.2511 45.3543 100.542 33.1966 99.9668 27.1727C99.1539 25.5357 98.7388 23.7299 98.7553 21.9021L98.8168 15.812C98.8204 15.4514 98.9869 15.1118 99.2698 14.8882C99.5527 14.6645 99.9216 14.5809 100.273 14.6606L109.943 16.85L109.998 17.0325C110.771 19.6272 110.693 22.4011 109.776 24.9485C115.477 30.0951 119.299 46.991 121.504 60.2806C121.574 60.7138 121.333 61.1376 120.925 61.2982L120.898 61.3049L114.118 61.975C113.878 62.064 113.612 62.0499 113.382 61.9361C113.153 61.8223 112.981 61.6189 112.907 61.3739L107.082 42.1509L101.417 62.2712C101.302 62.6709 100.937 62.9464 100.521 62.9472Z" fill="#2F2E41"/>
<path d="M109.764 9.80125H104.07C103.849 9.80097 103.662 9.63619 103.634 9.4166L103.561 8.82684C103.546 8.71033 103.456 8.61752 103.34 8.59927C103.224 8.58101 103.11 8.64172 103.06 8.74812L102.687 9.54796C102.615 9.70221 102.46 9.80084 102.289 9.80125H101.424C101.301 9.80128 101.183 9.7491 101.099 9.65754C101.016 9.56598 100.976 9.44355 100.987 9.32039L101.328 5.75799C101.343 5.60295 101.439 5.46715 101.579 5.40043C104.187 4.18301 106.832 4.18456 109.439 5.40506C109.574 5.46823 109.667 5.59497 109.688 5.74204L110.199 9.29981C110.217 9.42585 110.179 9.55356 110.096 9.64979C110.013 9.74603 109.892 9.80129 109.764 9.80125H109.764Z" fill="#2F2E41"/>
<path d="M96.9158 64.0559L42.8433 59.5165C42.0223 59.4467 41.4128 58.7254 41.4808 57.9042L43.5228 33.5804C43.5926 32.7594 44.3139 32.1498 45.1351 32.2178L99.2075 36.7572C100.029 36.8271 100.638 37.5483 100.57 38.3695L98.5281 62.6934C98.4583 63.5144 97.737 64.124 96.9158 64.0559Z" fill="#CCCCCC"/>
<path d="M96.1731 62.4076L43.8506 58.0151C43.4159 57.9782 43.0932 57.5963 43.1292 57.1616L45.0243 34.5876C45.0613 34.153 45.4431 33.8303 45.8779 33.8663L98.2004 38.2588C98.6351 38.2957 98.9578 38.6776 98.9218 39.1123L97.0267 61.6863C96.9897 62.1209 96.6079 62.4436 96.1731 62.4076Z" fill="white"/>
<path d="M82.6957 53.9334C82.699 53.9337 82.7024 53.9339 82.7058 53.934C86.2873 54.0066 89.3089 51.284 89.6086 47.7144C89.9083 44.1447 87.3828 40.9565 83.8394 40.431C83.7967 40.4245 83.7533 40.4361 83.7195 40.463C83.6859 40.4894 83.6648 40.5287 83.6614 40.5713L82.5537 53.7659C82.5468 53.8514 82.6103 53.9263 82.6957 53.9335V53.9334Z" fill="#3F3D56"/>
<path d="M78.2086 42.217C78.2613 42.2215 78.31 42.2466 78.3442 42.2869L82.5524 47.2665C82.5866 47.3067 82.6033 47.359 82.5987 47.4116L82.0687 53.7253C82.0643 53.7801 82.0373 53.8305 81.994 53.8645C81.9507 53.8989 81.895 53.9138 81.8403 53.9057C79.2761 53.5254 77.148 51.727 76.3453 49.2622C75.5427 46.7974 76.2037 44.0907 78.0522 42.2734C78.0919 42.2346 78.1458 42.214 78.2012 42.2165L78.2086 42.217Z" fill="#E6E6E6"/>
<path d="M82.9942 40.3152C83.0449 40.3195 83.0921 40.3429 83.1262 40.3807C83.1632 40.4214 83.1815 40.4757 83.1767 40.5306L82.6985 46.2272C82.6917 46.3074 82.6373 46.3756 82.5606 46.4001C82.484 46.4246 82.4001 46.4005 82.3481 46.339L78.6759 41.9937C78.6407 41.952 78.6241 41.8976 78.6301 41.8433C78.6361 41.789 78.6641 41.7395 78.7076 41.7064C79.9351 40.7747 81.4411 40.2843 82.9819 40.3146C82.986 40.3146 82.9901 40.3149 82.9942 40.3152Z" fill="#C11B83"/>
<path d="M79.7651 56.4733C79.7087 57.1444 79.1191 57.6427 78.448 57.5864C77.7769 57.53 77.2786 56.9403 77.3349 56.2693C77.3912 55.5982 77.9809 55.0999 78.652 55.1562C79.3227 55.2133 79.8206 55.8025 79.7651 56.4733Z" fill="#A33777"/>
<path d="M83.2368 56.7648C83.1804 57.4359 82.5907 57.9342 81.9197 57.8779C81.2486 57.8215 80.7503 57.2318 80.8066 56.5608C80.8629 55.8897 81.4526 55.3914 82.1237 55.4477C82.7944 55.5048 83.2923 56.094 83.2368 56.7648Z" fill="#2E2E2E"/>
<path d="M86.7084 57.0563C86.6521 57.7274 86.0624 58.2257 85.3913 58.1694C84.7203 58.113 84.2219 57.5234 84.2783 56.8523C84.3346 56.1812 84.9243 55.6829 85.5954 55.7392C86.266 55.7963 86.764 56.3855 86.7084 57.0563Z" fill="#E6E6E6"/>
<path d="M65.0332 42.2511L53.8845 41.3152C53.5891 41.2904 53.3029 41.4251 53.1337 41.6685C52.9646 41.9119 52.9381 42.2271 53.0643 42.4953C53.1906 42.7635 53.4503 42.944 53.7457 42.9688L64.8944 43.9048C65.3511 43.9431 65.7523 43.604 65.7907 43.1474C65.829 42.6907 65.4899 42.2894 65.0332 42.2511Z" fill="#E6E6E6"/>
<path d="M64.6538 46.7693L53.5051 45.8334C53.1152 45.7999 52.7549 46.0437 52.641 46.4181C52.5271 46.7925 52.6904 47.1956 53.0329 47.3851C53.1354 47.4426 53.2491 47.4774 53.3663 47.4871L64.515 48.423C64.8104 48.4478 65.0966 48.3131 65.2658 48.0697C65.435 47.8263 65.4614 47.5111 65.3352 47.2428C65.209 46.9746 64.9492 46.7941 64.6538 46.7693L64.6538 46.7693Z" fill="#E6E6E6"/>
<path d="M64.2745 51.2875L53.1257 50.3515C52.8303 50.3268 52.5441 50.4614 52.375 50.7049C52.2058 50.9483 52.1793 51.2635 52.3055 51.5317C52.4318 51.7999 52.6915 51.9804 52.9869 52.0052L64.1356 52.9412C64.431 52.966 64.7172 52.8313 64.8864 52.5879C65.0556 52.3444 65.082 52.0292 64.9558 51.761C64.8296 51.4928 64.5698 51.3123 64.2744 51.2875H64.2745Z" fill="#E6E6E6"/>
<path d="M61.8606 41.9848L53.8845 41.3152C53.5891 41.2904 53.3029 41.4251 53.1337 41.6685C52.9646 41.9119 52.9381 42.2271 53.0643 42.4953C53.1906 42.7635 53.4503 42.944 53.7457 42.9688L61.5556 43.6245C61.8886 43.5196 62.1366 43.2395 62.2005 42.8962C62.2644 42.5529 62.1336 42.2024 61.8606 41.9848Z" fill="#A33777"/>
<path d="M57.7976 46.1937L53.5051 45.8334C53.1152 45.7999 52.7549 46.0437 52.641 46.4181C52.5271 46.7925 52.6904 47.1956 53.0329 47.3851L56.9755 47.716C57.4954 47.7595 57.9522 47.3735 57.996 46.8536C58.0173 46.6163 57.9462 46.38 57.7976 46.1937Z" fill="#A33777"/>
<path d="M63.4414 51.2176L53.1257 50.3515C52.8303 50.3268 52.5441 50.4614 52.375 50.7049C52.2058 50.9483 52.1793 51.2635 52.3055 51.5317C52.4318 51.7999 52.6915 51.9804 52.9869 52.0052L63.3691 52.8768C63.6818 52.726 63.8863 52.4156 63.9014 52.0688C63.9165 51.722 63.7398 51.395 63.4414 51.2176H63.4414Z" fill="#A33777"/>
<path d="M92.2463 37.9021C92.7901 37.7758 93.25 37.4151 93.5023 36.9171C93.7547 36.419 93.7734 35.8348 93.5536 35.3216L99.6333 19.372L96.5297 18.6077L90.9447 34.3671C90.0882 34.8031 89.6933 35.8108 90.0253 36.7127C90.3574 37.6146 91.3115 38.1255 92.2463 37.9021H92.2463Z" fill="#A0616A"/>
<path d="M99.925 22.5873C99.7882 22.5873 99.6531 22.5572 99.5292 22.4993H99.5292L95.6599 20.6882C95.414 20.573 95.2304 20.3565 95.1569 20.0951C95.0834 19.8337 95.1274 19.5533 95.2772 19.3268L97.6287 15.7756C97.9002 15.1976 98.3921 14.7526 98.9943 14.5402C99.9211 14.205 100.959 14.4609 101.623 15.1888C102.288 15.9166 102.449 16.9731 102.031 17.8657L100.819 21.9213C100.701 22.3165 100.337 22.5872 99.925 22.5872L99.925 22.5873Z" fill="#2F2E41"/>
<path d="M97.4285 38.1741C97.9865 38.1557 98.5076 37.891 98.8517 37.4513C99.1958 37.0116 99.3274 36.4421 99.2113 35.8961L109.08 21.8304L106.13 20.25L96.8369 34.4539C95.9122 34.7156 95.3293 35.6276 95.4803 36.5768C95.6312 37.5259 96.4682 38.2121 97.4285 38.1741H97.4285Z" fill="#A0616A"/>
<path d="M108.112 24.6562C107.913 24.6562 107.72 24.5928 107.56 24.4753L104.115 21.9484C103.896 21.7878 103.758 21.5399 103.736 21.2693C103.715 20.9986 103.812 20.7321 104.003 20.5391L106.999 17.511C107.377 16.9966 107.946 16.6553 108.578 16.5636C109.552 16.4144 110.52 16.8667 111.031 17.7096C111.542 18.5524 111.495 19.62 110.912 20.4147L108.937 24.1584C108.776 24.4646 108.458 24.6562 108.112 24.6562V24.6562Z" fill="#2F2E41"/>
<path d="M45.6361 34.8008C45.1448 34.6227 44.7576 34.2361 44.5788 33.7451C44.3999 33.254 44.4478 32.709 44.7094 32.2566L40.6074 27.5076L43.8411 27.0867L47.2407 31.6609C47.9879 32.1619 48.2424 33.1425 47.833 33.9436C47.4237 34.7447 46.4798 35.1129 45.6361 34.8008H45.6361Z" fill="#FFB8B8"/>
<path d="M22.515 35.8044C22.1705 35.4114 22.0177 34.886 22.0978 34.3696C22.1778 33.8532 22.4825 33.3987 22.9299 33.1286L21.626 26.9902L24.6619 28.1806L25.4347 33.8272C25.8478 34.6264 25.5979 35.6082 24.853 36.1126C24.1081 36.617 23.1037 36.4846 22.515 35.8044Z" fill="#FFB8B8"/>
<path d="M37.2069 67.7953L39.3598 67.7951L40.384 59.491L37.2065 59.4911L37.2069 67.7953Z" fill="#FFB8B8"/>
<path d="M36.6577 67.0922L40.8975 67.092H40.8977C41.6143 67.092 42.3016 67.3767 42.8083 67.8834C43.315 68.3901 43.5997 69.0774 43.5997 69.794V69.8818L36.6578 69.882L36.6577 67.0922Z" fill="#2F2E41"/>
<path d="M26.6703 67.7953L28.8232 67.7951L29.8474 59.491L26.6699 59.4911L26.6703 67.7953Z" fill="#FFB8B8"/>
<path d="M26.1211 67.0922L30.3609 67.092H30.3611C31.0777 67.092 31.765 67.3767 32.2717 67.8834C32.7784 68.3901 33.0631 69.0774 33.0631 69.794V69.8818L26.1212 69.882L26.1211 67.0922Z" fill="#2F2E41"/>
<path d="M36.9514 63.4595C36.5525 63.4577 36.2167 63.1604 36.1666 62.7647L33.9648 44.6191C33.9493 44.4905 33.8425 44.3922 33.713 44.3874C33.5835 44.3827 33.4698 44.4728 33.4449 44.5999L29.9441 62.4081C29.8706 62.7783 29.5461 63.0453 29.1687 63.0459H26.5988C26.3867 63.0459 26.1834 62.9606 26.0348 62.8092C25.8862 62.6577 25.8047 62.4529 25.8087 62.2408L26.3231 34.8105L26.365 34.7855C30.1138 32.5533 34.5325 32.4072 39.8738 34.3394L39.9299 34.3597L40.7885 62.5234C40.8004 62.9562 40.4628 63.3184 40.0302 63.3371L36.9826 63.459C36.9722 63.4594 36.9617 63.4595 36.9514 63.4595Z" fill="#2F2E41"/>
<circle cx="34.0177" cy="5.34777" r="4.3131" fill="#FFB8B8"/>
<path d="M44.0002 31.4199C43.7779 31.4515 43.5527 31.3872 43.3806 31.243L38.9579 27.5316C37.4456 26.2629 36.4457 24.4881 36.144 22.5372L35.1492 16.1097C34.818 15.2619 34.9645 14.3018 35.5337 13.5914C36.1028 12.8811 37.0079 12.5287 37.9075 12.6671C38.8071 12.8055 39.5644 13.4138 39.8936 14.2623L41.9985 24.3617L45.3582 28.9218C45.5549 29.1901 45.5632 29.5526 45.3791 29.8296L44.5457 31.0767C44.4562 31.2104 44.3282 31.3137 44.1785 31.3727C44.1212 31.3954 44.0613 31.4113 44.0002 31.4199Z" fill="#8B2B64"/>
<path d="M22.534 31.7479C22.3463 31.6248 22.2197 31.4277 22.1859 31.2057L21.3182 25.4977C21.0213 23.5462 21.4434 21.5532 22.506 19.8896L26.006 14.4076C26.3175 13.5523 27.0619 12.9284 27.9585 12.7712C28.855 12.614 29.7673 12.9475 30.3511 13.6458C30.935 14.3442 31.1015 15.3011 30.7879 16.1556L25.695 25.1272L25.2039 30.77C25.1744 31.1014 24.9411 31.379 24.6198 31.4652L23.1703 31.8507C23.0148 31.892 22.8504 31.8849 22.6991 31.8303C22.641 31.8095 22.5856 31.7818 22.534 31.7479Z" fill="#A33777"/>
<path d="M38.7354 13.0073C37.2348 11.3617 35.0686 10.4859 32.846 10.6262C32.7739 10.6306 32.7021 10.6357 32.6306 10.6413H32.6305C30.5265 10.8076 28.5964 11.8729 27.3342 13.5645C26.051 15.2797 25.5694 17.4648 26.0128 19.5605C26.8491 23.5194 26.6374 27.6281 25.3988 31.4801L24.2417 35.0728C24.1665 35.3061 24.2039 35.5611 24.3429 35.7631C24.4819 35.965 24.7067 36.0909 24.9515 36.104L30.8669 36.422L32.3806 33.8073V36.5034L39.5701 36.8899C39.5845 36.8908 39.5987 36.8911 39.6128 36.8911C39.8334 36.8911 40.0439 36.7988 40.1934 36.6367C40.343 36.4746 40.418 36.2573 40.4002 36.0375L39.5876 25.9608L40.6069 19.1169C40.9411 16.902 40.2528 14.6551 38.7354 13.0073Z" fill="#A33777"/>
<path d="M31.0203 9.46524C31.4197 9.69501 32.9981 9.84736 33.1105 9.40057L33.113 9.39075C33.1912 9.0634 33.1262 8.72157 33.1038 8.38574C33.0813 8.04991 33.1142 7.68098 33.3429 7.43406C33.7693 6.97377 34.5278 7.21777 35.1444 7.10139C35.8915 6.93462 36.3984 6.23876 36.328 5.47651C36.3192 5.4067 36.3054 5.33682 36.29 5.26698C36.2118 4.90826 36.3063 4.53363 36.5452 4.25488C36.7841 3.97612 37.1399 3.82546 37.5064 3.84785C38.1294 3.88347 38.802 4.07225 39.3175 3.61076C39.7161 3.25388 39.8134 2.3249 39.6383 1.81933C39.3439 0.969684 37.4583 0.524881 36.635 0.280362C34.573 -0.31543 32.3523 0.0489547 30.5888 1.27246C30.0688 1.639 29.5832 2.09955 29.3615 2.69589C29.1399 3.29224 29.2468 4.04461 29.7466 4.43828C28.9582 5.27303 28.6741 6.46452 29.001 7.56522C29.2478 8.36063 30.4259 9.12322 31.0203 9.46524Z" fill="#2F2E41"/>
<path fill-rule="evenodd" clip-rule="evenodd" d="M122.361 36.6147C122.449 37.7127 123.411 38.5311 124.509 38.4426C125.607 38.3542 126.426 37.3924 126.337 36.2944C126.249 35.1964 125.287 34.3781 124.189 34.4665C123.091 34.555 122.273 35.5167 122.361 36.6147ZM126.031 36.319C126.106 37.2481 125.414 38.0619 124.485 38.1368C124.038 38.1727 123.596 38.0299 123.255 37.7399C122.915 37.4498 122.703 37.0362 122.667 36.5901C122.592 35.661 123.285 34.8472 124.214 34.7724C125.143 34.6975 125.956 35.39 126.031 36.319Z" fill="#F2F2F2"/>
<circle cx="131.377" cy="32.0975" r="1.22738" fill="#F2F2F2"/>
<circle cx="137.41" cy="28.2414" r="0.64473" fill="#F2F2F2"/>
<path fill-rule="evenodd" clip-rule="evenodd" d="M71.6942 24.1067C71.0327 23.6449 70.1582 23.627 69.4785 24.0614C68.5514 24.6553 68.28 25.8876 68.8719 26.8161C69.3063 27.4958 70.1073 27.847 70.9016 27.7058C71.6958 27.5646 72.3268 26.9588 72.5003 26.171C72.6738 25.3832 72.3556 24.5684 71.6942 24.1067ZM72.2141 25.4467C72.3336 26.1187 72.0364 26.7966 71.4613 27.1641L71.4613 27.1641C70.6757 27.6649 69.633 27.4353 69.1304 26.6508C68.7629 26.0756 68.778 25.3357 69.1687 24.776C69.5594 24.2163 70.2488 23.9471 70.9155 24.0939C71.5821 24.2407 72.0946 24.7746 72.2141 25.4467Z" fill="#F2F2F2"/>
<circle cx="69.7762" cy="17.5096" r="1.22738" fill="#F2F2F2"/>
<circle cx="69.2019" cy="10.3728" r="0.64473" fill="#F2F2F2"/>
<path fill-rule="evenodd" clip-rule="evenodd" d="M15.6953 43.8876C14.7846 44.5073 14.5488 45.7479 15.1686 46.6586C15.789 47.5681 17.0287 47.8038 17.9396 47.1853C18.8502 46.5656 19.0861 45.3249 18.4663 44.4143C17.8466 43.5036 16.6059 43.2678 15.6953 43.8876ZM15.8679 44.1412C16.6385 43.6168 17.6882 43.8164 18.2126 44.5869L18.2127 44.5869C18.7359 45.3577 18.5366 46.4066 17.767 46.9316C16.9964 47.456 15.9466 47.2565 15.4222 46.486C14.8978 45.7154 15.0974 44.6656 15.8679 44.1412Z" fill="#F2F2F2"/>
<circle cx="8.61068" cy="46.5509" r="1.22738" fill="#F2F2F2"/>
<circle cx="1.49336" cy="47.3313" r="0.64473" fill="#F2F2F2"/>
</svg>
