<svg width="105" height="78" viewBox="0 0 105 78" fill="none" xmlns="http://www.w3.org/2000/svg">
<path opacity="0.297658" d="M92.2113 65.4572C92.7807 61.7039 91.2005 58.3506 91.2005 58.3506C91.2005 58.3506 88.6929 61.0831 88.1235 64.8365C87.5541 68.5898 89.1385 71.9431 89.1385 71.9431C89.1385 71.9431 91.6419 69.2106 92.2113 65.4572Z" fill="#5E2750"/>
<path opacity="0.297658" d="M100.577 57.2528C102.643 57.2756 104.33 56.1679 104.33 56.1679C104.33 56.1679 102.668 55.0232 100.602 55.0005C98.5353 54.9777 96.8481 56.0862 96.8481 56.0862C96.8481 56.0862 98.5109 57.2309 100.577 57.2528Z" fill="#5E2750"/>
<path opacity="0.297658" d="M95.8777 62.9586C93.9547 60.8452 93.5479 58.0833 93.5479 58.0833C93.5479 58.0833 96.2584 58.7487 98.1806 60.8629C100.103 62.9772 100.51 65.7383 100.51 65.7383C100.51 65.7383 97.8007 65.0728 95.8777 62.9586Z" fill="#5E2750"/>
<path d="M53.1142 60.2034C53.1142 61.4965 41.2775 61.6342 26.7092 62.5448C12.1538 63.4544 0.304199 61.4965 0.304199 60.2034C0.304199 58.9102 12.2091 56.3085 26.7092 57.862C41.2775 59.4229 53.1142 58.9102 53.1142 60.2034Z" fill="#E6E6E6"/>
<path fill-rule="evenodd" clip-rule="evenodd" d="M41.2237 35.8692H54.7019C54.8927 35.8688 55.0759 35.9443 55.211 36.0791C55.3461 36.2138 55.4221 36.3967 55.4223 36.5876V57.8803H40.5054V36.5876C40.5049 36.2732 40.7095 35.9952 41.0099 35.9024C41.0788 35.8797 41.1511 35.8684 41.2237 35.8692ZM49.277 47.3294C49.4875 47.0556 49.6014 46.7198 49.6009 46.3744V43.9038C49.5928 43.0301 48.8822 42.3261 48.0085 42.3261C47.1348 42.3261 46.4242 43.0301 46.4161 43.9038V46.3744C46.418 47.0575 46.8556 47.6631 47.5036 47.8794C48.1515 48.0957 48.8652 47.8744 49.277 47.3294Z" fill="#2F2E41"/>
<path d="M40.4595 57.1992V59.2525C40.4594 59.4742 40.6385 59.6542 40.8602 59.6553H55.0671C55.2884 59.6534 55.4671 59.4738 55.4678 59.2525V57.1992H40.4595Z" fill="#3F3D56"/>
<path d="M77.02 2.64087H19.4076C18.377 2.64218 17.5415 3.47671 17.5391 4.5073V43.3848C17.5399 44.4164 18.376 45.2525 19.4076 45.2533H77.02C78.0516 45.2525 78.8877 44.4164 78.8885 43.3848V4.5073C78.8861 3.47671 78.0506 2.64218 77.02 2.64087V2.64087Z" fill="#3F3D56"/>
<path d="M76.5385 3.99023H19.8873C19.3355 3.99143 18.8887 4.43909 18.8887 4.99093V42.9051C18.8896 43.4562 19.3362 43.9028 19.8873 43.9037H76.5385C77.0896 43.9028 77.5362 43.4562 77.5371 42.9051V4.99093C77.5371 4.43909 77.0903 3.99144 76.5385 3.99023Z" fill="#EB7676"/>
<circle cx="35" cy="23" r="10" fill="white"/>
<path fill-rule="evenodd" clip-rule="evenodd" d="M36.1511 23L38.2616 20.8896C38.5795 20.5717 38.5795 20.0563 38.2616 19.7384C37.9437 19.4205 37.4283 19.4205 37.1104 19.7384L35 21.8489L32.8896 19.7384C32.5717 19.4205 32.0563 19.4205 31.7384 19.7384C31.4205 20.0563 31.4205 20.5717 31.7384 20.8896L33.8489 23L31.7384 25.1104C31.4205 25.4283 31.4205 25.9437 31.7384 26.2616C32.0563 26.5795 32.5717 26.5795 32.8896 26.2616L35 24.1511L37.1104 26.2616C37.4283 26.5795 37.9437 26.5795 38.2616 26.2616C38.5795 25.9437 38.5795 25.4283 38.2616 25.1104L36.1511 23Z" fill="#EB7676"/>
<rect x="44.1362" y="14.7468" width="26" height="1" rx="0.5" fill="white"/>
<rect x="44.1362" y="18.7468" width="26" height="1" rx="0.5" fill="white"/>
<rect x="44.1362" y="22.7468" width="26" height="1" rx="0.5" fill="white"/>
<rect x="44.1362" y="26.7468" width="26" height="1" rx="0.5" fill="white"/>
<path d="M66.1122 59.6222L65.589 57.1371C65.545 56.9311 65.3996 56.7616 65.2029 56.6865C65.1327 56.659 65.0581 56.6449 64.9828 56.645H32.3233C32.248 56.6449 32.1733 56.659 32.1032 56.6865C31.9065 56.7616 31.7611 56.9312 31.717 57.1371L31.1939 59.6222C31.1556 59.8049 31.2016 59.9951 31.3192 60.1401C31.4368 60.2851 31.6134 60.3694 31.8001 60.3696H65.5039C65.6912 60.3705 65.8687 60.2856 65.9855 60.1391C66.1034 59.9946 66.1499 59.8048 66.1122 59.6222Z" fill="#2F2E41"/>
<rect x="32.5625" y="57.0925" width="1.03806" height="0.622837" rx="0.311419" fill="#3F3D56"/>
<rect x="34.6387" y="57.0925" width="1.03806" height="0.622837" rx="0.311419" fill="#3F3D56"/>
<rect x="36.7148" y="57.0925" width="1.03806" height="0.622837" rx="0.311419" fill="#3F3D56"/>
<rect x="38.791" y="57.0925" width="1.03806" height="0.622837" rx="0.311419" fill="#3F3D56"/>
<rect x="40.8672" y="57.0925" width="1.03806" height="0.622837" rx="0.311419" fill="#3F3D56"/>
<rect x="42.9434" y="57.0925" width="1.03806" height="0.622837" rx="0.311419" fill="#3F3D56"/>
<rect x="45.0195" y="57.0925" width="1.03806" height="0.622837" rx="0.311419" fill="#3F3D56"/>
<rect x="47.0957" y="57.0925" width="1.03806" height="0.622837" rx="0.311419" fill="#3F3D56"/>
<rect x="49.1719" y="57.0925" width="1.03806" height="0.622837" rx="0.311419" fill="#3F3D56"/>
<rect x="51.2476" y="57.0925" width="1.03806" height="0.622837" rx="0.311419" fill="#3F3D56"/>
<rect x="53.3237" y="57.0925" width="1.03806" height="0.622837" rx="0.311419" fill="#3F3D56"/>
<rect x="55.3999" y="57.0925" width="1.03806" height="0.622837" rx="0.311419" fill="#3F3D56"/>
<rect x="57.4761" y="57.0925" width="1.03806" height="0.622837" rx="0.311419" fill="#3F3D56"/>
<rect x="59.5522" y="57.0925" width="1.03806" height="0.622837" rx="0.311419" fill="#3F3D56"/>
<rect x="61.6284" y="57.0925" width="1.03806" height="0.622837" rx="0.311419" fill="#3F3D56"/>
<rect x="63.7046" y="57.0925" width="1.03806" height="0.622837" rx="0.311419" fill="#3F3D56"/>
<rect x="32.5381" y="58.1306" width="1.03806" height="0.622837" rx="0.311419" fill="#3F3D56"/>
<rect x="34.6143" y="58.1306" width="1.03806" height="0.622837" rx="0.311419" fill="#3F3D56"/>
<rect x="36.6904" y="58.1306" width="1.03806" height="0.622837" rx="0.311419" fill="#3F3D56"/>
<rect x="38.7666" y="58.1306" width="1.03806" height="0.622837" rx="0.311419" fill="#3F3D56"/>
<rect x="40.8428" y="58.1306" width="1.03806" height="0.622837" rx="0.311419" fill="#3F3D56"/>
<rect x="42.9189" y="58.1306" width="1.03806" height="0.622837" rx="0.311419" fill="#3F3D56"/>
<rect x="44.9946" y="58.1306" width="1.03806" height="0.622837" rx="0.311419" fill="#3F3D56"/>
<rect x="47.0708" y="58.1306" width="1.03806" height="0.622837" rx="0.311419" fill="#3F3D56"/>
<rect x="49.147" y="58.1306" width="1.03806" height="0.622837" rx="0.311419" fill="#3F3D56"/>
<rect x="51.2231" y="58.1306" width="1.03806" height="0.622837" rx="0.311419" fill="#3F3D56"/>
<rect x="53.2993" y="58.1306" width="1.03806" height="0.622837" rx="0.311419" fill="#3F3D56"/>
<rect x="55.3755" y="58.1306" width="1.03806" height="0.622837" rx="0.311419" fill="#3F3D56"/>
<rect x="57.4517" y="58.1306" width="1.03806" height="0.622837" rx="0.311419" fill="#3F3D56"/>
<rect x="59.5278" y="58.1306" width="1.03806" height="0.622837" rx="0.311419" fill="#3F3D56"/>
<rect x="61.604" y="58.1306" width="1.03806" height="0.622837" rx="0.311419" fill="#3F3D56"/>
<rect x="63.6802" y="58.1306" width="1.03806" height="0.622837" rx="0.311419" fill="#3F3D56"/>
<rect x="42.5034" y="59.3762" width="8.3045" height="0.622837" rx="0.311419" fill="#3F3D56"/>
<path d="M74.3276 71.9316C74.201 71.996 74.0722 72.0603 73.9456 72.1226C70.6653 73.7627 68.0411 74.6949 64.4515 75.7164C64.1484 72.3323 63.8556 66.3842 63.5712 62.697C63.4965 61.7399 63.4217 60.9364 63.3491 60.3697C63.3307 60.0683 63.2692 59.7712 63.1664 59.4873L63.1788 60.3697L63.21 62.697L63.3906 76.007C58.9254 77.1885 54.3385 77.8496 49.7214 77.9773C49.4805 77.9835 49.2439 77.9877 49.0155 77.9918C48.9345 77.9939 48.8556 77.996 48.7767 77.996C48.5172 77.998 48.2598 78.0001 48.0003 78.0001C43.1347 78.0037 38.2867 77.416 33.5629 76.2499C33.6646 72.9011 33.7664 67.0195 33.8639 62.697C33.8847 61.852 33.9034 61.0652 33.9241 60.3697C33.9636 58.8832 34.0051 57.8119 34.0446 57.4527C34.0096 57.5163 33.9824 57.584 33.9636 57.6541C33.7713 58.5493 33.6402 59.4566 33.5712 60.3697C33.4985 61.0652 33.4259 61.852 33.3532 62.697C32.967 67.1877 32.5643 73.2935 32.1491 75.8825C29.6776 75.2077 27.2524 74.3735 24.8888 73.3849C23.6432 72.8659 22.4196 72.306 21.2183 71.7053C21.4466 70.2105 21.6854 68.5351 21.9304 66.7973C22.1214 65.4499 22.3186 64.0652 22.52 62.697C22.8314 60.5835 23.1511 58.5115 23.475 56.6866C23.9484 54.0209 24.4342 51.8783 24.9158 50.8942C25.3726 49.96 25.8293 49.0382 26.2715 48.1558C26.4252 47.8465 26.5788 47.5413 26.7283 47.2444C26.7636 47.1738 26.7989 47.1053 26.8342 47.0368C27.1518 46.4119 27.4591 45.814 27.7518 45.2534C28.003 44.7738 28.2418 44.3212 28.4681 43.9039C29.0162 42.8908 29.4812 42.0832 29.8259 41.5724C31.2667 39.3869 33.4117 37.7598 35.9048 36.9614L35.967 36.9448L36.0106 36.9634L40.2563 35.6596L40.8771 35.4686L41.2944 35.3399L42.7643 34.2209L43.5636 33.6126L44.3131 33.0416L45.7788 31.9268L54.8536 32.4852L56.6203 36.7392L60.5774 38.1863L60.6459 38.1551L60.7061 38.1302L60.7684 38.1468C63.2611 38.946 65.4059 40.5729 66.8473 42.7579C67.0425 43.0506 67.2792 43.4368 67.547 43.9039C67.7753 44.3005 68.0245 44.7531 68.2944 45.2534C68.6785 45.9655 69.0978 46.769 69.5421 47.6389C69.6397 47.8299 69.7394 48.025 69.839 48.2223C70.0238 48.5876 70.2113 48.9607 70.4016 49.3413C70.8439 50.2236 71.3006 51.1454 71.7574 52.0818C72.1539 52.8935 72.5546 54.5627 72.9491 56.6866C73.275 58.4513 73.5989 60.5316 73.9124 62.697C74.3234 65.5039 73.8854 68.8652 74.257 71.4478C74.2799 71.6119 74.3048 71.7717 74.3276 71.9316Z" fill="#3F3D56"/>
<circle cx="48.128" cy="17.9769" r="10.5543" fill="#A0616A"/>
<path d="M65.533 3.99035C65.3244 3.50332 65.0468 3.04884 64.7088 2.64087C63.106 0.683083 60.1911 -0.178508 57.1994 2.13845C56.6236 2.00978 56.0232 2.04429 55.4659 2.2381C55.2027 2.33338 54.9562 2.46928 54.7351 2.64087C54.2821 2.99424 53.9286 3.45926 53.7095 3.99035C53.5923 4.27085 53.5154 4.56651 53.4811 4.86855C52.7416 4.48431 51.9589 4.1895 51.1496 3.99035C49.1639 3.49644 47.0875 3.49644 45.1019 3.99035C44.4656 4.15132 43.8528 4.39418 43.279 4.71284C42.3074 5.27339 41.7489 5.98135 41.6493 6.7682C40.2479 6.8471 38.7904 7.58412 37.7046 8.79243C37.5821 8.92737 37.4638 9.06855 37.3538 9.21388C36.4406 10.4087 35.9499 11.8728 35.9586 13.3765V13.6402H36.2223C36.9447 13.6395 37.6604 13.7791 38.3295 14.0512C38.7632 14.2254 39.1738 14.452 39.5524 14.726C39.8 14.9017 40.0339 15.096 40.252 15.3073C40.7577 15.7969 41.1861 16.3604 41.5226 16.9786C42.3852 18.5408 42.6843 20.3521 42.3697 22.1087C42.2975 22.5153 42.192 22.9153 42.0541 23.3045C41.858 23.8599 41.5996 24.3914 41.2839 24.8886C41.2714 24.9073 41.261 24.926 41.2486 24.9447C41.1095 25.1668 40.9766 25.3931 40.852 25.6215C40.7586 25.7917 40.6714 25.9661 40.5904 26.1405C40.3538 26.6259 40.1539 27.1283 39.9925 27.6436C39.7036 28.555 39.5333 29.4998 39.4859 30.4547C39.4714 30.708 39.4673 30.9613 39.4756 31.2146C39.4879 31.8675 39.5595 32.5179 39.6894 33.1578C39.7081 33.245 39.7268 33.3302 39.7455 33.4173L39.897 34.0796L40.2562 35.6596L40.5053 36.7474L40.7358 37.7564L41.0763 37.2686C41.1925 37.1025 41.4853 36.5917 41.8776 35.8692C42.1372 35.398 42.4382 34.8353 42.7641 34.2208C43.2188 33.3592 43.7171 32.398 44.205 31.4388C44.4022 31.0506 44.5973 30.6644 44.7863 30.2866C45.1434 29.5703 45.4797 28.8789 45.7683 28.2644C46.034 27.6976 46.2603 27.1952 46.4285 26.7924C46.4804 27.0561 46.524 27.3239 46.5572 27.5938C46.5946 27.8679 46.6216 28.1461 46.6361 28.4243C46.6403 28.4658 46.6423 28.5094 46.6444 28.5509L46.6527 28.7212L46.6548 28.771L46.8749 28.8001C48.1441 28.936 49.4237 28.9457 50.6949 28.8291H50.697C52.381 28.7023 54.0331 28.3019 55.5884 27.6437C56.4717 27.2604 57.2964 26.7544 58.0382 26.1405C58.3848 25.8536 58.7083 25.5398 59.0057 25.2021C59.0804 25.117 59.1531 25.0319 59.2237 24.9447C59.6345 24.4397 59.9863 23.8894 60.2721 23.3046C60.4635 22.9186 60.6259 22.5188 60.7579 22.1087C61.5551 19.6942 61.5095 16.6817 60.6209 13.1025C60.8609 13.0562 61.0908 12.9677 61.2998 12.8409C61.9517 12.4485 62.4043 11.67 62.5455 10.7191L62.7697 10.7793C63.5646 10.4091 64.2726 9.87571 64.8479 9.2139C64.9618 9.07915 65.0685 8.93847 65.1676 8.79245C66.1828 7.29762 66.1911 5.50384 65.533 3.99035Z" fill="#2F2E41"/>
<path opacity="0.2" d="M30.8345 56.6774L32.5986 49.8694L34.1563 55.744L30.8345 56.6774Z" fill="black"/>
<path d="M77.7779 52.2416C77.1467 60.9364 77.8007 64.7648 74.317 71.9336C71.1473 73.4851 67.8456 74.751 64.4512 75.7163C64.0983 75.816 63.7446 75.9129 63.3903 76.007C58.9251 77.1884 54.3382 77.8496 49.7211 77.9772C49.4803 77.9835 49.2436 77.9876 49.0152 77.9918C48.9343 77.9939 48.8554 77.9959 48.7765 77.9959C48.517 77.998 48.2595 78.0001 48 78.0001C43.1344 78.0037 38.2864 77.416 33.5626 76.2499C33.0893 76.1336 32.618 76.0112 32.1488 75.8824C29.6773 75.2077 27.2521 74.3734 24.8886 73.3849C23.6429 72.8658 22.4194 72.306 21.218 71.7053C20.946 71.5682 20.6741 71.4312 20.4062 71.29C19.0298 68.8693 18.2471 65.9253 18.2305 62.3876C19.1834 56.2921 75.6727 46.9849 77.7779 52.2416Z" fill="#2F2E41"/>
<path opacity="0.2" d="M77.7764 53.7306C77.8087 53.1923 77.8447 52.6363 77.8868 52.0573C75.7816 46.8005 19.2923 56.1078 18.3394 62.2033C18.342 62.7622 18.3659 63.3045 18.4061 63.834C20.7138 57.8177 74.3794 48.9718 77.7764 53.7306Z" fill="black"/>
<path fill-rule="evenodd" clip-rule="evenodd" d="M21.4815 28.0085C21.7503 28.2798 21.8885 28.6541 21.8607 29.0349L23.0865 39.8656C23.0387 40.4414 22.6253 40.9206 22.0628 41.0524L16.6963 42.2652C16.1289 42.3972 15.5423 42.1398 15.2553 41.6328L12.4579 33.7558C12.2209 33.9449 11.9447 34.0785 11.6494 34.147C10.569 34.3919 9.49465 33.7146 9.24977 32.6342C9.00488 31.5539 9.68218 30.4795 10.7626 30.2347C10.8799 30.2045 11.0001 30.1871 11.1212 30.1825C11.3046 29.8453 11.6219 29.6013 11.995 29.5109L20.2501 27.646C20.3187 27.6313 20.3886 27.6225 20.4587 27.6199C20.8398 27.5956 21.2128 27.7373 21.4815 28.0085ZM9.81105 32.5062C9.98717 33.2772 10.754 33.7603 11.5255 33.5863C11.7653 33.5334 11.9863 33.4162 12.1645 33.2472L11.1408 31.4605C11.0235 31.2539 10.9627 31.02 10.9647 30.7824C10.9517 30.7857 10.9386 30.7857 10.9256 30.7857C10.9125 30.7857 10.8995 30.7857 10.8865 30.7889C10.1159 30.9671 9.63493 31.7352 9.81105 32.5062Z" fill="#2F2E41"/>
<path d="M20.4587 27.6199C20.5369 28.6632 18.7503 29.863 16.3572 30.339C14.1597 30.7889 12.1905 30.4759 11.6362 29.6543C11.7476 29.5882 11.8686 29.5398 11.9949 29.5109L20.25 27.646C20.3187 27.6313 20.3885 27.6225 20.4587 27.6199Z" fill="#3F3D56"/>
<path d="M14.7495 54.105L19.3863 51.7866L15.5223 41.3539L14.504 36.0926C14.2347 34.7016 13.246 33.5587 11.9081 33.0922C10.5702 32.6257 9.08519 32.906 8.00941 33.8281C6.38111 35.2238 6.15223 37.659 7.49194 39.3337L11.272 44.0587L14.7495 54.105Z" fill="#A0616A"/>
<path d="M19.3864 49.8547L13.2041 52.9458L17.8958 67.6467C18.5811 69.7939 20.3404 71.4256 22.533 71.9477C25.2607 72.5971 28.0947 71.4045 29.5373 69.0002L41.9785 47.6755C43.8121 44.6195 42.8725 40.6588 39.8617 38.7519C38.287 37.7546 36.3626 37.4737 34.5685 37.9793C32.7745 38.4849 31.2799 39.7293 30.4577 41.4021L22.864 57.5826L19.3864 49.8547Z" fill="#3F3D56"/>
<path d="M17.4741 36.5691C17.4626 36.5691 17.4512 36.5671 17.4404 36.5634L16.0906 36.0987C16.0575 36.0874 16.0323 36.0601 16.0237 36.0261C16.0151 35.9922 16.0242 35.9562 16.0479 35.9304L17.0518 34.8374C17.0768 34.8099 17.1147 34.7979 17.151 34.8059C17.1873 34.8139 17.2165 34.8408 17.2276 34.8762C17.2387 34.9117 17.2299 34.9504 17.2047 34.9777L16.308 35.9539L17.5079 36.3671C17.5559 36.3836 17.5849 36.4324 17.5765 36.4824C17.5682 36.5324 17.5249 36.5691 17.4741 36.5691Z" fill="#6C63FF"/>
<path d="M19.3243 36.1904C19.282 36.1904 19.244 36.1647 19.2281 36.1255C19.2122 36.0863 19.2217 36.0414 19.2522 36.0119L20.1645 35.1298L18.9389 34.6248C18.9046 34.6107 18.8804 34.5793 18.8754 34.5426C18.8705 34.5058 18.8856 34.4692 18.915 34.4465C18.9444 34.4239 18.9837 34.4187 19.018 34.433L20.3902 34.9984C20.4225 35.0117 20.446 35.0405 20.4526 35.0748C20.4592 35.1092 20.448 35.1446 20.4228 35.1689L19.3965 36.1612C19.3771 36.1799 19.3513 36.1904 19.3243 36.1904Z" fill="#6C63FF"/>
<path d="M17.7577 37.2041C17.7473 37.2041 17.737 37.2026 17.7271 37.1994C17.7008 37.1914 17.6788 37.1732 17.6659 37.1488C17.653 37.1245 17.6503 37.096 17.6584 37.0697L18.6165 33.9555C18.6335 33.9009 18.6916 33.8703 18.7462 33.8872C18.8009 33.9041 18.8317 33.962 18.815 34.0167L17.8569 37.1309C17.8434 37.1744 17.8032 37.2041 17.7577 37.2041Z" fill="#6C63FF"/>
</svg>
