<svg width="61" height="80" viewBox="0 0 61 80" fill="none" xmlns="http://www.w3.org/2000/svg">
<circle cx="25.3496" cy="36.2476" r="25.3496" fill="#873873"/>
<path d="M47.1621 36.2475C47.1672 43.1494 43.9011 49.6453 38.3581 53.7576C38.1753 53.8944 37.989 54.0276 37.8016 54.1573C30.3157 59.3608 20.3835 59.3608 12.8977 54.1573C12.7102 54.0276 12.5239 53.8944 12.3411 53.7576C6.80219 49.6419 3.53717 43.1482 3.53717 36.2475C3.53717 29.3469 6.80219 22.8531 12.3411 18.7374C12.5239 18.6006 12.7102 18.4674 12.8977 18.3377C20.3835 13.1342 30.3157 13.1342 37.8016 18.3377C37.989 18.4674 38.1753 18.6006 38.3581 18.7374C43.9011 22.8497 47.1672 29.3456 47.1621 36.2475V36.2475Z" fill="white"/>
<path opacity="0.297658" d="M42.6176 5.43665C43.0949 8.58284 41.7704 11.3937 41.7704 11.3937C41.7704 11.3937 39.6684 9.1032 39.1911 5.95701C38.7138 2.81082 40.0419 0 40.0419 0C40.0419 0 42.1403 2.29045 42.6176 5.43665Z" fill="#5E2750"/>
<path opacity="0.297658" d="M49.6301 12.3138C51.362 12.2947 52.7762 13.2232 52.7762 13.2232C52.7762 13.2232 51.3825 14.1827 49.6505 14.2018C47.9186 14.2208 46.5043 13.2917 46.5043 13.2917C46.5043 13.2917 47.8981 12.3321 49.6301 12.3138Z" fill="#5E2750"/>
<path opacity="0.297658" d="M45.691 7.53092C44.0791 9.30242 43.7381 11.6176 43.7381 11.6176C43.7381 11.6176 46.0102 11.0598 47.6214 9.28759C49.2326 7.51539 49.5743 5.20093 49.5743 5.20093C49.5743 5.20093 47.303 5.75871 45.691 7.53092Z" fill="#5E2750"/>
<path d="M25.4085 14.9067C25.0507 14.9074 24.7607 15.1973 24.7601 15.5552V18.3849C24.7601 18.7431 25.0504 19.0334 25.4085 19.0334C25.7667 19.0334 26.057 18.7431 26.057 18.3849V15.5552C26.0564 15.1973 25.7664 14.9074 25.4085 14.9067V14.9067Z" fill="white"/>
<path d="M37.3581 19.7375C37.1753 19.6007 36.989 19.4675 36.8016 19.3378C36.5727 19.3229 36.353 19.43 36.2238 19.6196L34.6309 21.9577C34.4294 22.2536 34.506 22.6569 34.8019 22.8584C35.0979 23.06 35.5012 22.9834 35.7027 22.6875L37.2956 20.3494C37.4187 20.1692 37.4423 19.9389 37.3581 19.7375Z" fill="#B9B9B9"/>
<path d="M44.5951 30.3985C44.5304 30.2393 44.4051 30.1123 44.2468 30.0455C44.0884 29.9788 43.91 29.9776 43.7509 30.0424L41.1287 31.1071C40.7972 31.2421 40.6379 31.6201 40.7726 31.9517C40.9073 32.2832 41.2851 32.443 41.6168 32.3086L44.239 31.2439C44.5702 31.1082 44.7294 30.7303 44.5951 30.3985V30.3985Z" fill="#B9B9B9"/>
<path d="M16.0683 21.9577L14.4754 19.6196C14.3462 19.43 14.1265 19.3229 13.8976 19.3378C13.7102 19.4675 13.5239 19.6007 13.3411 19.7375C13.257 19.9389 13.2805 20.1692 13.4036 20.3494L14.9965 22.6875C15.198 22.9834 15.6013 23.06 15.8973 22.8584C16.1933 22.6569 16.2698 22.2536 16.0683 21.9577V21.9577Z" fill="#B9B9B9"/>
<path d="M9.57053 31.1071L6.94832 30.0424C6.61657 29.9077 6.23842 30.0674 6.10364 30.3991C5.96887 30.7309 6.12849 31.1091 6.46019 31.2439L9.0824 32.3086C9.41408 32.443 9.79194 32.2832 9.92664 31.9517C10.0613 31.6201 9.90196 31.2421 9.57053 31.1071V31.1071Z" fill="#B9B9B9"/>
<path d="M25.4085 52.4617C25.0507 52.4623 24.7607 52.7523 24.7601 53.1101V55.9399C24.7601 56.298 25.0504 56.5883 25.4085 56.5883C25.7667 56.5883 26.057 56.298 26.057 55.9399V53.1101C26.0564 52.7523 25.7664 52.4623 25.4085 52.4617Z" fill="#B9B9B9"/>
<path d="M37.2956 52.1459L35.7027 49.8078C35.5723 49.6164 35.3497 49.509 35.1187 49.5262C34.8877 49.5434 34.6834 49.6825 34.5828 49.8911C34.4822 50.0998 34.5005 50.3462 34.6309 50.5377L36.2238 52.8757C36.353 53.0653 36.5727 53.1724 36.8015 53.1575C36.989 53.0278 37.1753 52.8946 37.3581 52.7578C37.4422 52.5564 37.4187 52.3261 37.2956 52.1459Z" fill="#B9B9B9"/>
<path d="M44.239 41.2514L41.6168 40.1867C41.2851 40.052 40.9069 40.2117 40.7721 40.5434C40.6374 40.8752 40.797 41.2533 41.1287 41.3882L43.7509 42.4529C44.0826 42.5873 44.4604 42.4275 44.5951 42.096C44.7298 41.7644 44.5705 41.3864 44.239 41.2514V41.2514Z" fill="#B9B9B9"/>
<path d="M15.8973 49.6369C15.6013 49.4354 15.1981 49.5119 14.9965 49.8078L13.4036 52.1459C13.2805 52.3261 13.257 52.5564 13.3411 52.7578C13.5239 52.8946 13.7102 53.0278 13.8976 53.1575C14.1265 53.1724 14.3462 53.0653 14.4754 52.8757L16.0683 50.5377C16.1651 50.3955 16.2014 50.2208 16.1694 50.0519C16.1373 49.8829 16.0394 49.7336 15.8973 49.6369V49.6369Z" fill="#B9B9B9"/>
<path d="M9.92659 41.5428C9.86191 41.3836 9.73661 41.2566 9.57828 41.1898C9.41994 41.123 9.24155 41.1219 9.08239 41.1867L6.46018 42.2514C6.12875 42.3864 5.96937 42.7644 6.10407 43.096C6.23878 43.4275 6.61663 43.5873 6.94831 43.4529L9.57052 42.3882C9.90175 42.2525 10.0609 41.8746 9.92659 41.5428V41.5428Z" fill="#B9B9B9"/>
<path d="M25.5019 18.298C25.99 18.2966 26.3872 18.6906 26.3896 19.1788L26.4584 36.6286C26.4598 37.1167 26.0656 37.5136 25.5775 37.5155C25.0895 37.5175 24.6922 37.1236 24.6898 36.6356L24.6211 19.1857C24.6197 18.6976 25.0137 18.3004 25.5019 18.298V18.298Z" fill="#602451"/>
<ellipse cx="25.7168" cy="37.6148" rx="1.9" ry="1.9" fill="#873873"/>
<path d="M37.4543 47.5477C37.6143 47.7981 37.877 47.9649 38.1717 48.003C38.4663 48.0412 38.7628 47.9468 38.9813 47.7454L42.1264 49.4307L41.9578 47.5841L38.9969 46.2668C38.626 45.9145 38.0503 45.8953 37.6567 46.2221C37.2632 46.5489 37.1762 47.1184 37.4544 47.5477H37.4543Z" fill="#FFB7B7"/>
<path d="M39.746 48.1921L40.9785 46.4907L46.9162 49.2976L54.305 47.9113C55.0444 47.7726 55.8072 47.9699 56.3866 48.4498C56.966 48.9296 57.3019 49.6423 57.3033 50.3947V50.3947C57.3044 51.7922 56.174 52.9268 54.7765 52.9308L46.309 52.9466L39.746 48.1921Z" fill="#3F3D56"/>
<path d="M37.8477 77.5773L36.6006 76.9809L38.3137 71.7686L40.154 72.6488L37.8477 77.5773V77.5773Z" fill="#FFB7B7"/>
<path d="M46.2079 76.7371C46.1172 76.7939 46.0265 76.8497 45.9349 76.9056C45.7526 77.0174 45.5685 77.1273 45.3844 77.2354C45.2919 77.2894 45.1985 77.3435 45.106 77.3966V77.3993L45.1005 77.4002L45.0986 77.4012L44.9576 77.436L44.7552 76.901L44.6617 76.6546L44.5298 76.3057L44.288 75.6672L43.0148 72.3056L44.9942 71.8174L45.0684 72.1206H45.0693L45.106 72.2708L45.7975 75.0755L45.9386 75.6489L45.9432 75.6663L46.0283 76.0089L46.1016 76.3057L46.1831 76.6373L46.2079 76.7371Z" fill="#FFB7B7"/>
<path d="M58.0159 64.9316C57.8904 65.1332 57.7622 65.3337 57.633 65.5325C57.393 65.9026 57.1466 66.2671 56.8938 66.6262C56.8938 66.6271 56.8929 66.6271 56.892 66.628C56.7445 66.7646 56.5816 66.8836 56.4065 66.9825C56.3992 66.988 56.391 66.9917 56.3836 66.9962C56.2547 67.0675 56.1175 67.1226 55.9751 67.1602C55.9238 67.173 55.8716 67.1858 55.8203 67.1987C55.6353 67.2426 55.4521 67.2802 55.2698 67.3132C54.9456 67.3709 54.625 67.4121 54.3062 67.4377C54.2806 67.4405 54.2549 67.4423 54.2293 67.4441C52.9185 67.5403 51.6426 67.3855 50.3107 67.1318C49.6531 67.0072 48.9817 66.8579 48.2864 66.7031C48.0593 66.6518 47.8312 66.6015 47.6004 66.5511C47.583 66.5474 47.5646 66.5428 47.5463 66.5392C47.2166 66.4668 46.8813 66.3954 46.5378 66.3248C46.1055 66.236 45.6594 66.1499 45.1959 66.0684L45.2289 66.7214C45.2564 67.2238 45.3608 67.719 45.5385 68.1898C45.7364 68.7686 45.893 69.2266 45.5623 70.1802L45.4029 70.6418C45.5704 71.1065 45.5104 71.6229 45.2408 72.0368L45.2088 72.0854L46.5378 75.4479L46.6239 75.6659H45.9434L45.1062 75.6668H43.6873L41.6401 71.5596L41.5421 71.3636V71.3535L41.7537 63.4606C41.7565 63.391 41.7619 63.3204 41.7711 63.2508C41.8465 62.6115 42.1755 62.0294 42.6843 61.6351C43.1719 61.254 43.7918 61.0844 44.4054 61.1642L45.1062 61.2549L46.5378 61.44L47.5463 61.5709L47.5665 61.5737L50.5406 61.9584L50.7541 61.0882L50.7934 61.0736L52.0456 60.6147L56.3763 59.0273L56.3873 59.0236L56.6722 58.9192L56.7061 58.9741C56.7161 58.9906 56.7262 59.0071 56.7354 59.0236C57.0169 59.5284 57.2462 60.0606 57.4196 60.6119C57.7112 61.5126 57.9513 62.4291 58.1386 63.3571C58.1469 63.3974 58.1542 63.434 58.1606 63.467L58.1634 63.4771C58.1661 63.4926 58.1679 63.5027 58.1689 63.5055C58.2687 63.9213 58.1991 64.4288 58.0159 64.9316Z" fill="#2F2E41"/>
<path d="M58.1987 62.023C58.1849 61.9644 58.1675 61.9048 58.1492 61.8471C58.0038 61.4101 57.8344 60.9813 57.6418 60.5629C57.4256 60.0866 57.1664 59.5764 56.8577 59.0241C56.7084 58.7566 56.5478 58.4785 56.3759 58.1896C56.2898 58.0449 56.2003 57.8974 56.1075 57.7472C56.1039 57.7403 56.0999 57.7336 56.0956 57.7271L56.0691 57.6831L51.7841 58.2565L50.1885 58.4699L50.0932 59.265L50.0703 59.4619C50.0694 59.4619 50.0694 59.4619 50.0703 59.4628L50.0062 59.9996V60.0005L49.921 60.7095L49.9137 60.7086L47.5459 60.4017L45.1058 60.0857L43.795 59.9163C43.1814 59.8363 42.5614 60.0059 42.0739 60.3871C41.5652 60.7815 41.2362 61.3636 41.1607 62.0028C41.1524 62.067 41.1469 62.1329 41.1442 62.1979L39.9076 65.1281C39.1677 66.8805 38.6964 68.7346 38.5098 70.6276L37.603 73.5267L37.7322 73.5386L39.6539 73.7172L40.1613 73.7649L41.2788 72.1335C41.4061 71.9476 41.5271 71.7561 41.6397 71.5601C41.8252 71.24 41.9901 70.9083 42.1334 70.5672L44.5507 64.8149C44.7375 64.847 44.9226 64.8775 45.1058 64.9065C45.953 65.0439 46.7664 65.1559 47.5459 65.2426C50.0804 65.5257 52.2751 65.5477 54.2289 65.3077C54.7775 65.2408 55.3079 65.1529 55.8199 65.0439C56.0077 65.0045 56.193 64.962 56.3759 64.9166C56.419 64.9065 56.4611 64.8964 56.5032 64.8854C57.2724 64.687 57.8882 64.1116 58.1382 63.3576C58.2851 62.9275 58.3061 62.4645 58.1987 62.023V62.023Z" fill="#2F2E41"/>
<path d="M38.246 76.7261L36.8968 76.0795L36.6852 75.9778L36.3472 76.8077L33.9877 77.327C33.7482 77.3795 33.5707 77.5817 33.5497 77.8259C33.5287 78.0702 33.6691 78.2997 33.8961 78.3923L36.2016 79.333L36.9334 78.6744L36.7539 79.5583L37.6222 79.9128L38.5739 76.8837L38.246 76.7261Z" fill="#2F2E41"/>
<path d="M46.5553 75.448L46.7369 75.6964H46.5553V75.448V75.448Z" fill="#2F2E41"/>
<path d="M46.0679 75.7125L44.6542 76.2023L44.4323 76.279L44.776 77.1065L43.4648 79.1358C43.3316 79.3416 43.3478 79.6101 43.5047 79.7984C43.6616 79.9868 43.9228 80.0511 44.1493 79.9572L46.4494 79.0034L46.5061 78.0205L47.0005 78.7749L47.8669 78.4158L46.4118 75.5938L46.0679 75.7125Z" fill="#2F2E41"/>
<path d="M57.8461 63.3501C57.7621 63.3499 57.6795 63.3294 57.6052 63.2903L50.1448 59.3921L50.0586 59.0392L49.8962 57.9224L49.8984 57.912L50.6079 54.6409C50.5949 54.6128 50.5677 54.5667 50.5371 54.5147C50.2203 53.978 49.2563 52.3446 51.0961 50.0956L54.3261 46.3297L57.0984 46.2104L57.13 46.2503C58.6355 48.14 59.0962 50.6574 58.3574 52.9577L58.0687 58.1711L58.3783 59.224C58.5593 59.8427 58.5294 60.5041 58.2932 61.1039L58.3642 62.8087C58.3698 62.9499 58.3178 63.0873 58.2201 63.1894C58.1224 63.2915 57.9874 63.3495 57.8461 63.3501L57.8461 63.3501Z" fill="#3F3D56"/>
<path d="M51.3748 67.6494C51.6306 67.4983 51.8064 67.2416 51.8548 66.9484C51.9032 66.6552 51.8192 66.3556 51.6255 66.1303L53.4191 63.0457L51.5678 63.15L50.1484 66.0632C49.7834 66.4216 49.7441 66.9964 50.057 67.4011C50.3699 67.8057 50.936 67.9124 51.3748 67.6494L51.3748 67.6494Z" fill="#FFB7B7"/>
<path d="M52.0985 65.3816L50.4411 64.0907L53.4529 58.2542L52.3243 50.8217C52.2114 50.0779 52.4352 49.3224 52.9349 48.7601C53.4346 48.1977 54.1586 47.8868 54.9105 47.9115V47.9115C56.3072 47.9591 57.4018 49.1283 57.3573 50.5251L57.0784 58.988L52.0985 65.3816Z" fill="#3F3D56"/>
<path d="M52.5479 44.7648V42.0216C52.5471 40.7083 53.2469 39.4943 54.3838 38.8369C55.5208 38.1796 56.922 38.1787 58.0598 38.8346C59.1975 39.4905 59.8989 40.7035 59.8998 42.0168V42.0216C60.5477 43.3716 60.1423 44.0135 59.8998 44.7648C59.8993 45.0372 59.6786 45.2579 59.4062 45.2584H53.0417C52.7692 45.2581 52.5484 45.0373 52.5479 44.7648V44.7648Z" fill="#2F2E41"/>
<circle cx="55.0186" cy="42.3287" r="2.75157" fill="#FFB7B7"/>
<path d="M57.8982 43.0499C57.8733 43.046 57.8483 43.0407 57.8234 43.0368C57.3942 42.9606 56.965 42.8858 56.5371 42.8084L56.4977 41.8384L55.9793 42.7073C54.7967 43.0998 53.6902 42.878 52.6493 42.3884C52.306 42.2254 51.9729 42.0417 51.6518 41.8384C51.8289 40.7519 52.4873 39.8036 53.4434 39.258C53.4828 39.2356 53.5209 39.216 53.5602 39.1963C53.5606 39.1963 53.5609 39.1961 53.5612 39.1959C53.5614 39.1956 53.5616 39.1953 53.5615 39.1949C53.6285 39.1634 53.6967 39.1333 53.765 39.1057C54.8557 38.6795 56.0943 38.9196 56.9466 39.7226C57.7866 40.5246 58.1647 41.8489 57.8982 43.0499Z" fill="#2F2E41"/>
</svg>
