<svg width="64" height="64" viewBox="0 0 64 64" fill="none" xmlns="http://www.w3.org/2000/svg">
<path fill-rule="evenodd" clip-rule="evenodd" d="M59.9562 31.0631H50.903L54.3591 29.0678C56.2901 27.9529 56.954 25.475 55.8392 23.544L45.2079 5.12975L44.9677 4.71363L43.4147 2.02368C42.8747 1.08832 42.0026 0.41921 40.9592 0.13959C39.9156 -0.140154 38.8261 0.00359291 37.8908 0.543583L18.6237 11.6675C18.1753 11.9264 18.0217 12.4997 18.2805 12.9481C18.5394 13.3965 19.1128 13.5502 19.5611 13.2912L38.8283 2.1673C39.8638 1.56956 41.1929 1.92543 41.7908 2.96116L42.8752 4.83925L3.2517 27.7158L2.16734 25.8376C1.87772 25.336 1.80073 24.7515 1.95072 24.1919C2.10072 23.6324 2.45946 23.1648 2.9612 22.875L16.1991 15.2322C16.6474 14.9733 16.8011 14.3999 16.5422 13.9516C16.2833 13.5032 15.71 13.3495 15.2616 13.6085L2.0236 21.2514C1.08824 21.7914 0.419127 22.6634 0.139507 23.7068C-0.139988 24.75 0.00338465 25.8397 0.543499 26.7751L2.09634 29.4647L2.09659 29.4652L3.64969 32.1552L12.9683 48.2955C13.3345 48.9298 13.8649 49.449 14.4967 49.8025V59.9563C14.4967 62.186 16.3107 64 18.5404 64H46.8792C47.3971 64 47.8167 63.5803 47.8167 63.0625C47.8167 62.5448 47.3971 62.125 46.8792 62.125H18.5405C17.3447 62.125 16.3718 61.1522 16.3718 59.9563V49.241C16.372 49.2372 16.372 49.2335 16.372 49.2297C16.372 49.223 16.3717 49.2162 16.3718 49.2094V35.1068C16.3718 33.9109 17.3447 32.9381 18.5405 32.9381H47.4025L47.4054 32.9382L47.4082 32.9381H59.9564C61.1522 32.9381 62.1252 33.9109 62.1252 35.1068V59.9563C62.1252 61.1522 61.1523 62.125 59.9564 62.125H50.6295C50.1117 62.125 49.6921 62.5448 49.6921 63.0625C49.6921 63.5803 50.1117 64 50.6295 64H59.9564C62.1861 64 64.0002 62.186 64.0002 59.9563V35.1068C64 32.8771 62.186 31.0631 59.9562 31.0631ZM43.8127 6.46297L44.1423 7.03396L44.9459 8.42593L5.32253 31.3026L4.18918 29.3397L43.8127 6.46297ZM14.4969 47.1931V35.1068C14.4969 32.8771 16.3108 31.0631 18.5405 31.0631H47.1531L53.4216 27.4439C54.4572 26.846 54.8133 25.517 54.2155 24.4814L45.8834 10.0497L6.25989 32.9263L14.4969 47.1931Z" fill="#873873"/>
<path opacity="0.4" d="M48.6287 19.338C48.3699 18.8896 47.7962 18.736 47.3481 18.9948L38.3812 24.1719C37.9329 24.4307 37.7792 25.0041 38.0381 25.4525C38.2117 25.7532 38.5268 25.9213 38.8508 25.9213C39.0098 25.9213 39.1712 25.8808 39.3187 25.7956L48.2855 20.6186C48.7339 20.3597 48.8875 19.7863 48.6287 19.338Z" fill="#873873"/>
<path opacity="0.4" d="M50.3563 24.2053C50.8047 23.9464 50.9583 23.373 50.6994 22.9247C50.4406 22.4763 49.867 22.3227 49.4188 22.5816L45.8322 24.6524C45.3838 24.9113 45.2302 25.4846 45.489 25.933C45.6628 26.2337 45.9778 26.4019 46.3018 26.4019C46.4608 26.4019 46.6221 26.3614 46.7696 26.2761L50.3563 24.2053Z" fill="#873873"/>
<path opacity="0.4" fill-rule="evenodd" clip-rule="evenodd" d="M33.9072 43.292H23.4824C22.414 43.292 21.5449 42.4229 21.5449 41.3546V39.213C21.5449 38.1446 22.414 37.2755 23.4824 37.2755H33.9072C34.9755 37.2755 35.8446 38.1446 35.8446 39.213V41.3546C35.8446 42.4229 34.9755 43.292 33.9072 43.292ZM23.4824 39.1505C23.448 39.1505 23.4199 39.1785 23.4199 39.213V41.3546C23.4199 41.3891 23.448 41.4171 23.4824 41.4171H33.9072C33.9416 41.4171 33.9697 41.3891 33.9697 41.3546V39.213C33.9697 39.1785 33.9416 39.1505 33.9072 39.1505H23.4824Z" fill="#873873"/>
<path opacity="0.4" d="M19.5759 53.8418C19.0582 53.8418 18.6384 54.2615 18.6384 54.7793C18.6384 55.297 19.0582 55.7168 19.5759 55.7168H23.7175C24.2352 55.7168 24.6549 55.297 24.6549 54.7793C24.6549 54.2615 24.2352 53.8418 23.7175 53.8418H19.5759Z" fill="#873873"/>
<path opacity="0.4" d="M27.859 55.7168H40.2838C40.8016 55.7168 41.2212 55.297 41.2212 54.7793C41.2212 54.2615 40.8016 53.8418 40.2838 53.8418H27.859C27.3413 53.8418 26.9215 54.2615 26.9215 54.7793C26.9215 55.297 27.3413 55.7168 27.859 55.7168Z" fill="#873873"/>
<path opacity="0.4" d="M44.4253 55.7168H50.6377C51.1555 55.7168 51.5751 55.297 51.5751 54.7793C51.5751 54.2615 51.1555 53.8418 50.6377 53.8418H44.4253C43.9074 53.8418 43.4878 54.2615 43.4878 54.7793C43.4878 55.297 43.9075 55.7168 44.4253 55.7168Z" fill="#873873"/>
</svg>
