<svg width="64" height="64" viewBox="0 0 64 64" fill="none" xmlns="http://www.w3.org/2000/svg">
<path fill-rule="evenodd" clip-rule="evenodd" d="M54.6426 32.9375H51.8554C51.6325 37.7129 49.7174 42.0534 46.6969 45.3708L51.717 50.3908C52.7052 49.671 53.9205 49.2449 55.234 49.2449C55.9889 49.2449 56.7257 49.3841 57.4244 49.6586C57.9062 49.8481 58.1434 50.3923 57.954 50.8741C57.7645 51.356 57.2199 51.5931 56.7385 51.4038C56.2592 51.2154 55.753 51.1199 55.2339 51.1199C52.9656 51.1199 51.1201 52.9652 51.1201 55.2336C51.1201 57.502 52.9656 59.3474 55.2339 59.3474C57.5021 59.3474 59.3476 57.5019 59.3476 55.2336C59.3476 54.7874 59.2766 54.3483 59.1369 53.9289C58.9731 53.4376 59.2386 52.9067 59.7299 52.743C60.2206 52.5794 60.7518 52.8449 60.9156 53.336C61.1193 53.9471 61.2225 54.5855 61.2225 55.2337C61.2225 58.536 58.536 61.2225 55.2337 61.2225C51.9315 61.2225 49.245 58.5359 49.245 55.2337C49.245 53.9204 49.6711 52.7051 50.3909 51.7168L45.3708 46.6968C42.0534 49.7175 37.7129 51.6325 32.9375 51.8554V54.6425C35.0956 55.0786 36.7256 56.9896 36.7256 59.2744C36.7256 61.8801 34.6058 64 32 64C29.3942 64 27.2744 61.8801 27.2744 59.2743C27.2744 56.9895 28.9044 55.0785 31.0625 54.6424V51.8553C26.2871 51.6325 21.9466 49.7174 18.6292 46.6966L13.6088 51.717C14.3285 52.7052 14.7545 53.9204 14.7545 55.2337C14.7545 58.5356 12.0682 61.222 8.76625 61.222C5.46425 61.222 2.778 58.5358 2.778 55.2337C2.778 51.9317 5.46425 49.2454 8.76625 49.2454C10.0796 49.2454 11.2948 49.6715 12.283 50.3911L17.3035 45.3708C14.2826 42.0534 12.3676 37.7129 12.1447 32.9375H9.3575C8.92138 35.0956 7.01038 36.7256 4.72563 36.7256C2.11987 36.7256 0 34.6058 0 32C0 29.3942 2.11987 27.2744 4.72563 27.2743C7.01038 27.2743 8.92138 28.9042 9.3575 31.0624H12.1446C12.3675 26.287 14.2825 21.9465 17.3034 18.6291L12.2832 13.6091C11.295 14.3289 10.0798 14.755 8.76625 14.755C5.464 14.755 2.7775 12.0685 2.7775 8.76625C2.7775 6.10025 4.56738 3.73037 7.13037 3.00312C7.62812 2.86212 8.14675 3.151 8.28813 3.64913C8.4295 4.14725 8.14025 4.66563 7.64213 4.807C5.88188 5.30638 4.6525 6.9345 4.6525 8.76625C4.6525 11.0345 6.49787 12.88 8.76612 12.88C11.0344 12.88 12.8799 11.0345 12.8799 8.76625C12.8799 7.39637 12.2013 6.1205 11.0642 5.35337C10.6351 5.06375 10.522 4.48112 10.8116 4.05188C11.101 3.62263 11.6836 3.50962 12.1131 3.79912C13.7674 4.91537 14.755 6.77225 14.755 8.76625C14.755 10.0796 14.3289 11.2949 13.6091 12.2832L18.6292 17.3032C21.9466 14.2825 26.2871 12.3675 31.0625 12.1446V9.3575C28.9044 8.92138 27.2744 7.01038 27.2744 4.72563C27.2744 2.11987 29.3942 0 32 0C34.6058 0 36.7256 2.11987 36.7256 4.72563C36.7256 7.01038 35.0956 8.92138 32.9375 9.3575V12.1447C37.7129 12.3675 42.0534 14.2826 45.3708 17.3034L50.3913 12.283C49.6715 11.2948 49.2455 10.0796 49.2455 8.76625C49.2455 5.46437 51.9317 2.778 55.2337 2.778C58.5358 2.778 61.222 5.46425 61.222 8.76625C61.222 12.0682 58.5358 14.7546 55.2337 14.7546C53.9204 14.7546 52.7052 14.3285 51.717 13.6089L46.6965 18.6292C49.7174 21.9466 51.6324 26.2871 51.8553 31.0625H54.6425C55.0786 28.9044 56.9896 27.2744 59.2744 27.2744C61.8801 27.2744 64 29.3942 64 32C64 34.6058 61.8801 36.7256 59.2745 36.7256C56.9898 36.7256 55.0788 35.0956 54.6426 32.9375ZM62.125 32C62.125 30.4281 60.8463 29.1494 59.2744 29.1494C57.7026 29.1494 56.4238 30.4281 56.4238 32C56.4238 33.5719 57.7025 34.8506 59.2744 34.8506C60.8463 34.8506 62.125 33.5719 62.125 32ZM55.2337 4.653C57.5019 4.653 59.347 6.49825 59.347 8.76625C59.347 11.0344 57.5017 12.8796 55.2337 12.8796C52.9657 12.8796 51.1205 11.0344 51.1205 8.76625C51.1205 6.49812 52.9657 4.653 55.2337 4.653ZM32 1.875C30.4283 1.875 29.1494 3.15375 29.1494 4.72563C29.1494 6.29738 30.4283 7.57625 32 7.57625C33.5718 7.57625 34.8506 6.2975 34.8506 4.72563C34.8506 3.15375 33.5718 1.875 32 1.875ZM4.72563 34.8506C3.15375 34.8506 1.875 33.5719 1.875 32C1.875 30.4281 3.15375 29.1494 4.72563 29.1494C6.2975 29.1494 7.57613 30.4281 7.57613 32C7.57613 33.5719 6.29738 34.8506 4.72563 34.8506ZM50.003 32C50.003 22.0731 41.9269 13.997 32 13.997C22.0731 13.997 13.997 22.073 13.997 32C13.997 41.927 22.0731 50.003 32 50.003C41.9269 50.003 50.003 41.9269 50.003 32ZM8.76625 59.347C6.49812 59.347 4.653 57.5018 4.653 55.2338C4.653 52.9656 6.49825 51.1204 8.76625 51.1204C11.0342 51.1204 12.8795 52.9656 12.8795 55.2338C12.8795 57.5019 11.0342 59.347 8.76625 59.347ZM32 62.125C33.5718 62.125 34.8506 60.8463 34.8506 59.2744C34.8506 57.7026 33.5718 56.4238 32 56.4238C30.4283 56.4238 29.1494 57.7025 29.1494 59.2744C29.1494 60.8463 30.4283 62.125 32 62.125Z" fill="#873873"/>
<path opacity="0.4" fill-rule="evenodd" clip-rule="evenodd" d="M26.6881 43.5437H21.3938C20.876 43.5437 20.4563 43.124 20.4565 42.6062V37.0512C20.4565 33.749 23.1424 31.0625 26.4439 31.0625H27.1399C25.6726 29.7347 24.7491 27.8165 24.7491 25.6865C24.7491 21.6882 28.0019 18.4355 32.0001 18.4355C35.9984 18.4355 39.2511 21.6882 39.2511 25.6865C39.2511 27.8165 38.3276 29.7347 36.8604 31.0625H37.5564C40.8579 31.0625 43.5438 33.749 43.5438 37.0512V42.6062C43.5438 43.124 43.1241 43.5437 42.6063 43.5437H37.3119C37.31 43.5437 37.3081 43.5439 37.3062 43.544C37.3053 43.5441 37.3043 43.5441 37.3034 43.5441C37.3019 43.5441 37.3005 43.544 37.2991 43.5439C37.2977 43.5438 37.2963 43.5437 37.2949 43.5437H34.1875C33.6696 43.5437 33.25 43.124 33.25 42.6062C33.25 42.0885 33.6696 41.6687 34.1875 41.6687H36.3656V40.0812C36.3656 39.5635 36.7853 39.1437 37.3031 39.1437C37.821 39.1437 38.2406 39.5635 38.2406 40.0812V41.6687H41.6685V37.0512C41.6685 34.783 39.8238 32.9375 37.5561 32.9375H26.4436C24.1761 32.9375 22.3313 34.783 22.3313 37.0512V41.6687H25.7591V40.0812C25.7591 39.5635 26.1788 39.1437 26.6966 39.1437C27.2145 39.1437 27.6341 39.5635 27.6341 40.0812V41.6687H29.8125C30.3304 41.6687 30.75 42.0885 30.75 42.6062C30.75 43.124 30.3304 43.5437 29.8125 43.5437H26.7051C26.7037 43.5437 26.7023 43.5438 26.7009 43.5439C26.6995 43.544 26.6981 43.5441 26.6966 43.5441C26.6938 43.5441 26.691 43.5437 26.6881 43.5437ZM32 20.3105C29.0356 20.3105 26.624 22.7222 26.624 25.6865C26.624 28.6509 29.0356 31.0625 32 31.0625C34.9644 31.0625 37.376 28.6509 37.376 25.6865C37.376 22.7221 34.9644 20.3105 32 20.3105Z" fill="#873873"/>
</svg>
