<svg width="38" height="64" viewBox="0 0 38 64" fill="none" xmlns="http://www.w3.org/2000/svg">
<path d="M34.7153 19.007L28.5406 17.3677C28.263 17.2939 27.9661 17.3533 27.7379 17.5288C27.5098 17.7041 27.3761 17.9756 27.3761 18.2633V62.1466H10.6139V44.3818C10.6139 43.8699 10.1991 43.4551 9.68716 43.4551C9.17526 43.4551 8.76047 43.8699 8.76047 44.3818V63.0733C8.76047 63.5852 9.17526 64 9.68716 64H28.3028C28.8147 64 29.2295 63.5852 29.2295 63.0733V19.4682L35.734 21.1952C36.3491 21.3583 36.9822 21.1008 37.3082 20.5541C37.6345 20.0074 37.5606 19.3283 37.1246 18.8643L28.1379 9.30205C27.7874 8.9289 27.201 8.91111 26.828 9.2614C26.4551 9.61194 26.4369 10.1984 26.7874 10.5714L34.7153 19.007Z" fill="#873873"/>
<path opacity="0.4" fill-rule="evenodd" clip-rule="evenodd" d="M21.226 26.9849C20.7339 26.5543 19.9873 26.5982 19.5491 27.0836L10.2702 37.3601L6.09789 34.0183C5.58043 33.6038 4.82492 33.6875 4.41077 34.2052V34.2052C3.99676 34.7227 4.08069 35.4779 4.59822 35.8919L9.97383 40.1918C10.3085 40.4595 10.7939 40.4195 11.0802 40.1006L21.3285 28.6857C21.7742 28.1892 21.7281 27.4242 21.226 26.9849V26.9849Z" fill="#873873"/>
<path d="M2.25616 21.1952L8.76059 19.4682V29.9536C8.76059 30.4653 9.17538 30.8803 9.68728 30.8803C10.1992 30.8803 10.614 30.4653 10.614 29.9536V18.2633C10.614 17.9756 10.4803 17.7042 10.2522 17.5288C10.024 17.3533 9.72732 17.2939 9.44943 17.3677L3.27479 19.007L18.9949 2.27992L24.3111 7.9366C24.6616 8.30975 25.248 8.32755 25.621 7.97725C25.9939 7.62672 26.0121 7.0403 25.6616 6.66728L19.6702 0.292095C19.4951 0.105643 19.2508 0 18.9949 0C18.739 0 18.4947 0.105643 18.3196 0.292095L0.865375 18.8643C0.429333 19.3283 0.355445 20.0074 0.681765 20.5541C1.00796 21.1008 1.63997 21.3581 2.25616 21.1952V21.1952Z" fill="#873873"/>
</svg>
