<svg width="65" height="64" viewBox="0 0 65 64" fill="none" xmlns="http://www.w3.org/2000/svg">
<path opacity="0.4" d="M63.7908 43.67L57.5984 38.7924C57.1911 38.4713 56.6003 38.5414 56.2793 38.949C55.9583 39.3566 56.0284 39.9472 56.436 40.2682L62.1241 44.7487L47.4125 56.3368V50.4948C47.4125 49.976 46.992 49.5554 46.4731 49.5554H39.3096C37.9742 49.5554 36.8878 50.6419 36.8878 51.9773V63.0606C36.8878 63.5794 37.3083 64 37.8272 64C38.3461 64 38.7666 63.5794 38.7666 63.0606V51.9773C38.7666 51.6778 39.0102 51.4342 39.3096 51.4342H45.5337V57.3786C45.5337 57.909 45.8302 58.3824 46.3074 58.614C46.7849 58.8455 47.3401 58.7854 47.7566 58.4573L63.7907 45.8275C64.1234 45.5654 64.3144 45.1723 64.3144 44.7488C64.3144 44.3252 64.1235 43.9319 63.7908 43.67V43.67Z" fill="#873873"/>
<path d="M46.473 39.9419C46.9919 39.9419 47.4124 39.5213 47.4124 39.0025V33.1604L53.2689 37.7734C53.6763 38.0945 54.2671 38.0243 54.588 37.6168C54.909 37.2092 54.8389 36.6186 54.4313 36.2976L47.7565 31.04C47.3397 30.7118 46.7845 30.6515 46.3073 30.8834C45.8301 31.115 45.5336 31.5883 45.5336 32.1187V38.0631H38.8476C38.8204 38.0631 38.7935 38.064 38.7664 38.0642V26.747C38.7664 26.2282 38.346 25.8076 37.8271 25.8076C37.3081 25.8076 36.8877 26.2282 36.8877 26.747V34.3967C34.8225 30.9939 31.2972 28.6163 27.2743 28.0477V17.8413C27.2743 17.3225 26.8538 16.9019 26.3349 16.9019H20.4929L32.0809 2.19026L43.669 16.9019H37.8271C37.3081 16.9019 36.8877 17.3225 36.8877 17.8413V22.7436C36.8877 23.2624 37.3081 23.683 37.8271 23.683C38.346 23.683 38.7664 23.2624 38.7664 22.7436V18.7806H44.7108C45.2412 18.7806 45.7146 18.4842 45.9462 18.007C46.1778 17.5298 46.1177 16.9745 45.7895 16.5578L33.1596 0.523549C32.8975 0.190883 32.5044 0 32.0809 0C31.6574 0 31.2642 0.190757 31.0023 0.523549L18.3724 16.5579C18.0442 16.9746 17.9842 17.5299 18.2158 18.0071C18.4473 18.4843 18.9207 18.7806 19.4511 18.7806H25.3955V27.9147H24.0087C23.4898 27.9147 23.0694 28.3353 23.0694 28.8541C23.0694 29.3729 23.4898 29.7935 24.0087 29.7935H25.4085C30.6085 29.7935 35.1666 33.3135 36.5271 38.2641C32.5941 38.9508 29.2432 41.3517 27.2743 44.6659V42.7265C27.2743 40.8961 25.785 39.4068 23.9546 39.4068H17.8669C17.348 39.4068 16.9275 39.8274 16.9275 40.3462V46.1882L2.21569 34.6002L16.9274 23.0121V28.8541C16.9274 29.3729 17.3479 29.7935 17.8668 29.7935H20.0052C20.5241 29.7935 20.9446 29.3729 20.9446 28.8541C20.9446 28.3353 20.5241 27.9147 20.0052 27.9147H18.8062V21.8849C18.8062 21.3704 18.5187 20.9114 18.0559 20.6868C17.5934 20.4624 17.0547 20.5204 16.6504 20.8388L0.507767 33.554C0.185121 33.8081 0 34.1895 0 34.6002C0 35.0109 0.185121 35.3923 0.507767 35.6464L16.6505 48.3618C17.0548 48.68 17.5931 48.7382 18.0561 48.5136C18.5189 48.289 18.8063 47.83 18.8063 47.3156V41.2857H23.9546C24.7492 41.2857 25.3955 41.9322 25.3955 42.7266V63.0606C25.3955 63.5794 25.816 64 26.3349 64C26.8538 64 27.2743 63.5794 27.2743 63.0606V51.5154C27.2743 45.1338 32.4661 39.942 38.8476 39.942H46.473V39.9419Z" fill="#873873"/>
</svg>
