<svg width="64" height="64" viewBox="0 0 64 64" fill="none" xmlns="http://www.w3.org/2000/svg">
<path fill-rule="evenodd" clip-rule="evenodd" d="M62.231 0H1.76912C0.793748 0 0 0.793748 0 1.76912V4.76199C0 5.73749 0.793748 6.53124 1.76912 6.53124H2.139V40.6249H1.76912C0.793748 40.6249 0 41.4187 0 42.394V45.3869C0 46.3624 0.793748 47.156 1.76912 47.156H19.3105L15.9046 62.125H15.7268C15.209 62.125 14.7893 62.5446 14.7893 63.0625C14.7893 63.5804 15.209 64 15.7268 64H23.4456C23.9635 64 24.3831 63.5804 24.3831 63.0625C24.3831 62.6415 24.1057 62.2855 23.7237 62.167L25.2247 55.5831H38.8029L40.3018 62.1578C39.9015 62.2646 39.6064 62.6286 39.6064 63.0625C39.6064 63.5804 40.026 64 40.5439 64H48.273C48.7909 64 49.2105 63.5804 49.2105 63.0625C49.2105 62.5446 48.7909 62.125 48.273 62.125H48.1232L44.7175 47.1562H62.2309C63.2064 47.1562 64 46.3624 64 45.387V42.3942C64 41.4187 63.2062 40.625 62.2309 40.625H61.861V26.5772C61.861 26.0593 61.4414 25.6397 60.9235 25.6397C60.4056 25.6397 59.986 26.0593 59.986 26.5772V40.6249H4.01399V6.53124H59.9861V22.2022C59.9861 22.7201 60.4058 23.1397 60.9236 23.1397C61.4415 23.1397 61.8611 22.7201 61.8611 22.2022V6.53124H62.231C63.2065 6.53124 64.0001 5.73749 64.0001 4.76212V1.76912C64.0001 0.793748 63.2064 0 62.231 0ZM21.8102 62.1251H17.8276L21.2335 47.1562H25.223L21.8102 62.1251ZM42.2178 62.1251H46.2004L42.7945 47.1562H38.8049L42.2178 62.1251ZM62.1251 42.4999V45.2812H34.1876C33.6697 45.2812 33.2501 45.7008 33.2501 46.2187C33.2501 46.7365 33.6697 47.1562 34.1876 47.1562H36.8818L38.3755 53.7083H25.6523L27.1461 47.1562H29.8126C30.3304 47.1562 30.7501 46.7365 30.7501 46.2187C30.7501 45.7008 30.3304 45.2812 29.8126 45.2812H1.875V42.4999H62.1251ZM1.875 4.65624H62.1251V1.875H1.875V4.65624Z" fill="#873873"/>
<path opacity="0.4" fill-rule="evenodd" clip-rule="evenodd" d="M24.4284 25.3261L29.9719 30.8696C30.1401 32.8627 31.815 34.4334 33.8509 34.4334C35.8842 34.4334 37.5575 32.8667 37.7293 30.8771L47.7121 20.8945L49.0052 22.1876C50.0161 23.1982 51.7451 22.6523 51.9984 21.251L53.4778 13.0671C53.6974 11.8537 52.6361 10.791 51.4214 11.0103V11.0105L43.2372 12.49C41.8303 12.7445 41.2938 14.4762 42.3006 15.4832L43.6592 16.8417L33.8554 26.6454H33.8531L28.26 21.0523C28.0679 19.0832 26.4035 17.5392 24.3849 17.5392C22.3787 17.5392 20.7225 19.0642 20.5135 21.0158L14.8679 26.6614C12.8808 26.8357 11.3168 28.5079 11.3168 30.5396C11.3168 32.6868 13.0636 34.4336 15.2108 34.4336C17.3579 34.4336 19.1048 32.6867 19.1048 30.5396L19.1045 30.5306L24.3094 25.3256C24.3718 25.3266 24.3662 25.3271 24.3657 25.3271C24.3652 25.3272 24.3687 25.3268 24.4284 25.3261ZM45.3043 17.8483C45.8592 17.2932 45.8591 16.39 45.3042 15.835L43.7685 14.2993L51.6058 12.8825L50.1889 20.7197L48.7188 19.2497C48.1624 18.6931 47.2618 18.6928 46.7052 19.2495L37.2727 28.6821C36.9512 28.0922 36.4812 27.5948 35.9138 27.2389L45.3043 17.8483ZM35.8699 30.5393C35.8699 29.4368 34.9577 28.5203 33.8509 28.5203C32.742 28.5203 31.8317 29.4366 31.8319 30.5393C31.8319 31.6526 32.7376 32.5583 33.8509 32.5583C34.9641 32.5583 35.8699 31.6526 35.8699 30.5393ZM27.8204 23.2642L31.7922 27.2361C31.2244 27.5913 30.7537 28.0881 30.4316 28.6776L26.4721 24.7181C27.0367 24.3579 27.5031 23.8571 27.8204 23.2642ZM13.1919 30.5394C13.1919 31.6527 14.0976 32.5584 15.2109 32.5584C16.3241 32.5584 17.2299 31.6527 17.2299 30.5394C17.2299 29.4288 16.309 28.5204 15.2109 28.5204C14.0976 28.5204 13.1919 29.4262 13.1919 30.5394ZM18.5095 28.4737C18.1531 27.9066 17.6554 27.4368 17.0651 27.1158L20.9384 23.2426C21.2521 23.8377 21.7153 24.3417 22.2779 24.7052L18.5095 28.4737ZM22.3659 21.4317V21.4343C22.3664 22.5367 23.2722 23.4522 24.3849 23.4522C25.499 23.4522 26.4039 22.5353 26.4039 21.4332C26.4039 20.32 25.4981 19.4142 24.3849 19.4142C23.2721 19.4142 22.3668 20.3192 22.3659 21.4317Z" fill="#873873"/>
</svg>
