<svg width="64" height="60" viewBox="0 0 64 60" fill="none" xmlns="http://www.w3.org/2000/svg">
<path d="M61.8126 0H45.8882C44.6821 0 43.7007 0.981375 43.7007 2.1875V36.3512C43.7007 36.869 44.1204 37.2887 44.6382 37.2887C45.1559 37.2887 45.5757 36.869 45.5757 36.3512V2.1875C45.5757 2.01525 45.7159 1.875 45.8882 1.875H61.8126C61.9848 1.875 62.1251 2.01525 62.1251 2.1875V57.185C62.1251 57.3574 61.9848 57.4975 61.8126 57.4975H45.8882C45.7159 57.4975 45.5757 57.3574 45.5757 57.185V40.4622C45.5757 39.9445 45.1559 39.5247 44.6382 39.5247C44.1204 39.5247 43.7007 39.9445 43.7007 40.4622V57.185C43.7007 58.3913 44.6821 59.3725 45.8882 59.3725H61.8126C63.0187 59.3725 64.0001 58.3913 64.0001 57.185V2.1875C64.0001 0.981375 63.0187 0 61.8126 0Z" fill="#873873"/>
<path fill-rule="evenodd" clip-rule="evenodd" d="M59.7379 28.6334V7.30325C59.7379 6.09713 58.7565 5.11575 57.5504 5.11575H50.1511C48.945 5.11575 47.9636 6.09713 47.9636 7.30325V28.6334C47.9636 29.8395 48.945 30.8209 50.1511 30.8209H57.5504C58.7565 30.8209 59.7379 29.8395 59.7379 28.6334ZM57.8629 15.4459L49.8386 18.4856V14.3914L57.8629 11.3516V15.4459ZM57.8629 17.4509L49.8386 20.4906V24.5848L57.8629 21.545V17.4509ZM50.1511 6.99075H57.5504C57.7227 6.99075 57.8629 7.131 57.8629 7.30325V9.34675L49.8386 12.3865V7.30325C49.8386 7.13088 49.9789 6.99075 50.1511 6.99075ZM50.1511 28.9459H57.5504C57.7226 28.9459 57.8629 28.8056 57.8629 28.6334V23.5501L49.8386 26.5899V28.6334C49.8386 28.8056 49.9789 28.9459 50.1511 28.9459Z" fill="#873873"/>
<path fill-rule="evenodd" clip-rule="evenodd" d="M48.7531 47.7183C48.7531 44.9076 51.0397 42.621 53.8503 42.621C56.6609 42.621 58.9476 44.9078 58.9476 47.7183C58.9476 50.5289 56.6609 52.8155 53.8503 52.8155C51.0397 52.8155 48.7531 50.5289 48.7531 47.7183ZM50.6281 47.7183C50.6281 49.495 52.0736 50.9405 53.8503 50.9405C55.6271 50.9405 57.0726 49.495 57.0726 47.7183C57.0726 45.9415 55.6271 44.496 53.8503 44.496C52.0736 44.496 50.6281 45.9415 50.6281 47.7183Z" fill="#873873"/>
<path d="M39.9622 0H24.0377C22.8316 0 21.8502 0.981375 21.8502 2.1875V57.185C21.8502 58.3913 22.8316 59.3725 24.0377 59.3725H39.9622C41.1683 59.3725 42.1497 58.3913 42.1497 57.185V13.9246C42.1497 13.4069 41.73 12.9871 41.2122 12.9871C40.6945 12.9871 40.2747 13.4069 40.2747 13.9246V57.185C40.2747 57.3574 40.1345 57.4975 39.9622 57.4975H24.0377C23.8655 57.4975 23.7252 57.3574 23.7252 57.185V2.1875C23.7252 2.01525 23.8655 1.875 24.0377 1.875H39.9622C40.1345 1.875 40.2747 2.01525 40.2747 2.1875V9.8135C40.2747 10.3313 40.6945 10.751 41.2122 10.751C41.73 10.751 42.1497 10.3313 42.1497 9.8135V2.1875C42.1497 0.981375 41.1683 0 39.9622 0Z" fill="#873873"/>
<path fill-rule="evenodd" clip-rule="evenodd" d="M37.8877 28.6334V7.30325C37.8877 6.09713 36.9063 5.11575 35.7002 5.11575H28.3009C27.0948 5.11575 26.1134 6.09713 26.1134 7.30325V28.6334C26.1134 29.8395 27.0948 30.8209 28.3009 30.8209H35.7002C36.9063 30.8209 37.8877 29.8395 37.8877 28.6334ZM36.0127 15.4459L27.9884 18.4856V14.3914L36.0127 11.3516V15.4459ZM36.0127 17.4509L27.9884 20.4906V24.5848L36.0127 21.545V17.4509ZM28.3009 6.99075H35.7002C35.8724 6.99075 36.0127 7.131 36.0127 7.30325V9.34675L27.9884 12.3865V7.30325C27.9884 7.13088 28.1285 6.99075 28.3009 6.99075ZM28.3009 28.9459H35.7002C35.8724 28.9459 36.0127 28.8056 36.0127 28.6334V23.5501L27.9884 26.5899V28.6334C27.9884 28.8056 28.1287 28.9459 28.3009 28.9459Z" fill="#873873"/>
<path fill-rule="evenodd" clip-rule="evenodd" d="M26.9027 47.7183C26.9027 44.9076 29.1893 42.621 32 42.621C34.8106 42.621 37.0972 44.9078 37.0972 47.7183C37.0972 50.5289 34.8106 52.8155 32 52.8155C29.1893 52.8155 26.9027 50.5289 26.9027 47.7183ZM28.7777 47.7183C28.7777 49.495 30.2232 50.9405 32 50.9405C33.7767 50.9405 35.2222 49.495 35.2222 47.7183C35.2222 45.9415 33.7767 44.496 32 44.496C30.2232 44.496 28.7777 45.9415 28.7777 47.7183Z" fill="#873873"/>
<path opacity="0.4" d="M18.1119 0H2.1875C0.981375 0 0 0.981375 0 2.1875V57.185C0 58.3913 0.981375 59.3725 2.1875 59.3725H18.1119C19.318 59.3725 20.2994 58.3913 20.2994 57.185V39.4879C20.2994 38.9701 19.8796 38.5504 19.3619 38.5504C18.8441 38.5504 18.4244 38.9701 18.4244 39.4879V57.185C18.4244 57.3574 18.2841 57.4975 18.1119 57.4975H2.1875C2.01525 57.4975 1.875 57.3574 1.875 57.185V2.1875C1.875 2.01525 2.01525 1.875 2.1875 1.875H18.1119C18.2841 1.875 18.4244 2.01525 18.4244 2.1875V35.3769C18.4244 35.8946 18.8441 36.3144 19.3619 36.3144C19.8796 36.3144 20.2994 35.8946 20.2994 35.3769V2.1875C20.2994 0.981375 19.318 0 18.1119 0Z" fill="#873873"/>
<path opacity="0.4" fill-rule="evenodd" clip-rule="evenodd" d="M16.0372 28.6334V7.30325C16.0372 6.09713 15.0558 5.11575 13.8497 5.11575H6.45044C5.24431 5.11575 4.26294 6.09713 4.26294 7.30325V28.6334C4.26294 29.8395 5.24431 30.8209 6.45044 30.8209H13.8497C15.0558 30.8209 16.0372 29.8395 16.0372 28.6334ZM14.1622 15.4459L6.13794 18.4856V14.3914L14.1622 11.3516V15.4459ZM14.1622 17.4509L6.13794 20.4906V24.5848L14.1622 21.545V17.4509ZM6.45044 6.99075H13.8497C14.0219 6.99075 14.1622 7.131 14.1622 7.30325V9.34675L6.13794 12.3865V7.30325C6.13794 7.13088 6.27819 6.99075 6.45044 6.99075ZM6.45044 28.9459H13.8497C14.0219 28.9459 14.1622 28.8056 14.1622 28.6334V23.5501L6.13794 26.5899V28.6334C6.13794 28.8056 6.27819 28.9459 6.45044 28.9459Z" fill="#873873"/>
<path opacity="0.4" fill-rule="evenodd" clip-rule="evenodd" d="M5.05249 47.7183C5.05249 44.9076 7.33912 42.621 10.1497 42.621C12.9604 42.621 15.247 44.9078 15.247 47.7183C15.247 50.5289 12.9604 52.8155 10.1497 52.8155C7.33912 52.8155 5.05249 50.5289 5.05249 47.7183ZM6.92749 47.7183C6.92749 49.495 8.37299 50.9405 10.1497 50.9405C11.9265 50.9405 13.372 49.495 13.372 47.7183C13.372 45.9415 11.9265 44.496 10.1497 44.496C8.37299 44.496 6.92749 45.9415 6.92749 47.7183Z" fill="#873873"/>
</svg>
