<svg width="57" height="64" viewBox="0 0 57 64" fill="none" xmlns="http://www.w3.org/2000/svg">
<path fill-rule="evenodd" clip-rule="evenodd" d="M53.5841 17.6019L56.4181 20.4357C57.175 21.1927 57.175 22.4242 56.4176 23.1812L53.5394 26.0595L55.0006 27.5208C55.3675 27.8876 55.3675 28.4823 55.0006 28.8491L49.9725 33.8773V52.0392C49.9725 52.2852 49.8716 52.5293 49.6975 52.7034L38.676 63.7249C38.5019 63.8989 38.258 64 38.0117 64H0.939375C0.420625 64 0 63.5794 0 63.0606V16.407C0 15.8882 0.420625 15.4676 0.939375 15.4676C1.45812 15.4676 1.87875 15.8882 1.87875 16.407V62.1216H37.0725V52.0394C37.0725 51.5206 37.493 51.1 38.0119 51.1H48.0941V35.7559L48.0598 35.7903C47.9088 35.942 47.7617 36.0897 47.5511 36.1603C47.2163 36.2726 46.8374 36.1837 46.5875 35.934C46.2206 35.5672 46.2206 34.9725 46.5875 34.6056L48.0941 33.099V31.505L35.1632 44.4359C35.044 44.5552 34.8904 44.6418 34.7269 44.683L29.3114 46.0369L27.3699 47.9782C27.0079 48.3401 26.4034 48.3402 26.0414 47.9782C25.6745 47.6114 25.6745 47.0168 26.0414 46.6499L27.9829 44.7085L29.3368 39.293C29.378 39.1294 29.4651 38.9764 29.5839 38.8566L48.1015 20.3391C48.0971 20.3022 48.0942 20.265 48.0942 20.227V1.87863H1.879V12.0235C1.879 12.5423 1.45837 12.9629 0.939625 12.9629C0.420875 12.9629 0.00025 12.5423 0.00025 12.0235V0.939375C0.00025 0.420625 0.420875 0 0.939625 0H49.0335C49.5524 0 49.9729 0.420625 49.9729 0.939375V18.4675L50.8386 17.6019C51.587 16.8535 52.8358 16.8535 53.5841 17.6019ZM38.9514 52.9785V60.793L46.7659 52.9785H38.9514ZM30.1222 43.8977L30.7571 41.3581L32.6619 43.2627L30.1222 43.8977ZM31.5765 39.5208L34.4991 42.4433L50.883 26.0594L47.9604 23.1369L31.5765 39.5208ZM49.9729 31.2204V29.6264L52.2114 27.3879L53.0082 28.1849L49.9729 31.2204ZM52.2115 24.7309L55.0896 21.8527L55.0897 21.8527C55.0943 21.8481 55.108 21.8344 55.108 21.8084C55.108 21.7822 55.0942 21.7685 55.0898 21.764L52.2558 18.9301L52.2556 18.9299C52.2507 18.9252 52.237 18.9119 52.2114 18.9119C52.1854 18.9119 52.1716 18.9256 52.1671 18.9301L49.2889 21.8084L52.2115 24.7309Z" fill="#873873"/>
<path opacity="0.4" d="M22.9826 18.6614H15.9689C15.4501 18.6614 15.0295 19.0821 15.0295 19.6008C15.0295 20.1196 15.4501 20.5402 15.9689 20.5402H22.9826C23.5014 20.5402 23.922 20.1196 23.922 19.6008C23.922 19.0821 23.5015 18.6614 22.9826 18.6614Z" fill="#873873"/>
<path opacity="0.4" d="M34.0042 23.6712H15.969C15.4502 23.6712 15.0296 24.0918 15.0296 24.6106C15.0296 25.1293 15.4502 25.55 15.969 25.55H34.0042C34.5231 25.55 34.9436 25.1293 34.9436 24.6106C34.9436 24.0918 34.5231 23.6712 34.0042 23.6712Z" fill="#873873"/>
<path opacity="0.4" d="M19.9767 28.681H15.9689C15.4501 28.681 15.0295 29.1017 15.0295 29.6204C15.0295 30.1392 15.4501 30.5598 15.9689 30.5598H19.9767C20.4955 30.5598 20.9161 30.1392 20.9161 29.6204C20.9161 29.1015 20.4956 28.681 19.9767 28.681Z" fill="#873873"/>
<path opacity="0.4" d="M34.0042 28.681H23.9846C23.4659 28.681 23.0452 29.1017 23.0452 29.6204C23.0452 30.1392 23.4659 30.5598 23.9846 30.5598H34.0042C34.5231 30.5598 34.9436 30.1392 34.9436 29.6204C34.9435 29.1015 34.5231 28.681 34.0042 28.681Z" fill="#873873"/>
</svg>
