<svg width="70" height="60" viewBox="0 0 70 60" fill="none" xmlns="http://www.w3.org/2000/svg">
<path fill-rule="evenodd" clip-rule="evenodd" d="M60.9627 17.3433C60.7771 17.0477 60.4526 16.8682 60.1035 16.8682H52.6132V9.87055C54.8803 9.40089 56.5894 7.38982 56.5894 4.98715C56.5894 2.23724 54.3506 0 51.5986 0C48.8487 0 46.6116 2.23724 46.6116 4.98715C46.6116 7.38955 48.3191 9.40035 50.5841 9.87028V16.8682H32.7371C32.1768 16.8682 31.7225 17.3225 31.7225 17.8827C31.7225 18.443 32.1768 18.8973 32.7371 18.8973H39.8451L47.3487 30.8475L39.845 42.8013H33.7439V37.4199C33.7439 36.8596 33.2896 36.4053 32.7294 36.4053C32.1691 36.4053 31.7148 36.8596 31.7148 37.4199V42.8013H22.5431L29.7082 31.3868C29.9153 31.057 29.9153 30.6377 29.7082 30.3079L22.5435 18.8973H28.0552C28.6155 18.8973 29.0697 18.443 29.0697 17.8827C29.0697 17.3225 28.6155 16.8682 28.0552 16.8682H20.7084H11.8301V9.87041C14.095 9.40048 15.8026 7.38955 15.8026 4.98728C15.8026 2.23737 13.5653 0.00013527 10.8155 0.00013527C8.06577 0.00013527 5.82853 2.23737 5.82853 4.98728C5.82853 7.38969 7.53605 9.40048 9.80102 9.87041V16.8684H1.01466C0.645509 16.8684 0.305439 17.0688 0.126882 17.392C-0.05181 17.715 -0.0408531 18.1096 0.155289 18.4222L7.95349 30.8476L0.155154 43.2768C-0.0409884 43.5894 -0.0519453 43.984 0.126747 44.307C0.305439 44.63 0.645374 44.8305 1.01453 44.8305H6.63961C7.1999 44.8305 7.65414 44.3763 7.65414 43.816C7.65414 43.2557 7.1999 42.8014 6.63961 42.8014H2.84893L10.0108 31.3867C10.2176 31.0569 10.2176 30.6379 10.0108 30.3081L2.84933 18.8974H9.80115V22.5803C9.80115 23.1406 10.2554 23.5948 10.8157 23.5948C11.376 23.5948 11.8302 23.1406 11.8302 22.5803V18.8974H20.1477L27.6513 30.8476L20.1476 42.8014H11.3216C10.7613 42.8014 10.3071 43.2557 10.3071 43.816C10.3071 44.3763 10.7613 44.8305 11.3216 44.8305H31.7148V50.1259C29.4499 50.5963 27.7423 52.6087 27.7423 55.0129C27.7423 57.7628 29.9796 60 32.7294 60C35.4793 60 37.7164 57.7628 37.7164 55.0129C37.7164 52.6087 36.0088 50.5963 33.7439 50.1259V44.8305H60.1035C60.4526 44.8305 60.7771 44.651 60.9627 44.3553L69.1033 31.3868C69.3104 31.057 69.3104 30.6377 69.1033 30.3079L60.9627 17.3433ZM48.6408 4.98715C48.6408 3.35606 49.9678 2.02906 51.5988 2.02906C53.2319 2.02906 54.5605 3.35606 54.5605 4.98715C54.5605 6.61824 53.2319 7.94524 51.5988 7.94524C49.9677 7.94538 48.6408 6.61824 48.6408 4.98715ZM10.8155 2.02906C9.18459 2.02906 7.85759 3.35606 7.85759 4.98715C7.85759 6.61824 9.18445 7.94538 10.8155 7.94524C12.4465 7.94524 13.7735 6.61824 13.7735 4.98715C13.7735 3.35606 12.4466 2.02906 10.8155 2.02906ZM35.6873 55.0128C35.6873 56.6439 34.3603 57.9709 32.7293 57.9709C31.0984 57.9709 29.7714 56.6439 29.7714 55.0128C29.7714 53.3796 31.0984 52.051 32.7293 52.051C34.3604 52.0508 35.6873 53.3796 35.6873 55.0128ZM42.2406 42.8013H59.5425L67.0464 30.8475L59.5428 18.8973H52.6134V22.5801C52.6134 23.1404 52.1592 23.5947 51.5989 23.5947C51.0386 23.5947 50.5844 23.1404 50.5844 22.5801V18.8973H42.241L49.4058 30.3079C49.6129 30.6377 49.6129 31.057 49.4058 31.3868L42.2406 42.8013Z" fill="#873873"/>
</svg>
