<svg width="64" height="46" viewBox="0 0 64 46" fill="none" xmlns="http://www.w3.org/2000/svg">
<path fill-rule="evenodd" clip-rule="evenodd" d="M60.8751 0.565817C63.0201 1.82852 63.5148 4.01358 62.8014 5.76456C64.1124 7.10587 64.3937 9.19719 63.4176 10.8554L59.0148 18.3325C58.7521 18.7783 58.1774 18.9272 57.7306 18.6645C57.2848 18.4018 57.1358 17.8271 57.3985 17.3808L61.8019 9.90373C62.2423 9.15568 62.2208 8.24992 61.8087 7.53703L55.6622 17.9746C55.4928 18.2621 55.2521 18.4824 54.9757 18.6274V26.3481C54.9757 26.8657 54.5558 27.2856 54.0382 27.2856C53.5201 27.2856 53.1007 26.8657 53.1007 26.3481V20.1479L45.5509 32.9678C45.1978 33.5674 44.5655 33.9023 43.9151 33.9057L42.6656 36.0278C42.0948 36.9971 40.8424 37.3208 39.8736 36.75L39.6275 36.6055C38.6592 36.0347 38.335 34.7827 38.9053 33.8139L39.1226 33.4448H14.3193C13.8013 33.4448 13.3818 33.0249 13.3818 32.5073C13.3818 31.9892 13.8013 31.5698 14.3193 31.5698H40.1085C39.676 30.6221 40.1181 29.899 40.3315 29.55L40.3568 29.5085L40.378 29.4731H14.3193C13.8013 29.4731 13.3818 29.0537 13.3818 28.5356C13.3818 28.0175 13.8013 27.5981 14.3193 27.5981H41.4825L42.7169 25.5014H14.3193C13.8013 25.5014 13.3818 25.082 13.3818 24.5639C13.3818 24.0459 13.8013 23.6264 14.3193 23.6264H43.8214L45.0557 21.5297H14.3193C13.8013 21.5297 13.3818 21.1103 13.3818 20.5922C13.3818 20.0742 13.8013 19.6547 14.3193 19.6547H46.1597L48.5196 15.6479C48.171 15.2114 48.0533 14.6244 48.2174 14.0829H29.4961C28.9786 14.0829 28.5586 13.663 28.5586 13.1454C28.5586 12.6274 28.9786 12.2074 29.4961 12.2074H49.2638L55.2643 2.01748C56.4112 0.0706987 58.9278 -0.58067 60.8751 0.565817ZM40.8253 35.1343C40.9009 35.1787 41.0045 35.1533 41.0494 35.0766L42.1636 33.1845L41.9734 33.0724C41.9111 33.0357 41.8642 33.0081 41.6353 32.8735L40.5211 34.7651C40.4771 34.8403 40.504 34.9453 40.5792 34.9897L40.8253 35.1343ZM43.9351 32.0161C43.9268 32.0307 43.9078 32.0351 43.8936 32.0268L43.0331 31.52L41.837 30.8154C41.8072 30.7978 41.7969 30.7588 41.8145 30.729L50.0777 16.6972C50.5711 16.9876 50.9999 17.2402 51.4417 17.5005L52.2149 17.956L43.9351 32.0161ZM54.1183 16.9003L60.921 5.34854C61.5426 4.29239 61.1896 2.92715 60.1334 2.30557L59.9239 2.18203C58.8673 1.55996 57.5021 1.91299 56.88 2.96914L50.0777 14.5209C50.2032 14.5947 53.3849 16.4682 54.1183 16.9003Z" fill="#873873"/>
<path fill-rule="evenodd" clip-rule="evenodd" d="M53.1007 30.7231C53.1007 30.2051 53.5201 29.7856 54.0382 29.7856C54.5558 29.7856 54.9757 30.2055 54.9757 30.7231V42.8325C54.9757 44.3115 53.7721 45.5152 52.2931 45.5152H2.68262C1.20313 45.5152 0 44.3115 0 42.8325V14.8901C0 13.4111 1.20313 12.2075 2.68262 12.2075H25.1212C25.6387 12.2075 26.0587 12.6274 26.0587 13.1454C26.0587 13.663 25.6387 14.083 25.1212 14.083H9.83547V43.6397H52.2931C52.7384 43.6397 53.1007 43.2774 53.1007 42.8325V30.7231ZM2.68262 43.6397H7.96047V14.083H2.68262C2.23731 14.083 1.875 14.4448 1.875 14.8901V42.8325C1.875 43.2774 2.23731 43.6397 2.68262 43.6397Z" fill="#873873"/>
<path opacity="0.4" d="M32.9439 38.2212C33.089 38.0327 33.5182 37.6411 34.3678 38.0781C34.9801 38.3935 35.5406 38.5215 36.0367 38.5215C37.1471 38.5215 37.9366 37.8818 38.2706 37.2715C39.005 36.0762 37.3263 35.1807 36.6373 36.3501C36.525 36.5293 36.1617 36.8931 35.2262 36.4116C33.3038 35.4209 31.8951 36.4492 31.4186 37.1313C30.5484 38.2466 31.9449 39.3896 32.9439 38.2212V38.2212Z" fill="#873873"/>
</svg>
