<svg width="59" height="64" viewBox="0 0 59 64" fill="none" xmlns="http://www.w3.org/2000/svg">
<path opacity="0.3" fill-rule="evenodd" clip-rule="evenodd" d="M0 23.981C0 16.2802 6.26513 10.0151 13.9659 10.0151C21.6668 10.0151 27.9318 16.2802 27.9318 23.981C27.9318 31.6817 21.6666 37.9469 13.9659 37.9469C6.26501 37.9469 0 31.6817 0 23.981ZM1.87875 23.981C1.87875 30.6458 7.30113 36.0681 13.9659 36.0681C20.6308 36.0681 26.053 30.6458 26.053 23.981C26.053 17.3161 20.6308 11.8938 13.9659 11.8938C7.30088 11.8938 1.87875 17.3161 1.87875 23.981Z" fill="#873873"/>
<path opacity="0.3" fill-rule="evenodd" clip-rule="evenodd" d="M28.9965 45.9634C29.5153 45.9634 29.9359 45.5427 29.9359 45.024V39.0117C29.9359 38.493 29.5153 38.0724 28.9965 38.0724H2.9435C2.42475 38.0724 2.00412 38.493 2.00412 39.0117V44.0846H0.939498C0.420748 44.0846 0.00012207 44.5052 0.00012207 45.024V51.0362C0.00012207 51.555 0.420748 51.9756 0.939498 51.9756H2.00412V56.109H0.939498C0.420748 56.109 0.00012207 56.5296 0.00012207 57.0484V63.0606C0.00012207 63.5794 0.420748 64 0.939498 64H26.9925C27.5113 64 27.9319 63.5794 27.9319 63.0606V57.9878H28.9965C29.5153 57.9878 29.9359 57.5671 29.9359 57.0484V51.0361C29.9359 50.5174 29.5153 50.0967 28.9965 50.0967H27.9319V45.9634H28.9965ZM1.87875 50.0967V45.9634H26.053V50.0967H1.87875ZM1.87875 62.1213H26.053V57.9879H1.87875V62.1213ZM28.0571 51.9756V56.109H3.88288V51.9756H28.0571ZM3.88288 39.9511V44.0845H28.0571V39.9511H3.88288Z" fill="#873873"/>
<path d="M58.7808 17.3716L44.7522 0.336938C44.3822 -0.112313 43.6718 -0.112313 43.3018 0.336938L29.2733 17.3716C28.7782 17.9728 29.2212 18.9082 29.9985 18.9082H36.0734V48.03C36.0734 48.5487 36.494 48.9694 37.0128 48.9694H51.0413C51.5601 48.9694 51.9807 48.5487 51.9807 48.03V44.0845C51.9807 43.5657 51.5601 43.1451 51.0413 43.1451C50.5226 43.1451 50.1019 43.5657 50.1019 44.0845V47.0906H37.9523V17.9688C37.9523 17.4501 37.5317 17.0295 37.0129 17.0295H31.9893L44.0272 2.41194L56.0651 17.0295H51.0414C50.5227 17.0295 50.1021 17.4501 50.1021 17.9688V39.638C50.1021 40.1567 50.5227 40.5774 51.0414 40.5774C51.5602 40.5774 51.9808 40.1567 51.9808 39.638V18.9082H58.0557C58.8328 18.9082 59.2761 17.973 58.7808 17.3716Z" fill="#873873"/>
<path opacity="0.8" d="M51.0414 52.1009H37.0128C36.4941 52.1009 36.0734 52.5215 36.0734 53.0402C36.0734 53.559 36.4941 53.9796 37.0128 53.9796H51.0413C51.5601 53.9796 51.9807 53.559 51.9807 53.0402C51.9807 52.5215 51.5602 52.1009 51.0414 52.1009Z" fill="#873873"/>
<path opacity="0.6" d="M51.0414 57.111H37.0128C36.4941 57.111 36.0734 57.5316 36.0734 58.0504C36.0734 58.5691 36.4941 58.9897 37.0128 58.9897H51.0413C51.5601 58.9897 51.9807 58.5691 51.9807 58.0504C51.9807 57.5316 51.5602 57.111 51.0414 57.111Z" fill="#873873"/>
<path opacity="0.2" d="M51.0414 62.1212H37.0128C36.4941 62.1212 36.0734 62.5419 36.0734 63.0606C36.0734 63.5794 36.4941 64 37.0128 64H51.0413C51.5601 64 51.9807 63.5794 51.9807 63.0606C51.9808 62.5419 51.5602 62.1212 51.0414 62.1212Z" fill="#873873"/>
</svg>
