<svg width="60" height="64" viewBox="0 0 60 64" fill="none" xmlns="http://www.w3.org/2000/svg">
<path opacity="0.4" fill-rule="evenodd" clip-rule="evenodd" d="M3.46375 35.0199C3.9815 35.0199 4.40124 34.6002 4.40124 34.0824V10.2812C4.40124 10.1022 4.54674 9.9566 4.72574 9.95623H4.72599H50.1833H50.1839C50.363 9.95636 50.5087 10.1021 50.5087 10.2812V21.5825C50.5087 22.1002 50.9284 22.52 51.4462 22.52C51.9639 22.52 52.3837 22.1002 52.3837 21.5825V10.2812C52.3837 9.40361 51.8658 8.64648 51.1207 8.29373V6.24086C51.1207 5.36324 50.6029 4.60624 49.8579 4.25337V2.20025C49.858 0.986998 48.871 0 47.6578 0H7.25136C6.03812 0 5.05112 0.986998 5.05112 2.20025V4.25337C4.30612 4.60624 3.78837 5.36324 3.78837 6.24086V8.29411C3.04362 8.64698 2.52612 9.40386 2.52612 10.2812V34.0824C2.52625 34.6002 2.946 35.0199 3.46375 35.0199ZM5.66349 6.24086C5.66349 6.06149 5.80937 5.91561 5.98874 5.91561H48.9207C49.1 5.91561 49.2459 6.06149 49.2459 6.24086V8.08123H5.66349V6.24086ZM7.25149 1.875C7.07211 1.875 6.92624 2.02087 6.92624 2.20025V4.04074H47.9832V2.20025C47.9832 2.02087 47.8373 1.875 47.6579 1.875H7.25149Z" fill="#873873"/>
<path fill-rule="evenodd" clip-rule="evenodd" d="M30.1791 28.0323C33.3976 28.0323 36.4233 29.2856 38.6992 31.5614C40.975 33.8372 42.2283 36.8631 42.2283 40.0815C42.2283 43.3 40.975 46.3259 38.6992 48.6017C36.4235 50.8774 33.3976 52.1308 30.1791 52.1308C26.9606 52.1308 23.9347 50.8774 21.659 48.6017C19.3833 46.3259 18.1299 43.3 18.1299 40.0815C18.1299 36.8631 19.3833 33.8372 21.659 31.5614C23.9347 29.2857 26.9606 28.0323 30.1791 28.0323ZM30.179 50.2559C32.8967 50.2559 35.4516 49.1975 37.3733 47.2759C39.295 45.3542 40.3533 42.7993 40.3533 40.0815C40.3533 37.3638 39.295 34.8089 37.3733 32.8872C35.4516 30.9656 32.8967 29.9072 30.179 29.9072C27.4612 29.9072 24.9064 30.9656 22.9846 32.8872C21.063 34.8089 20.0046 37.3638 20.0046 40.0815C20.0046 42.7993 21.063 45.3542 22.9846 47.2759C24.9064 49.1975 27.4612 50.2559 30.179 50.2559Z" fill="#873873"/>
<path fill-rule="evenodd" clip-rule="evenodd" d="M54.9087 58.1283L59.18 62.3995C59.5462 62.7655 59.5462 63.3593 59.18 63.7254C58.997 63.9085 58.757 64 58.5171 64C58.2772 64 58.0372 63.9084 57.8542 63.7254L49.6435 55.5146L45.6121 59.546L48.4656 62.3995C48.8317 62.7655 48.8317 63.3591 48.4656 63.7253C48.2831 63.9079 48.0438 63.9993 47.8046 63.9998L47.8025 63.9999H11.0225C10.5048 63.9999 10.085 63.5801 10.085 63.0624C10.085 62.5446 10.5048 62.1249 11.0225 62.1249H45.5395L43.6234 60.2086C43.2572 59.8426 43.2572 59.249 43.6234 58.8829L44.0319 58.4744L42.1434 56.5859L41.7349 56.9945C41.5591 57.1704 41.3206 57.2691 41.072 57.2691C40.8234 57.2691 40.5849 57.1704 40.4091 56.9945L37.7139 54.2993C35.3657 55.542 32.7725 56.1639 30.1791 56.1639C26.0588 56.1639 21.9385 54.5955 18.8018 51.4588C17.6307 50.2875 16.6783 48.9792 15.9444 47.5849H1.88319L2.00719 62.1249H6.64755C7.1653 62.1249 7.58505 62.5446 7.58505 63.0624C7.58505 63.5801 7.1653 63.9999 6.64755 63.9999H1.07756C0.562816 63.9999 0.144442 63.585 0.140067 63.0704L6.68064e-05 46.6554C-0.00205819 46.4054 0.0956916 46.1648 0.271816 45.9873C0.447941 45.8098 0.687566 45.7099 0.937565 45.7099H2.52631V38.4574C2.52631 37.9397 2.94606 37.5199 3.46381 37.5199C3.98156 37.5199 4.40131 37.9397 4.40131 38.4574V45.7099H15.1073C13.1234 40.3729 14.0625 34.1872 17.9252 29.6544H7.50405C6.9863 29.6544 6.56655 29.2347 6.56655 28.7169V13.0595C6.56655 12.5417 6.9863 12.122 7.50405 12.122H20.131C20.6488 12.122 21.0685 12.5417 21.0685 13.0595V26.8184C27.3325 22.5117 35.9919 23.1397 41.5564 28.7042C46.1462 33.2941 47.3773 39.9897 45.251 45.7099H50.5087V25.9575C50.5087 25.4397 50.9285 25.02 51.4462 25.02C51.964 25.02 52.3837 25.4397 52.3837 25.9575V45.7099H53.9712C54.489 45.7099 54.9087 46.1297 54.9087 46.6474V58.1283ZM19.1935 13.997H8.44155V27.7794H19.1935V13.997ZM20.1275 50.133C14.5852 44.5907 14.5852 35.5724 20.1275 30.0301C22.8988 27.2589 26.5389 25.8733 30.179 25.8733C33.8191 25.8733 37.4592 27.2588 40.2305 30.0301C45.7729 35.5724 45.7729 44.5907 40.2305 50.133C34.688 55.6753 25.6699 55.6753 20.1275 50.133ZM41.5564 51.4588C40.8687 52.1465 40.1337 52.7588 39.3619 53.2957L41.0721 55.0058L45.1035 50.9744L43.3932 49.2643C42.8562 50.0362 42.244 50.771 41.5564 51.4588ZM43.4692 55.2603L45.3577 53.3718L47.2462 55.2603L45.3577 57.1488L43.4692 55.2603ZM48.5721 53.9344L48.9806 53.5259C49.3467 53.1598 49.9403 53.1598 50.3065 53.5259L53.0338 56.2533V47.5849H44.4139C44.4082 47.5954 44.4024 47.6058 44.3969 47.6163L47.0921 50.3115C47.268 50.4873 47.3667 50.7258 47.3667 50.9744C47.3667 51.223 47.268 51.4615 47.0921 51.6373L46.6836 52.0459L48.5721 53.9344Z" fill="#873873"/>
<path opacity="0.4" d="M47.4053 12.122H24.4241C23.9063 12.122 23.4866 12.5417 23.4866 13.0595C23.4866 13.5772 23.9063 13.997 24.4241 13.997H47.4053C47.923 13.997 48.3428 13.5772 48.3428 13.0595C48.3428 12.5417 47.923 12.122 47.4053 12.122Z" fill="#873873"/>
<path opacity="0.4" d="M48.3428 17.1001C48.3428 16.5823 47.923 16.1626 47.4053 16.1626H24.4241C23.9063 16.1626 23.4866 16.5823 23.4866 17.1001C23.4866 17.6178 23.9063 18.0376 24.4241 18.0376H47.4053C47.923 18.0376 48.3428 17.6178 48.3428 17.1001Z" fill="#873873"/>
<path opacity="0.4" d="M24.4243 20.2032C23.9066 20.2032 23.4868 20.623 23.4868 21.1407C23.4868 21.6585 23.9066 22.0782 24.4243 22.0782H39.8293C40.347 22.0782 40.7668 21.6585 40.7668 21.1407C40.7668 20.623 40.347 20.2032 39.8293 20.2032H24.4243Z" fill="#873873"/>
</svg>
