<svg width="51" height="64" viewBox="0 0 51 64" fill="none" xmlns="http://www.w3.org/2000/svg">
<path fill-rule="evenodd" clip-rule="evenodd" d="M44.9608 9.98614L49.7487 14.7738C49.9246 14.9498 50.0233 15.1882 50.0233 15.4368V54.3129C50.0233 55.8619 48.7631 57.1221 47.2141 57.1221H41.1928C40.6751 57.1221 40.2553 56.7025 40.2553 56.1846C40.2553 55.6667 40.6751 55.2471 41.1928 55.2471H47.2141C47.7292 55.2471 48.1483 54.828 48.1483 54.3129V16.374L38.9607 16.3725C38.443 16.3724 38.0233 15.9528 38.0233 15.435V6.24976H7.20764C6.69239 6.24976 6.27326 6.66889 6.27326 7.18401V12.2558C6.27326 12.7736 5.85351 13.1933 5.33576 13.1933C4.81801 13.1933 4.39826 12.7736 4.39826 12.2558V7.18414C4.39826 5.63514 5.65851 4.37488 7.20764 4.37488H38.961C39.2096 4.37488 39.448 4.47363 39.6238 4.64938L43.086 8.11127V2.84476C43.086 2.31 42.6508 1.875 42.1161 1.875H2.80926C2.29413 1.875 1.875 2.29413 1.875 2.80926V49.9382C1.875 50.4533 2.29413 50.8725 2.80926 50.8725H4.39826V16.6199C4.39826 16.102 4.81801 15.6824 5.33576 15.6824C5.85351 15.6824 6.27326 16.102 6.27326 16.6199V54.313C6.27326 54.8281 6.69239 55.2472 7.20764 55.2472H13.3018C13.8195 55.2472 14.2393 55.6669 14.2393 56.1847C14.2393 56.7026 13.8195 57.1222 13.3018 57.1222H7.20764C5.65851 57.1222 4.39826 55.862 4.39826 54.313V52.7475H2.80926C1.26025 52.7475 0 51.4872 0 49.9382V2.80926C0 1.26025 1.26025 0 2.80926 0H42.116C43.6847 0 44.9608 1.27613 44.9608 2.84476V9.98614ZM39.8983 7.57551V14.4977L46.8221 14.4989L39.8983 7.57551Z" fill="#873873"/>
<path opacity="0.4" d="M38.4479 21.9321H16.0201C15.5024 21.9321 15.0826 22.3517 15.0826 22.8696C15.0826 23.3874 15.5024 23.8071 16.0201 23.8071H38.4479C38.9657 23.8071 39.3854 23.3874 39.3854 22.8696C39.3854 22.3517 38.9657 21.9321 38.4479 21.9321Z" fill="#873873"/>
<path opacity="0.4" d="M38.4479 27.4611H16.0201C15.5024 27.4611 15.0826 27.8807 15.0826 28.3986C15.0826 28.9164 15.5024 29.3361 16.0201 29.3361H38.4479C38.9657 29.3361 39.3854 28.9164 39.3854 28.3986C39.3854 27.8807 38.9657 27.4611 38.4479 27.4611Z" fill="#873873"/>
<path opacity="0.4" d="M38.448 33.1003H34.0171C33.4993 33.1003 33.0796 33.52 33.0796 34.0378C33.0796 34.5557 33.4993 34.9753 34.0171 34.9753H38.448C38.9657 34.9753 39.3855 34.5557 39.3855 34.0378C39.3855 33.52 38.9657 33.1003 38.448 33.1003Z" fill="#873873"/>
<path opacity="0.4" d="M29.6049 34.9753C30.1227 34.9753 30.5424 34.5557 30.5424 34.0378C30.5424 33.52 30.1227 33.1003 29.6049 33.1003H16.0201C15.5024 33.1003 15.0826 33.52 15.0826 34.0378C15.0826 34.5557 15.5024 34.9753 16.0201 34.9753H29.6049Z" fill="#873873"/>
<path d="M30.6708 53.1266L28.1715 55.6257V46.5624C28.1715 46.0446 27.7518 45.6249 27.234 45.6249C26.7163 45.6249 26.2965 46.0446 26.2965 46.5624V55.6257L23.7972 53.1266C23.4311 52.7606 22.8375 52.7605 22.4715 53.1267C22.1054 53.4928 22.1054 54.0865 22.4715 54.4525L26.5711 58.552C26.7541 58.735 26.9941 58.8265 27.234 58.8265C27.4739 58.8265 27.7139 58.735 27.8969 58.552L31.9965 54.4525C32.3626 54.0863 32.3626 53.4927 31.9965 53.1267C31.6305 52.7605 31.0369 52.7606 30.6708 53.1266Z" fill="#873873"/>
<path opacity="0.4" fill-rule="evenodd" clip-rule="evenodd" d="M15.4591 52.2258C15.4591 45.7334 20.7414 40.4514 27.234 40.4514C33.7266 40.4514 39.0089 45.7334 39.0089 52.2258C39.0089 58.718 33.7266 64 27.234 64C20.7414 64 15.4591 58.718 15.4591 52.2258ZM17.3341 52.2259C17.3341 57.6844 21.7752 62.1251 27.234 62.1251C32.6928 62.1251 37.1339 57.6844 37.1339 52.2259C37.1339 46.7674 32.6928 42.3265 27.234 42.3265C21.7752 42.3265 17.3341 46.7674 17.3341 52.2259Z" fill="#873873"/>
</svg>
