<svg width="64" height="64" viewBox="0 0 64 64" fill="none" xmlns="http://www.w3.org/2000/svg">
<path fill-rule="evenodd" clip-rule="evenodd" d="M63.9999 25.8245C63.9999 38.5374 63.7455 49.0935 63.7189 50.163C63.7199 50.1788 63.7206 50.1947 63.7209 50.2107C63.7299 50.7219 63.3315 51.146 62.8205 51.1639C62.7638 51.1659 57.2475 51.3572 49.0583 51.4979C48.91 58.1207 48.6695 62.7035 48.666 62.7693C48.6405 63.2498 48.2554 63.6328 47.7749 63.6559L47.7741 63.6559C47.7301 63.658 46.1326 63.734 43.5919 63.813C43.5821 63.8134 43.5721 63.8135 43.5623 63.8135C43.0579 63.8135 42.6416 63.4128 42.6258 62.9051C42.6097 62.3876 43.0162 61.9551 43.5337 61.939C44.9814 61.894 46.1196 61.85 46.8353 61.8203C46.9559 59.241 47.2972 51.1002 47.2972 41.6256C47.2972 36.989 47.2148 34.6112 47.1194 31.858V31.8578L47.0874 30.9261C45.4939 30.9865 43.9292 31.006 42.5733 31.006C40.1276 31.006 38.3617 30.9426 38.3326 30.9415C37.8494 30.9237 37.4591 30.5412 37.4312 30.0586C37.2257 26.4931 37.3211 22.8936 37.3869 21.2214C37.1129 21.2132 36.8646 21.2054 36.6304 21.198L36.5243 21.1946C35.2707 21.1547 34.3648 21.126 31.8628 21.126C24.9783 21.126 19.0334 21.3424 16.8904 21.4309C16.7891 23.593 16.5326 29.662 16.4529 37.1286C16.4474 37.6428 16.0287 38.0561 15.5156 38.0561H15.5054C14.9876 38.0504 14.5725 37.6263 14.578 37.1086C14.6781 27.7371 15.0557 20.553 15.0596 20.4816C15.0852 20.0011 15.4702 19.6181 15.9507 19.595L15.9519 19.5949C16.0771 19.589 23.2409 19.2509 31.8628 19.2509C34.3922 19.2509 35.3112 19.28 36.5803 19.3204L36.5839 19.3205L36.6227 19.3217C37.1153 19.3373 37.6669 19.3547 38.3907 19.3729C38.5977 19.3781 38.7972 19.4517 38.9579 19.5822C39.1799 19.7625 44.4444 24.0565 48.7227 29.36C48.8505 29.5187 48.9233 29.7146 48.9299 29.9183C48.9514 30.5818 48.9727 31.1978 48.9933 31.7928C49.0893 34.5636 49.1722 36.9563 49.1722 41.6254C49.1722 44.4452 49.142 47.1475 49.0965 49.6219C55.3282 49.5144 59.9964 49.378 61.8634 49.3192C61.929 46.4556 62.1249 36.9714 62.1249 25.8245C62.1249 25.3066 62.5445 24.887 63.0624 24.887C63.5803 24.887 63.9999 25.3066 63.9999 25.8245ZM39.2267 22.279C39.1779 23.9402 39.1433 26.4823 39.2593 29.092C40.5629 29.1236 43.1946 29.1648 46.0448 29.0843C43.5281 26.1911 40.8328 23.6946 39.2267 22.279Z" fill="#873873"/>
<path opacity="0.4" d="M7.85754 6.54297C7.33979 6.54297 6.92004 6.96259 6.92004 7.48047C6.92004 7.99834 7.33979 8.41797 7.85754 8.41797H11.3178C11.8355 8.41797 12.2553 7.99834 12.2553 7.48047C12.2553 6.96259 11.8355 6.54297 11.3178 6.54297L7.85754 6.54297Z" fill="#873873"/>
<path opacity="0.4" d="M15.6555 8.41797H19.1158C19.6335 8.41797 20.0533 7.99834 20.0533 7.48047C20.0533 6.96259 19.6335 6.54297 19.1158 6.54297H15.6555C15.1378 6.54297 14.718 6.96259 14.718 7.48047C14.718 7.99834 15.1378 8.41797 15.6555 8.41797V8.41797Z" fill="#873873"/>
<path opacity="0.4" d="M56.1424 8.41797C56.6603 8.41797 57.0799 7.99834 57.0799 7.48047C57.0799 6.96259 56.6603 6.54297 56.1424 6.54297H23.4534C22.9356 6.54297 22.5159 6.96259 22.5159 7.48047C22.5159 7.99834 22.9356 8.41797 23.4534 8.41797H56.1424Z" fill="#873873"/>
<path d="M38.6519 62.0599C36.3392 62.103 34.0551 62.1249 31.8629 62.1249C24.9802 62.1249 19.0337 61.9085 16.8906 61.82C16.7701 59.2408 16.4287 51.1 16.4287 41.6254C16.4287 41.1075 16.009 40.6879 15.4912 40.6879C14.9735 40.6879 14.5537 41.1075 14.5537 41.6254C14.5537 44.4434 14.5838 47.144 14.6293 49.6172C8.53561 49.5104 3.97637 49.3772 2.13675 49.3192C2.07087 46.4553 1.875 36.9712 1.875 25.8244C1.875 21.828 1.89887 18.0702 1.93237 14.7571C5.28436 14.807 17.5978 14.9745 31.9999 14.9745C46.4017 14.9745 58.715 14.8071 62.0673 14.7571C62.0884 16.8361 62.1056 19.0907 62.1156 21.4702C62.1179 21.9867 62.5371 22.4038 63.053 22.4038H63.057C63.5749 22.4016 63.9927 21.9801 63.9906 21.4625C63.9432 10.2166 63.7338 1.75337 63.7249 1.39837C63.7124 0.902623 63.316 0.502249 62.8204 0.484874C62.6818 0.479999 48.7664 0 31.9999 0C27.2811 0 22.3593 0.0376249 17.3716 0.112C16.8538 0.11975 16.4405 0.545624 16.4482 1.06325C16.4558 1.58112 16.8808 1.99225 17.3996 1.98675C22.3781 1.91262 27.2903 1.875 31.9999 1.875C46.3208 1.875 58.5556 2.22587 61.8711 2.33C61.9083 3.97662 61.9868 7.78736 62.0466 12.8821C58.7118 12.9319 46.4014 13.0993 31.9999 13.0993C17.5981 13.0993 5.28736 12.9319 1.953 12.8821C2.01287 7.79061 2.0915 3.97862 2.12862 2.32987C3.74574 2.27887 7.48274 2.169 12.515 2.07087C13.0326 2.06075 13.4441 1.63287 13.434 1.11512C13.424 0.597374 12.9926 0.18525 12.4784 0.196C5.66949 0.328999 1.22362 0.483249 1.1795 0.484874C0.683874 0.502249 0.287374 0.902873 0.274999 1.3985C0.263749 1.84625 0 12.5164 0 25.8244C0 38.4071 0.249125 48.8768 0.280124 50.127C0.277749 50.1492 0.276124 50.1715 0.275374 50.1942C0.25725 50.7117 0.662124 51.1458 1.1795 51.1639C1.235 51.1659 6.62999 51.3529 14.6675 51.4931C14.8156 58.1184 15.0562 62.7035 15.0597 62.7693C15.0853 63.2498 15.4703 63.6328 15.9508 63.6559C16.0225 63.6593 23.2081 64 31.8629 64C34.0666 64 36.3626 63.978 38.6869 63.9349C39.2047 63.9253 39.6165 63.4978 39.6068 62.98C39.597 62.4623 39.1657 62.0519 38.6519 62.0599Z" fill="#873873"/>
<path opacity="0.4" d="M41.1181 36.4545H22.6074C22.0897 36.4545 21.6699 36.8742 21.6699 37.392C21.6699 37.9099 22.0897 38.3295 22.6074 38.3295H41.1181C41.636 38.3295 42.0556 37.9099 42.0556 37.392C42.0556 36.8742 41.636 36.4545 41.1181 36.4545Z" fill="#873873"/>
<path opacity="0.4" d="M22.6074 44.4805H37.767C38.2849 44.4805 38.7045 44.0609 38.7045 43.543C38.7045 43.0252 38.2849 42.6055 37.767 42.6055H22.6074C22.0897 42.6055 21.6699 43.0252 21.6699 43.543C21.6699 44.0609 22.0897 44.4805 22.6074 44.4805Z" fill="#873873"/>
<path opacity="0.4" d="M41.1181 48.7564H22.6074C22.0897 48.7564 21.6699 49.176 21.6699 49.6939C21.6699 50.2118 22.0897 50.6314 22.6074 50.6314H41.1181C41.636 50.6314 42.0556 50.2118 42.0556 49.6939C42.0556 49.176 41.636 48.7564 41.1181 48.7564Z" fill="#873873"/>
<path opacity="0.4" d="M37.767 56.7823C38.2849 56.7823 38.7045 56.3627 38.7045 55.8448C38.7045 55.3269 38.2849 54.9073 37.767 54.9073H22.6074C22.0897 54.9073 21.6699 55.3269 21.6699 55.8448C21.6699 56.3627 22.0897 56.7823 22.6074 56.7823H37.767Z" fill="#873873"/>
</svg>
