<svg width="64" height="64" viewBox="0 0 64 64" fill="none" xmlns="http://www.w3.org/2000/svg">
<path fill-rule="evenodd" clip-rule="evenodd" d="M63.965 62.82L59.7913 47.2363C59.7047 46.9128 59.4519 46.66 59.1283 46.5733C58.8052 46.4864 58.4597 46.5789 58.2227 46.8159L55.0882 49.9505L49.5794 44.4418L49.5803 27.5104C49.5803 25.3319 48.8757 23.2627 47.5775 21.559L55.087 14.0496L58.2035 17.1651C58.3919 17.3533 58.6478 17.4679 58.914 17.4587C59.3373 17.4441 59.6863 17.1559 59.7913 16.7638L63.965 1.18007C64.0515 0.856572 63.959 0.511447 63.7223 0.274572C63.4854 0.0376976 63.14 -0.0546773 62.8168 0.0319475L54.5513 2.2467C54.0554 2.37957 53.7253 2.87757 53.8432 3.37732C53.9652 3.89432 54.4888 4.20457 54.9984 4.06807L61.7339 2.26332L58.4003 14.7103L55.7497 12.0608C55.3834 11.6948 54.79 11.6948 54.4239 12.0609L46.3167 20.1682L43.8293 17.6809L51.9362 9.57294C52.3023 9.20681 52.3023 8.61331 51.9362 8.24719L49.2869 5.59794L50.923 5.15957C51.4188 5.02669 51.7487 4.52882 51.6308 4.02919C51.5087 3.51219 50.9853 3.20169 50.4755 3.33832L47.2593 4.20007C47.002 4.26894 46.7749 4.43332 46.6499 4.66844C46.451 5.04232 46.5259 5.48857 46.8129 5.77557L49.9475 8.91019L42.5037 16.3552L40.7669 14.6184C38.9074 12.7589 36.4351 11.7348 33.8049 11.7348L20.0618 11.7351C19.1643 11.7351 18.3345 12.0297 17.6633 12.5268L14.0465 8.91006L17.1616 5.79494C17.35 5.60657 17.4646 5.35057 17.4555 5.08432C17.441 4.66094 17.1528 4.31207 16.7607 4.20707L1.17697 0.0320726C0.785474 -0.0729273 0.360349 0.0851975 0.13635 0.445072C-0.00440025 0.671197 -0.0326502 0.950071 0.0362247 1.20732L4.19697 16.7378C4.26584 16.9947 4.42984 17.2217 4.66447 17.3468C5.03822 17.5462 5.48509 17.4716 5.77247 17.1842L8.90696 14.0497L16.0232 21.1659V36.6215L16.0657 42.793L8.90709 49.9516L5.77247 46.816C5.53559 46.579 5.18984 46.4866 4.86697 46.5733C4.54334 46.6599 4.29072 46.9126 4.20397 47.2363L0.0363497 62.792C-0.0310252 63.0436 -0.00690025 63.3164 0.12685 63.5399C0.303974 63.8356 0.614099 64.0001 0.934349 64C1.01522 64 1.09672 63.9896 1.17685 63.9681L16.7606 59.7944C17.1527 59.6894 17.441 59.3403 17.4553 58.9169C17.4643 58.6506 17.3497 58.3946 17.1612 58.2063L14.0463 55.0914L17.6596 51.4781C18.3352 51.9766 19.1685 52.2653 20.0617 52.2653H24.0787C24.5921 52.2653 25.0397 51.8698 25.0551 51.3566C25.0711 50.8258 24.6454 50.3903 24.1179 50.3903H20.0617C19.8183 50.3903 19.5831 50.3504 19.3632 50.276C18.5258 49.9931 17.9846 49.1779 17.9785 48.294L17.898 36.6152V15.7738C17.898 14.5788 18.8667 13.6101 20.0617 13.6101H32.5044C34.7401 13.6166 36.5569 15.4372 36.5569 17.6743V20.7187C36.5569 22.9494 38.3653 24.7578 40.5961 24.7578H43.6404C45.8703 24.7578 47.6859 26.563 47.7042 28.7887V48.2263C47.7042 49.4213 46.7354 50.39 45.5404 50.39H28.3524C27.8391 50.39 27.3914 50.7855 27.3761 51.2986C27.3601 51.8295 27.7857 52.265 28.3132 52.265H45.5419C46.0149 52.265 46.4688 52.1825 46.8909 52.0324L49.9485 55.09L46.8324 58.2061C46.644 58.3945 46.5293 58.6505 46.5383 58.9168C46.5527 59.3403 46.8409 59.6893 47.233 59.7943L62.8168 63.968C62.897 63.9895 62.9784 63.9999 63.0593 63.9999C63.3047 63.9999 63.544 63.9035 63.7223 63.7253C63.9592 63.4886 64.0515 63.1435 63.965 62.82ZM9.56996 12.0609C9.39409 11.8852 9.15571 11.7863 8.90696 11.7863C8.65821 11.7863 8.41996 11.8851 8.24397 12.0609L5.59484 14.7102L2.2601 2.26332L14.707 5.59794L12.0577 8.24719C11.6916 8.61331 11.6916 9.20681 12.0577 9.57294L16.4516 13.9668C16.1781 14.5109 16.0232 15.1244 16.0232 15.7738V18.5142L9.56996 12.0609ZM14.7068 58.4033L12.0577 55.7541C11.6916 55.388 11.6916 54.7945 12.0577 54.4283L16.4496 50.0363L16.4451 50.0271C16.2161 49.5644 16.1087 49.0509 16.1052 48.5346L16.0838 45.4265L9.56996 51.9404C9.39396 52.1163 9.15559 52.215 8.90696 52.215H8.90684C8.65809 52.215 8.41971 52.1161 8.24397 51.9403L5.59472 49.2901L2.2601 61.7368L14.7068 58.4033ZM43.6407 22.8828H40.5963C39.4031 22.8828 38.4322 21.9119 38.4322 20.7187V17.6743C38.4322 16.5201 38.1013 15.4417 37.5292 14.5291C38.2246 14.8974 38.8686 15.3719 39.4407 15.9442L45.3707 21.874C45.9429 22.4463 46.4174 23.0902 46.7858 23.7855C45.8732 23.2138 44.7948 22.8828 43.6407 22.8828ZM51.9373 55.753L49.2869 58.4034L61.7338 61.737L58.4002 49.2901L55.7512 51.9393C55.385 52.3054 54.7915 52.3054 54.4253 51.9393L49.5794 47.0935V48.2264C49.5794 49.2903 49.1654 50.2586 48.4909 50.9808L51.9373 54.4273C52.3034 54.7933 52.3034 55.3869 51.9373 55.753Z" fill="#873873"/>
<path opacity="0.4" d="M20.5453 32.528H45.0578C45.5757 32.528 45.9953 32.1083 45.9953 31.5905C45.9953 31.0728 45.5757 30.653 45.0578 30.653H20.5453C20.0275 30.653 19.6078 31.0728 19.6078 31.5905C19.6078 32.1083 20.0276 32.528 20.5453 32.528Z" fill="#873873"/>
<path opacity="0.4" d="M20.5453 36.1143H45.0578C45.5757 36.1143 45.9953 35.6945 45.9953 35.1768C45.9953 34.659 45.5757 34.2393 45.0578 34.2393H20.5453C20.0275 34.2393 19.6078 34.659 19.6078 35.1768C19.6078 35.6945 20.0276 36.1143 20.5453 36.1143Z" fill="#873873"/>
<path opacity="0.4" d="M20.5453 39.7005H45.0578C45.5757 39.7005 45.9953 39.2808 45.9953 38.763C45.9953 38.2453 45.5757 37.8255 45.0578 37.8255H20.5453C20.0275 37.8255 19.6078 38.2453 19.6078 38.763C19.6078 39.2808 20.0276 39.7005 20.5453 39.7005Z" fill="#873873"/>
<path opacity="0.4" d="M20.5453 43.2868H29.5498C30.0677 43.2868 30.4873 42.867 30.4873 42.3493C30.4873 41.8315 30.0677 41.4118 29.5498 41.4118H20.5453C20.0275 41.4118 19.6078 41.8315 19.6078 42.3493C19.6078 42.867 20.0276 43.2868 20.5453 43.2868Z" fill="#873873"/>
<path opacity="0.3" d="M20.5453 22.5813H29.5498C30.0677 22.5813 30.4873 22.1615 30.4873 21.6438C30.4873 21.126 30.0677 20.7063 29.5498 20.7063H20.5453C20.0275 20.7063 19.6078 21.126 19.6078 21.6438C19.6078 22.1615 20.0276 22.5813 20.5453 22.5813Z" fill="#873873"/>
</svg>
