<svg width="65" height="64" viewBox="0 0 65 64" fill="none" xmlns="http://www.w3.org/2000/svg">
<path opacity="0.4" d="M40.0657 12.1018H15.4666C14.9485 12.1018 14.5287 12.5216 14.5287 13.0396C14.5287 13.5577 14.9485 13.9774 15.4666 13.9774H40.0657C40.5837 13.9774 41.0035 13.5577 41.0035 13.0396C41.0035 12.5216 40.5837 12.1018 40.0657 12.1018Z" fill="#873873"/>
<path opacity="0.4" d="M40.0657 17.7963H15.4666C14.9485 17.7963 14.5287 18.2161 14.5287 18.7341C14.5287 19.2522 14.9485 19.672 15.4666 19.672H40.0657C40.5837 19.672 41.0035 19.2522 41.0035 18.7341C41.0035 18.2161 40.5837 17.7963 40.0657 17.7963Z" fill="#873873"/>
<path opacity="0.4" d="M40.0657 23.491H15.4666C14.9485 23.491 14.5287 23.9107 14.5287 24.4288C14.5287 24.9468 14.9485 25.3666 15.4666 25.3666H40.0657C40.5837 25.3666 41.0035 24.9468 41.0035 24.4288C41.0035 23.9107 40.5837 23.491 40.0657 23.491Z" fill="#873873"/>
<path opacity="0.4" d="M28.601 28.9767H15.0455C14.7601 28.9767 14.5287 29.3965 14.5287 29.9145C14.5287 30.4325 14.7601 30.8523 15.0455 30.8523H28.601C28.8865 30.8523 29.1178 30.4325 29.1178 29.9145C29.1178 29.3965 28.8865 28.9767 28.601 28.9767Z" fill="#873873"/>
<path opacity="0.4" d="M48.8048 45.5884H46.8538V40.7517C46.8538 40.1272 46.3477 39.6211 45.7231 39.6211C45.0986 39.6211 44.5925 40.1272 44.5925 40.7517V46.719C44.5925 47.3436 45.0986 47.8497 45.7231 47.8497H48.8048C49.4293 47.8497 49.9354 47.3436 49.9354 46.719C49.9354 46.0945 49.4293 45.5884 48.8048 45.5884Z" fill="#873873"/>
<path fill-rule="evenodd" clip-rule="evenodd" d="M59.4012 35.9422C59.8215 35.6396 60.4074 35.7343 60.7105 36.1544C62.8766 39.1587 64.0215 42.7095 64.0214 46.423C64.0214 56.1149 56.1365 64 46.4445 64C39.462 64 33.4177 59.907 30.5838 53.9945H14.6497C14.1316 53.9945 13.7119 53.5747 13.7119 53.0567C13.7119 52.5387 14.1316 52.1189 14.6497 52.1189H29.8153C29.2014 50.3317 28.8674 48.4156 28.8674 46.4228C28.8674 46.0236 28.8821 45.6277 28.9085 45.2349H1.87563V46.1149C1.87563 49.4255 4.56904 52.1189 7.87977 52.1189H10.9C11.4181 52.1189 11.8379 52.5387 11.8379 53.0567C11.8379 53.5747 11.4181 53.9945 10.9 53.9945H7.87977C3.53494 53.9945 0 50.4597 0 46.1149V44.2971C0 43.7791 0.419766 43.3593 0.937815 43.3593H7.85064V4.84238C7.85064 2.17223 10.0229 0 12.693 0H25.2155C25.7335 0 26.1533 0.419766 26.1533 0.937815C26.1533 1.45586 25.7335 1.87563 25.2155 1.87563H12.693C11.0572 1.87563 9.72627 3.20658 9.72627 4.84238V43.3593H29.1352C29.5094 41.2385 30.2658 39.2483 31.3295 37.4611L32.6152 35.5855C35.5687 31.8249 40.0201 29.2942 45.0621 28.9001V5.84784C45.0621 4.31532 45.6555 2.91948 46.6234 1.87563H28.9651C28.4471 1.87563 28.0273 1.45586 28.0273 0.937815C28.0273 0.419766 28.4471 0 28.9651 0H51.0063C54.0281 0 56.7576 2.55286 56.7576 5.84784V12.3847C56.7576 13.3836 55.9448 14.1964 54.9458 14.1964H46.9378V28.8536C51.0343 28.9682 54.9618 30.5076 58.0456 33.2192C58.4348 33.5611 58.4726 34.1538 58.1308 34.5427C57.7888 34.9319 57.196 34.9695 56.8072 34.6279C53.9424 32.1089 50.2621 30.7216 46.4446 30.7216C37.7868 30.7216 30.7432 37.7652 30.7432 46.4228C30.7432 55.0806 37.7868 62.1242 46.4446 62.1242C55.1023 62.1242 62.1459 55.0806 62.1459 46.4228C62.1459 43.1057 61.1234 39.9343 59.189 37.2515C58.8862 36.8312 58.9812 36.2452 59.4012 35.9422ZM54.8819 12.3208V5.84784C54.8819 3.65748 53.1001 1.87563 50.91 1.87563C48.7196 1.87563 46.9378 3.65748 46.9378 5.84784V12.3208H54.8819Z" fill="#873873"/>
</svg>
