<svg width="119" height="90" viewBox="0 0 119 90" fill="none" xmlns="http://www.w3.org/2000/svg">
<path d="M11.4175 0.000567165H44.8783C48.2041 0.000404284 51.0861 2.30483 51.8176 5.54922L68.7244 80.5419C69.0977 82.1977 68.7203 83.9338 67.6932 85.2851C66.6661 86.6364 65.0944 87.4647 63.3991 87.5482L29.001 89.243C25.1908 89.4307 21.8326 86.7629 21.1536 83.009L11.5624 29.9886L10.8488 30.1924L9.01319 20.143L9.74759 19.9594L7.07047 5.15942C6.8382 3.87593 7.19011 2.5557 8.0304 1.5581C8.87069 0.560507 10.1119 -0.0106328 11.4162 0.000149974L11.4175 0.000567165Z" fill="#3F3D56"/>
<path opacity="0.2" d="M40.4735 1.61719H44.3789C46.69 1.61721 48.6889 3.22705 49.1816 5.48497L65.4104 79.8658C65.5996 80.7324 65.4015 81.6384 64.868 82.347C64.3345 83.0557 63.5185 83.4965 62.6334 83.5543L28.3471 85.8016C26.3445 85.9328 24.5625 84.5397 24.2067 82.5646L10.3588 5.68481C10.1773 4.67749 10.4519 3.64158 11.1083 2.8563C11.7648 2.07102 12.7356 1.61721 13.7591 1.61719H17.4642C18.2015 1.61717 18.8471 2.1119 19.0388 2.82384C19.2081 3.4526 19.7783 3.88946 20.4295 3.88921H38.0194C39.3053 3.88918 40.3745 2.89929 40.4735 1.61719Z" fill="url(#paint0_linear_0:829)"/>
<path opacity="0.297658" d="M10.9071 79.8373C10.3946 83.2153 11.8168 86.2333 11.8168 86.2333C11.8168 86.2333 14.0737 83.774 14.5861 80.396C15.0986 77.018 13.6726 74 13.6726 74C13.6726 74 11.4196 76.4592 10.9071 79.8373Z" fill="#5E2750"/>
<path opacity="0.297658" d="M3.37832 87.2213C1.51873 87.2008 0.000274658 88.1977 0.000274658 88.1977C0.000274658 88.1977 1.49674 89.2279 3.35633 89.2484C5.21592 89.2689 6.73438 88.2712 6.73438 88.2712C6.73438 88.2712 5.23791 87.241 3.37832 87.2213Z" fill="#5E2750"/>
<path opacity="0.297658" d="M7.60723 82.0859C9.33794 83.988 9.7041 86.4737 9.7041 86.4737C9.7041 86.4737 7.26457 85.8748 5.53461 83.972C3.80466 82.0692 3.43774 79.5842 3.43774 79.5842C3.43774 79.5842 5.87651 80.1831 7.60723 82.0859Z" fill="#5E2750"/>
<path fill-rule="evenodd" clip-rule="evenodd" d="M67 54C67 45.729 60.271 39 52 39C43.729 39 37 45.729 37 54C37 62.271 43.729 69 52 69C60.271 69 67 62.271 67 54ZM47.5 49.5C47.5 46.95 49.45 45 52 45C54.55 45 56.5 46.95 56.5 49.5V51C57.4 51 58 51.6 58 52.5V58.5C58 59.4 57.4 60 56.5 60H47.5C46.6 60 46 59.4 46 58.5V52.5C46 51.6 46.6 51 47.5 51V49.5ZM52 47.25C53.2 47.25 54.25 48.3 54.25 49.5V51H52H49.75V49.5C49.75 48.3 50.8 47.25 52 47.25ZM53.5 55.5C53.5 54.6716 52.8284 54 52 54C51.1716 54 50.5 54.6716 50.5 55.5C50.5 56.3284 51.1716 57 52 57C52.8284 57 53.5 56.3284 53.5 55.5Z" fill="white"/>
<path d="M70.9427 87.6829C70.9427 88.8468 81.5957 88.9707 94.7072 89.7902C107.807 90.6089 118.472 88.8468 118.472 87.6829C118.472 86.5191 107.757 84.1776 94.7072 85.5757C81.5957 86.9805 70.9427 86.5191 70.9427 87.6829Z" fill="#E6E6E6"/>
<path d="M99.0573 64.7356C98.6925 64.4856 98.4571 64.0869 98.4147 63.6467C98.3722 63.2065 98.527 62.7701 98.8373 62.455L98.2578 49.5195L101.208 49.8506L101.037 62.5034C101.543 63.0719 101.544 63.9294 101.039 64.499C100.534 65.0685 99.682 65.17 99.0571 64.7351L99.0573 64.7356Z" fill="#A0616A"/>
<path d="M93.6748 86.6325L91.9956 86.9278L90.336 80.5914L92.5361 80.1558L93.6748 86.6325Z" fill="#A0616A"/>
<path d="M89.0312 89.056L94.3086 88.1282L93.9501 86.0894L90.7118 86.6587C89.5857 86.8567 88.8333 87.9301 89.0312 89.0562L89.0312 89.056Z" fill="#2F2E41"/>
<path d="M98.2839 87.473H96.579L95.768 80.897H98.2842L98.2839 87.473Z" fill="#A0616A"/>
<path d="M93.291 89.0564L98.6493 89.0567L98.6494 86.9864L95.3614 86.9863C94.218 86.9862 93.2911 87.913 93.291 89.0564Z" fill="#2F2E41"/>
<path d="M91.1711 85.1159C91.1977 85.116 91.2243 85.1144 91.2506 85.1112L93.2573 84.9461C93.442 84.9244 93.6096 84.8279 93.7211 84.6792C93.8327 84.5305 93.8783 84.3425 93.8474 84.1592L91.8553 74.33L93.1069 67.7281C93.128 67.6172 93.2276 67.5388 93.3404 67.5444C93.4532 67.55 93.5445 67.6379 93.5545 67.7503L95.3986 84.5252C95.4344 84.8925 95.7548 85.1654 96.1232 85.1422L98.0137 85.0719C98.3566 85.0475 98.6273 84.7711 98.6445 84.4279L98.4935 64.1568L88.6921 62.9316L88.0074 73.5062L88.0102 73.5175L90.5121 84.5974C90.5862 84.9013 90.8582 85.1154 91.1711 85.1159Z" fill="#2F2E41"/>
<circle r="3.41555" transform="matrix(-1 0 0 1 95.2612 37.7222)" fill="#A0616A"/>
<path d="M92.0427 65.6993C92.5769 65.7024 93.1008 65.5525 93.5525 65.2673C95.2073 64.2332 97.0862 64.6442 98.0591 64.9813C98.2547 65.0498 98.4709 65.0251 98.6461 64.9144C98.8193 64.8056 98.9332 64.6237 98.9554 64.4204L100.724 48.6193C101.021 45.9718 99.4261 43.4827 96.9324 42.7007C96.8387 42.6713 96.7434 42.6435 96.6466 42.6173C95.0758 42.1914 93.3969 42.4828 92.0614 43.4132C90.701 44.3537 89.8269 45.8483 89.6741 47.4951L88.1846 63.4022C88.164 63.611 88.2427 63.8173 88.397 63.9594C88.9193 64.4423 90.4348 65.6991 92.0427 65.6993Z" fill="#A33777"/>
<path d="M97.4306 52.0077L101.422 51.5688C101.652 51.5435 101.859 51.4195 101.99 51.229C102.121 51.0385 102.163 50.8004 102.104 50.5767L101.088 46.7044C101.006 45.9145 100.507 45.2293 99.7804 44.9096C99.0536 44.5899 98.2111 44.685 97.5739 45.1587C96.9367 45.6324 96.6028 46.4118 96.6995 47.1998L96.5487 51.1875C96.5399 51.4186 96.6322 51.642 96.8015 51.7996C96.9707 51.9571 97.2002 52.0332 97.43 52.008L97.4306 52.0077Z" fill="#A33777"/>
<path d="M88.2008 64.1818C87.8689 63.8897 87.6835 63.4655 87.6944 63.0236C87.7053 62.5816 87.9114 62.1671 88.2572 61.8917L89.2408 48.9807L92.1318 49.6315L90.4353 62.2049C90.8695 62.8302 90.7671 63.6816 90.1969 64.1862C89.6268 64.6907 88.7693 64.6889 88.2013 64.1818H88.2008Z" fill="#A0616A"/>
<path d="M93.2398 51.1963C93.4091 51.0388 93.5014 50.8154 93.4926 50.5844L93.3417 46.5967C93.4302 45.8128 93.0938 45.0413 92.4592 44.5727C91.8246 44.1041 90.9882 44.0096 90.265 44.3249C89.5419 44.6402 89.0419 45.3173 88.9534 46.1012L87.9374 49.9736C87.8787 50.1972 87.9203 50.4353 88.0513 50.6259C88.1823 50.8164 88.3897 50.9404 88.6195 50.9657L92.6106 51.4046C92.8405 51.4299 93.0701 51.3537 93.2392 51.196L93.2398 51.1963Z" fill="#CA4293"/>
<path d="M95.4645 41.2664C95.5254 41.2664 95.5861 41.2593 95.6453 41.2454L95.6627 41.2412C98.6656 40.7823 99.3294 39.0424 99.475 38.316C99.6257 37.564 99.4541 36.8381 99.0661 36.556C99.2777 35.8885 99.2437 35.296 98.965 34.7952C98.4783 33.9219 97.4241 33.6271 97.2824 33.5904C96.4399 32.9689 95.432 33.3837 95.2486 33.4678C93.6189 32.865 92.9957 33.3667 92.8834 33.4788C92.1549 33.6097 91.7109 33.891 91.5635 34.3154C91.2866 35.1124 92.1622 36.1038 92.1996 36.1457L92.2191 36.1673L93.5235 36.2295C93.7738 36.2415 94.0073 36.3591 94.1659 36.5531C94.3245 36.7471 94.3933 36.9993 94.3552 37.247C94.3199 37.405 94.2753 37.5608 94.2217 37.7136C93.9992 38.4097 93.8323 39.0045 94.0473 39.2306C94.1468 39.3199 94.2886 39.3445 94.4124 39.2939C94.6164 39.2394 94.7547 39.2508 94.8237 39.328C94.9308 39.4474 94.8981 39.75 94.7317 40.1798C94.6252 40.4568 94.6812 40.7699 94.8771 40.9929C95.0236 41.1656 95.2383 41.2656 95.4648 41.2664H95.4645Z" fill="#2F2E41"/>
<defs>
<linearGradient id="paint0_linear_0:829" x1="28.7475" y1="-40.4793" x2="95.727" y2="-11.1339" gradientUnits="userSpaceOnUse">
<stop stop-color="white"/>
<stop offset="1" stop-color="white" stop-opacity="0.01"/>
</linearGradient>
</defs>
</svg>
