<svg width="120" height="40" viewBox="0 0 120 40" fill="none" xmlns="http://www.w3.org/2000/svg">
<path fill-rule="evenodd" clip-rule="evenodd" d="M113.753 35.905H118.32C118.547 35.905 118.76 36.0125 118.894 36.1947C119.029 36.3768 119.069 36.6121 119.002 36.8286L118.203 39.425C118.111 39.7245 117.835 39.9288 117.521 39.9288H114.552C114.238 39.9288 113.962 39.7245 113.87 39.425L113.491 38.194C113.068 38.4003 112.561 38.3104 112.235 37.9714C111.909 37.6324 111.839 37.1218 112.062 36.7076C112.284 36.2934 112.749 36.0703 113.211 36.1553C113.346 35.9961 113.544 35.9045 113.753 35.905ZM112.245 37.2205C112.245 37.6478 112.591 37.9943 113.019 37.9943C113.152 37.9934 113.282 37.9578 113.398 37.891L113.071 36.8286C113.033 36.706 113.029 36.5754 113.06 36.4508C113.054 36.4505 113.048 36.4496 113.042 36.4488C113.034 36.4477 113.027 36.4466 113.019 36.4466C112.591 36.4466 112.245 36.7931 112.245 37.2205Z" fill="#E4E6E8"/>
<path fill-rule="evenodd" clip-rule="evenodd" d="M2.47837 32.655H7.04584C7.27232 32.655 7.48536 32.7625 7.61992 32.9447C7.75447 33.1268 7.79458 33.3621 7.72799 33.5786L7.08377 39.425C6.99166 39.7245 6.715 39.9288 6.4017 39.9288H3.43211C3.11878 39.9289 2.84209 39.7245 2.74996 39.425L2.21638 34.944C1.79378 35.1503 1.28632 35.0604 0.960357 34.7214C0.634394 34.3824 0.564407 33.8718 0.787129 33.4576C1.00985 33.0434 1.47439 32.8203 1.93693 32.9053C2.07168 32.7461 2.26981 32.6545 2.47837 32.655ZM0.970416 33.9705C0.970416 34.3978 1.31686 34.7443 1.74423 34.7443C1.87737 34.7434 2.00799 34.7078 2.12313 34.641L1.7963 33.5786C1.75845 33.456 1.75471 33.3254 1.78549 33.2008C1.77934 33.2005 1.77336 33.1996 1.76738 33.1988C1.75976 33.1977 1.75215 33.1966 1.74423 33.1966C1.31686 33.1966 0.970416 33.5431 0.970416 33.9705Z" fill="#E4E6E8"/>
<path d="M61.0051 28.9406C61.0051 28.2568 60.4508 27.7025 59.767 27.7025C59.0832 27.7025 58.5289 28.2568 58.5289 28.9406C58.5289 29.6244 59.0832 30.1787 59.767 30.1787C59.7824 30.1787 59.7974 30.177 59.8126 30.1764C60.1188 31.1715 60.2824 32.2051 60.2984 33.2461C60.3102 33.7651 60.2806 34.2842 60.2097 34.7985C60.1558 35.1634 60.0553 35.582 59.693 35.7525C59.4228 35.8796 59.6582 36.28 59.9273 36.1534C60.3359 35.9612 60.5347 35.5303 60.6238 35.1091C60.7254 34.5662 60.7722 34.0144 60.7636 33.4621C60.7684 32.3139 60.6007 31.1715 60.266 30.0732C60.7151 29.8755 61.005 29.4312 61.0051 28.9406Z" fill="#E6E6E6"/>
<path d="M60.6268 36.4013C60.6268 36.4013 58.9667 32.315 63.947 29.2502L60.6268 36.4013Z" fill="#E6E6E6"/>
<path d="M60.5378 36.327C60.5378 36.327 60.0314 33.4144 56.1118 33.4394L60.5378 36.327Z" fill="#E6E6E6"/>
<path d="M63.3151 39.904H56.5086C56.2422 39.904 55.9991 39.752 55.8826 39.5124L54.4006 36.4662C54.2957 36.2504 54.3092 35.9958 54.4364 35.7924C54.5637 35.589 54.7867 35.4655 55.0267 35.4655H64.797C65.0369 35.4655 65.26 35.589 65.3872 35.7924C65.5144 35.9958 65.528 36.2504 65.423 36.4662L63.9411 39.5124C63.8245 39.752 63.5815 39.904 63.3151 39.904Z" fill="#E4E6E8"/>
<path d="M23.2679 31.096L20.2601 19.7233L19.9118 18.4104L20.2384 18.1072L25.8442 15.33L33.8547 15.5295L38.5575 17.9438L38.5829 19.7233L38.815 35.7553L39.7532 39.6905H22.5473L23.8832 33.4232L23.2679 31.096Z" fill="#A33777"/>
<path d="M43.0549 39.6904H38.5709L37.3329 30.7514L37.6569 19.7233L37.7016 18.223L38.5575 17.9437C39.2026 18.4149 39.736 19.0225 40.1195 19.7233C40.6696 20.6808 41.1265 22.053 41.0129 23.8978C41.0129 23.8978 41.1145 26.0764 41.0178 27.5271C40.9513 28.5185 42.1082 34.7845 43.0549 39.6904Z" fill="#A33777"/>
<path d="M23.2836 30.9824L23.2679 31.096L22.0782 39.6905H16.922C17.3355 34.8208 17.8215 28.7325 17.7562 27.7569C17.6595 26.3073 17.761 24.1276 17.761 24.1276C17.6377 22.1292 18.1854 20.6881 18.7935 19.7234C19.0994 19.2329 19.4763 18.7905 19.9118 18.4104C20.0084 18.3256 20.1101 18.2469 20.2164 18.1747L21.0724 18.4527L21.2961 19.7234L23.2836 30.9824Z" fill="#A33777"/>
<path d="M23.8779 7.85672C23.8779 10.9235 26.364 13.4095 29.4307 13.4095C32.4975 13.4095 34.9835 10.9235 34.9835 7.85673C34.9835 4.78999 32.4975 2.30391 29.4307 2.30391C26.3716 2.29627 23.8856 4.76996 23.8779 7.82906C23.8779 7.83828 23.8779 7.8475 23.8779 7.85672Z" fill="#FFB7B7"/>
<path d="M47.1671 38.8049C47.1671 39.4649 46.6321 40 45.9721 40H14.0048C13.3448 40 12.8098 39.4649 12.8098 38.8049C12.8098 38.1449 13.3448 37.6099 14.0048 37.6099H14.3596C14.3393 37.5387 14.3288 37.4651 14.3282 37.391V21.0707C14.3282 20.4975 14.7929 20.0328 15.3661 20.0328H44.6108C45.184 20.0328 45.6487 20.4975 45.6487 21.0707V37.391C45.6487 37.4651 45.6382 37.5388 45.6173 37.6099H45.9721C46.289 37.6099 46.593 37.7358 46.8171 37.9599C47.0412 38.184 47.1671 38.488 47.1671 38.8049Z" fill="#3F3D56"/>
<path d="M81.9114 12.6412V9.36312C81.9114 5.26041 85.2373 1.93451 89.34 1.93451C93.4427 1.93451 96.7686 5.26041 96.7686 9.36312V12.6412C96.7676 13.5655 96.0185 14.3145 95.0943 14.3155H85.0531L84.2328 12.5724V14.3155H83.5857C82.6614 14.3145 81.9124 13.5655 81.9114 12.6412Z" fill="#2F2E41"/>
<path d="M94.7577 23.1334L95.0777 26.6005L95.2231 28.1758L95.4551 30.6841L95.4844 31.0076L95.6731 33.0447L95.6778 33.067C95.9222 33.8496 96.6513 34.379 97.4711 34.3692L106.088 34.2203L108.521 34.1781C108.567 34.2485 108.613 34.3117 108.659 34.368C109.091 34.8926 109.725 35.2091 110.404 35.2389C111.087 35.2702 111.75 35.0058 112.223 34.5133C112.27 34.4653 112.316 34.4149 112.358 34.3621C113.012 33.558 113.074 32.4248 112.513 31.5538C112.144 30.9786 111.545 30.5906 110.869 30.4895C110.198 30.3865 109.515 30.5736 108.989 31.0041C108.907 31.072 108.83 31.146 108.759 31.2256L106.088 30.8365L99.3641 29.8578L99.0769 25.9781C99.0757 25.9605 99.0746 25.9429 99.0734 25.9242L98.8413 22.7935C98.7609 21.7121 97.8521 20.8804 96.7679 20.8958C96.5959 20.8976 96.4249 20.9216 96.2592 20.9673C96.0734 21.0177 95.8958 21.0942 95.7317 21.1947C95.0628 21.6013 94.6846 22.354 94.7577 23.1334Z" fill="#9E616A"/>
<circle cx="89.6405" cy="9.62474" r="4.87065" fill="#9E616A"/>
<path d="M96.1348 17.7425L97.0203 17.4473C97.0203 17.4473 98.7915 18.1852 98.7915 19.5136C98.7915 20.842 99.0867 26.1554 99.0867 26.1554L95.1016 26.5982L96.1348 17.7425Z" fill="#6C63FF"/>
<path d="M77.2945 39.8452H80.8062L82.0076 29.778L82.4425 26.1422L82.5022 25.6405L82.8234 22.9494C82.8586 22.2607 82.5092 21.6092 81.916 21.2575C81.3228 20.9058 80.5836 20.9119 79.9963 21.2732C79.9237 21.3179 79.8544 21.3677 79.7888 21.4221C79.3811 21.7573 79.1362 22.2508 79.116 22.7782L78.7995 25.7378L77.2945 39.8452Z" fill="#9E616A"/>
<path d="M82.5615 26.1554L78.5764 25.7126C78.5764 25.7126 78.8716 20.3992 78.8716 19.0708C78.8716 17.7424 80.6428 17.0045 80.6428 17.0045L81.5283 17.2996L82.5615 26.1554Z" fill="#6C63FF"/>
<path d="M81.2691 39.8452H97.9282C97.4004 37.8278 96.6802 35.8657 95.7775 33.9859C95.6309 33.687 95.5442 33.5276 95.5442 33.5276C95.5442 33.5276 88.46 33.3881 84.0318 35.1592C83.7494 35.2811 83.496 35.4617 83.2887 35.689C82.5221 36.4813 81.8517 37.9687 81.2691 39.8452Z" fill="#2F2E41"/>
<path d="M84.7699 16.1189C84.7699 16.1189 84.6294 16.0435 93.0348 16.3497L96.5528 17.3185L97.0203 17.4473C97.0203 17.4473 96.5776 26.303 95.3968 27.9266C94.216 29.5501 94.5112 30.4357 94.8064 30.5833C95.1016 30.7309 95.8396 30.4357 95.3968 31.1737C94.954 31.9117 94.3636 31.4689 94.954 31.9117C95.5444 32.3544 95.8396 33.978 95.8396 33.978L82.8512 35.7491C82.8512 35.7491 82.4084 29.9929 81.2276 27.041C80.0469 24.0891 79.7517 22.9083 79.7517 22.9083L80.6373 17.0045L84.7699 16.1189Z" fill="#6C63FF"/>
<path d="M84.3876 6.88694C84.3876 4.23727 86.5356 2.08929 89.1852 2.08929C91.8349 2.08929 93.9829 4.23727 93.9829 6.88694V9.05362H84.3876V6.88694Z" fill="#2F2E41"/>
<path d="M105.513 38.6275V39.0553C105.513 39.577 105.09 39.9999 104.568 40H73.1474C72.6257 39.9999 72.2028 39.577 72.2027 39.0553V38.6275C72.2028 38.1058 72.6257 37.6829 73.1474 37.6827H73.7053C73.6856 37.6137 73.6754 37.5424 73.6749 37.4706V21.4339C73.6751 20.9964 74.0297 20.6418 74.4672 20.6415H103.248C103.686 20.6418 104.04 20.9964 104.041 21.4339V37.4706C104.041 37.5424 104.03 37.6139 104.01 37.6827H104.568C105.09 37.6829 105.513 38.1058 105.513 38.6275Z" fill="#3F3D56"/>
<path d="M35.7206 3.24418C35.273 2.89854 34.9091 2.45636 34.6561 1.95058C34.5658 1.75834 34.4412 1.58416 34.2884 1.43658L33.2385 2.24406L33.8801 1.12648C32.2367 0.133123 29.0277 0.660709 29.0277 0.660709C25.6894 -1.11691 24.4636 1.10206 24.0363 2.50929C23.867 3.01854 23.5685 3.47516 23.1699 3.83451C22.3464 4.6197 23.6432 6.14697 23.6432 6.14697V6.25491L23.9527 8.35719C23.9527 8.35719 24.2622 6.96433 25.079 5.98555C25.594 5.36845 26.4322 5.00154 26.8215 5.00913C31.8456 5.10717 32.7968 5.30611 32.7968 5.30611C32.7968 5.30611 33.6474 5.76307 34.023 5.95503C35.2369 6.57533 34.9409 8.82148 34.9409 8.82148L35.848 4.83495C36.0574 3.86859 35.9411 3.42521 35.7206 3.24418Z" fill="#2F2E41"/>
</svg>
