<svg width="124" height="100" viewBox="0 0 124 100" fill="none" xmlns="http://www.w3.org/2000/svg">
<path d="M68.5907 61.8947C68.5331 67.9769 68.0525 74.0494 67.1517 80.0743C67.1202 80.2858 67.0859 80.4974 67.0542 80.709L5.60387 80.3907C5.42344 80.1806 5.24585 79.9679 5.07379 79.7527C4.50008 79.0406 3.96238 78.3082 3.46877 77.5505C1.09626 73.9003 0.0101006 69.6266 1.09854 66.678L1.11803 66.6322C1.35298 65.9865 1.72322 65.3902 2.20747 64.8776C4.68909 62.2883 9.70667 62.7199 14.26 64.8099C10.1759 60.6661 6.92398 55.4373 6.67689 50.77C6.43462 46.2175 9.00274 42.9654 11.7882 40.2016C11.8796 40.1103 11.971 40.0214 12.0623 39.9326C12.1067 39.8869 12.1537 39.8438 12.1979 39.7981C14.3712 37.6919 16.9048 35.6157 20.5721 35.8668C24.5941 36.1428 29.0533 39.2655 32.18 42.9043C35.3066 46.5405 37.3843 50.6714 39.4904 54.7028C41.5991 58.7318 43.8805 62.8637 47.2643 66.3074C42.6812 60.9339 38.986 54.8201 37.6209 48.874C36.2559 42.9279 37.4572 37.2171 41.5419 34.4167C42.782 33.5927 44.2169 33.056 45.7266 32.8515C45.9028 32.8244 46.0818 32.8024 46.2636 32.7829C50.0449 32.3841 54.5596 33.5963 58.4008 36.4939C62.631 39.6843 65.5639 44.414 67.0231 48.9039C68.4823 53.3938 68.6378 57.7162 68.5907 61.8947Z" fill="#F0F2F5"/>
<path d="M105.818 24.3198C104.814 24.3198 104 25.1339 104 26.138V33.4107H87.6364C85.6273 33.4107 84 35.038 84 37.0471V51.5926C84 53.6016 85.6273 55.2289 87.6364 55.2289H104V62.5016C104 63.5058 104.814 64.3198 105.818 64.3198C106.401 64.3188 106.947 64.0389 107.288 63.567L123.268 45.7758C123.728 45.433 123.999 44.8934 124 44.3198C124 43.8219 123.796 43.3457 123.435 43.0024L107.295 25.0833C106.955 24.6054 106.405 24.321 105.818 24.3198Z" fill="#60B58E"/>
<path d="M108.796 38.6699L101.538 45.9366L99.0373 43.4432C98.5706 42.9779 97.8154 42.9784 97.3497 43.4446V43.4446C96.883 43.9113 96.8835 44.6684 97.3507 45.1346L100.695 48.4711C101.162 48.9368 101.918 48.9358 102.383 48.4696L110.485 40.358C110.951 39.8913 110.951 39.1356 110.485 38.6694V38.6694C110.018 38.2032 109.262 38.2032 108.796 38.6699Z" fill="white"/>
<path d="M44.4904 6.79822C44.3695 6.8218 44.2554 6.8723 44.1567 6.94595C44.051 7.0245 43.9599 7.12076 43.8873 7.23041C43.8089 7.34778 43.7486 7.47617 43.7083 7.61132C43.6656 7.75338 43.6446 7.90104 43.6461 8.04934V65.5719C43.644 65.867 43.7278 66.1565 43.8873 66.4053C43.96 66.5194 44.051 66.621 44.1567 66.7059C44.2546 66.785 44.3684 66.8422 44.4904 66.8735L86.3204 76.1619C86.4979 76.2 86.6816 76.2 86.8591 76.1619C87.1856 76.0916 87.4581 75.8689 87.5909 75.5637C87.6628 75.3974 87.6977 75.2175 87.6932 75.0365V1.22196C87.6972 1.039 87.6624 0.857274 87.5909 0.688682C87.4576 0.375069 87.1883 0.138822 86.8591 0.046632C86.6838 -0.00183749 86.5002 -0.0126757 86.3204 0.0148349L44.4904 6.79822Z" fill="white"/>
<path d="M50.967 14.9584C50.2505 15.0256 49.7483 15.6962 49.8851 16.4027V16.4027C50.004 17.0163 50.5681 17.4403 51.1906 17.3841L77.0207 15.0488C77.6714 14.99 78.1698 14.4445 78.1698 13.7912V13.7912C78.1698 13.0471 77.5297 12.4644 76.7889 12.5339L50.967 14.9584Z" fill="#D399C2"/>
<path opacity="0.503467" d="M49.6989 21.8655C49.685 21.8662 49.6715 21.8697 49.6595 21.8756C49.6472 21.8817 49.6364 21.8897 49.6277 21.8993C49.6184 21.9095 49.6111 21.9209 49.6063 21.933C49.6011 21.9461 49.5984 21.9597 49.5984 21.9734V22.7111C49.5983 22.7246 49.601 22.738 49.6063 22.7508C49.611 22.7624 49.6183 22.7731 49.6277 22.7825C49.6364 22.7912 49.6472 22.7982 49.6595 22.8031C49.6718 22.808 49.6854 22.8102 49.6989 22.8096L78.0307 21.5406C78.0496 21.5397 78.068 21.5357 78.0849 21.5287C78.1016 21.5217 78.1166 21.5122 78.1291 21.5006C78.1553 21.4766 78.1698 21.4454 78.1698 21.413V20.5433C78.1699 20.5273 78.1662 20.5114 78.1589 20.4966C78.152 20.4827 78.1419 20.4701 78.1291 20.4596C78.1032 20.4381 78.0673 20.427 78.0307 20.4289L49.6989 21.8655Z" fill="#CCCCCC"/>
<path opacity="0.503467" d="M49.6989 25.0401C49.6851 25.0407 49.6715 25.0447 49.6595 25.0517C49.6472 25.059 49.6364 25.0686 49.6277 25.08C49.6183 25.0923 49.6111 25.1061 49.6063 25.1208C49.601 25.1366 49.5984 25.1532 49.5984 25.1698V26.0681C49.5983 26.0846 49.601 26.101 49.6063 26.1167C49.611 26.1311 49.6182 26.1445 49.6277 26.1563C49.6364 26.1671 49.6472 26.1758 49.6595 26.182C49.6717 26.1881 49.6853 26.191 49.6989 26.1905L78.0307 25.1634C78.0495 25.1628 78.068 25.1583 78.0849 25.1501C78.1016 25.1419 78.1166 25.1306 78.1291 25.1168C78.1553 25.0879 78.1698 25.0501 78.1698 25.011V23.9514C78.1699 23.9318 78.1662 23.9125 78.1589 23.8943C78.152 23.8773 78.1419 23.8618 78.1291 23.8487C78.1165 23.8359 78.1015 23.8258 78.0849 23.819C78.0677 23.812 78.0492 23.8089 78.0307 23.8097L49.6989 25.0401Z" fill="#CCCCCC"/>
<path opacity="0.503467" d="M49.6986 28.2912C49.6847 28.2917 49.6712 28.2964 49.6591 28.3051C49.6469 28.3141 49.6363 28.3261 49.6277 28.3405C49.6183 28.356 49.6111 28.3734 49.6063 28.392C49.601 28.4122 49.5984 28.4333 49.5984 28.4546V29.6032C49.5983 29.6243 49.601 29.6454 49.6063 29.6654C49.611 29.6838 49.6183 29.701 49.6277 29.7161C49.6364 29.7301 49.6472 29.7417 49.6595 29.75C49.6717 29.7581 49.6852 29.7621 49.6989 29.7618L78.0307 29.1121C78.0495 29.1114 78.068 29.1056 78.0849 29.0952C78.1016 29.0852 78.1166 29.0711 78.1291 29.0538C78.1418 29.0361 78.152 29.0155 78.1589 28.993C78.1661 28.9696 78.1698 28.9446 78.1698 28.9193V27.5656C78.1699 27.5405 78.1662 27.5157 78.1589 27.4924C78.152 27.4704 78.1419 27.4504 78.1291 27.4334C78.1166 27.4164 78.1016 27.4028 78.0849 27.3935C78.0677 27.3844 78.0493 27.3801 78.0307 27.381L49.6986 28.2912Z" fill="#CCCCCC"/>
<path opacity="0.503467" d="M49.6986 34.5239C49.6849 34.5238 49.6713 34.5261 49.6592 34.5306C49.6468 34.5352 49.636 34.5416 49.6273 34.5494C49.6181 34.5578 49.6109 34.5674 49.6063 34.5775C49.601 34.5887 49.5984 34.6003 49.5984 34.612V35.2496C49.5984 35.2614 49.601 35.2731 49.6063 35.2843C49.6111 35.2945 49.6184 35.304 49.6277 35.3125C49.6364 35.3205 49.6472 35.3271 49.6596 35.332C49.6716 35.3368 49.6852 35.3394 49.699 35.3395L78.0308 35.7144C78.0493 35.7146 78.0678 35.7121 78.0848 35.7069C78.1015 35.7018 78.1165 35.6943 78.129 35.685C78.1419 35.6755 78.152 35.6643 78.1589 35.652C78.1662 35.6391 78.1699 35.6253 78.1698 35.6114V34.8599C78.1698 34.8459 78.1661 34.832 78.1589 34.819C78.152 34.8065 78.1418 34.7951 78.129 34.7854C78.1165 34.7758 78.1015 34.768 78.0848 34.7625C78.0679 34.757 78.0495 34.754 78.0308 34.7538L49.6986 34.5239Z" fill="#CCCCCC"/>
<path opacity="0.503467" d="M49.6986 36.9048C49.6849 36.9043 49.6714 36.9076 49.6592 36.9143C49.6468 36.9213 49.636 36.9311 49.6273 36.943C49.6179 36.9558 49.6106 36.9704 49.6059 36.986C49.6009 37.0026 49.5983 37.0199 49.5984 37.0373V38.0111C49.5984 38.0292 49.601 38.0472 49.6063 38.0643C49.6111 38.0802 49.6183 38.0951 49.6277 38.1084C49.6364 38.1207 49.6472 38.131 49.6596 38.1388C49.6716 38.1463 49.6851 38.1505 49.699 38.1511L78.0308 39.2856C78.0493 39.2864 78.0677 39.2828 78.0848 39.2752C78.1014 39.2677 78.1165 39.2566 78.129 39.2426C78.1419 39.2283 78.152 39.2114 78.1589 39.1929C78.1662 39.1732 78.1699 39.1521 78.1698 39.1309V37.9829C78.1698 37.9614 78.1661 37.9402 78.1589 37.9202C78.152 37.901 78.1418 37.8835 78.129 37.8683C78.1165 37.8534 78.1015 37.8413 78.0848 37.8326C78.0679 37.8238 78.0495 37.8189 78.0308 37.8182L49.6986 36.9048Z" fill="#CCCCCC"/>
<path opacity="0.503467" d="M49.6986 40.4761C49.6851 40.4757 49.6717 40.4782 49.6596 40.4836C49.6473 40.4888 49.6364 40.4963 49.6277 40.5055C49.6183 40.5156 49.611 40.5271 49.6063 40.5395C49.601 40.5531 49.5983 40.5674 49.5984 40.5818V41.3696C49.5984 41.3843 49.601 41.3988 49.6063 41.4127C49.6111 41.4257 49.6184 41.4379 49.6277 41.4487C49.6364 41.4588 49.6472 41.4673 49.6596 41.4738C49.6716 41.48 49.6851 41.4837 49.699 41.4843L78.0308 42.8568C78.0674 42.8587 78.1032 42.8466 78.129 42.8237C78.1419 42.8123 78.152 42.7987 78.1589 42.7839C78.1662 42.768 78.1699 42.7511 78.1698 42.734V41.8052C78.1697 41.7709 78.1551 41.7379 78.129 41.7124C78.1165 41.7002 78.1015 41.6902 78.0848 41.6828C78.068 41.6754 78.0496 41.6712 78.0308 41.6703L49.6986 40.4761Z" fill="#CCCCCC"/>
<path opacity="0.503467" d="M49.6986 42.8572C49.6851 42.8561 49.6715 42.8588 49.6592 42.8652C49.647 42.8717 49.6363 42.8811 49.6277 42.8926C49.6183 42.9052 49.611 42.9195 49.6063 42.935C49.601 42.9521 49.5983 42.9701 49.5984 42.9883V43.9795C49.5984 43.998 49.601 44.0164 49.6063 44.0339C49.6111 44.0504 49.6184 44.0658 49.6277 44.0796C49.6364 44.0925 49.6472 44.1035 49.6596 44.1119C49.6715 44.1202 49.685 44.1252 49.699 44.1265L78.0308 46.428C78.0491 46.4295 78.0676 46.4266 78.0848 46.4195C78.1014 46.4126 78.1165 46.4019 78.129 46.3881C78.1419 46.3741 78.152 46.3573 78.1589 46.3388C78.1662 46.3189 78.1699 46.2976 78.1698 46.2761V45.1074C78.1698 45.0854 78.1661 45.0636 78.1589 45.0431C78.1519 45.0233 78.1418 45.005 78.129 44.9891C78.1166 44.9735 78.1016 44.9605 78.0848 44.9509C78.068 44.9413 78.0496 44.9355 78.0308 44.9341L49.6986 42.8572Z" fill="#CCCCCC"/>
<path opacity="0.503467" d="M49.6986 46.429C49.6851 46.4278 49.6715 46.43 49.6592 46.4353C49.647 46.4408 49.6363 46.4488 49.6277 46.4587C49.6183 46.4693 49.6111 46.4814 49.6063 46.4945C49.601 46.5091 49.5983 46.5246 49.5984 46.5401V47.3945C49.5984 47.4104 49.6011 47.4263 49.6063 47.4415C49.6111 47.4558 49.6184 47.4692 49.6277 47.4813C49.6364 47.4925 49.6472 47.5021 49.6596 47.5096C49.6715 47.5167 49.685 47.521 49.699 47.5222L78.0308 49.9996C78.0491 50.0013 78.0675 49.9991 78.0848 49.9933C78.1014 49.9876 78.1164 49.9787 78.129 49.967C78.1419 49.9551 78.152 49.9408 78.1589 49.925C78.1662 49.9079 78.1699 49.8897 78.1698 49.8712V48.8639C78.1698 48.8449 78.1661 48.826 78.1589 48.8083C78.1519 48.7911 78.1418 48.7752 78.129 48.7613C78.1166 48.7475 78.1016 48.7361 78.0848 48.7275C78.0681 48.7189 78.0497 48.7137 78.0308 48.7121L49.6986 46.429Z" fill="#CCCCCC"/>
<path opacity="0.503467" d="M49.6986 48.8101C49.6852 48.8084 49.6716 48.8107 49.6592 48.8166C49.6471 48.8226 49.6363 48.8316 49.6277 48.8428C49.6183 48.8552 49.611 48.8694 49.6063 48.8848C49.601 48.902 49.5983 48.9201 49.5984 48.9383V49.9392C49.5984 49.9579 49.6011 49.9766 49.6063 49.9944C49.6112 50.0113 49.6184 50.0272 49.6277 50.0415C49.6364 50.0548 49.6472 50.0663 49.6596 50.0754C49.6714 50.084 49.685 50.0894 49.699 50.0911L78.0308 53.5706C78.049 53.5729 78.0674 53.5707 78.0848 53.5642C78.1013 53.5581 78.1164 53.548 78.129 53.5348C78.1419 53.521 78.1521 53.5045 78.1589 53.4861C78.1662 53.4662 78.1699 53.4449 78.1698 53.4233V52.243C78.1698 52.2206 78.1661 52.1985 78.1589 52.1777C78.1519 52.1573 78.1418 52.1385 78.129 52.1219C78.1166 52.1056 78.1016 52.092 78.0848 52.0816C78.0681 52.0712 78.0498 52.0647 78.0308 52.0624L49.6986 48.8101Z" fill="#CCCCCC"/>
<path opacity="0.503467" d="M49.6986 52.3815C49.6852 52.3798 49.6717 52.3816 49.6592 52.3866C49.6471 52.3915 49.6364 52.3991 49.6277 52.4088C49.6182 52.4198 49.6109 52.4326 49.6063 52.4464C49.601 52.4616 49.5983 52.4777 49.5984 52.4938V53.3858C49.5984 53.4025 49.6011 53.4192 49.6063 53.4352C49.6112 53.4503 49.6184 53.4646 49.6277 53.4775C49.6364 53.4895 49.6472 53.5 49.6596 53.5082C49.6714 53.5161 49.6849 53.5212 49.699 53.523L78.0308 57.1416C78.0489 57.1441 78.0674 57.1425 78.0848 57.1371C78.1013 57.1317 78.1164 57.1227 78.129 57.1108C78.1419 57.0988 78.1521 57.0842 78.1589 57.068C78.1662 57.0503 78.1699 57.0314 78.1698 57.0123V55.9609C78.1698 55.9409 78.1661 55.9211 78.1589 55.9025C78.1519 55.8842 78.1418 55.8672 78.129 55.8523C78.1166 55.8376 78.1016 55.8251 78.0848 55.8155C78.0682 55.8059 78.0498 55.7998 78.0308 55.7974L49.6986 52.3815Z" fill="#CCCCCC"/>
<path opacity="0.503467" d="M49.6986 54.7625C49.6853 54.7607 49.6717 54.7621 49.6592 54.7665C49.6471 54.7709 49.6363 54.7777 49.6277 54.7865C49.6182 54.7961 49.611 54.8073 49.6063 54.8195C49.601 54.8332 49.5983 54.8476 49.5984 54.8622V55.667C49.5984 55.6822 49.6011 55.6973 49.6063 55.7117C49.6112 55.7255 49.6184 55.7385 49.6277 55.7502C49.6364 55.7613 49.6472 55.7708 49.6596 55.7784C49.6714 55.7857 49.6849 55.7905 49.699 55.7924L78.0308 59.5223C78.0488 59.5248 78.0673 59.5237 78.0848 59.519C78.1013 59.5146 78.1164 59.5069 78.129 59.4965C78.1419 59.4859 78.1521 59.4729 78.1589 59.4583C78.1662 59.4425 78.17 59.4254 78.1698 59.4082V58.4592C78.1698 58.4411 78.1661 58.4232 78.1589 58.4063C78.1518 58.3897 78.1417 58.3742 78.129 58.3606C78.1166 58.3471 78.1016 58.3356 78.0848 58.3267C78.0682 58.3178 78.0499 58.312 78.0308 58.3095L49.6986 54.7625Z" fill="#CCCCCC"/>
<path opacity="0.503467" d="M49.6986 57.1442C49.6854 57.1419 49.6718 57.1432 49.6592 57.1479C49.6471 57.1527 49.6363 57.1604 49.6277 57.1702C49.6182 57.181 49.611 57.1936 49.6063 57.2073C49.601 57.2229 49.5983 57.2393 49.5984 57.2558V58.1724C49.5984 58.1897 49.6011 58.207 49.6063 58.2235C49.6112 58.2393 49.6184 58.2542 49.6277 58.2678C49.6364 58.2806 49.6472 58.2917 49.6596 58.3006C49.6713 58.3091 49.6848 58.3148 49.699 58.3172L78.0308 63.0936C78.0488 63.0968 78.0672 63.0959 78.0848 63.0909C78.1012 63.0862 78.1163 63.0777 78.129 63.0661C78.1419 63.0542 78.1521 63.0395 78.1589 63.0231C78.1663 63.0051 78.17 62.9858 78.1698 62.9663V61.8855C78.1698 61.8648 78.1661 61.8443 78.1589 61.825C78.1518 61.8058 78.1417 61.788 78.129 61.7722C78.1166 61.7566 78.1016 61.7433 78.0848 61.7328C78.0683 61.7224 78.0499 61.7154 78.0308 61.7121L49.6986 57.1442Z" fill="#CCCCCC"/>
<path d="M62.0504 71.6047L61.499 63.6267L62.4892 56.1504L59.6771 55.9521L59.1221 64.2106L60.6908 71.9768C60.4171 72.372 60.4105 72.9042 60.6744 73.3067C60.9383 73.7091 61.4158 73.8951 61.8676 73.7715C62.3194 73.6478 62.6482 73.2412 62.6892 72.7553C62.7302 72.2694 62.4745 71.809 62.0504 71.6047H62.0504Z" fill="#9F616A"/>
<path d="M59.1221 57.1661L59.7504 54.1691C60.0002 52.9777 61.05 52.2079 62.1436 52.4143C63.2372 52.6207 63.9948 53.7316 63.8707 54.9468L63.5247 58.3332L59.1221 57.1661Z" fill="#CBCBCB"/>
<path d="M63.8842 98.8093L65.4976 98.8091L66.265 92.8569L63.884 92.8571L63.8842 98.8093V98.8093Z" fill="#9F616A"/>
<path d="M63.884 97.6193L66.7924 97.6191H66.7925C67.8161 97.6192 68.6459 98.6515 68.6459 99.9249V99.9999L63.8841 100L63.884 97.6193Z" fill="#2F2E41"/>
<path d="M71.0863 98.8093L72.2174 98.4109L71.5059 92.8569L69.8364 93.4449L71.0863 98.8093V98.8093Z" fill="#9F616A"/>
<path d="M71.0269 98.3854L73.635 97.6824L73.6351 97.6824C74.5531 97.4351 75.5103 97.9347 75.7733 98.7983L75.7888 98.8492L71.5185 100L71.0269 98.3854Z" fill="#2F2E41"/>
<path d="M63.5734 96.4286L64.2454 80.0862L62.5001 72.6905C60.1513 68.8782 62.6852 62.7971 62.7111 62.7361L62.7205 62.7139L62.7451 62.7106L68.889 61.9048L68.9754 62.0965C71.3785 67.4154 72.0454 73.3183 70.8868 79.0144L70.2473 82.1807L73.4077 94.5338L70.4166 95.9817L68.1218 90.2205L66.5706 96.1149L63.5734 96.4286Z" fill="#2F2E41"/>
<path d="M61.5921 64.2857L59.7236 58.5724C58.562 56.4377 59.2988 54.5426 60.1214 53.3287C61.0098 52.0179 61.0632 51.2827 61.0749 51.2746L61.0845 51.2681L63.5393 51.1904L65.8113 53.5996C65.9542 53.5414 67.1614 56.6458 67.0591 56.8019L68.6459 62.1548L61.5921 64.2857Z" fill="#CBCBCB"/>
<path d="M77.6867 65.6022L71.1271 60.6217L66.0685 54.7617L63.884 56.8532L69.861 62.8999L76.992 66.9311C77.0994 67.4161 77.5057 67.7826 78.0071 67.847C78.5086 67.9113 78.9972 67.6596 79.2281 67.218C79.459 66.7764 79.3824 66.24 79.0368 65.8776C78.6911 65.5153 78.1508 65.405 77.6867 65.6022V65.6022Z" fill="#9F616A"/>
<path d="M63.5738 58.3332L61.9005 55.8991C61.2353 54.9314 61.4229 53.6003 62.3283 52.8647C63.2337 52.1291 64.5424 52.2445 65.3116 53.1277L67.4553 55.5891L63.5738 58.3332Z" fill="#CBCBCB"/>
<circle cx="62.0983" cy="47.024" r="2.97619" fill="#9F616A"/>
<path d="M65.0744 45.2379H60.3125V43.2837C61.3577 42.8928 62.3805 42.5603 62.9987 43.2837C64.1451 43.2837 65.0744 44.1586 65.0744 45.2379V45.2379Z" fill="#2F2E41"/>
<path d="M61.495 42.8584C57.1754 42.7421 57.9934 49.7579 57.9934 49.7579C57.9934 49.7579 58.8083 49.8641 59.1802 49.9265L59.6293 49.6772L60.1125 49.9897C60.3344 49.9908 60.5675 49.9865 60.8092 49.9821L61.0307 49.5324L61.5247 49.974C62.4239 49.9754 64.8644 49.9998 64.8644 49.9998C64.8644 49.9998 66.3351 42.9887 61.495 42.8584Z" fill="#2F2E41"/>
<path d="M43.6382 55.1716C43.6755 54.9138 43.576 54.6552 43.3663 54.4655C43.1566 54.2758 42.8584 54.1744 42.5518 54.1885L41.5252 52.3809L40.0745 52.6407L41.5666 55.1763C41.6303 55.6201 42.0763 55.9535 42.6048 55.9523C43.1334 55.9511 43.5773 55.6157 43.6382 55.1716H43.6382Z" fill="#FFB7B7"/>
<path d="M22.2173 79.204L23.2525 79.7619L25.7887 75.8231L24.2608 75L22.2173 79.204V79.204Z" fill="#FFB7B7"/>
<path d="M21.7234 78.5713L23.7918 79.7931L23.7919 79.7931C24.5198 80.2232 24.8079 81.253 24.4354 82.0933L24.4135 82.1427L21.0269 80.1423L21.7234 78.5713Z" fill="#2F2E41"/>
<path d="M35.3129 80.9523H36.926L37.6935 76.1904L35.3125 76.1906L35.3129 80.9523V80.9523Z" fill="#FFB7B7"/>
<path d="M34.1221 80.9522L37.0304 80.9521H37.0305C38.0541 80.9522 38.8839 81.4683 38.884 82.105V82.1425L34.1222 82.1426L34.1221 80.9522Z" fill="#2F2E41"/>
<path d="M29.158 39.4248C29.158 39.4248 28.3044 38.7383 28.3044 40.4151L28.1697 45.956L29.6746 51.1904L30.5506 49.4928L30.1912 45.8145L29.158 39.4248Z" fill="#74225D"/>
<path d="M38.4969 54.2374C38.4969 54.2374 39.5294 59.1276 38.2216 63.1409L37.4988 78.5713L34.8486 78.3705L33.9193 66.9232L33.0245 61.233L31.1659 66.4211L25.0395 77.3998L22.2173 75.2576C22.2173 75.2576 25.3448 66.9586 27.6553 65.2161L28.8141 52.3809L38.4969 54.2374Z" fill="#2F2E41"/>
<circle cx="35.9078" cy="30.357" r="2.97619" fill="#FFB8B8"/>
<path d="M34.9353 31.1541C35.3197 31.2012 35.6097 30.8308 35.7442 30.4885C35.8786 30.1461 35.9811 29.7475 36.3153 29.5626C36.772 29.3099 37.3562 29.6138 37.8783 29.5304C38.468 29.4363 38.8514 28.8478 38.8815 28.2853C38.9115 27.7228 38.6738 27.1817 38.4406 26.6631L38.3591 27.3076C38.3813 26.8634 38.1567 26.4403 37.766 26.1904L37.871 27.1362C37.8259 26.8727 37.6711 26.6369 37.441 26.481C37.2109 26.3252 36.9243 26.262 36.6446 26.3056L36.6612 26.8691C35.9828 26.7706 35.2953 26.7389 34.6099 26.7746C33.9199 26.8122 33.2596 27.0517 32.7212 27.4599C31.9468 28.0936 31.6639 29.137 31.7589 30.099C31.8538 31.061 32.2756 31.9647 32.7151 32.8377C32.8256 33.0574 32.9786 33.3053 33.235 33.3332C33.4742 33.3364 33.6852 33.1866 33.7479 32.9693C33.803 32.7561 33.8009 32.5334 33.7416 32.3212C33.6509 32.0018 33.6219 31.6697 33.6561 31.3406C33.717 31.0157 33.9652 30.6946 34.313 30.6548C34.6609 30.615 35.0168 30.9893 34.8495 31.2793L34.9353 31.1541Z" fill="#2F2E41"/>
<path d="M32.2834 34.1804L32.9109 33.3335C32.9109 33.3335 33.6123 33.5652 35.4907 34.4741L35.6234 35.2675L38.884 54.7621L32.9574 54.5135L31.3435 54.4802L30.164 54.4558L28.588 54.4232L28.5647 48.8203L29.0761 44.5277L28.2858 40.4837C28.2858 40.4837 27.2915 36.7701 31.1213 34.7678L32.2834 34.1804Z" fill="#922F76"/>
<path d="M41.2649 54.2122L41.4137 54.7618L42.4554 54.0459L42.0623 53.5713L41.2649 54.2122V54.2122Z" fill="#CBCBCB"/>
<path d="M34.1221 36.9095C34.1221 36.9095 36.3294 34.0111 37.6635 37.2415L38.0841 40.6268C38.0841 40.6268 39.7002 44.8346 39.7489 46.5371C39.7489 46.5371 40.8446 48.759 40.8345 49.9261L42.4554 53.7004L40.7929 54.762L36.1918 47.5059L34.1221 36.9095Z" fill="#B03D90"/>
</svg>
