<svg width="97" height="79" viewBox="0 0 97 79" fill="none" xmlns="http://www.w3.org/2000/svg">
<path opacity="0.5" fill-rule="evenodd" clip-rule="evenodd" d="M57.2106 18.576C55.3331 20.4535 55.3331 23.5465 57.2106 25.424C58.6866 26.9 60.9061 27.1959 62.7033 26.3514L66.3414 29.9894C66.7472 30.4068 67.3463 30.5734 67.9093 30.4254C68.4723 30.2774 68.912 29.8377 69.0601 29.2746C69.2081 28.7116 69.0415 28.1125 68.624 27.7067L64.986 24.0687C65.8306 22.2714 65.5346 20.0519 64.0587 18.576C62.1812 16.6985 59.0882 16.6985 57.2106 18.576ZM70.9067 4.87989C69.4595 6.33121 69.0827 8.53648 69.966 10.386L66.3414 14.0106C65.9239 14.4164 65.7573 15.0155 65.9054 15.5785C66.0534 16.1416 66.4931 16.5813 67.0561 16.7293C67.6191 16.8773 68.2183 16.7107 68.624 16.2933L72.2465 12.6709C74.097 13.5547 76.3036 13.1769 77.7548 11.7279C79.6458 9.8369 79.6458 6.77093 77.7548 4.87989C75.8637 2.98886 72.7978 2.98886 70.9067 4.87989ZM61.776 20.8587C61.1321 20.2148 60.1372 20.2148 59.4933 20.8587C58.8495 21.5025 58.8495 22.4975 59.4933 23.1413C60.1133 23.7613 61.0516 23.7687 61.6958 23.1948C61.711 23.1774 61.7266 23.1603 61.7426 23.1436C61.7698 23.1158 61.7981 23.089 61.8273 23.0633C62.4033 22.4191 62.3967 21.4794 61.776 20.8587ZM80.004 14.0128C79.3844 14.6522 79.3993 15.6724 80.0375 16.2933L83.4615 19.7173L83.4615 24.9514C83.4615 25.8417 84.1852 26.5654 85.0754 26.5654L90.9783 26.5654C91.8697 26.5665 92.5922 25.844 92.5922 24.9514L92.5922 19.0486C92.5933 18.1572 91.8708 17.4346 90.9783 17.4346H85.7442L82.3201 14.0106C82.0159 13.6979 81.5979 13.5217 81.1616 13.5221C80.7253 13.5225 80.3077 13.6995 80.004 14.0128ZM68.624 36.8374C67.994 36.2074 67.994 35.1848 68.624 34.5547L73.1894 29.9894C73.8194 29.3594 74.8421 29.3594 75.4721 29.9894L80.0375 34.5547C80.6675 35.1848 80.6675 36.2074 80.0375 36.8374L75.4721 41.4028C74.8421 42.0328 73.8194 42.0328 73.1894 41.4028L68.624 36.8374Z" fill="#873873"/>
<path d="M48.8759 48.4973C48.8347 53.1857 48.4913 57.8666 47.8477 62.5107C47.8252 62.6738 47.8007 62.8369 47.7781 63L3.87155 62.7547C3.74263 62.5927 3.61574 62.4288 3.49281 62.2629C3.08289 61.7139 2.6987 61.1494 2.34602 60.5653C0.650846 57.7516 -0.125222 54.4573 0.652473 52.1845L0.666405 52.1491C0.834277 51.6514 1.09881 51.1918 1.44481 50.7966C3.21794 48.8007 6.80302 49.1334 10.0564 50.7444C7.13832 47.5503 4.81477 43.5197 4.63823 39.922C4.46513 36.4128 6.30006 33.906 8.29027 31.7756C8.35558 31.7051 8.42087 31.6367 8.48616 31.5682C8.51785 31.533 8.55145 31.4997 8.58305 31.4645C10.1358 29.841 11.9461 28.2406 14.5664 28.4342C17.4402 28.6469 20.6263 31.054 22.8603 33.8589C25.0943 36.6618 26.5788 39.846 28.0836 42.9536C29.5903 46.0593 31.2204 49.2443 33.6381 51.8988C30.3634 47.7567 27.7232 43.044 26.7479 38.4606C25.7726 33.8771 26.6309 29.475 29.5494 27.3163C30.4354 26.6812 31.4607 26.2675 32.5394 26.1099C32.6653 26.089 32.7932 26.072 32.9231 26.057C35.6248 25.7496 38.8506 26.684 41.5952 28.9175C44.6177 31.3768 46.7132 35.0226 47.7559 38.4836C48.7984 41.9445 48.9095 45.2764 48.8759 48.4973Z" fill="#F0F2F5"/>
<path d="M27.324 76.7656C27.305 77.3945 27.2633 78.0133 27.209 78.6264C27.1984 78.7436 27.1879 78.8609 27.1773 78.9781L26.7858 78.9759C26.7978 78.8587 26.8098 78.7415 26.8203 78.6242C26.903 77.7385 26.9617 76.8427 26.9697 75.9227C26.9801 73.3718 26.7315 70.8265 26.2278 68.3259C25.6923 65.6334 24.9234 62.9926 23.9298 60.4335C22.887 57.7344 21.6298 55.1231 20.1701 52.6247C20.1426 52.584 20.1304 52.5349 20.1356 52.486C20.1517 52.3745 20.3003 52.3414 20.4113 52.448C20.4333 52.4689 20.4522 52.4928 20.4675 52.519C20.6481 52.8295 20.8254 53.141 20.9994 53.4534C22.4052 55.9656 23.6085 58.5859 24.5979 61.2895C25.5402 63.857 26.257 66.5017 26.7401 69.1937C27.1927 71.6911 27.3883 74.2283 27.324 76.7656V76.7656Z" fill="white"/>
<path d="M28.0655 51.3765C28.5672 51.1661 28.9499 50.7442 29.1107 50.2245C29.2715 49.7047 29.1938 49.1404 28.8985 48.6834L30.4624 40.5048L26.4765 40.1941L26.2359 48.1939C25.4846 48.7531 25.2703 49.7859 25.7371 50.5978C26.2039 51.4098 27.2042 51.7443 28.0655 51.3765Z" fill="#FFB8B8"/>
<path d="M30.7079 47.1556L34.7676 28.2487C35.1148 26.6316 34.0853 25.0393 32.4682 24.6921C30.8511 24.3449 29.2588 25.3744 28.9116 26.9915L24.8518 45.8982C24.7631 46.314 25.0275 46.7231 25.4431 46.8129L29.7933 47.7469C29.993 47.7899 30.2016 47.7517 30.3731 47.6408C30.5447 47.5299 30.6651 47.3554 30.7079 47.1556V47.1556Z" fill="#74225D"/>
<path d="M37.3717 76.8976H39.4696L40.4678 68.8052L37.3712 68.8053L37.3717 76.8976V76.8976Z" fill="#FFB8B8"/>
<path d="M40.968 76.2981H36.9218V78.8457H43.5156V78.8457C43.5156 78.17 43.2472 77.522 42.7695 77.0443C42.2917 76.5665 41.6437 76.2981 40.968 76.2981V76.2981Z" fill="#2F2E41"/>
<path d="M30.3551 76.7264H32.453L33.4512 68.634L30.3546 68.6342L30.3551 76.7264V76.7264Z" fill="#FFB8B8"/>
<path d="M33.9519 76.127H29.9057V78.6745H36.4995V78.6745C36.4995 77.9989 36.2311 77.3509 35.7533 76.8731C35.2756 76.3954 34.6276 76.127 33.9519 76.127Z" fill="#2F2E41"/>
<path d="M39.8852 75.3882C40.0441 75.2578 40.1438 75.0689 40.1618 74.8641L42.6008 48.0344C42.6199 47.8239 42.5517 47.6148 42.4122 47.4561C42.2726 47.2974 42.074 47.2031 41.8628 47.1951L29.6304 46.7364C29.4164 46.7284 29.2088 46.8099 29.0573 46.9613C28.9058 47.1126 28.8242 47.3202 28.832 47.5342L29.8098 74.2608C29.8246 74.6478 30.124 74.9638 30.5096 74.9995L32.9761 75.2237C33.1827 75.2425 33.3882 75.1772 33.5459 75.0424C33.7037 74.9077 33.8004 74.715 33.8142 74.508L34.9461 57.529C34.9477 57.4631 34.9757 57.4006 35.0239 57.3555C35.072 57.3105 35.1362 57.2867 35.2021 57.2895H35.2031C35.2692 57.2869 35.3336 57.311 35.3816 57.3565C35.4297 57.4019 35.4574 57.4648 35.4585 57.531L36.4715 74.6244C36.4924 75.0027 36.7865 75.3089 37.1636 75.3451L39.3182 75.5606C39.5227 75.5817 39.7271 75.5195 39.8852 75.3882H39.8852Z" fill="#2F2E41"/>
<circle r="4.20314" transform="matrix(-1 0 0 1 35.1802 16.4712)" fill="#FFB8B8"/>
<path d="M43.274 48.2161C43.4255 48.0439 43.4917 47.8128 43.4541 47.5865C42.6782 42.8699 43.1155 35.9369 43.6191 30.9514C43.8866 28.2597 42.6963 25.63 40.4975 24.0546L38.3024 22.1732C38.1565 22.0495 37.9703 21.9837 37.7792 21.988L32.3259 22.1437C32.1293 22.1491 31.9422 22.2298 31.8034 22.3692L30.9607 24.2353L30.952 24.2416C28.9124 25.7408 27.761 28.1633 27.8862 30.6916L28.6889 47.2804C28.7102 47.6801 29.0328 47.9977 29.4328 48.0128L42.6693 48.4779C42.6779 48.4781 42.6863 48.4783 42.6949 48.4783C42.9167 48.4786 43.1279 48.383 43.274 48.2161V48.2161Z" fill="#922F76"/>
<path d="M58.5255 16.3888C58.0612 16.1053 57.4951 16.0421 56.9796 16.2161C56.4641 16.39 56.0521 16.7834 55.8546 17.2904L48.3089 20.8114L50.3908 24.2245L57.0168 19.7354C57.91 20.017 58.8727 19.5861 59.2576 18.7323C59.6425 17.8785 59.328 16.8717 58.5255 16.3888L58.5255 16.3888Z" fill="#FFB8B8"/>
<path d="M57.2387 21.7727C57.3133 21.5825 57.3088 21.3703 57.2261 21.1835L55.4362 17.11C55.2647 16.721 54.8107 16.5442 54.4213 16.7147L36.7174 24.494C35.2031 25.1594 34.515 26.9264 35.1804 28.4407C35.8458 29.9549 37.6127 30.643 39.127 29.9776L56.8309 22.1983C56.9807 22.1329 57.1056 22.0213 57.1873 21.8798C57.2071 21.8455 57.2243 21.8097 57.2387 21.7727Z" fill="#B03D90"/>
<path d="M34.9646 20.2128C34.4072 19.5294 34.4683 18.4884 34.9156 17.7284C35.363 16.9683 36.1224 16.4449 36.9038 16.036C37.6853 15.6272 38.5154 15.3057 39.2508 14.8189C39.9862 14.3321 39.9541 12.2712 40.1499 11.4113L39.6829 11.5668C39.8624 11.3372 39.92 10.6587 40.0994 10.4291C39.5717 10.4812 39.166 10.9822 38.6382 11.0344L38.9428 10.217C37.1332 10.1054 36.0081 11.3629 34.1985 11.2513C33.3019 11.196 32.3282 11.1611 31.5911 11.6745C30.9506 12.1208 30.6264 12.893 30.4137 13.6441C29.9569 15.2567 29.8859 17.0631 30.6748 18.5418C31.4638 20.0206 33.2823 21.017 34.871 20.483L34.9646 20.2128Z" fill="#2F2E41"/>
</svg>
