<svg width="76" height="72" viewBox="0 0 76 72" fill="none" xmlns="http://www.w3.org/2000/svg">
<path opacity="0.5" fill-rule="evenodd" clip-rule="evenodd" d="M18 0C8.0586 0 0 8.0586 0 18C0 27.9414 8.0586 36 18 36C27.9414 36 36 27.9414 36 18C36 8.0586 27.9414 0 18 0ZM17.1 27C16.6032 27 16.2 26.5968 16.2 26.1V24.3C16.2 23.8032 16.6032 23.4 17.1 23.4H18.9C19.3968 23.4 19.8 23.8032 19.8 24.3V26.1C19.8 26.5968 19.3968 27 18.9 27H17.1ZM16.2 18C16.2 18.9936 17.0064 19.8 18 19.8C18.9936 19.8 19.8 18.9936 19.8 18V10.8C19.8 9.8064 18.9936 9 18 9C17.0064 9 16.2 9.8064 16.2 10.8V18Z" fill="#873873"/>
<path d="M27.3546 41.4974C27.3957 46.1857 27.7392 50.8666 28.3827 55.5108C28.4052 55.6739 28.4298 55.8369 28.4524 56L72.3589 55.7547C72.4878 55.5927 72.6147 55.4288 72.7377 55.2629C73.1476 54.714 73.5318 54.1494 73.8845 53.5653C75.5796 50.7516 76.3557 47.4574 75.578 45.1845L75.5641 45.1492C75.3962 44.6515 75.1317 44.1918 74.7857 43.7966C73.0125 41.8007 69.4275 42.1334 66.1741 43.7445C69.0921 40.5503 71.4157 36.5198 71.5922 32.922C71.7653 29.4129 69.9304 26.906 67.9402 24.7756C67.8749 24.7052 67.8096 24.6367 67.7443 24.5682C67.7126 24.533 67.679 24.4998 67.6474 24.4646C66.0946 22.841 64.2843 21.2406 61.6641 21.4342C58.7903 21.6469 55.6042 24.054 53.3702 26.8589C51.1362 29.6618 49.6516 32.846 48.1469 35.9536C46.6402 39.0593 45.0101 42.2443 42.5924 44.8988C45.867 40.7568 48.5073 36.0441 49.4826 31.4606C50.4579 26.8771 49.5996 22.475 46.6811 20.3164C45.795 19.6812 44.7698 19.2675 43.6911 19.1099C43.5652 19.089 43.4373 19.072 43.3074 19.057C40.6056 18.7496 37.3799 19.684 34.6353 21.9175C31.6128 24.3768 29.5173 28.0226 28.4746 31.4836C27.4321 34.9446 27.321 38.2764 27.3546 41.4974Z" fill="#F0F2F5"/>
<path d="M27.324 69.7656C27.305 70.3945 27.2633 71.0133 27.209 71.6264C27.1984 71.7437 27.1879 71.8609 27.1773 71.9782L26.7858 71.976C26.7978 71.8587 26.8098 71.7415 26.8203 71.6242C26.903 70.7385 26.9617 69.8428 26.9697 68.9227C26.9801 66.3718 26.7315 63.8265 26.2278 61.3259C25.6923 58.6334 24.9234 55.9926 23.9298 53.4335C22.887 50.7344 21.6298 48.1231 20.1701 45.6248C20.1426 45.5841 20.1304 45.5349 20.1356 45.4861C20.1517 45.3745 20.3003 45.3414 20.4113 45.448C20.4333 45.469 20.4522 45.4928 20.4675 45.519C20.6481 45.8296 20.8254 46.141 20.9994 46.4534C22.4052 48.9657 23.6085 51.586 24.5979 54.2895C25.5402 56.857 26.257 59.5018 26.7401 62.1938C27.1927 64.6912 27.3883 67.2284 27.324 69.7656V69.7656Z" fill="white"/>
<path d="M28.0655 44.3766C28.5672 44.1661 28.9499 43.7443 29.1107 43.2245C29.2715 42.7047 29.1938 42.1405 28.8985 41.6835L30.4624 33.5049L26.4765 33.1942L26.2359 41.194C25.4846 41.7532 25.2703 42.7859 25.7371 43.5979C26.2039 44.4099 27.2042 44.7444 28.0655 44.3766Z" fill="#FFB8B8"/>
<path d="M30.7084 40.1556L34.7681 21.2487C35.1153 19.6316 34.0858 18.0392 32.4687 17.692C30.8516 17.3449 29.2593 18.3743 28.9121 19.9914L24.8523 38.8982C24.7636 39.3139 25.028 39.723 25.4435 39.8128L29.7938 40.7468C29.9935 40.7898 30.2021 40.7516 30.3736 40.6407C30.5452 40.5298 30.6656 40.3553 30.7084 40.1556V40.1556Z" fill="#74225D"/>
<path d="M37.3717 69.8976H39.4696L40.4678 61.8051L37.3712 61.8053L37.3717 69.8976V69.8976Z" fill="#FFB8B8"/>
<path d="M40.968 69.298H36.9218V71.8456H43.5156V71.8456C43.5156 71.17 43.2472 70.522 42.7695 70.0442C42.2917 69.5664 41.6437 69.298 40.968 69.298V69.298Z" fill="#2F2E41"/>
<path d="M30.3551 69.7264H32.453L33.4512 61.634L30.3546 61.6342L30.3551 69.7264V69.7264Z" fill="#FFB8B8"/>
<path d="M33.9519 69.1269H29.9057V71.6745H36.4995V71.6745C36.4995 70.9989 36.2311 70.3509 35.7533 69.8731C35.2756 69.3953 34.6276 69.1269 33.9519 69.1269Z" fill="#2F2E41"/>
<path d="M39.8852 68.3881C40.0441 68.2576 40.1438 68.0687 40.1618 67.864L42.6008 41.0343C42.6199 40.8238 42.5517 40.6147 42.4122 40.456C42.2726 40.2973 42.074 40.2029 41.8628 40.195L29.6304 39.7363C29.4164 39.7283 29.2088 39.8098 29.0573 39.9611C28.9058 40.1125 28.8242 40.3201 28.832 40.5341L29.8098 67.2607C29.8246 67.6476 30.124 67.9636 30.5096 67.9993L32.9761 68.2236C33.1827 68.2424 33.3882 68.177 33.5459 68.0423C33.7037 67.9075 33.8004 67.7149 33.8142 67.5078L34.9461 50.5288C34.9477 50.4629 34.9757 50.4004 35.0239 50.3554C35.072 50.3104 35.1362 50.2866 35.2021 50.2893H35.2031C35.2692 50.2868 35.3336 50.3109 35.3816 50.3564C35.4297 50.4018 35.4574 50.4647 35.4585 50.5308L36.4715 67.6243C36.4924 68.0025 36.7865 68.3087 37.1636 68.3449L39.3182 68.5605C39.5227 68.5815 39.7271 68.5194 39.8852 68.3881H39.8852Z" fill="#2F2E41"/>
<circle r="4.20314" transform="matrix(-1 0 0 1 35.1802 9.47114)" fill="#FFB8B8"/>
<path d="M43.274 41.2159C43.4255 41.0438 43.4917 40.8126 43.4541 40.5864C42.6782 35.8698 43.1155 28.9368 43.6191 23.9513C43.8866 21.2596 42.6963 18.6299 40.4975 17.0545L38.3024 15.173C38.1565 15.0494 37.9703 14.9835 37.7792 14.9879L32.3259 15.1436C32.1293 15.149 31.9422 15.2297 31.8034 15.3691L30.9607 17.2351L30.952 17.2415C28.9124 18.7407 27.761 21.1632 27.8862 23.6915L28.6889 40.2802C28.7102 40.68 29.0328 40.9976 29.4328 41.0127L42.6693 41.4778C42.6779 41.478 42.6863 41.4782 42.6949 41.4782C42.9167 41.4785 43.1279 41.3829 43.274 41.2159V41.2159Z" fill="#922F76"/>
<path d="M60.4588 17.3414C60.1269 16.9103 59.6211 16.6483 59.0775 16.626C58.5339 16.6037 58.0083 16.8234 57.6422 17.2258L49.3359 17.8088L50.0564 21.7413L57.851 19.925C58.584 20.508 59.6371 20.4507 60.3025 19.7915C60.9678 19.1323 61.035 18.0797 60.4588 17.3414L60.4588 17.3414Z" fill="#FFB8B8"/>
<path d="M58.3071 21.0346C58.4341 20.8745 58.4918 20.6703 58.4674 20.4674L57.9466 16.0486C57.8963 15.6265 57.5139 15.3247 57.0916 15.3738L37.8868 17.6372C36.2442 17.8308 35.0695 19.3193 35.2631 20.9619C35.4567 22.6046 36.9453 23.7792 38.5879 23.5856L57.7927 21.3223C57.955 21.3036 58.1071 21.2334 58.2266 21.122C58.2556 21.0949 58.2825 21.0657 58.3071 21.0346Z" fill="#B03D90"/>
<path d="M34.9646 13.2128C34.4072 12.5294 34.4683 11.4884 34.9156 10.7284C35.363 9.96833 36.1224 9.44489 36.9038 9.03604C37.6853 8.6272 38.5154 8.30569 39.2508 7.81887C39.9862 7.33206 39.9541 5.27118 40.1499 4.41127L39.6829 4.56683C39.8624 4.3372 39.92 3.65868 40.0994 3.42906C39.5717 3.4812 39.166 3.98223 38.6382 4.03437L38.9428 3.21698C37.1332 3.10541 36.0081 4.36289 34.1985 4.25132C33.3019 4.19605 32.3282 4.16107 31.5911 4.67455C30.9506 5.12076 30.6264 5.89305 30.4137 6.6441C29.9569 8.2567 29.8859 10.0631 30.6748 11.5418C31.4638 13.0206 33.2823 14.017 34.871 13.483L34.9646 13.2128Z" fill="#2F2E41"/>
</svg>
